  0
SECTION
  2
HEADER
  9
$ACADVER
  1
AC1009
  9
$EXTMIN
 10
0.0
 20
0.0
 30
0.0
  9
$EXTMAX
 10
1000.0
 20
1000.0
 30
0.0
  9
$FILLMODE
 70
 0
  9
$SPLFRAME
 70
 1
  0
ENDSEC
  0
SECTION
  2
TABLES
  0
TABLE
  2
LAYER
 70
9
  0
LAYER
  2
0
 70
     0
 62
     7
  6
CONTINUOUS
  0
LAYER
  2
C00-00-00-BLACK
 70
0
 62
7
  6
CONTINUOUS
  0
LAYER
  2
CFF-FF-FF-WHITE
 70
0
 62
7
  6
CONTINUOUS
  0
LAYER
  2
CFB-CA-99
 70
0
 62
31
  6
CONTINUOUS
  0
LAYER
  2
CFD-E2-93
 70
0
 62
41
  6
CONTINUOUS
  0
LAYER
  2
CEB-F4-A7
 70
0
 62
61
  6
CONTINUOUS
  0
LAYER
  2
CE6-F2-9A
 70
0
 62
61
  6
CONTINUOUS
  0
LAYER
  2
CDB-BA-AF
 70
0
 62
254
  6
CONTINUOUS
  0
ENDTAB
  0
ENDSEC
  0
SECTION
  2
ENTITIES
  0
POLYLINE
  8
CE6-F2-9A
 66
     1
 10
0
 20
0
 30
0.0
 70
     1
 40
0
 41
0
  0
VERTEX
  8
CE6-F2-9A
 10
190.032
 20
222.167
 30
0.0
 40
0
 41
0
  0
VERTEX
  8
CE6-F2-9A
 10
189.925
 20
222.167
 30
0.0
 40
0
 41
0
  0
VERTEX
  8
CE6-F2-9A
 10
189.392
 20
222.22
 30
0.0
 40
0
 41
0
  0
VERTEX
  8
CE6-F2-9A
 10
188.594
 20
222.379
 30
0.0
 40
0
 41
0
  0
VERTEX
  8
CE6-F2-9A
 10
188.061
 20
222.379
 30
0.0
 40
0
 41
0
  0
VERTEX
  8
CE6-F2-9A
 10
187.955
 20
222.433
 30
0.0
 40
0
 41
0
  0
VERTEX
  8
CE6-F2-9A
 10
187.689
 20
222.433
 30
0.0
 40
0
 41
0
  0
VERTEX
  8
CE6-F2-9A
 10
186.836
 20
222.487
 30
0.0
 40
0
 41
0
  0
VERTEX
  8
CE6-F2-9A
 10
186.73
 20
222.539
 30
0.0
 40
0
 41
0
  0
VERTEX
  8
CE6-F2-9A
 10
185.878
 20
222.593
 30
0.0
 40
0
 41
0
  0
VERTEX
  8
CE6-F2-9A
 10
185.772
 20
222.647
 30
0.0
 40
0
 41
0
  0
VERTEX
  8
CE6-F2-9A
 10
185.24
 20
222.647
 30
0.0
 40
0
 41
0
  0
VERTEX
  8
CE6-F2-9A
 10
184.599
 20
222.699
 30
0.0
 40
0
 41
0
  0
VERTEX
  8
CE6-F2-9A
 10
183.588
 20
222.753
 30
0.0
 40
0
 41
0
  0
VERTEX
  8
CE6-F2-9A
 10
182.896
 20
222.805
 30
0.0
 40
0
 41
0
  0
VERTEX
  8
CE6-F2-9A
 10
182.736
 20
222.859
 30
0.0
 40
0
 41
0
  0
VERTEX
  8
CE6-F2-9A
 10
182.469
 20
222.859
 30
0.0
 40
0
 41
0
  0
VERTEX
  8
CE6-F2-9A
 10
181.617
 20
222.913
 30
0.0
 40
0
 41
0
  0
VERTEX
  8
CE6-F2-9A
 10
181.031
 20
222.913
 30
0.0
 40
0
 41
0
  0
VERTEX
  8
CE6-F2-9A
 10
180.606
 20
222.966
 30
0.0
 40
0
 41
0
  0
VERTEX
  8
CE6-F2-9A
 10
180.338
 20
222.966
 30
0.0
 40
0
 41
0
  0
VERTEX
  8
CE6-F2-9A
 10
180.18
 20
223.019
 30
0.0
 40
0
 41
0
  0
VERTEX
  8
CE6-F2-9A
 10
179.487
 20
223.073
 30
0.0
 40
0
 41
0
  0
VERTEX
  8
CE6-F2-9A
 10
179.434
 20
223.019
 30
0.0
 40
0
 41
0
  0
VERTEX
  8
CE6-F2-9A
 10
179.38
 20
223.019
 30
0.0
 40
0
 41
0
  0
VERTEX
  8
CE6-F2-9A
 10
179.328
 20
222.966
 30
0.0
 40
0
 41
0
  0
VERTEX
  8
CE6-F2-9A
 10
178.689
 20
223.231
 30
0.0
 40
0
 41
0
  0
VERTEX
  8
CE6-F2-9A
 10
178.529
 20
223.073
 30
0.0
 40
0
 41
0
  0
VERTEX
  8
CE6-F2-9A
 10
178.209
 20
222.753
 30
0.0
 40
0
 41
0
  0
VERTEX
  8
CE6-F2-9A
 10
177.89
 20
222.487
 30
0.0
 40
0
 41
0
  0
VERTEX
  8
CE6-F2-9A
 10
177.57
 20
222.273
 30
0.0
 40
0
 41
0
  0
VERTEX
  8
CE6-F2-9A
 10
177.358
 20
222.113
 30
0.0
 40
0
 41
0
  0
VERTEX
  8
CE6-F2-9A
 10
176.824
 20
221.316
 30
0.0
 40
0
 41
0
  0
VERTEX
  8
CE6-F2-9A
 10
176.293
 20
220.676
 30
0.0
 40
0
 41
0
  0
VERTEX
  8
CE6-F2-9A
 10
175.813
 20
220.037
 30
0.0
 40
0
 41
0
  0
VERTEX
  8
CE6-F2-9A
 10
175.44
 20
219.451
 30
0.0
 40
0
 41
0
  0
VERTEX
  8
CE6-F2-9A
 10
174.694
 20
218.706
 30
0.0
 40
0
 41
0
  0
VERTEX
  8
CE6-F2-9A
 10
174.374
 20
218.44
 30
0.0
 40
0
 41
0
  0
VERTEX
  8
CE6-F2-9A
 10
174.322
 20
218.333
 30
0.0
 40
0
 41
0
  0
VERTEX
  8
CE6-F2-9A
 10
174.216
 20
218.28
 30
0.0
 40
0
 41
0
  0
VERTEX
  8
CE6-F2-9A
 10
174.162
 20
218.174
 30
0.0
 40
0
 41
0
  0
VERTEX
  8
CE6-F2-9A
 10
174.108
 20
218.174
 30
0.0
 40
0
 41
0
  0
VERTEX
  8
CE6-F2-9A
 10
174.056
 20
218.066
 30
0.0
 40
0
 41
0
  0
VERTEX
  8
CE6-F2-9A
 10
173.948
 20
217.96
 30
0.0
 40
0
 41
0
  0
VERTEX
  8
CE6-F2-9A
 10
173.816
 20
217.839
 30
0.0
 40
0
 41
0
  0
VERTEX
  8
CE6-F2-9A
 10
172.628
 20
216.499
 30
0.0
 40
0
 41
0
  0
VERTEX
  8
CE6-F2-9A
 10
172.511
 20
216.363
 30
0.0
 40
0
 41
0
  0
VERTEX
  8
CE6-F2-9A
 10
172.297
 20
216.149
 30
0.0
 40
0
 41
0
  0
VERTEX
  8
CE6-F2-9A
 10
172.138
 20
215.937
 30
0.0
 40
0
 41
0
  0
VERTEX
  8
CE6-F2-9A
 10
172.033
 20
215.777
 30
0.0
 40
0
 41
0
  0
VERTEX
  8
CE6-F2-9A
 10
171.712
 20
215.511
 30
0.0
 40
0
 41
0
  0
VERTEX
  8
CE6-F2-9A
 10
170.966
 20
214.766
 30
0.0
 40
0
 41
0
  0
VERTEX
  8
CE6-F2-9A
 10
170.488
 20
214.339
 30
0.0
 40
0
 41
0
  0
VERTEX
  8
CE6-F2-9A
 10
170.167
 20
214.18
 30
0.0
 40
0
 41
0
  0
VERTEX
  8
CE6-F2-9A
 10
170.167
 20
214.127
 30
0.0
 40
0
 41
0
  0
VERTEX
  8
CE6-F2-9A
 10
170.009
 20
214.073
 30
0.0
 40
0
 41
0
  0
VERTEX
  8
CE6-F2-9A
 10
169.847
 20
213.967
 30
0.0
 40
0
 41
0
  0
VERTEX
  8
CE6-F2-9A
 10
169.635
 20
213.753
 30
0.0
 40
0
 41
0
  0
VERTEX
  8
CE6-F2-9A
 10
169.422
 20
213.701
 30
0.0
 40
0
 41
0
  0
VERTEX
  8
CE6-F2-9A
 10
169.263
 20
213.541
 30
0.0
 40
0
 41
0
  0
VERTEX
  8
CE6-F2-9A
 10
169.103
 20
213.487
 30
0.0
 40
0
 41
0
  0
VERTEX
  8
CE6-F2-9A
 10
168.996
 20
213.381
 30
0.0
 40
0
 41
0
  0
VERTEX
  8
CE6-F2-9A
 10
168.89
 20
213.381
 30
0.0
 40
0
 41
0
  0
VERTEX
  8
CE6-F2-9A
 10
168.57
 20
213.061
 30
0.0
 40
0
 41
0
  0
VERTEX
  8
CE6-F2-9A
 10
168.513
 20
212.955
 30
0.0
 40
0
 41
0
  0
VERTEX
  8
CE6-F2-9A
 10
168.464
 20
212.901
 30
0.0
 40
0
 41
0
  0
VERTEX
  8
CE6-F2-9A
 10
168.355
 20
212.849
 30
0.0
 40
0
 41
0
  0
VERTEX
  8
CE6-F2-9A
 10
168.247
 20
212.635
 30
0.0
 40
0
 41
0
  0
VERTEX
  8
CE6-F2-9A
 10
168.195
 20
212.582
 30
0.0
 40
0
 41
0
  0
VERTEX
  8
CE6-F2-9A
 10
167.928
 20
212.422
 30
0.0
 40
0
 41
0
  0
VERTEX
  8
CE6-F2-9A
 10
167.822
 20
212.262
 30
0.0
 40
0
 41
0
  0
VERTEX
  8
CE6-F2-9A
 10
167.715
 20
212.21
 30
0.0
 40
0
 41
0
  0
VERTEX
  8
CE6-F2-9A
 10
167.556
 20
212.05
 30
0.0
 40
0
 41
0
  0
VERTEX
  8
CE6-F2-9A
 10
167.29
 20
211.89
 30
0.0
 40
0
 41
0
  0
VERTEX
  8
CE6-F2-9A
 10
167.182
 20
211.784
 30
0.0
 40
0
 41
0
  0
VERTEX
  8
CE6-F2-9A
 10
167.076
 20
211.73
 30
0.0
 40
0
 41
0
  0
VERTEX
  8
CE6-F2-9A
 10
166.97
 20
211.624
 30
0.0
 40
0
 41
0
  0
VERTEX
  8
CE6-F2-9A
 10
166.81
 20
211.57
 30
0.0
 40
0
 41
0
  0
VERTEX
  8
CE6-F2-9A
 10
166.49
 20
211.41
 30
0.0
 40
0
 41
0
  0
VERTEX
  8
CE6-F2-9A
 10
166.278
 20
211.198
 30
0.0
 40
0
 41
0
  0
VERTEX
  8
CE6-F2-9A
 10
166.171
 20
211.145
 30
0.0
 40
0
 41
0
  0
VERTEX
  8
CE6-F2-9A
 10
166.117
 20
211.091
 30
0.0
 40
0
 41
0
  0
VERTEX
  8
CE6-F2-9A
 10
166.117
 20
211.038
 30
0.0
 40
0
 41
0
  0
VERTEX
  8
CE6-F2-9A
 10
165.959
 20
210.931
 30
0.0
 40
0
 41
0
  0
VERTEX
  8
CE6-F2-9A
 10
165.905
 20
210.879
 30
0.0
 40
0
 41
0
  0
VERTEX
  8
CE6-F2-9A
 10
165.799
 20
210.879
 30
0.0
 40
0
 41
0
  0
VERTEX
  8
CE6-F2-9A
 10
165.265
 20
211.038
 30
0.0
 40
0
 41
0
  0
VERTEX
  8
CE6-F2-9A
 10
165.053
 20
211.091
 30
0.0
 40
0
 41
0
  0
VERTEX
  8
CE6-F2-9A
 10
164.574
 20
211.198
 30
0.0
 40
0
 41
0
  0
VERTEX
  8
CE6-F2-9A
 10
163.828
 20
211.57
 30
0.0
 40
0
 41
0
  0
VERTEX
  8
CE6-F2-9A
 10
163.348
 20
211.73
 30
0.0
 40
0
 41
0
  0
VERTEX
  8
CE6-F2-9A
 10
163.295
 20
211.784
 30
0.0
 40
0
 41
0
  0
VERTEX
  8
CE6-F2-9A
 10
163.029
 20
211.89
 30
0.0
 40
0
 41
0
  0
VERTEX
  8
CE6-F2-9A
 10
162.869
 20
211.358
 30
0.0
 40
0
 41
0
  0
VERTEX
  8
CE6-F2-9A
 10
162.549
 20
211.464
 30
0.0
 40
0
 41
0
  0
VERTEX
  8
CE6-F2-9A
 10
162.336
 20
211.516
 30
0.0
 40
0
 41
0
  0
VERTEX
  8
CE6-F2-9A
 10
161.697
 20
211.784
 30
0.0
 40
0
 41
0
  0
VERTEX
  8
CE6-F2-9A
 10
161.432
 20
211.836
 30
0.0
 40
0
 41
0
  0
VERTEX
  8
CE6-F2-9A
 10
160.952
 20
211.996
 30
0.0
 40
0
 41
0
  0
VERTEX
  8
CE6-F2-9A
 10
160.685
 20
212.05
 30
0.0
 40
0
 41
0
  0
VERTEX
  8
CE6-F2-9A
 10
160.473
 20
212.103
 30
0.0
 40
0
 41
0
  0
VERTEX
  8
CE6-F2-9A
 10
160.419
 20
212.157
 30
0.0
 40
0
 41
0
  0
VERTEX
  8
CE6-F2-9A
 10
160.259
 20
212.157
 30
0.0
 40
0
 41
0
  0
VERTEX
  8
CE6-F2-9A
 10
159.621
 20
212.369
 30
0.0
 40
0
 41
0
  0
VERTEX
  8
CE6-F2-9A
 10
159.141
 20
212.476
 30
0.0
 40
0
 41
0
  0
VERTEX
  8
CE6-F2-9A
 10
159.088
 20
212.529
 30
0.0
 40
0
 41
0
  0
VERTEX
  8
CE6-F2-9A
 10
158.29
 20
212.742
 30
0.0
 40
0
 41
0
  0
VERTEX
  8
CE6-F2-9A
 10
158.023
 20
212.795
 30
0.0
 40
0
 41
0
  0
VERTEX
  8
CE6-F2-9A
 10
157.596
 20
212.955
 30
0.0
 40
0
 41
0
  0
VERTEX
  8
CE6-F2-9A
 10
157.011
 20
213.167
 30
0.0
 40
0
 41
0
  0
VERTEX
  8
CE6-F2-9A
 10
156.905
 20
213.221
 30
0.0
 40
0
 41
0
  0
VERTEX
  8
CE6-F2-9A
 10
156.497
 20
213.338
 30
0.0
 40
0
 41
0
  0
VERTEX
  8
CE6-F2-9A
 10
152.505
 20
214.722
 30
0.0
 40
0
 41
0
  0
VERTEX
  8
CE6-F2-9A
 10
152.111
 20
214.872
 30
0.0
 40
0
 41
0
  0
VERTEX
  8
CE6-F2-9A
 10
151.579
 20
215.032
 30
0.0
 40
0
 41
0
  0
VERTEX
  8
CE6-F2-9A
 10
151.419
 20
215.084
 30
0.0
 40
0
 41
0
  0
VERTEX
  8
CE6-F2-9A
 10
151.419
 20
214.978
 30
0.0
 40
0
 41
0
  0
VERTEX
  8
CE6-F2-9A
 10
151.313
 20
213.967
 30
0.0
 40
0
 41
0
  0
VERTEX
  8
CE6-F2-9A
 10
151.237
 20
213.037
 30
0.0
 40
0
 41
0
  0
VERTEX
  8
CE6-F2-9A
 10
150.322
 20
203.766
 30
0.0
 40
0
 41
0
  0
VERTEX
  8
CE6-F2-9A
 10
150.247
 20
202.838
 30
0.0
 40
0
 41
0
  0
VERTEX
  8
CE6-F2-9A
 10
150.194
 20
202.678
 30
0.0
 40
0
 41
0
  0
VERTEX
  8
CE6-F2-9A
 10
150.194
 20
202.572
 30
0.0
 40
0
 41
0
  0
VERTEX
  8
CE6-F2-9A
 10
150.142
 20
202.092
 30
0.0
 40
0
 41
0
  0
VERTEX
  8
CE6-F2-9A
 10
150.088
 20
201.666
 30
0.0
 40
0
 41
0
  0
VERTEX
  8
CE6-F2-9A
 10
150.086
 20
201.427
 30
0.0
 40
0
 41
0
  0
VERTEX
  8
CE6-F2-9A
 10
149.938
 20
200.23
 30
0.0
 40
0
 41
0
  0
VERTEX
  8
CE6-F2-9A
 10
149.811
 20
199.033
 30
0.0
 40
0
 41
0
  0
VERTEX
  8
CE6-F2-9A
 10
149.822
 20
198.79
 30
0.0
 40
0
 41
0
  0
VERTEX
  8
CE6-F2-9A
 10
149.768
 20
198.152
 30
0.0
 40
0
 41
0
  0
VERTEX
  8
CE6-F2-9A
 10
149.768
 20
198.098
 30
0.0
 40
0
 41
0
  0
VERTEX
  8
CE6-F2-9A
 10
149.714
 20
197.991
 30
0.0
 40
0
 41
0
  0
VERTEX
  8
CE6-F2-9A
 10
149.608
 20
196.447
 30
0.0
 40
0
 41
0
  0
VERTEX
  8
CE6-F2-9A
 10
149.556
 20
196.076
 30
0.0
 40
0
 41
0
  0
VERTEX
  8
CE6-F2-9A
 10
149.448
 20
195.116
 30
0.0
 40
0
 41
0
  0
VERTEX
  8
CE6-F2-9A
 10
149.448
 20
195.063
 30
0.0
 40
0
 41
0
  0
VERTEX
  8
CE6-F2-9A
 10
149.394
 20
194.744
 30
0.0
 40
0
 41
0
  0
VERTEX
  8
CE6-F2-9A
 10
149.288
 20
193.359
 30
0.0
 40
0
 41
0
  0
VERTEX
  8
CE6-F2-9A
 10
149.342
 20
192.454
 30
0.0
 40
0
 41
0
  0
VERTEX
  8
CE6-F2-9A
 10
149.342
 20
192.348
 30
0.0
 40
0
 41
0
  0
VERTEX
  8
CE6-F2-9A
 10
149.342
 20
192.194
 30
0.0
 40
0
 41
0
  0
VERTEX
  8
CE6-F2-9A
 10
149.37
 20
191.21
 30
0.0
 40
0
 41
0
  0
VERTEX
  8
CE6-F2-9A
 10
149.43
 20
190.217
 30
0.0
 40
0
 41
0
  0
VERTEX
  8
CE6-F2-9A
 10
149.448
 20
190.058
 30
0.0
 40
0
 41
0
  0
VERTEX
  8
CE6-F2-9A
 10
149.448
 20
188.832
 30
0.0
 40
0
 41
0
  0
VERTEX
  8
CE6-F2-9A
 10
149.394
 20
188.62
 30
0.0
 40
0
 41
0
  0
VERTEX
  8
CE6-F2-9A
 10
149.448
 20
188.247
 30
0.0
 40
0
 41
0
  0
VERTEX
  8
CE6-F2-9A
 10
149.394
 20
187.875
 30
0.0
 40
0
 41
0
  0
VERTEX
  8
CE6-F2-9A
 10
149.394
 20
187.767
 30
0.0
 40
0
 41
0
  0
VERTEX
  8
CE6-F2-9A
 10
149.235
 20
187.342
 30
0.0
 40
0
 41
0
  0
VERTEX
  8
CE6-F2-9A
 10
149.235
 20
187.289
 30
0.0
 40
0
 41
0
  0
VERTEX
  8
CE6-F2-9A
 10
148.915
 20
187.129
 30
0.0
 40
0
 41
0
  0
VERTEX
  8
CE6-F2-9A
 10
148.863
 20
187.076
 30
0.0
 40
0
 41
0
  0
VERTEX
  8
CE6-F2-9A
 10
148.011
 20
186.618
 30
0.0
 40
0
 41
0
  0
VERTEX
  8
CE6-F2-9A
 10
139.291
 20
182.184
 30
0.0
 40
0
 41
0
  0
VERTEX
  8
CE6-F2-9A
 10
138.424
 20
181.751
 30
0.0
 40
0
 41
0
  0
VERTEX
  8
CE6-F2-9A
 10
138.37
 20
181.697
 30
0.0
 40
0
 41
0
  0
VERTEX
  8
CE6-F2-9A
 10
136.613
 20
180.846
 30
0.0
 40
0
 41
0
  0
VERTEX
  8
CE6-F2-9A
 10
135.974
 20
180.526
 30
0.0
 40
0
 41
0
  0
VERTEX
  8
CE6-F2-9A
 10
135.282
 20
180.207
 30
0.0
 40
0
 41
0
  0
VERTEX
  8
CE6-F2-9A
 10
134.909
 20
179.94
 30
0.0
 40
0
 41
0
  0
VERTEX
  8
CE6-F2-9A
 10
134.269
 20
179.674
 30
0.0
 40
0
 41
0
  0
VERTEX
  8
CE6-F2-9A
 10
133.79
 20
179.461
 30
0.0
 40
0
 41
0
  0
VERTEX
  8
CE6-F2-9A
 10
133.683
 20
179.408
 30
0.0
 40
0
 41
0
  0
VERTEX
  8
CE6-F2-9A
 10
133.63
 20
179.354
 30
0.0
 40
0
 41
0
  0
VERTEX
  8
CE6-F2-9A
 10
133.63
 20
179.248
 30
0.0
 40
0
 41
0
  0
VERTEX
  8
CE6-F2-9A
 10
133.31
 20
179.035
 30
0.0
 40
0
 41
0
  0
VERTEX
  8
CE6-F2-9A
 10
132.938
 20
178.769
 30
0.0
 40
0
 41
0
  0
VERTEX
  8
CE6-F2-9A
 10
132.566
 20
178.609
 30
0.0
 40
0
 41
0
  0
VERTEX
  8
CE6-F2-9A
 10
131.873
 20
178.395
 30
0.0
 40
0
 41
0
  0
VERTEX
  8
CE6-F2-9A
 10
131.659
 20
178.395
 30
0.0
 40
0
 41
0
  0
VERTEX
  8
CE6-F2-9A
 10
129.689
 20
178.129
 30
0.0
 40
0
 41
0
  0
VERTEX
  8
CE6-F2-9A
 10
128.517
 20
177.969
 30
0.0
 40
0
 41
0
  0
VERTEX
  8
CE6-F2-9A
 10
127.24
 20
177.969
 30
0.0
 40
0
 41
0
  0
VERTEX
  8
CE6-F2-9A
 10
126.706
 20
177.917
 30
0.0
 40
0
 41
0
  0
VERTEX
  8
CE6-F2-9A
 10
125.587
 20
177.917
 30
0.0
 40
0
 41
0
  0
VERTEX
  8
CE6-F2-9A
 10
125.428
 20
177.863
 30
0.0
 40
0
 41
0
  0
VERTEX
  8
CE6-F2-9A
 10
124.842
 20
177.917
 30
0.0
 40
0
 41
0
  0
VERTEX
  8
CE6-F2-9A
 10
124.576
 20
177.917
 30
0.0
 40
0
 41
0
  0
VERTEX
  8
CE6-F2-9A
 10
124.416
 20
177.969
 30
0.0
 40
0
 41
0
  0
VERTEX
  8
CE6-F2-9A
 10
124.202
 20
178.077
 30
0.0
 40
0
 41
0
  0
VERTEX
  8
CE6-F2-9A
 10
124.309
 20
178.289
 30
0.0
 40
0
 41
0
  0
VERTEX
  8
CE6-F2-9A
 10
124.576
 20
178.875
 30
0.0
 40
0
 41
0
  0
VERTEX
  8
CE6-F2-9A
 10
124.628
 20
178.929
 30
0.0
 40
0
 41
0
  0
VERTEX
  8
CE6-F2-9A
 10
124.628
 20
178.983
 30
0.0
 40
0
 41
0
  0
VERTEX
  8
CE6-F2-9A
 10
124.682
 20
179.088
 30
0.0
 40
0
 41
0
  0
VERTEX
  8
CE6-F2-9A
 10
125.108
 20
179.888
 30
0.0
 40
0
 41
0
  0
VERTEX
  8
CE6-F2-9A
 10
125.002
 20
181.485
 30
0.0
 40
0
 41
0
  0
VERTEX
  8
CE6-F2-9A
 10
124.736
 20
181.857
 30
0.0
 40
0
 41
0
  0
VERTEX
  8
CE6-F2-9A
 10
124.522
 20
182.177
 30
0.0
 40
0
 41
0
  0
VERTEX
  8
CE6-F2-9A
 10
124.149
 20
182.497
 30
0.0
 40
0
 41
0
  0
VERTEX
  8
CE6-F2-9A
 10
124.043
 20
182.549
 30
0.0
 40
0
 41
0
  0
VERTEX
  8
CE6-F2-9A
 10
123.405
 20
182.39
 30
0.0
 40
0
 41
0
  0
VERTEX
  8
CE6-F2-9A
 10
123.139
 20
182.602
 30
0.0
 40
0
 41
0
  0
VERTEX
  8
CE6-F2-9A
 10
122.712
 20
182.868
 30
0.0
 40
0
 41
0
  0
VERTEX
  8
CE6-F2-9A
 10
122.392
 20
183.402
 30
0.0
 40
0
 41
0
  0
VERTEX
  8
CE6-F2-9A
 10
122.126
 20
183.775
 30
0.0
 40
0
 41
0
  0
VERTEX
  8
CE6-F2-9A
 10
122.02
 20
183.934
 30
0.0
 40
0
 41
0
  0
VERTEX
  8
CE6-F2-9A
 10
121.38
 20
184.947
 30
0.0
 40
0
 41
0
  0
VERTEX
  8
CE6-F2-9A
 10
120.367
 20
185.531
 30
0.0
 40
0
 41
0
  0
VERTEX
  8
CE6-F2-9A
 10
119.464
 20
185.691
 30
0.0
 40
0
 41
0
  0
VERTEX
  8
CE6-F2-9A
 10
119.399
 20
185.706
 30
0.0
 40
0
 41
0
  0
VERTEX
  8
CE6-F2-9A
 10
119.202
 20
185.739
 30
0.0
 40
0
 41
0
  0
VERTEX
  8
CE6-F2-9A
 10
119.061
 20
185.746
 30
0.0
 40
0
 41
0
  0
VERTEX
  8
CE6-F2-9A
 10
118.908
 20
185.765
 30
0.0
 40
0
 41
0
  0
VERTEX
  8
CE6-F2-9A
 10
118.684
 20
185.827
 30
0.0
 40
0
 41
0
  0
VERTEX
  8
CE6-F2-9A
 10
118.611
 20
185.85
 30
0.0
 40
0
 41
0
  0
VERTEX
  8
CE6-F2-9A
 10
118.025
 20
186.064
 30
0.0
 40
0
 41
0
  0
VERTEX
  8
CE6-F2-9A
 10
117.545
 20
186.544
 30
0.0
 40
0
 41
0
  0
VERTEX
  8
CE6-F2-9A
 10
116.8
 20
186.65
 30
0.0
 40
0
 41
0
  0
VERTEX
  8
CE6-F2-9A
 10
116.214
 20
187.555
 30
0.0
 40
0
 41
0
  0
VERTEX
  8
CE6-F2-9A
 10
115.522
 20
188.567
 30
0.0
 40
0
 41
0
  0
VERTEX
  8
CE6-F2-9A
 10
115.469
 20
189.844
 30
0.0
 40
0
 41
0
  0
VERTEX
  8
CE6-F2-9A
 10
115.469
 20
190.857
 30
0.0
 40
0
 41
0
  0
VERTEX
  8
CE6-F2-9A
 10
115.095
 20
192.134
 30
0.0
 40
0
 41
0
  0
VERTEX
  8
CE6-F2-9A
 10
114.989
 20
192.294
 30
0.0
 40
0
 41
0
  0
VERTEX
  8
CE6-F2-9A
 10
114.723
 20
192.933
 30
0.0
 40
0
 41
0
  0
VERTEX
  8
CE6-F2-9A
 10
114.137
 20
194.317
 30
0.0
 40
0
 41
0
  0
VERTEX
  8
CE6-F2-9A
 10
114.084
 20
194.371
 30
0.0
 40
0
 41
0
  0
VERTEX
  8
CE6-F2-9A
 10
114.084
 20
194.584
 30
0.0
 40
0
 41
0
  0
VERTEX
  8
CE6-F2-9A
 10
113.924
 20
195.382
 30
0.0
 40
0
 41
0
  0
VERTEX
  8
CE6-F2-9A
 10
113.658
 20
196.447
 30
0.0
 40
0
 41
0
  0
VERTEX
  8
CE6-F2-9A
 10
113.658
 20
196.501
 30
0.0
 40
0
 41
0
  0
VERTEX
  8
CE6-F2-9A
 10
113.55
 20
196.767
 30
0.0
 40
0
 41
0
  0
VERTEX
  8
CE6-F2-9A
 10
113.498
 20
196.927
 30
0.0
 40
0
 41
0
  0
VERTEX
  8
CE6-F2-9A
 10
113.178
 20
197.619
 30
0.0
 40
0
 41
0
  0
VERTEX
  8
CE6-F2-9A
 10
112.699
 20
199.216
 30
0.0
 40
0
 41
0
  0
VERTEX
  8
CE6-F2-9A
 10
112.645
 20
199.482
 30
0.0
 40
0
 41
0
  0
VERTEX
  8
CE6-F2-9A
 10
112.645
 20
199.802
 30
0.0
 40
0
 41
0
  0
VERTEX
  8
CE6-F2-9A
 10
112.752
 20
200.229
 30
0.0
 40
0
 41
0
  0
VERTEX
  8
CE6-F2-9A
 10
112.859
 20
200.974
 30
0.0
 40
0
 41
0
  0
VERTEX
  8
CE6-F2-9A
 10
112.966
 20
201.24
 30
0.0
 40
0
 41
0
  0
VERTEX
  8
CE6-F2-9A
 10
113.072
 20
201.454
 30
0.0
 40
0
 41
0
  0
VERTEX
  8
CE6-F2-9A
 10
112.912
 20
201.454
 30
0.0
 40
0
 41
0
  0
VERTEX
  8
CE6-F2-9A
 10
112.433
 20
201.506
 30
0.0
 40
0
 41
0
  0
VERTEX
  8
CE6-F2-9A
 10
112.273
 20
201.56
 30
0.0
 40
0
 41
0
  0
VERTEX
  8
CE6-F2-9A
 10
111.846
 20
201.56
 30
0.0
 40
0
 41
0
  0
VERTEX
  8
CE6-F2-9A
 10
111.74
 20
201.613
 30
0.0
 40
0
 41
0
  0
VERTEX
  8
CE6-F2-9A
 10
111.687
 20
201.666
 30
0.0
 40
0
 41
0
  0
VERTEX
  8
CE6-F2-9A
 10
111.528
 20
201.879
 30
0.0
 40
0
 41
0
  0
VERTEX
  8
CE6-F2-9A
 10
111.421
 20
201.932
 30
0.0
 40
0
 41
0
  0
VERTEX
  8
CE6-F2-9A
 10
111.314
 20
201.986
 30
0.0
 40
0
 41
0
  0
VERTEX
  8
CE6-F2-9A
 10
111.262
 20
202.038
 30
0.0
 40
0
 41
0
  0
VERTEX
  8
CE6-F2-9A
 10
111.048
 20
202.144
 30
0.0
 40
0
 41
0
  0
VERTEX
  8
CE6-F2-9A
 10
110.836
 20
202.144
 30
0.0
 40
0
 41
0
  0
VERTEX
  8
CE6-F2-9A
 10
110.782
 20
202.092
 30
0.0
 40
0
 41
0
  0
VERTEX
  8
CE6-F2-9A
 10
110.515
 20
201.986
 30
0.0
 40
0
 41
0
  0
VERTEX
  8
CE6-F2-9A
 10
109.769
 20
201.506
 30
0.0
 40
0
 41
0
  0
VERTEX
  8
CE6-F2-9A
 10
109.237
 20
201.134
 30
0.0
 40
0
 41
0
  0
VERTEX
  8
CE6-F2-9A
 10
108.492
 20
200.921
 30
0.0
 40
0
 41
0
  0
VERTEX
  8
CE6-F2-9A
 10
108.332
 20
200.867
 30
0.0
 40
0
 41
0
  0
VERTEX
  8
CE6-F2-9A
 10
107.479
 20
200.655
 30
0.0
 40
0
 41
0
  0
VERTEX
  8
CE6-F2-9A
 10
107.001
 20
200.547
 30
0.0
 40
0
 41
0
  0
VERTEX
  8
CE6-F2-9A
 10
107.107
 20
200.813
 30
0.0
 40
0
 41
0
  0
VERTEX
  8
CE6-F2-9A
 10
107.053
 20
200.867
 30
0.0
 40
0
 41
0
  0
VERTEX
  8
CE6-F2-9A
 10
106.947
 20
201.081
 30
0.0
 40
0
 41
0
  0
VERTEX
  8
CE6-F2-9A
 10
105.882
 20
202.198
 30
0.0
 40
0
 41
0
  0
VERTEX
  8
CE6-F2-9A
 10
105.456
 20
202.732
 30
0.0
 40
0
 41
0
  0
VERTEX
  8
CE6-F2-9A
 10
105.402
 20
202.944
 30
0.0
 40
0
 41
0
  0
VERTEX
  8
CE6-F2-9A
 10
105.242
 20
203.263
 30
0.0
 40
0
 41
0
  0
VERTEX
  8
CE6-F2-9A
 10
104.763
 20
204.329
 30
0.0
 40
0
 41
0
  0
VERTEX
  8
CE6-F2-9A
 10
104.55
 20
204.861
 30
0.0
 40
0
 41
0
  0
VERTEX
  8
CE6-F2-9A
 10
104.39
 20
205.66
 30
0.0
 40
0
 41
0
  0
VERTEX
  8
CE6-F2-9A
 10
104.124
 20
206.512
 30
0.0
 40
0
 41
0
  0
VERTEX
  8
CE6-F2-9A
 10
102.739
 20
208.109
 30
0.0
 40
0
 41
0
  0
VERTEX
  8
CE6-F2-9A
 10
102.1
 20
208.854
 30
0.0
 40
0
 41
0
  0
VERTEX
  8
CE6-F2-9A
 10
101.834
 20
209.76
 30
0.0
 40
0
 41
0
  0
VERTEX
  8
CE6-F2-9A
 10
101.728
 20
209.919
 30
0.0
 40
0
 41
0
  0
VERTEX
  8
CE6-F2-9A
 10
101.515
 20
210.185
 30
0.0
 40
0
 41
0
  0
VERTEX
  8
CE6-F2-9A
 10
101.355
 20
210.559
 30
0.0
 40
0
 41
0
  0
VERTEX
  8
CE6-F2-9A
 10
99.756
 20
215.138
 30
0.0
 40
0
 41
0
  0
VERTEX
  8
CE6-F2-9A
 10
100.502
 20
216.683
 30
0.0
 40
0
 41
0
  0
VERTEX
  8
CE6-F2-9A
 10
100.821
 20
217.268
 30
0.0
 40
0
 41
0
  0
VERTEX
  8
CE6-F2-9A
 10
101.301
 20
218.174
 30
0.0
 40
0
 41
0
  0
VERTEX
  8
CE6-F2-9A
 10
101.355
 20
218.226
 30
0.0
 40
0
 41
0
  0
VERTEX
  8
CE6-F2-9A
 10
101.195
 20
218.386
 30
0.0
 40
0
 41
0
  0
VERTEX
  8
CE6-F2-9A
 10
101.035
 20
218.494
 30
0.0
 40
0
 41
0
  0
VERTEX
  8
CE6-F2-9A
 10
100.821
 20
218.706
 30
0.0
 40
0
 41
0
  0
VERTEX
  8
CE6-F2-9A
 10
100.715
 20
218.706
 30
0.0
 40
0
 41
0
  0
VERTEX
  8
CE6-F2-9A
 10
100.769
 20
218.865
 30
0.0
 40
0
 41
0
  0
VERTEX
  8
CE6-F2-9A
 10
99.8622
 20
219.345
 30
0.0
 40
0
 41
0
  0
VERTEX
  8
CE6-F2-9A
 10
99.81
 20
219.345
 30
0.0
 40
0
 41
0
  0
VERTEX
  8
CE6-F2-9A
 10
99.756
 20
219.717
 30
0.0
 40
0
 41
0
  0
VERTEX
  8
CE6-F2-9A
 10
98.9584
 20
220.303
 30
0.0
 40
0
 41
0
  0
VERTEX
  8
CE6-F2-9A
 10
98.3188
 20
220.73
 30
0.0
 40
0
 41
0
  0
VERTEX
  8
CE6-F2-9A
 10
98.3188
 20
220.782
 30
0.0
 40
0
 41
0
  0
VERTEX
  8
CE6-F2-9A
 10
98.3714
 20
220.889
 30
0.0
 40
0
 41
0
  0
VERTEX
  8
CE6-F2-9A
 10
95.7626
 20
228.078
 30
0.0
 40
0
 41
0
  0
VERTEX
  8
CE6-F2-9A
 10
95.1234
 20
229.888
 30
0.0
 40
0
 41
0
  0
VERTEX
  8
CE6-F2-9A
 10
95.0694
 20
230.101
 30
0.0
 40
0
 41
0
  0
VERTEX
  8
CE6-F2-9A
 10
95.0172
 20
230.261
 30
0.0
 40
0
 41
0
  0
VERTEX
  8
CE6-F2-9A
 10
94.9096
 20
230.474
 30
0.0
 40
0
 41
0
  0
VERTEX
  8
CE6-F2-9A
 10
94.8034
 20
230.634
 30
0.0
 40
0
 41
0
  0
VERTEX
  8
CE6-F2-9A
 10
94.7498
 20
230.794
 30
0.0
 40
0
 41
0
  0
VERTEX
  8
CE6-F2-9A
 10
94.681
 20
230.886
 30
0.0
 40
0
 41
0
  0
VERTEX
  8
CE6-F2-9A
 10
94.5226
 20
231.211
 30
0.0
 40
0
 41
0
  0
VERTEX
  8
CE6-F2-9A
 10
94.3462
 20
231.549
 30
0.0
 40
0
 41
0
  0
VERTEX
  8
CE6-F2-9A
 10
94.2703
 20
231.646
 30
0.0
 40
0
 41
0
  0
VERTEX
  8
CE6-F2-9A
 10
94.1656
 20
231.859
 30
0.0
 40
0
 41
0
  0
VERTEX
  8
CE6-F2-9A
 10
94.1116
 20
232.018
 30
0.0
 40
0
 41
0
  0
VERTEX
  8
CE6-F2-9A
 10
94.0043
 20
232.178
 30
0.0
 40
0
 41
0
  0
VERTEX
  8
CE6-F2-9A
 10
93.8982
 20
232.391
 30
0.0
 40
0
 41
0
  0
VERTEX
  8
CE6-F2-9A
 10
93.792
 20
232.497
 30
0.0
 40
0
 41
0
  0
VERTEX
  8
CE6-F2-9A
 10
93.7288
 20
232.577
 30
0.0
 40
0
 41
0
  0
VERTEX
  8
CE6-F2-9A
 10
93.0508
 20
233.321
 30
0.0
 40
0
 41
0
  0
VERTEX
  8
CE6-F2-9A
 10
92.9929
 20
233.402
 30
0.0
 40
0
 41
0
  0
VERTEX
  8
CE6-F2-9A
 10
92.8328
 20
233.562
 30
0.0
 40
0
 41
0
  0
VERTEX
  8
CE6-F2-9A
 10
92.7269
 20
233.722
 30
0.0
 40
0
 41
0
  0
VERTEX
  8
CE6-F2-9A
 10
92.6084
 20
233.826
 30
0.0
 40
0
 41
0
  0
VERTEX
  8
CE6-F2-9A
 10
92.2542
 20
234.225
 30
0.0
 40
0
 41
0
  0
VERTEX
  8
CE6-F2-9A
 10
91.9607
 20
234.594
 30
0.0
 40
0
 41
0
  0
VERTEX
  8
CE6-F2-9A
 10
91.8739
 20
234.681
 30
0.0
 40
0
 41
0
  0
VERTEX
  8
CE6-F2-9A
 10
91.6615
 20
234.894
 30
0.0
 40
0
 41
0
  0
VERTEX
  8
CE6-F2-9A
 10
91.5017
 20
235.106
 30
0.0
 40
0
 41
0
  0
VERTEX
  8
CE6-F2-9A
 10
91.2883
 20
235.373
 30
0.0
 40
0
 41
0
  0
VERTEX
  8
CE6-F2-9A
 10
91.1281
 20
235.585
 30
0.0
 40
0
 41
0
  0
VERTEX
  8
CE6-F2-9A
 10
91.0678
 20
235.695
 30
0.0
 40
0
 41
0
  0
VERTEX
  8
CE6-F2-9A
 10
90.4931
 20
236.806
 30
0.0
 40
0
 41
0
  0
VERTEX
  8
CE6-F2-9A
 10
90.4364
 20
236.918
 30
0.0
 40
0
 41
0
  0
VERTEX
  8
CE6-F2-9A
 10
90.3291
 20
237.13
 30
0.0
 40
0
 41
0
  0
VERTEX
  8
CE6-F2-9A
 10
90.2229
 20
237.396
 30
0.0
 40
0
 41
0
  0
VERTEX
  8
CE6-F2-9A
 10
90.1637
 20
237.469
 30
0.0
 40
0
 41
0
  0
VERTEX
  8
CE6-F2-9A
 10
90.0712
 20
237.912
 30
0.0
 40
0
 41
0
  0
VERTEX
  8
CE6-F2-9A
 10
90.0384
 20
238.377
 30
0.0
 40
0
 41
0
  0
VERTEX
  8
CE6-F2-9A
 10
90.0105
 20
238.461
 30
0.0
 40
0
 41
0
  0
VERTEX
  8
CE6-F2-9A
 10
89.9569
 20
238.781
 30
0.0
 40
0
 41
0
  0
VERTEX
  8
CE6-F2-9A
 10
89.9569
 20
238.887
 30
0.0
 40
0
 41
0
  0
VERTEX
  8
CE6-F2-9A
 10
89.8507
 20
238.887
 30
0.0
 40
0
 41
0
  0
VERTEX
  8
CE6-F2-9A
 10
88.7317
 20
238.567
 30
0.0
 40
0
 41
0
  0
VERTEX
  8
CE6-F2-9A
 10
88.3059
 20
238.515
 30
0.0
 40
0
 41
0
  0
VERTEX
  8
CE6-F2-9A
 10
88.1461
 20
238.515
 30
0.0
 40
0
 41
0
  0
VERTEX
  8
CE6-F2-9A
 10
87.1333
 20
238.301
 30
0.0
 40
0
 41
0
  0
VERTEX
  8
CE6-F2-9A
 10
85.6425
 20
238.089
 30
0.0
 40
0
 41
0
  0
VERTEX
  8
CE6-F2-9A
 10
84.6847
 20
237.929
 30
0.0
 40
0
 41
0
  0
VERTEX
  8
CE6-F2-9A
 10
83.5656
 20
236.864
 30
0.0
 40
0
 41
0
  0
VERTEX
  8
CE6-F2-9A
 10
84.2589
 20
234.094
 30
0.0
 40
0
 41
0
  0
VERTEX
  8
CE6-F2-9A
 10
83.6718
 20
233.882
 30
0.0
 40
0
 41
0
  0
VERTEX
  8
CE6-F2-9A
 10
83.6179
 20
233.828
 30
0.0
 40
0
 41
0
  0
VERTEX
  8
CE6-F2-9A
 10
81.9686
 20
233.509
 30
0.0
 40
0
 41
0
  0
VERTEX
  8
CE6-F2-9A
 10
81.6599
 20
233.438
 30
0.0
 40
0
 41
0
  0
VERTEX
  8
CE6-F2-9A
 10
78.6045
 20
232.767
 30
0.0
 40
0
 41
0
  0
VERTEX
  8
CE6-F2-9A
 10
78.2934
 20
232.711
 30
0.0
 40
0
 41
0
  0
VERTEX
  8
CE6-F2-9A
 10
77.8136
 20
232.603
 30
0.0
 40
0
 41
0
  0
VERTEX
  8
CE6-F2-9A
 10
77.0668
 20
232.445
 30
0.0
 40
0
 41
0
  0
VERTEX
  8
CE6-F2-9A
 10
76.4826
 20
232.339
 30
0.0
 40
0
 41
0
  0
VERTEX
  8
CE6-F2-9A
 10
75.843
 20
232.178
 30
0.0
 40
0
 41
0
  0
VERTEX
  8
CE6-F2-9A
 10
75.4712
 20
232.125
 30
0.0
 40
0
 41
0
  0
VERTEX
  8
CE6-F2-9A
 10
75.2574
 20
232.071
 30
0.0
 40
0
 41
0
  0
VERTEX
  8
CE6-F2-9A
 10
75.0976
 20
232.071
 30
0.0
 40
0
 41
0
  0
VERTEX
  8
CE6-F2-9A
 10
74.8302
 20
231.965
 30
0.0
 40
0
 41
0
  0
VERTEX
  8
CE6-F2-9A
 10
74.724
 20
231.965
 30
0.0
 40
0
 41
0
  0
VERTEX
  8
CE6-F2-9A
 10
73.9786
 20
231.859
 30
0.0
 40
0
 41
0
  0
VERTEX
  8
CE6-F2-9A
 10
73.8724
 20
231.805
 30
0.0
 40
0
 41
0
  0
VERTEX
  8
CE6-F2-9A
 10
72.9671
 20
231.592
 30
0.0
 40
0
 41
0
  0
VERTEX
  8
CE6-F2-9A
 10
72.7012
 20
231.539
 30
0.0
 40
0
 41
0
  0
VERTEX
  8
CE6-F2-9A
 10
72.3579
 20
231.487
 30
0.0
 40
0
 41
0
  0
VERTEX
  8
CE6-F2-9A
 10
70.5651
 20
231.116
 30
0.0
 40
0
 41
0
  0
VERTEX
  8
CE6-F2-9A
 10
68.7793
 20
230.741
 30
0.0
 40
0
 41
0
  0
VERTEX
  8
CE6-F2-9A
 10
68.4389
 20
230.686
 30
0.0
 40
0
 41
0
  0
VERTEX
  8
CE6-F2-9A
 10
67.9069
 20
230.58
 30
0.0
 40
0
 41
0
  0
VERTEX
  8
CE6-F2-9A
 10
66.8419
 20
230.314
 30
0.0
 40
0
 41
0
  0
VERTEX
  8
CE6-F2-9A
 10
66.6859
 20
230.283
 30
0.0
 40
0
 41
0
  0
VERTEX
  8
CE6-F2-9A
 10
65.1937
 20
229.97
 30
0.0
 40
0
 41
0
  0
VERTEX
  8
CE6-F2-9A
 10
65.0311
 20
229.941
 30
0.0
 40
0
 41
0
  0
VERTEX
  8
CE6-F2-9A
 10
64.8712
 20
229.941
 30
0.0
 40
0
 41
0
  0
VERTEX
  8
CE6-F2-9A
 10
64.7129
 20
229.888
 30
0.0
 40
0
 41
0
  0
VERTEX
  8
CE6-F2-9A
 10
64.6053
 20
229.888
 30
0.0
 40
0
 41
0
  0
VERTEX
  8
CE6-F2-9A
 10
64.5513
 20
229.995
 30
0.0
 40
0
 41
0
  0
VERTEX
  8
CE6-F2-9A
 10
64.4454
 20
229.995
 30
0.0
 40
0
 41
0
  0
VERTEX
  8
CE6-F2-9A
 10
63.912
 20
230.048
 30
0.0
 40
0
 41
0
  0
VERTEX
  8
CE6-F2-9A
 10
62.4209
 20
230.208
 30
0.0
 40
0
 41
0
  0
VERTEX
  8
CE6-F2-9A
 10
61.6232
 20
230.261
 30
0.0
 40
0
 41
0
  0
VERTEX
  8
CE6-F2-9A
 10
61.0898
 20
230.261
 30
0.0
 40
0
 41
0
  0
VERTEX
  8
CE6-F2-9A
 10
60.9836
 20
230.314
 30
0.0
 40
0
 41
0
  0
VERTEX
  8
CE6-F2-9A
 10
60.664
 20
230.314
 30
0.0
 40
0
 41
0
  0
VERTEX
  8
CE6-F2-9A
 10
60.5578
 20
230.261
 30
0.0
 40
0
 41
0
  0
VERTEX
  8
CE6-F2-9A
 10
60.4502
 20
230.261
 30
0.0
 40
0
 41
0
  0
VERTEX
  8
CE6-F2-9A
 10
59.8646
 20
230.101
 30
0.0
 40
0
 41
0
  0
VERTEX
  8
CE6-F2-9A
 10
59.4914
 20
229.941
 30
0.0
 40
0
 41
0
  0
VERTEX
  8
CE6-F2-9A
 10
59.0656
 20
229.783
 30
0.0
 40
0
 41
0
  0
VERTEX
  8
CE6-F2-9A
 10
58.7996
 20
229.622
 30
0.0
 40
0
 41
0
  0
VERTEX
  8
CE6-F2-9A
 10
58.5858
 20
229.515
 30
0.0
 40
0
 41
0
  0
VERTEX
  8
CE6-F2-9A
 10
57.5744
 20
228.93
 30
0.0
 40
0
 41
0
  0
VERTEX
  8
CE6-F2-9A
 10
56.7228
 20
228.398
 30
0.0
 40
0
 41
0
  0
VERTEX
  8
CE6-F2-9A
 10
56.1894
 20
228.13
 30
0.0
 40
0
 41
0
  0
VERTEX
  8
CE6-F2-9A
 10
56.1358
 20
228.024
 30
0.0
 40
0
 41
0
  0
VERTEX
  8
CE6-F2-9A
 10
56.1358
 20
227.918
 30
0.0
 40
0
 41
0
  0
VERTEX
  8
CE6-F2-9A
 10
55.8698
 20
227.226
 30
0.0
 40
0
 41
0
  0
VERTEX
  8
CE6-F2-9A
 10
55.6578
 20
226.8
 30
0.0
 40
0
 41
0
  0
VERTEX
  8
CE6-F2-9A
 10
55.71
 20
226.587
 30
0.0
 40
0
 41
0
  0
VERTEX
  8
CE6-F2-9A
 10
54.8047
 20
227.438
 30
0.0
 40
0
 41
0
  0
VERTEX
  8
CE6-F2-9A
 10
54.7522
 20
227.438
 30
0.0
 40
0
 41
0
  0
VERTEX
  8
CE6-F2-9A
 10
54.059
 20
228.078
 30
0.0
 40
0
 41
0
  0
VERTEX
  8
CE6-F2-9A
 10
53.9531
 20
228.184
 30
0.0
 40
0
 41
0
  0
VERTEX
  8
CE6-F2-9A
 10
53.2599
 20
228.769
 30
0.0
 40
0
 41
0
  0
VERTEX
  8
CE6-F2-9A
 10
53.2599
 20
228.823
 30
0.0
 40
0
 41
0
  0
VERTEX
  8
CE6-F2-9A
 10
52.8341
 20
228.823
 30
0.0
 40
0
 41
0
  0
VERTEX
  8
CE6-F2-9A
 10
51.7165
 20
228.61
 30
0.0
 40
0
 41
0
  0
VERTEX
  8
CE6-F2-9A
 10
51.4505
 20
228.557
 30
0.0
 40
0
 41
0
  0
VERTEX
  8
CE6-F2-9A
 10
50.8635
 20
228.61
 30
0.0
 40
0
 41
0
  0
VERTEX
  8
CE6-F2-9A
 10
50.7037
 20
228.61
 30
0.0
 40
0
 41
0
  0
VERTEX
  8
CE6-F2-9A
 10
50.2239
 20
228.078
 30
0.0
 40
0
 41
0
  0
VERTEX
  8
CE6-F2-9A
 10
50.1177
 20
227.972
 30
0.0
 40
0
 41
0
  0
VERTEX
  8
CE6-F2-9A
 10
50.0641
 20
227.866
 30
0.0
 40
0
 41
0
  0
VERTEX
  8
CE6-F2-9A
 10
50.0641
 20
227.812
 30
0.0
 40
0
 41
0
  0
VERTEX
  8
CE6-F2-9A
 10
49.6383
 20
227.172
 30
0.0
 40
0
 41
0
  0
VERTEX
  8
CE6-F2-9A
 10
49.6383
 20
227.12
 30
0.0
 40
0
 41
0
  0
VERTEX
  8
CE6-F2-9A
 10
49.7459
 20
226.853
 30
0.0
 40
0
 41
0
  0
VERTEX
  8
CE6-F2-9A
 10
49.4259
 20
226.959
 30
0.0
 40
0
 41
0
  0
VERTEX
  8
CE6-F2-9A
 10
49.3723
 20
226.959
 30
0.0
 40
0
 41
0
  0
VERTEX
  8
CE6-F2-9A
 10
49.3723
 20
226.853
 30
0.0
 40
0
 41
0
  0
VERTEX
  8
CE6-F2-9A
 10
49.4799
 20
226.64
 30
0.0
 40
0
 41
0
  0
VERTEX
  8
CE6-F2-9A
 10
49.4799
 20
226.587
 30
0.0
 40
0
 41
0
  0
VERTEX
  8
CE6-F2-9A
 10
49.4259
 20
226.534
 30
0.0
 40
0
 41
0
  0
VERTEX
  8
CE6-F2-9A
 10
49.2125
 20
226.427
 30
0.0
 40
0
 41
0
  0
VERTEX
  8
CE6-F2-9A
 10
49.0527
 20
226.373
 30
0.0
 40
0
 41
0
  0
VERTEX
  8
CE6-F2-9A
 10
48.8389
 20
226.213
 30
0.0
 40
0
 41
0
  0
VERTEX
  8
CE6-F2-9A
 10
48.5207
 20
226.267
 30
0.0
 40
0
 41
0
  0
VERTEX
  8
CE6-F2-9A
 10
48.2547
 20
226.373
 30
0.0
 40
0
 41
0
  0
VERTEX
  8
CE6-F2-9A
 10
47.9337
 20
226.213
 30
0.0
 40
0
 41
0
  0
VERTEX
  8
CE6-F2-9A
 10
47.5615
 20
226.055
 30
0.0
 40
0
 41
0
  0
VERTEX
  8
CE6-F2-9A
 10
47.4017
 20
226.001
 30
0.0
 40
0
 41
0
  0
VERTEX
  8
CE6-F2-9A
 10
47.1897
 20
226.001
 30
0.0
 40
0
 41
0
  0
VERTEX
  8
CE6-F2-9A
 10
46.7639
 20
225.893
 30
0.0
 40
0
 41
0
  0
VERTEX
  8
CE6-F2-9A
 10
46.6027
 20
225.841
 30
0.0
 40
0
 41
0
  0
VERTEX
  8
CE6-F2-9A
 10
46.6027
 20
225.893
 30
0.0
 40
0
 41
0
  0
VERTEX
  8
CE6-F2-9A
 10
46.6563
 20
226.267
 30
0.0
 40
0
 41
0
  0
VERTEX
  8
CE6-F2-9A
 10
46.2305
 20
226.427
 30
0.0
 40
0
 41
0
  0
VERTEX
  8
CE6-F2-9A
 10
45.9645
 20
226.534
 30
0.0
 40
0
 41
0
  0
VERTEX
  8
CE6-F2-9A
 10
44.8455
 20
225.893
 30
0.0
 40
0
 41
0
  0
VERTEX
  8
CE6-F2-9A
 10
44.5795
 20
225.575
 30
0.0
 40
0
 41
0
  0
VERTEX
  8
CE6-F2-9A
 10
44.2599
 20
225.095
 30
0.0
 40
0
 41
0
  0
VERTEX
  8
CE6-F2-9A
 10
44.1798
 20
224.915
 30
0.0
 40
0
 41
0
  0
VERTEX
  8
CE6-F2-9A
 10
43.8037
 20
224.204
 30
0.0
 40
0
 41
0
  0
VERTEX
  8
CE6-F2-9A
 10
43.5021
 20
223.405
 30
0.0
 40
0
 41
0
  0
VERTEX
  8
CE6-F2-9A
 10
43.4605
 20
223.179
 30
0.0
 40
0
 41
0
  0
VERTEX
  8
CE6-F2-9A
 10
43.1408
 20
221.688
 30
0.0
 40
0
 41
0
  0
VERTEX
  8
CE6-F2-9A
 10
43.0347
 20
221.208
 30
0.0
 40
0
 41
0
  0
VERTEX
  8
CE6-F2-9A
 10
42.9274
 20
220.57
 30
0.0
 40
0
 41
0
  0
VERTEX
  8
CE6-F2-9A
 10
42.9274
 20
220.41
 30
0.0
 40
0
 41
0
  0
VERTEX
  8
CE6-F2-9A
 10
42.8748
 20
219.611
 30
0.0
 40
0
 41
0
  0
VERTEX
  8
CE6-F2-9A
 10
42.8226
 20
218.599
 30
0.0
 40
0
 41
0
  0
VERTEX
  8
CE6-F2-9A
 10
42.7687
 20
217.215
 30
0.0
 40
0
 41
0
  0
VERTEX
  8
CE6-F2-9A
 10
42.981
 20
217.268
 30
0.0
 40
0
 41
0
  0
VERTEX
  8
CE6-F2-9A
 10
43.3006
 20
217.215
 30
0.0
 40
0
 41
0
  0
VERTEX
  8
CE6-F2-9A
 10
43.6203
 20
217.109
 30
0.0
 40
0
 41
0
  0
VERTEX
  8
CE6-F2-9A
 10
43.4068
 20
216.257
 30
0.0
 40
0
 41
0
  0
VERTEX
  8
CE6-F2-9A
 10
43.4605
 20
216.203
 30
0.0
 40
0
 41
0
  0
VERTEX
  8
CE6-F2-9A
 10
43.3546
 20
215.831
 30
0.0
 40
0
 41
0
  0
VERTEX
  8
CE6-F2-9A
 10
43.2484
 20
215.511
 30
0.0
 40
0
 41
0
  0
VERTEX
  8
CE6-F2-9A
 10
43.2361
 20
215.437
 30
0.0
 40
0
 41
0
  0
VERTEX
  8
CE6-F2-9A
 10
42.9853
 20
214.909
 30
0.0
 40
0
 41
0
  0
VERTEX
  8
CE6-F2-9A
 10
42.6932
 20
214.402
 30
0.0
 40
0
 41
0
  0
VERTEX
  8
CE6-F2-9A
 10
42.6614
 20
214.339
 30
0.0
 40
0
 41
0
  0
VERTEX
  8
CE6-F2-9A
 10
42.5016
 20
214.019
 30
0.0
 40
0
 41
0
  0
VERTEX
  8
CE6-F2-9A
 10
42.2892
 20
213.701
 30
0.0
 40
0
 41
0
  0
VERTEX
  8
CE6-F2-9A
 10
42.0758
 20
213.275
 30
0.0
 40
0
 41
0
  0
VERTEX
  8
CE6-F2-9A
 10
41.9696
 20
213.167
 30
0.0
 40
0
 41
0
  0
VERTEX
  8
CE6-F2-9A
 10
41.7558
 20
212.901
 30
0.0
 40
0
 41
0
  0
VERTEX
  8
CE6-F2-9A
 10
41.596
 20
212.689
 30
0.0
 40
0
 41
0
  0
VERTEX
  8
CE6-F2-9A
 10
41.1702
 20
212.262
 30
0.0
 40
0
 41
0
  0
VERTEX
  8
CE6-F2-9A
 10
41.064
 20
212.103
 30
0.0
 40
0
 41
0
  0
VERTEX
  8
CE6-F2-9A
 10
41.0104
 20
211.996
 30
0.0
 40
0
 41
0
  0
VERTEX
  8
CE6-F2-9A
 10
41.064
 20
211.89
 30
0.0
 40
0
 41
0
  0
VERTEX
  8
CE6-F2-9A
 10
41.064
 20
211.73
 30
0.0
 40
0
 41
0
  0
VERTEX
  8
CE6-F2-9A
 10
41.1702
 20
211.57
 30
0.0
 40
0
 41
0
  0
VERTEX
  8
CE6-F2-9A
 10
41.2238
 20
211.464
 30
0.0
 40
0
 41
0
  0
VERTEX
  8
CE6-F2-9A
 10
41.4898
 20
210.772
 30
0.0
 40
0
 41
0
  0
VERTEX
  8
CE6-F2-9A
 10
41.9156
 20
210.239
 30
0.0
 40
0
 41
0
  0
VERTEX
  8
CE6-F2-9A
 10
41.9156
 20
210.185
 30
0.0
 40
0
 41
0
  0
VERTEX
  8
CE6-F2-9A
 10
42.0758
 20
210.027
 30
0.0
 40
0
 41
0
  0
VERTEX
  8
CE6-F2-9A
 10
41.9156
 20
209.919
 30
0.0
 40
0
 41
0
  0
VERTEX
  8
CE6-F2-9A
 10
41.4898
 20
209.441
 30
0.0
 40
0
 41
0
  0
VERTEX
  8
CE6-F2-9A
 10
41.4898
 20
209.228
 30
0.0
 40
0
 41
0
  0
VERTEX
  8
CE6-F2-9A
 10
41.4362
 20
208.962
 30
0.0
 40
0
 41
0
  0
VERTEX
  8
CE6-F2-9A
 10
41.384
 20
209.068
 30
0.0
 40
0
 41
0
  0
VERTEX
  8
CE6-F2-9A
 10
41.2778
 20
209.174
 30
0.0
 40
0
 41
0
  0
VERTEX
  8
CE6-F2-9A
 10
40.5846
 20
209.387
 30
0.0
 40
0
 41
0
  0
VERTEX
  8
CE6-F2-9A
 10
40.4784
 20
209.387
 30
0.0
 40
0
 41
0
  0
VERTEX
  8
CE6-F2-9A
 10
40.2124
 20
209.441
 30
0.0
 40
0
 41
0
  0
VERTEX
  8
CE6-F2-9A
 10
39.6254
 20
209.441
 30
0.0
 40
0
 41
0
  0
VERTEX
  8
CE6-F2-9A
 10
38.8278
 20
209.387
 30
0.0
 40
0
 41
0
  0
VERTEX
  8
CE6-F2-9A
 10
38.6676
 20
209.334
 30
0.0
 40
0
 41
0
  0
VERTEX
  8
CE6-F2-9A
 10
38.5604
 20
209.387
 30
0.0
 40
0
 41
0
  0
VERTEX
  8
CE6-F2-9A
 10
37.7624
 20
209.28
 30
0.0
 40
0
 41
0
  0
VERTEX
  8
CE6-F2-9A
 10
37.017
 20
209.174
 30
0.0
 40
0
 41
0
  0
VERTEX
  8
CE6-F2-9A
 10
36.963
 20
209.121
 30
0.0
 40
0
 41
0
  0
VERTEX
  8
CE6-F2-9A
 10
36.8558
 20
209.068
 30
0.0
 40
0
 41
0
  0
VERTEX
  8
CE6-F2-9A
 10
36.3238
 20
208.748
 30
0.0
 40
0
 41
0
  0
VERTEX
  8
CE6-F2-9A
 10
36.3238
 20
208.642
 30
0.0
 40
0
 41
0
  0
VERTEX
  8
CE6-F2-9A
 10
36.164
 20
208.642
 30
0.0
 40
0
 41
0
  0
VERTEX
  8
CE6-F2-9A
 10
34.3531
 20
207.47
 30
0.0
 40
0
 41
0
  0
VERTEX
  8
CE6-F2-9A
 10
33.7675
 20
207.045
 30
0.0
 40
0
 41
0
  0
VERTEX
  8
CE6-F2-9A
 10
33.0219
 20
206.512
 30
0.0
 40
0
 41
0
  0
VERTEX
  8
CE6-F2-9A
 10
32.3825
 20
206.032
 30
0.0
 40
0
 41
0
  0
VERTEX
  8
CE6-F2-9A
 10
31.6894
 20
205.5
 30
0.0
 40
0
 41
0
  0
VERTEX
  8
CE6-F2-9A
 10
31.3173
 20
205.074
 30
0.0
 40
0
 41
0
  0
VERTEX
  8
CE6-F2-9A
 10
31.2636
 20
204.968
 30
0.0
 40
0
 41
0
  0
VERTEX
  8
CE6-F2-9A
 10
31.2112
 20
204.914
 30
0.0
 40
0
 41
0
  0
VERTEX
  8
CE6-F2-9A
 10
30.9976
 20
204.488
 30
0.0
 40
0
 41
0
  0
VERTEX
  8
CE6-F2-9A
 10
30.5718
 20
203.743
 30
0.0
 40
0
 41
0
  0
VERTEX
  8
CE6-F2-9A
 10
30.5718
 20
203.477
 30
0.0
 40
0
 41
0
  0
VERTEX
  8
CE6-F2-9A
 10
30.536
 20
202.891
 30
0.0
 40
0
 41
0
  0
VERTEX
  8
CE6-F2-9A
 10
30.7867
 20
200.244
 30
0.0
 40
0
 41
0
  0
VERTEX
  8
CE6-F2-9A
 10
31.247
 20
197.612
 30
0.0
 40
0
 41
0
  0
VERTEX
  8
CE6-F2-9A
 10
31.3173
 20
197.033
 30
0.0
 40
0
 41
0
  0
VERTEX
  8
CE6-F2-9A
 10
31.3173
 20
196.821
 30
0.0
 40
0
 41
0
  0
VERTEX
  8
CE6-F2-9A
 10
31.2112
 20
196.767
 30
0.0
 40
0
 41
0
  0
VERTEX
  8
CE6-F2-9A
 10
30.3596
 20
195.862
 30
0.0
 40
0
 41
0
  0
VERTEX
  8
CE6-F2-9A
 10
30.2521
 20
195.808
 30
0.0
 40
0
 41
0
  0
VERTEX
  8
CE6-F2-9A
 10
29.9324
 20
195.542
 30
0.0
 40
0
 41
0
  0
VERTEX
  8
CE6-F2-9A
 10
29.5065
 20
195.223
 30
0.0
 40
0
 41
0
  0
VERTEX
  8
CE6-F2-9A
 10
29.2406
 20
195.01
 30
0.0
 40
0
 41
0
  0
VERTEX
  8
CE6-F2-9A
 10
27.6421
 20
194.211
 30
0.0
 40
0
 41
0
  0
VERTEX
  8
CE6-F2-9A
 10
27.3224
 20
194.105
 30
0.0
 40
0
 41
0
  0
VERTEX
  8
CE6-F2-9A
 10
27.3224
 20
194.157
 30
0.0
 40
0
 41
0
  0
VERTEX
  8
CE6-F2-9A
 10
26.5768
 20
193.891
 30
0.0
 40
0
 41
0
  0
VERTEX
  8
CE6-F2-9A
 10
26.0973
 20
193.731
 30
0.0
 40
0
 41
0
  0
VERTEX
  8
CE6-F2-9A
 10
25.1395
 20
193.359
 30
0.0
 40
0
 41
0
  0
VERTEX
  8
CE6-F2-9A
 10
24.3403
 20
192.933
 30
0.0
 40
0
 41
0
  0
VERTEX
  8
CE6-F2-9A
 10
24.0743
 20
192.826
 30
0.0
 40
0
 41
0
  0
VERTEX
  8
CE6-F2-9A
 10
23.1152
 20
192.294
 30
0.0
 40
0
 41
0
  0
VERTEX
  8
CE6-F2-9A
 10
21.9439
 20
192.028
 30
0.0
 40
0
 41
0
  0
VERTEX
  8
CE6-F2-9A
 10
21.3568
 20
191.868
 30
0.0
 40
0
 41
0
  0
VERTEX
  8
CE6-F2-9A
 10
20.7188
 20
191.709
 30
0.0
 40
0
 41
0
  0
VERTEX
  8
CE6-F2-9A
 10
19.1203
 20
191.283
 30
0.0
 40
0
 41
0
  0
VERTEX
  8
CE6-F2-9A
 10
18.1612
 20
191.017
 30
0.0
 40
0
 41
0
  0
VERTEX
  8
CE6-F2-9A
 10
17.0436
 20
190.643
 30
0.0
 40
0
 41
0
  0
VERTEX
  8
CE6-F2-9A
 10
16.5103
 20
190.483
 30
0.0
 40
0
 41
0
  0
VERTEX
  8
CE6-F2-9A
 10
16.1919
 20
190.324
 30
0.0
 40
0
 41
0
  0
VERTEX
  8
CE6-F2-9A
 10
15.9784
 20
190.27
 30
0.0
 40
0
 41
0
  0
VERTEX
  8
CE6-F2-9A
 10
15.7648
 20
190.217
 30
0.0
 40
0
 41
0
  0
VERTEX
  8
CE6-F2-9A
 10
15.2328
 20
190.111
 30
0.0
 40
0
 41
0
  0
VERTEX
  8
CE6-F2-9A
 10
15.2328
 20
190.058
 30
0.0
 40
0
 41
0
  0
VERTEX
  8
CE6-F2-9A
 10
15.0964
 20
189.964
 30
0.0
 40
0
 41
0
  0
VERTEX
  8
CE6-F2-9A
 10
14.5838
 20
189.432
 30
0.0
 40
0
 41
0
  0
VERTEX
  8
CE6-F2-9A
 10
14.0836
 20
188.884
 30
0.0
 40
0
 41
0
  0
VERTEX
  8
CE6-F2-9A
 10
13.954
 20
188.78
 30
0.0
 40
0
 41
0
  0
VERTEX
  8
CE6-F2-9A
 10
13.8479
 20
188.62
 30
0.0
 40
0
 41
0
  0
VERTEX
  8
CE6-F2-9A
 10
13.6343
 20
188.407
 30
0.0
 40
0
 41
0
  0
VERTEX
  8
CE6-F2-9A
 10
13.5819
 20
188.407
 30
0.0
 40
0
 41
0
  0
VERTEX
  8
CE6-F2-9A
 10
13.5282
 20
188.353
 30
0.0
 40
0
 41
0
  0
VERTEX
  8
CE6-F2-9A
 10
13.3808
 20
188.185
 30
0.0
 40
0
 41
0
  0
VERTEX
  8
CE6-F2-9A
 10
12.5856
 20
187.379
 30
0.0
 40
0
 41
0
  0
VERTEX
  8
CE6-F2-9A
 10
11.8043
 20
186.56
 30
0.0
 40
0
 41
0
  0
VERTEX
  8
CE6-F2-9A
 10
11.6651
 20
186.384
 30
0.0
 40
0
 41
0
  0
VERTEX
  8
CE6-F2-9A
 10
10.7583
 20
185.479
 30
0.0
 40
0
 41
0
  0
VERTEX
  8
CE6-F2-9A
 10
10.7583
 20
185.105
 30
0.0
 40
0
 41
0
  0
VERTEX
  8
CE6-F2-9A
 10
10.8121
 20
184.094
 30
0.0
 40
0
 41
0
  0
VERTEX
  8
CE6-F2-9A
 10
10.8658
 20
184.041
 30
0.0
 40
0
 41
0
  0
VERTEX
  8
CE6-F2-9A
 10
11.0257
 20
184.094
 30
0.0
 40
0
 41
0
  0
VERTEX
  8
CE6-F2-9A
 10
11.1841
 20
184.201
 30
0.0
 40
0
 41
0
  0
VERTEX
  8
CE6-F2-9A
 10
11.2379
 20
184.361
 30
0.0
 40
0
 41
0
  0
VERTEX
  8
CE6-F2-9A
 10
11.4515
 20
184.467
 30
0.0
 40
0
 41
0
  0
VERTEX
  8
CE6-F2-9A
 10
11.6114
 20
184.519
 30
0.0
 40
0
 41
0
  0
VERTEX
  8
CE6-F2-9A
 10
11.9311
 20
184.573
 30
0.0
 40
0
 41
0
  0
VERTEX
  8
CE6-F2-9A
 10
12.0372
 20
184.413
 30
0.0
 40
0
 41
0
  0
VERTEX
  8
CE6-F2-9A
 10
12.197
 20
184.413
 30
0.0
 40
0
 41
0
  0
VERTEX
  8
CE6-F2-9A
 10
12.463
 20
183.987
 30
0.0
 40
0
 41
0
  0
VERTEX
  8
CE6-F2-9A
 10
13.1024
 20
183.775
 30
0.0
 40
0
 41
0
  0
VERTEX
  8
CE6-F2-9A
 10
13.316
 20
183.508
 30
0.0
 40
0
 41
0
  0
VERTEX
  8
CE6-F2-9A
 10
13.5819
 20
183.402
 30
0.0
 40
0
 41
0
  0
VERTEX
  8
CE6-F2-9A
 10
14.1139
 20
183.134
 30
0.0
 40
0
 41
0
  0
VERTEX
  8
CE6-F2-9A
 10
14.4336
 20
183.134
 30
0.0
 40
0
 41
0
  0
VERTEX
  8
CE6-F2-9A
 10
14.807
 20
182.922
 30
0.0
 40
0
 41
0
  0
VERTEX
  8
CE6-F2-9A
 10
15.0192
 20
182.868
 30
0.0
 40
0
 41
0
  0
VERTEX
  8
CE6-F2-9A
 10
15.073
 20
182.868
 30
0.0
 40
0
 41
0
  0
VERTEX
  8
CE6-F2-9A
 10
15.1267
 20
182.816
 30
0.0
 40
0
 41
0
  0
VERTEX
  8
CE6-F2-9A
 10
15.2328
 20
182.762
 30
0.0
 40
0
 41
0
  0
VERTEX
  8
CE6-F2-9A
 10
15.2328
 20
182.71
 30
0.0
 40
0
 41
0
  0
VERTEX
  8
CE6-F2-9A
 10
15.339
 20
182.656
 30
0.0
 40
0
 41
0
  0
VERTEX
  8
CE6-F2-9A
 10
15.4451
 20
182.549
 30
0.0
 40
0
 41
0
  0
VERTEX
  8
CE6-F2-9A
 10
15.7648
 20
182.123
 30
0.0
 40
0
 41
0
  0
VERTEX
  8
CE6-F2-9A
 10
16.7239
 20
181.911
 30
0.0
 40
0
 41
0
  0
VERTEX
  8
CE6-F2-9A
 10
18.9081
 20
181.379
 30
0.0
 40
0
 41
0
  0
VERTEX
  8
CE6-F2-9A
 10
21.5704
 20
180.739
 30
0.0
 40
0
 41
0
  0
VERTEX
  8
CE6-F2-9A
 10
23.4873
 20
180.42
 30
0.0
 40
0
 41
0
  0
VERTEX
  8
CE6-F2-9A
 10
25.1395
 20
180.154
 30
0.0
 40
0
 41
0
  0
VERTEX
  8
CE6-F2-9A
 10
35.9516
 20
178.929
 30
0.0
 40
0
 41
0
  0
VERTEX
  8
CE6-F2-9A
 10
36.0578
 20
178.875
 30
0.0
 40
0
 41
0
  0
VERTEX
  8
CE6-F2-9A
 10
36.751
 20
178.663
 30
0.0
 40
0
 41
0
  0
VERTEX
  8
CE6-F2-9A
 10
37.1768
 20
178.555
 30
0.0
 40
0
 41
0
  0
VERTEX
  8
CE6-F2-9A
 10
38.0284
 20
178.289
 30
0.0
 40
0
 41
0
  0
VERTEX
  8
CE6-F2-9A
 10
38.0806
 20
178.235
 30
0.0
 40
0
 41
0
  0
VERTEX
  8
CE6-F2-9A
 10
38.1346
 20
178.235
 30
0.0
 40
0
 41
0
  0
VERTEX
  8
CE6-F2-9A
 10
38.2404
 20
178.183
 30
0.0
 40
0
 41
0
  0
VERTEX
  8
CE6-F2-9A
 10
38.88
 20
177.811
 30
0.0
 40
0
 41
0
  0
VERTEX
  8
CE6-F2-9A
 10
41.1702
 20
176.532
 30
0.0
 40
0
 41
0
  0
VERTEX
  8
CE6-F2-9A
 10
41.9696
 20
176.053
 30
0.0
 40
0
 41
0
  0
VERTEX
  8
CE6-F2-9A
 10
43.3006
 20
175.307
 30
0.0
 40
0
 41
0
  0
VERTEX
  8
CE6-F2-9A
 10
43.4068
 20
175.255
 30
0.0
 40
0
 41
0
  0
VERTEX
  8
CE6-F2-9A
 10
46.6563
 20
173.496
 30
0.0
 40
0
 41
0
  0
VERTEX
  8
CE6-F2-9A
 10
46.9223
 20
173.39
 30
0.0
 40
0
 41
0
  0
VERTEX
  8
CE6-F2-9A
 10
47.4557
 20
173.072
 30
0.0
 40
0
 41
0
  0
VERTEX
  8
CE6-F2-9A
 10
47.7213
 20
173.018
 30
0.0
 40
0
 41
0
  0
VERTEX
  8
CE6-F2-9A
 10
48.4145
 20
172.486
 30
0.0
 40
0
 41
0
  0
VERTEX
  8
CE6-F2-9A
 10
48.3609
 20
172.273
 30
0.0
 40
0
 41
0
  0
VERTEX
  8
CE6-F2-9A
 10
48.2011
 20
172.007
 30
0.0
 40
0
 41
0
  0
VERTEX
  8
CE6-F2-9A
 10
48.0935
 20
171.847
 30
0.0
 40
0
 41
0
  0
VERTEX
  8
CE6-F2-9A
 10
47.8275
 20
171.473
 30
0.0
 40
0
 41
0
  0
VERTEX
  8
CE6-F2-9A
 10
47.2955
 20
170.408
 30
0.0
 40
0
 41
0
  0
VERTEX
  8
CE6-F2-9A
 10
47.2955
 20
169.557
 30
0.0
 40
0
 41
0
  0
VERTEX
  8
CE6-F2-9A
 10
47.4017
 20
168.599
 30
0.0
 40
0
 41
0
  0
VERTEX
  8
CE6-F2-9A
 10
47.7213
 20
168.439
 30
0.0
 40
0
 41
0
  0
VERTEX
  8
CE6-F2-9A
 10
48.3073
 20
167.426
 30
0.0
 40
0
 41
0
  0
VERTEX
  8
CE6-F2-9A
 10
48.7331
 20
167
 30
0.0
 40
0
 41
0
  0
VERTEX
  8
CE6-F2-9A
 10
48.8929
 20
166.68
 30
0.0
 40
0
 41
0
  0
VERTEX
  8
CE6-F2-9A
 10
49.0001
 20
166.575
 30
0.0
 40
0
 41
0
  0
VERTEX
  8
CE6-F2-9A
 10
49.1063
 20
166.361
 30
0.0
 40
0
 41
0
  0
VERTEX
  8
CE6-F2-9A
 10
49.1603
 20
166.149
 30
0.0
 40
0
 41
0
  0
VERTEX
  8
CE6-F2-9A
 10
49.4799
 20
165.829
 30
0.0
 40
0
 41
0
  0
VERTEX
  8
CE6-F2-9A
 10
49.4799
 20
165.775
 30
0.0
 40
0
 41
0
  0
VERTEX
  8
CE6-F2-9A
 10
49.7459
 20
165.936
 30
0.0
 40
0
 41
0
  0
VERTEX
  8
CE6-F2-9A
 10
51.7165
 20
167.374
 30
0.0
 40
0
 41
0
  0
VERTEX
  8
CE6-F2-9A
 10
51.8223
 20
168.863
 30
0.0
 40
0
 41
0
  0
VERTEX
  8
CE6-F2-9A
 10
51.8432
 20
169.122
 30
0.0
 40
0
 41
0
  0
VERTEX
  8
CE6-F2-9A
 10
52.2386
 20
169.873
 30
0.0
 40
0
 41
0
  0
VERTEX
  8
CE6-F2-9A
 10
53.104
 20
170.649
 30
0.0
 40
0
 41
0
  0
VERTEX
  8
CE6-F2-9A
 10
54.1143
 20
171.293
 30
0.0
 40
0
 41
0
  0
VERTEX
  8
CE6-F2-9A
 10
54.7758
 20
171.724
 30
0.0
 40
0
 41
0
  0
VERTEX
  8
CE6-F2-9A
 10
54.966
 20
171.899
 30
0.0
 40
0
 41
0
  0
VERTEX
  8
CE6-F2-9A
 10
55.4976
 20
172.273
 30
0.0
 40
0
 41
0
  0
VERTEX
  8
CE6-F2-9A
 10
58.7456
 20
172.379
 30
0.0
 40
0
 41
0
  0
VERTEX
  8
CE6-F2-9A
 10
61.1434
 20
172.379
 30
0.0
 40
0
 41
0
  0
VERTEX
  8
CE6-F2-9A
 10
61.1434
 20
172.486
 30
0.0
 40
0
 41
0
  0
VERTEX
  8
CE6-F2-9A
 10
61.7291
 20
172.486
 30
0.0
 40
0
 41
0
  0
VERTEX
  8
CE6-F2-9A
 10
62.4748
 20
172.432
 30
0.0
 40
0
 41
0
  0
VERTEX
  8
CE6-F2-9A
 10
62.9543
 20
172.432
 30
0.0
 40
0
 41
0
  0
VERTEX
  8
CE6-F2-9A
 10
63.5399
 20
172.326
 30
0.0
 40
0
 41
0
  0
VERTEX
  8
CE6-F2-9A
 10
64.1794
 20
172.273
 30
0.0
 40
0
 41
0
  0
VERTEX
  8
CE6-F2-9A
 10
64.9249
 20
172.165
 30
0.0
 40
0
 41
0
  0
VERTEX
  8
CE6-F2-9A
 10
65.7765
 20
172.007
 30
0.0
 40
0
 41
0
  0
VERTEX
  8
CE6-F2-9A
 10
65.8827
 20
172.007
 30
0.0
 40
0
 41
0
  0
VERTEX
  8
CE6-F2-9A
 10
66.2023
 20
171.953
 30
0.0
 40
0
 41
0
  0
VERTEX
  8
CE6-F2-9A
 10
66.3099
 20
171.899
 30
0.0
 40
0
 41
0
  0
VERTEX
  8
CE6-F2-9A
 10
67.7471
 20
171.739
 30
0.0
 40
0
 41
0
  0
VERTEX
  8
CE6-F2-9A
 10
68.0131
 20
171.739
 30
0.0
 40
0
 41
0
  0
VERTEX
  8
CE6-F2-9A
 10
70.4095
 20
171.473
 30
0.0
 40
0
 41
0
  0
VERTEX
  8
CE6-F2-9A
 10
70.6053
 20
171.461
 30
0.0
 40
0
 41
0
  0
VERTEX
  8
CE6-F2-9A
 10
71.4446
 20
171.308
 30
0.0
 40
0
 41
0
  0
VERTEX
  8
CE6-F2-9A
 10
72.2535
 20
171.199
 30
0.0
 40
0
 41
0
  0
VERTEX
  8
CE6-F2-9A
 10
72.4337
 20
171.208
 30
0.0
 40
0
 41
0
  0
VERTEX
  8
CE6-F2-9A
 10
72.7534
 20
171.313
 30
0.0
 40
0
 41
0
  0
VERTEX
  8
CE6-F2-9A
 10
73.6064
 20
171.473
 30
0.0
 40
0
 41
0
  0
VERTEX
  8
CE6-F2-9A
 10
74.2446
 20
171.579
 30
0.0
 40
0
 41
0
  0
VERTEX
  8
CE6-F2-9A
 10
74.512
 20
171.633
 30
0.0
 40
0
 41
0
  0
VERTEX
  8
CE6-F2-9A
 10
74.6181
 20
171.633
 30
0.0
 40
0
 41
0
  0
VERTEX
  8
CE6-F2-9A
 10
74.724
 20
171.687
 30
0.0
 40
0
 41
0
  0
VERTEX
  8
CE6-F2-9A
 10
74.8841
 20
171.633
 30
0.0
 40
0
 41
0
  0
VERTEX
  8
CE6-F2-9A
 10
74.9378
 20
171.633
 30
0.0
 40
0
 41
0
  0
VERTEX
  8
CE6-F2-9A
 10
75.311
 20
171.579
 30
0.0
 40
0
 41
0
  0
VERTEX
  8
CE6-F2-9A
 10
75.3636
 20
171.579
 30
0.0
 40
0
 41
0
  0
VERTEX
  8
CE6-F2-9A
 10
75.5756
 20
171.42
 30
0.0
 40
0
 41
0
  0
VERTEX
  8
CE6-F2-9A
 10
75.897
 20
171.313
 30
0.0
 40
0
 41
0
  0
VERTEX
  8
CE6-F2-9A
 10
76.163
 20
171.208
 30
0.0
 40
0
 41
0
  0
VERTEX
  8
CE6-F2-9A
 10
76.5888
 20
170.888
 30
0.0
 40
0
 41
0
  0
VERTEX
  8
CE6-F2-9A
 10
77.7074
 20
170.142
 30
0.0
 40
0
 41
0
  0
VERTEX
  8
CE6-F2-9A
 10
77.9198
 20
169.984
 30
0.0
 40
0
 41
0
  0
VERTEX
  8
CE6-F2-9A
 10
78.0796
 20
169.823
 30
0.0
 40
0
 41
0
  0
VERTEX
  8
CE6-F2-9A
 10
78.2934
 20
169.61
 30
0.0
 40
0
 41
0
  0
VERTEX
  8
CE6-F2-9A
 10
78.3456
 20
169.557
 30
0.0
 40
0
 41
0
  0
VERTEX
  8
CE6-F2-9A
 10
78.4532
 20
169.397
 30
0.0
 40
0
 41
0
  0
VERTEX
  8
CE6-F2-9A
 10
78.5594
 20
169.343
 30
0.0
 40
0
 41
0
  0
VERTEX
  8
CE6-F2-9A
 10
78.7192
 20
169.237
 30
0.0
 40
0
 41
0
  0
VERTEX
  8
CE6-F2-9A
 10
78.9852
 20
169.131
 30
0.0
 40
0
 41
0
  0
VERTEX
  8
CE6-F2-9A
 10
79.1986
 20
169.023
 30
0.0
 40
0
 41
0
  0
VERTEX
  8
CE6-F2-9A
 10
79.2508
 20
168.757
 30
0.0
 40
0
 41
0
  0
VERTEX
  8
CE6-F2-9A
 10
84.4709
 20
165.723
 30
0.0
 40
0
 41
0
  0
VERTEX
  8
CE6-F2-9A
 10
93.0451
 20
162.475
 30
0.0
 40
0
 41
0
  0
VERTEX
  8
CE6-F2-9A
 10
92.9929
 20
162.367
 30
0.0
 40
0
 41
0
  0
VERTEX
  8
CE6-F2-9A
 10
93.1527
 20
162.315
 30
0.0
 40
0
 41
0
  0
VERTEX
  8
CE6-F2-9A
 10
93.2864
 20
162.282
 30
0.0
 40
0
 41
0
  0
VERTEX
  8
CE6-F2-9A
 10
93.9878
 20
162.176
 30
0.0
 40
0
 41
0
  0
VERTEX
  8
CE6-F2-9A
 10
94.6753
 20
162.042
 30
0.0
 40
0
 41
0
  0
VERTEX
  8
CE6-F2-9A
 10
94.8034
 20
161.995
 30
0.0
 40
0
 41
0
  0
VERTEX
  8
CE6-F2-9A
 10
94.9635
 20
161.889
 30
0.0
 40
0
 41
0
  0
VERTEX
  8
CE6-F2-9A
 10
94.9635
 20
161.622
 30
0.0
 40
0
 41
0
  0
VERTEX
  8
CE6-F2-9A
 10
95.0694
 20
161.622
 30
0.0
 40
0
 41
0
  0
VERTEX
  8
CE6-F2-9A
 10
95.0694
 20
161.835
 30
0.0
 40
0
 41
0
  0
VERTEX
  8
CE6-F2-9A
 10
95.1756
 20
161.942
 30
0.0
 40
0
 41
0
  0
VERTEX
  8
CE6-F2-9A
 10
96.3482
 20
161.942
 30
0.0
 40
0
 41
0
  0
VERTEX
  8
CE6-F2-9A
 10
96.7204
 20
161.889
 30
0.0
 40
0
 41
0
  0
VERTEX
  8
CE6-F2-9A
 10
97.1998
 20
161.835
 30
0.0
 40
0
 41
0
  0
VERTEX
  8
CE6-F2-9A
 10
97.5734
 20
161.729
 30
0.0
 40
0
 41
0
  0
VERTEX
  8
CE6-F2-9A
 10
97.9992
 20
161.622
 30
0.0
 40
0
 41
0
  0
VERTEX
  8
CE6-F2-9A
 10
98.2652
 20
161.622
 30
0.0
 40
0
 41
0
  0
VERTEX
  8
CE6-F2-9A
 10
98.5848
 20
161.569
 30
0.0
 40
0
 41
0
  0
VERTEX
  8
CE6-F2-9A
 10
98.7986
 20
161.569
 30
0.0
 40
0
 41
0
  0
VERTEX
  8
CE6-F2-9A
 10
98.9584
 20
161.516
 30
0.0
 40
0
 41
0
  0
VERTEX
  8
CE6-F2-9A
 10
99.1182
 20
161.41
 30
0.0
 40
0
 41
0
  0
VERTEX
  8
CE6-F2-9A
 10
99.4904
 20
161.198
 30
0.0
 40
0
 41
0
  0
VERTEX
  8
CE6-F2-9A
 10
99.7038
 20
161.09
 30
0.0
 40
0
 41
0
  0
VERTEX
  8
CE6-F2-9A
 10
99.81
 20
160.984
 30
0.0
 40
0
 41
0
  0
VERTEX
  8
CE6-F2-9A
 10
99.9698
 20
160.93
 30
0.0
 40
0
 41
0
  0
VERTEX
  8
CE6-F2-9A
 10
100.023
 20
160.77
 30
0.0
 40
0
 41
0
  0
VERTEX
  8
CE6-F2-9A
 10
100.023
 20
160.718
 30
0.0
 40
0
 41
0
  0
VERTEX
  8
CE6-F2-9A
 10
100.076
 20
160.45
 30
0.0
 40
0
 41
0
  0
VERTEX
  8
CE6-F2-9A
 10
100.663
 20
160.291
 30
0.0
 40
0
 41
0
  0
VERTEX
  8
CE6-F2-9A
 10
100.875
 20
160.025
 30
0.0
 40
0
 41
0
  0
VERTEX
  8
CE6-F2-9A
 10
101.087
 20
159.813
 30
0.0
 40
0
 41
0
  0
VERTEX
  8
CE6-F2-9A
 10
101.301
 20
159.279
 30
0.0
 40
0
 41
0
  0
VERTEX
  8
CE6-F2-9A
 10
101.567
 20
158.907
 30
0.0
 40
0
 41
0
  0
VERTEX
  8
CE6-F2-9A
 10
101.834
 20
158.641
 30
0.0
 40
0
 41
0
  0
VERTEX
  8
CE6-F2-9A
 10
101.887
 20
158.587
 30
0.0
 40
0
 41
0
  0
VERTEX
  8
CE6-F2-9A
 10
101.994
 20
158.428
 30
0.0
 40
0
 41
0
  0
VERTEX
  8
CE6-F2-9A
 10
102.154
 20
158.321
 30
0.0
 40
0
 41
0
  0
VERTEX
  8
CE6-F2-9A
 10
102.366
 20
158.268
 30
0.0
 40
0
 41
0
  0
VERTEX
  8
CE6-F2-9A
 10
102.472
 20
158.162
 30
0.0
 40
0
 41
0
  0
VERTEX
  8
CE6-F2-9A
 10
102.58
 20
158.162
 30
0.0
 40
0
 41
0
  0
VERTEX
  8
CE6-F2-9A
 10
102.632
 20
158.055
 30
0.0
 40
0
 41
0
  0
VERTEX
  8
CE6-F2-9A
 10
102.792
 20
158.002
 30
0.0
 40
0
 41
0
  0
VERTEX
  8
CE6-F2-9A
 10
103.005
 20
158.109
 30
0.0
 40
0
 41
0
  0
VERTEX
  8
CE6-F2-9A
 10
103.059
 20
158.055
 30
0.0
 40
0
 41
0
  0
VERTEX
  8
CE6-F2-9A
 10
103.112
 20
157.788
 30
0.0
 40
0
 41
0
  0
VERTEX
  8
CE6-F2-9A
 10
103.112
 20
155.659
 30
0.0
 40
0
 41
0
  0
VERTEX
  8
CE6-F2-9A
 10
103.218
 20
155.659
 30
0.0
 40
0
 41
0
  0
VERTEX
  8
CE6-F2-9A
 10
103.325
 20
150.387
 30
0.0
 40
0
 41
0
  0
VERTEX
  8
CE6-F2-9A
 10
105.011
 20
141.955
 30
0.0
 40
0
 41
0
  0
VERTEX
  8
CE6-F2-9A
 10
105.018
 20
141.932
 30
0.0
 40
0
 41
0
  0
VERTEX
  8
CE6-F2-9A
 10
105.033
 20
141.946
 30
0.0
 40
0
 41
0
  0
VERTEX
  8
CE6-F2-9A
 10
105.082
 20
141.985
 30
0.0
 40
0
 41
0
  0
VERTEX
  8
CE6-F2-9A
 10
105.02
 20
141.927
 30
0.0
 40
0
 41
0
  0
VERTEX
  8
CE6-F2-9A
 10
105.02
 20
141.927
 30
0.0
 40
0
 41
0
  0
VERTEX
  8
CE6-F2-9A
 10
110.054
 20
127.386
 30
0.0
 40
0
 41
0
  0
VERTEX
  8
CE6-F2-9A
 10
110.083
 20
127.429
 30
0.0
 40
0
 41
0
  0
VERTEX
  8
CE6-F2-9A
 10
110.929
 20
127.152
 30
0.0
 40
0
 41
0
  0
VERTEX
  8
CE6-F2-9A
 10
119.363
 20
124.307
 30
0.0
 40
0
 41
0
  0
VERTEX
  8
CE6-F2-9A
 10
120.209
 20
124.027
 30
0.0
 40
0
 41
0
  0
VERTEX
  8
CE6-F2-9A
 10
120.475
 20
123.974
 30
0.0
 40
0
 41
0
  0
VERTEX
  8
CE6-F2-9A
 10
120.367
 20
123.602
 30
0.0
 40
0
 41
0
  0
VERTEX
  8
CE6-F2-9A
 10
120.209
 20
122.856
 30
0.0
 40
0
 41
0
  0
VERTEX
  8
CE6-F2-9A
 10
120.155
 20
122.644
 30
0.0
 40
0
 41
0
  0
VERTEX
  8
CE6-F2-9A
 10
120.049
 20
122.272
 30
0.0
 40
0
 41
0
  0
VERTEX
  8
CE6-F2-9A
 10
119.996
 20
122.057
 30
0.0
 40
0
 41
0
  0
VERTEX
  8
CE6-F2-9A
 10
119.942
 20
121.686
 30
0.0
 40
0
 41
0
  0
VERTEX
  8
CE6-F2-9A
 10
121.167
 20
121.259
 30
0.0
 40
0
 41
0
  0
VERTEX
  8
CE6-F2-9A
 10
121.274
 20
121.259
 30
0.0
 40
0
 41
0
  0
VERTEX
  8
CE6-F2-9A
 10
121.646
 20
121.153
 30
0.0
 40
0
 41
0
  0
VERTEX
  8
CE6-F2-9A
 10
122.232
 20
120.939
 30
0.0
 40
0
 41
0
  0
VERTEX
  8
CE6-F2-9A
 10
122.605
 20
120.833
 30
0.0
 40
0
 41
0
  0
VERTEX
  8
CE6-F2-9A
 10
122.498
 20
119.981
 30
0.0
 40
0
 41
0
  0
VERTEX
  8
CE6-F2-9A
 10
122.498
 20
119.82
 30
0.0
 40
0
 41
0
  0
VERTEX
  8
CE6-F2-9A
 10
122.552
 20
119.874
 30
0.0
 40
0
 41
0
  0
VERTEX
  8
CE6-F2-9A
 10
122.805
 20
119.944
 30
0.0
 40
0
 41
0
  0
VERTEX
  8
CE6-F2-9A
 10
123.569
 20
120.146
 30
0.0
 40
0
 41
0
  0
VERTEX
  8
CE6-F2-9A
 10
124.758
 20
120.405
 30
0.0
 40
0
 41
0
  0
VERTEX
  8
CE6-F2-9A
 10
125.975
 20
120.559
 30
0.0
 40
0
 41
0
  0
VERTEX
  8
CE6-F2-9A
 10
126.808
 20
120.562
 30
0.0
 40
0
 41
0
  0
VERTEX
  8
CE6-F2-9A
 10
127.079
 20
120.513
 30
0.0
 40
0
 41
0
  0
VERTEX
  8
CE6-F2-9A
 10
127.292
 20
120.513
 30
0.0
 40
0
 41
0
  0
VERTEX
  8
CE6-F2-9A
 10
127.398
 20
120.354
 30
0.0
 40
0
 41
0
  0
VERTEX
  8
CE6-F2-9A
 10
128.41
 20
119.716
 30
0.0
 40
0
 41
0
  0
VERTEX
  8
CE6-F2-9A
 10
128.837
 20
119.448
 30
0.0
 40
0
 41
0
  0
VERTEX
  8
CE6-F2-9A
 10
128.997
 20
119.29
 30
0.0
 40
0
 41
0
  0
VERTEX
  8
CE6-F2-9A
 10
129.103
 20
119.075
 30
0.0
 40
0
 41
0
  0
VERTEX
  8
CE6-F2-9A
 10
129.423
 20
117.638
 30
0.0
 40
0
 41
0
  0
VERTEX
  8
CE6-F2-9A
 10
129.636
 20
117.265
 30
0.0
 40
0
 41
0
  0
VERTEX
  8
CE6-F2-9A
 10
129.796
 20
116.946
 30
0.0
 40
0
 41
0
  0
VERTEX
  8
CE6-F2-9A
 10
130.008
 20
116.628
 30
0.0
 40
0
 41
0
  0
VERTEX
  8
CE6-F2-9A
 10
130.114
 20
116.52
 30
0.0
 40
0
 41
0
  0
VERTEX
  8
CE6-F2-9A
 10
130.382
 20
116.36
 30
0.0
 40
0
 41
0
  0
VERTEX
  8
CE6-F2-9A
 10
130.914
 20
115.775
 30
0.0
 40
0
 41
0
  0
VERTEX
  8
CE6-F2-9A
 10
131.233
 20
115.402
 30
0.0
 40
0
 41
0
  0
VERTEX
  8
CE6-F2-9A
 10
131.447
 20
115.135
 30
0.0
 40
0
 41
0
  0
VERTEX
  8
CE6-F2-9A
 10
131.767
 20
114.869
 30
0.0
 40
0
 41
0
  0
VERTEX
  8
CE6-F2-9A
 10
132.352
 20
114.337
 30
0.0
 40
0
 41
0
  0
VERTEX
  8
CE6-F2-9A
 10
132.99
 20
113.858
 30
0.0
 40
0
 41
0
  0
VERTEX
  8
CE6-F2-9A
 10
134.163
 20
114.923
 30
0.0
 40
0
 41
0
  0
VERTEX
  8
CE6-F2-9A
 10
134.535
 20
115.083
 30
0.0
 40
0
 41
0
  0
VERTEX
  8
CE6-F2-9A
 10
134.855
 20
115.295
 30
0.0
 40
0
 41
0
  0
VERTEX
  8
CE6-F2-9A
 10
134.995
 20
115.42
 30
0.0
 40
0
 41
0
  0
VERTEX
  8
CE6-F2-9A
 10
135.403
 20
115.812
 30
0.0
 40
0
 41
0
  0
VERTEX
  8
CE6-F2-9A
 10
135.902
 20
116.396
 30
0.0
 40
0
 41
0
  0
VERTEX
  8
CE6-F2-9A
 10
136.263
 20
117.056
 30
0.0
 40
0
 41
0
  0
VERTEX
  8
CE6-F2-9A
 10
136.4
 20
117.613
 30
0.0
 40
0
 41
0
  0
VERTEX
  8
CE6-F2-9A
 10
136.4
 20
117.797
 30
0.0
 40
0
 41
0
  0
VERTEX
  8
CE6-F2-9A
 10
136.506
 20
118.063
 30
0.0
 40
0
 41
0
  0
VERTEX
  8
CE6-F2-9A
 10
136.665
 20
118.703
 30
0.0
 40
0
 41
0
  0
VERTEX
  8
CE6-F2-9A
 10
136.985
 20
119.236
 30
0.0
 40
0
 41
0
  0
VERTEX
  8
CE6-F2-9A
 10
137.091
 20
119.342
 30
0.0
 40
0
 41
0
  0
VERTEX
  8
CE6-F2-9A
 10
137.359
 20
119.662
 30
0.0
 40
0
 41
0
  0
VERTEX
  8
CE6-F2-9A
 10
137.731
 20
120.034
 30
0.0
 40
0
 41
0
  0
VERTEX
  8
CE6-F2-9A
 10
138.21
 20
120.567
 30
0.0
 40
0
 41
0
  0
VERTEX
  8
CE6-F2-9A
 10
138.636
 20
120.939
 30
0.0
 40
0
 41
0
  0
VERTEX
  8
CE6-F2-9A
 10
139.169
 20
121.153
 30
0.0
 40
0
 41
0
  0
VERTEX
  8
CE6-F2-9A
 10
139.595
 20
121.42
 30
0.0
 40
0
 41
0
  0
VERTEX
  8
CE6-F2-9A
 10
140.127
 20
121.631
 30
0.0
 40
0
 41
0
  0
VERTEX
  8
CE6-F2-9A
 10
140.714
 20
121.898
 30
0.0
 40
0
 41
0
  0
VERTEX
  8
CE6-F2-9A
 10
140.874
 20
121.898
 30
0.0
 40
0
 41
0
  0
VERTEX
  8
CE6-F2-9A
 10
141.192
 20
122.164
 30
0.0
 40
0
 41
0
  0
VERTEX
  8
CE6-F2-9A
 10
141.406
 20
122.324
 30
0.0
 40
0
 41
0
  0
VERTEX
  8
CE6-F2-9A
 10
141.672
 20
122.644
 30
0.0
 40
0
 41
0
  0
VERTEX
  8
CE6-F2-9A
 10
141.672
 20
122.696
 30
0.0
 40
0
 41
0
  0
VERTEX
  8
CE6-F2-9A
 10
141.885
 20
122.91
 30
0.0
 40
0
 41
0
  0
VERTEX
  8
CE6-F2-9A
 10
142.258
 20
123.176
 30
0.0
 40
0
 41
0
  0
VERTEX
  8
CE6-F2-9A
 10
142.631
 20
123.336
 30
0.0
 40
0
 41
0
  0
VERTEX
  8
CE6-F2-9A
 10
143.003
 20
123.443
 30
0.0
 40
0
 41
0
  0
VERTEX
  8
CE6-F2-9A
 10
143.164
 20
123.443
 30
0.0
 40
0
 41
0
  0
VERTEX
  8
CE6-F2-9A
 10
143.323
 20
123.549
 30
0.0
 40
0
 41
0
  0
VERTEX
  8
CE6-F2-9A
 10
143.484
 20
123.602
 30
0.0
 40
0
 41
0
  0
VERTEX
  8
CE6-F2-9A
 10
143.644
 20
123.708
 30
0.0
 40
0
 41
0
  0
VERTEX
  8
CE6-F2-9A
 10
143.731
 20
123.799
 30
0.0
 40
0
 41
0
  0
VERTEX
  8
CE6-F2-9A
 10
144.095
 20
124.241
 30
0.0
 40
0
 41
0
  0
VERTEX
  8
CE6-F2-9A
 10
144.318
 20
124.755
 30
0.0
 40
0
 41
0
  0
VERTEX
  8
CE6-F2-9A
 10
144.336
 20
124.881
 30
0.0
 40
0
 41
0
  0
VERTEX
  8
CE6-F2-9A
 10
144.282
 20
125.253
 30
0.0
 40
0
 41
0
  0
VERTEX
  8
CE6-F2-9A
 10
144.282
 20
125.626
 30
0.0
 40
0
 41
0
  0
VERTEX
  8
CE6-F2-9A
 10
143.962
 20
126.318
 30
0.0
 40
0
 41
0
  0
VERTEX
  8
CE6-F2-9A
 10
143.95
 20
126.435
 30
0.0
 40
0
 41
0
  0
VERTEX
  8
CE6-F2-9A
 10
143.924
 20
126.784
 30
0.0
 40
0
 41
0
  0
VERTEX
  8
CE6-F2-9A
 10
143.922
 20
127.069
 30
0.0
 40
0
 41
0
  0
VERTEX
  8
CE6-F2-9A
 10
143.941
 20
127.351
 30
0.0
 40
0
 41
0
  0
VERTEX
  8
CE6-F2-9A
 10
143.959
 20
127.695
 30
0.0
 40
0
 41
0
  0
VERTEX
  8
CE6-F2-9A
 10
143.962
 20
127.809
 30
0.0
 40
0
 41
0
  0
VERTEX
  8
CE6-F2-9A
 10
142.897
 20
134.413
 30
0.0
 40
0
 41
0
  0
VERTEX
  8
CE6-F2-9A
 10
145.667
 20
135.742
 30
0.0
 40
0
 41
0
  0
VERTEX
  8
CE6-F2-9A
 10
147.903
 20
136.808
 30
0.0
 40
0
 41
0
  0
VERTEX
  8
CE6-F2-9A
 10
149.235
 20
138.406
 30
0.0
 40
0
 41
0
  0
VERTEX
  8
CE6-F2-9A
 10
149.448
 20
138.992
 30
0.0
 40
0
 41
0
  0
VERTEX
  8
CE6-F2-9A
 10
149.448
 20
139.044
 30
0.0
 40
0
 41
0
  0
VERTEX
  8
CE6-F2-9A
 10
149.714
 20
139.949
 30
0.0
 40
0
 41
0
  0
VERTEX
  8
CE6-F2-9A
 10
150.301
 20
140.429
 30
0.0
 40
0
 41
0
  0
VERTEX
  8
CE6-F2-9A
 10
150.779
 20
140.483
 30
0.0
 40
0
 41
0
  0
VERTEX
  8
CE6-F2-9A
 10
151.099
 20
140.375
 30
0.0
 40
0
 41
0
  0
VERTEX
  8
CE6-F2-9A
 10
151.419
 20
140.163
 30
0.0
 40
0
 41
0
  0
VERTEX
  8
CE6-F2-9A
 10
151.792
 20
139.577
 30
0.0
 40
0
 41
0
  0
VERTEX
  8
CE6-F2-9A
 10
152.484
 20
139.471
 30
0.0
 40
0
 41
0
  0
VERTEX
  8
CE6-F2-9A
 10
152.59
 20
139.417
 30
0.0
 40
0
 41
0
  0
VERTEX
  8
CE6-F2-9A
 10
153.07
 20
139.204
 30
0.0
 40
0
 41
0
  0
VERTEX
  8
CE6-F2-9A
 10
153.761
 20
138.832
 30
0.0
 40
0
 41
0
  0
VERTEX
  8
CE6-F2-9A
 10
154.348
 20
140.217
 30
0.0
 40
0
 41
0
  0
VERTEX
  8
CE6-F2-9A
 10
155.36
 20
140.589
 30
0.0
 40
0
 41
0
  0
VERTEX
  8
CE6-F2-9A
 10
156.106
 20
141.654
 30
0.0
 40
0
 41
0
  0
VERTEX
  8
CE6-F2-9A
 10
158.928
 20
143.997
 30
0.0
 40
0
 41
0
  0
VERTEX
  8
CE6-F2-9A
 10
159.355
 20
144.315
 30
0.0
 40
0
 41
0
  0
VERTEX
  8
CE6-F2-9A
 10
158.981
 20
147.724
 30
0.0
 40
0
 41
0
  0
VERTEX
  8
CE6-F2-9A
 10
160.205
 20
148.416
 30
0.0
 40
0
 41
0
  0
VERTEX
  8
CE6-F2-9A
 10
161.058
 20
149.695
 30
0.0
 40
0
 41
0
  0
VERTEX
  8
CE6-F2-9A
 10
162.497
 20
151.825
 30
0.0
 40
0
 41
0
  0
VERTEX
  8
CE6-F2-9A
 10
162.549
 20
151.825
 30
0.0
 40
0
 41
0
  0
VERTEX
  8
CE6-F2-9A
 10
165.799
 20
153.583
 30
0.0
 40
0
 41
0
  0
VERTEX
  8
CE6-F2-9A
 10
166.49
 20
154.486
 30
0.0
 40
0
 41
0
  0
VERTEX
  8
CE6-F2-9A
 10
166.49
 20
155.446
 30
0.0
 40
0
 41
0
  0
VERTEX
  8
CE6-F2-9A
 10
164.626
 20
157.362
 30
0.0
 40
0
 41
0
  0
VERTEX
  8
CE6-F2-9A
 10
164.414
 20
157.576
 30
0.0
 40
0
 41
0
  0
VERTEX
  8
CE6-F2-9A
 10
164.306
 20
157.788
 30
0.0
 40
0
 41
0
  0
VERTEX
  8
CE6-F2-9A
 10
164.04
 20
158.587
 30
0.0
 40
0
 41
0
  0
VERTEX
  8
CE6-F2-9A
 10
163.934
 20
159.013
 30
0.0
 40
0
 41
0
  0
VERTEX
  8
CE6-F2-9A
 10
163.88
 20
159.173
 30
0.0
 40
0
 41
0
  0
VERTEX
  8
CE6-F2-9A
 10
163.88
 20
159.493
 30
0.0
 40
0
 41
0
  0
VERTEX
  8
CE6-F2-9A
 10
163.987
 20
160.025
 30
0.0
 40
0
 41
0
  0
VERTEX
  8
CE6-F2-9A
 10
163.88
 20
160.291
 30
0.0
 40
0
 41
0
  0
VERTEX
  8
CE6-F2-9A
 10
163.348
 20
160.718
 30
0.0
 40
0
 41
0
  0
VERTEX
  8
CE6-F2-9A
 10
162.815
 20
161.198
 30
0.0
 40
0
 41
0
  0
VERTEX
  8
CE6-F2-9A
 10
162.336
 20
161.569
 30
0.0
 40
0
 41
0
  0
VERTEX
  8
CE6-F2-9A
 10
161.538
 20
162.101
 30
0.0
 40
0
 41
0
  0
VERTEX
  8
CE6-F2-9A
 10
160.952
 20
162.901
 30
0.0
 40
0
 41
0
  0
VERTEX
  8
CE6-F2-9A
 10
160.419
 20
163.7
 30
0.0
 40
0
 41
0
  0
VERTEX
  8
CE6-F2-9A
 10
160.205
 20
164.018
 30
0.0
 40
0
 41
0
  0
VERTEX
  8
CE6-F2-9A
 10
160.047
 20
164.232
 30
0.0
 40
0
 41
0
  0
VERTEX
  8
CE6-F2-9A
 10
158.608
 20
166.309
 30
0.0
 40
0
 41
0
  0
VERTEX
  8
CE6-F2-9A
 10
158.13
 20
166.948
 30
0.0
 40
0
 41
0
  0
VERTEX
  8
CE6-F2-9A
 10
157.65
 20
167.64
 30
0.0
 40
0
 41
0
  0
VERTEX
  8
CE6-F2-9A
 10
157.65
 20
167.694
 30
0.0
 40
0
 41
0
  0
VERTEX
  8
CE6-F2-9A
 10
157.81
 20
168.119
 30
0.0
 40
0
 41
0
  0
VERTEX
  8
CE6-F2-9A
 10
158.076
 20
168.599
 30
0.0
 40
0
 41
0
  0
VERTEX
  8
CE6-F2-9A
 10
158.396
 20
169.131
 30
0.0
 40
0
 41
0
  0
VERTEX
  8
CE6-F2-9A
 10
158.548
 20
169.341
 30
0.0
 40
0
 41
0
  0
VERTEX
  8
CE6-F2-9A
 10
159.097
 20
170.37
 30
0.0
 40
0
 41
0
  0
VERTEX
  8
CE6-F2-9A
 10
159.493
 20
171.45
 30
0.0
 40
0
 41
0
  0
VERTEX
  8
CE6-F2-9A
 10
159.567
 20
171.687
 30
0.0
 40
0
 41
0
  0
VERTEX
  8
CE6-F2-9A
 10
159.567
 20
171.899
 30
0.0
 40
0
 41
0
  0
VERTEX
  8
CE6-F2-9A
 10
159.673
 20
172.592
 30
0.0
 40
0
 41
0
  0
VERTEX
  8
CE6-F2-9A
 10
159.673
 20
172.911
 30
0.0
 40
0
 41
0
  0
VERTEX
  8
CE6-F2-9A
 10
159.727
 20
172.964
 30
0.0
 40
0
 41
0
  0
VERTEX
  8
CE6-F2-9A
 10
159.727
 20
173.072
 30
0.0
 40
0
 41
0
  0
VERTEX
  8
CE6-F2-9A
 10
159.781
 20
173.39
 30
0.0
 40
0
 41
0
  0
VERTEX
  8
CE6-F2-9A
 10
159.781
 20
173.444
 30
0.0
 40
0
 41
0
  0
VERTEX
  8
CE6-F2-9A
 10
159.833
 20
173.764
 30
0.0
 40
0
 41
0
  0
VERTEX
  8
CE6-F2-9A
 10
159.887
 20
173.87
 30
0.0
 40
0
 41
0
  0
VERTEX
  8
CE6-F2-9A
 10
159.887
 20
174.03
 30
0.0
 40
0
 41
0
  0
VERTEX
  8
CE6-F2-9A
 10
159.939
 20
174.19
 30
0.0
 40
0
 41
0
  0
VERTEX
  8
CE6-F2-9A
 10
159.93
 20
174.268
 30
0.0
 40
0
 41
0
  0
VERTEX
  8
CE6-F2-9A
 10
159.992
 20
174.592
 30
0.0
 40
0
 41
0
  0
VERTEX
  8
CE6-F2-9A
 10
160.055
 20
174.947
 30
0.0
 40
0
 41
0
  0
VERTEX
  8
CE6-F2-9A
 10
160.047
 20
175.041
 30
0.0
 40
0
 41
0
  0
VERTEX
  8
CE6-F2-9A
 10
160.047
 20
175.201
 30
0.0
 40
0
 41
0
  0
VERTEX
  8
CE6-F2-9A
 10
160.051
 20
175.331
 30
0.0
 40
0
 41
0
  0
VERTEX
  8
CE6-F2-9A
 10
160.038
 20
175.882
 30
0.0
 40
0
 41
0
  0
VERTEX
  8
CE6-F2-9A
 10
160
 20
176.414
 30
0.0
 40
0
 41
0
  0
VERTEX
  8
CE6-F2-9A
 10
159.993
 20
176.532
 30
0.0
 40
0
 41
0
  0
VERTEX
  8
CE6-F2-9A
 10
159.939
 20
176.64
 30
0.0
 40
0
 41
0
  0
VERTEX
  8
CE6-F2-9A
 10
159.407
 20
177.118
 30
0.0
 40
0
 41
0
  0
VERTEX
  8
CE6-F2-9A
 10
158.715
 20
177.757
 30
0.0
 40
0
 41
0
  0
VERTEX
  8
CE6-F2-9A
 10
159.301
 20
179.78
 30
0.0
 40
0
 41
0
  0
VERTEX
  8
CE6-F2-9A
 10
159.407
 20
181.751
 30
0.0
 40
0
 41
0
  0
VERTEX
  8
CE6-F2-9A
 10
158.928
 20
183.881
 30
0.0
 40
0
 41
0
  0
VERTEX
  8
CE6-F2-9A
 10
159.833
 20
185.798
 30
0.0
 40
0
 41
0
  0
VERTEX
  8
CE6-F2-9A
 10
161.218
 20
187.023
 30
0.0
 40
0
 41
0
  0
VERTEX
  8
CE6-F2-9A
 10
161.164
 20
188.301
 30
0.0
 40
0
 41
0
  0
VERTEX
  8
CE6-F2-9A
 10
162.815
 20
190.324
 30
0.0
 40
0
 41
0
  0
VERTEX
  8
CE6-F2-9A
 10
163.562
 20
192.028
 30
0.0
 40
0
 41
0
  0
VERTEX
  8
CE6-F2-9A
 10
163.562
 20
192.294
 30
0.0
 40
0
 41
0
  0
VERTEX
  8
CE6-F2-9A
 10
163.614
 20
192.668
 30
0.0
 40
0
 41
0
  0
VERTEX
  8
CE6-F2-9A
 10
163.508
 20
192.668
 30
0.0
 40
0
 41
0
  0
VERTEX
  8
CE6-F2-9A
 10
163.402
 20
192.72
 30
0.0
 40
0
 41
0
  0
VERTEX
  8
CE6-F2-9A
 10
163.189
 20
192.72
 30
0.0
 40
0
 41
0
  0
VERTEX
  8
CE6-F2-9A
 10
163.189
 20
192.772
 30
0.0
 40
0
 41
0
  0
VERTEX
  8
CE6-F2-9A
 10
163.455
 20
192.72
 30
0.0
 40
0
 41
0
  0
VERTEX
  8
CE6-F2-9A
 10
163.614
 20
192.72
 30
0.0
 40
0
 41
0
  0
VERTEX
  8
CE6-F2-9A
 10
163.668
 20
192.826
 30
0.0
 40
0
 41
0
  0
VERTEX
  8
CE6-F2-9A
 10
163.721
 20
193.146
 30
0.0
 40
0
 41
0
  0
VERTEX
  8
CE6-F2-9A
 10
163.774
 20
193.199
 30
0.0
 40
0
 41
0
  0
VERTEX
  8
CE6-F2-9A
 10
163.774
 20
193.731
 30
0.0
 40
0
 41
0
  0
VERTEX
  8
CE6-F2-9A
 10
163.828
 20
193.891
 30
0.0
 40
0
 41
0
  0
VERTEX
  8
CE6-F2-9A
 10
163.828
 20
194.691
 30
0.0
 40
0
 41
0
  0
VERTEX
  8
CE6-F2-9A
 10
163.934
 20
196.288
 30
0.0
 40
0
 41
0
  0
VERTEX
  8
CE6-F2-9A
 10
163.934
 20
196.395
 30
0.0
 40
0
 41
0
  0
VERTEX
  8
CE6-F2-9A
 10
164.2
 20
196.395
 30
0.0
 40
0
 41
0
  0
VERTEX
  8
CE6-F2-9A
 10
164.326
 20
196.431
 30
0.0
 40
0
 41
0
  0
VERTEX
  8
CE6-F2-9A
 10
165.622
 20
196.731
 30
0.0
 40
0
 41
0
  0
VERTEX
  8
CE6-F2-9A
 10
165.745
 20
196.767
 30
0.0
 40
0
 41
0
  0
VERTEX
  8
CE6-F2-9A
 10
165.851
 20
196.821
 30
0.0
 40
0
 41
0
  0
VERTEX
  8
CE6-F2-9A
 10
165.959
 20
196.767
 30
0.0
 40
0
 41
0
  0
VERTEX
  8
CE6-F2-9A
 10
166.278
 20
196.873
 30
0.0
 40
0
 41
0
  0
VERTEX
  8
CE6-F2-9A
 10
166.437
 20
196.927
 30
0.0
 40
0
 41
0
  0
VERTEX
  8
CE6-F2-9A
 10
166.707
 20
196.974
 30
0.0
 40
0
 41
0
  0
VERTEX
  8
CE6-F2-9A
 10
169.42
 20
197.613
 30
0.0
 40
0
 41
0
  0
VERTEX
  8
CE6-F2-9A
 10
169.689
 20
197.673
 30
0.0
 40
0
 41
0
  0
VERTEX
  8
CE6-F2-9A
 10
169.847
 20
197.831
 30
0.0
 40
0
 41
0
  0
VERTEX
  8
CE6-F2-9A
 10
170.061
 20
197.991
 30
0.0
 40
0
 41
0
  0
VERTEX
  8
CE6-F2-9A
 10
170.807
 20
198.63
 30
0.0
 40
0
 41
0
  0
VERTEX
  8
CE6-F2-9A
 10
171.073
 20
198.898
 30
0.0
 40
0
 41
0
  0
VERTEX
  8
CE6-F2-9A
 10
171.126
 20
199.004
 30
0.0
 40
0
 41
0
  0
VERTEX
  8
CE6-F2-9A
 10
171.234
 20
199.164
 30
0.0
 40
0
 41
0
  0
VERTEX
  8
CE6-F2-9A
 10
171.926
 20
199.909
 30
0.0
 40
0
 41
0
  0
VERTEX
  8
CE6-F2-9A
 10
172.033
 20
200.069
 30
0.0
 40
0
 41
0
  0
VERTEX
  8
CE6-F2-9A
 10
172.085
 20
200.121
 30
0.0
 40
0
 41
0
  0
VERTEX
  8
CE6-F2-9A
 10
172.712
 20
200.866
 30
0.0
 40
0
 41
0
  0
VERTEX
  8
CE6-F2-9A
 10
178.901
 20
208.335
 30
0.0
 40
0
 41
0
  0
VERTEX
  8
CE6-F2-9A
 10
179.541
 20
209.068
 30
0.0
 40
0
 41
0
  0
VERTEX
  8
CE6-F2-9A
 10
180.18
 20
209.867
 30
0.0
 40
0
 41
0
  0
VERTEX
  8
CE6-F2-9A
 10
180.18
 20
209.919
 30
0.0
 40
0
 41
0
  0
VERTEX
  8
CE6-F2-9A
 10
180.286
 20
209.973
 30
0.0
 40
0
 41
0
  0
VERTEX
  8
CE6-F2-9A
 10
181.085
 20
210.931
 30
0.0
 40
0
 41
0
  0
VERTEX
  8
CE6-F2-9A
 10
182.043
 20
212.157
 30
0.0
 40
0
 41
0
  0
VERTEX
  8
CE6-F2-9A
 10
182.219
 20
212.305
 30
0.0
 40
0
 41
0
  0
VERTEX
  8
CE6-F2-9A
 10
182.995
 20
213.254
 30
0.0
 40
0
 41
0
  0
VERTEX
  8
CE6-F2-9A
 10
183.745
 20
214.195
 30
0.0
 40
0
 41
0
  0
VERTEX
  8
CE6-F2-9A
 10
183.908
 20
214.339
 30
0.0
 40
0
 41
0
  0
VERTEX
  8
CE6-F2-9A
 10
184.333
 20
214.924
 30
0.0
 40
0
 41
0
  0
VERTEX
  8
CE6-F2-9A
 10
184.387
 20
214.978
 30
0.0
 40
0
 41
0
  0
VERTEX
  8
CE6-F2-9A
 10
184.503
 20
215.085
 30
0.0
 40
0
 41
0
  0
VERTEX
  8
CE6-F2-9A
 10
184.995
 20
215.702
 30
0.0
 40
0
 41
0
  0
VERTEX
  8
CE6-F2-9A
 10
185.492
 20
216.312
 30
0.0
 40
0
 41
0
  0
VERTEX
  8
CE6-F2-9A
 10
185.612
 20
216.415
 30
0.0
 40
0
 41
0
  0
VERTEX
  8
CE6-F2-9A
 10
185.718
 20
216.575
 30
0.0
 40
0
 41
0
  0
VERTEX
  8
CE6-F2-9A
 10
185.932
 20
216.735
 30
0.0
 40
0
 41
0
  0
VERTEX
  8
CE6-F2-9A
 10
186.411
 20
217.215
 30
0.0
 40
0
 41
0
  0
VERTEX
  8
CE6-F2-9A
 10
186.734
 20
217.545
 30
0.0
 40
0
 41
0
  0
VERTEX
  8
CE6-F2-9A
 10
189.839
 20
220.966
 30
0.0
 40
0
 41
0
  0
VERTEX
  8
CE6-F2-9A
 10
190.139
 20
221.316
 30
0.0
 40
0
 41
0
  0
VERTEX
  8
CE6-F2-9A
 10
190.725
 20
222.008
 30
0.0
 40
0
 41
0
  0
VERTEX
  8
CE6-F2-9A
 10
190.777
 20
222.06
 30
0.0
 40
0
 41
0
  0
VERTEX
  8
CE6-F2-9A
 10
190.032
 20
222.167
 30
0.0
 40
0
 41
0
  0
SEQEND
 8
0
  0
POLYLINE
  8
CFD-E2-93
 66
     1
 10
0
 20
0
 30
0.0
 70
     1
 40
0
 41
0
  0
VERTEX
  8
CFD-E2-93
 10
61.1434
 20
172.486
 30
0.0
 40
0
 41
0
  0
VERTEX
  8
CFD-E2-93
 10
61.1434
 20
172.379
 30
0.0
 40
0
 41
0
  0
VERTEX
  8
CFD-E2-93
 10
58.7456
 20
172.379
 30
0.0
 40
0
 41
0
  0
VERTEX
  8
CFD-E2-93
 10
57.1486
 20
172.326
 30
0.0
 40
0
 41
0
  0
VERTEX
  8
CFD-E2-93
 10
55.4976
 20
172.273
 30
0.0
 40
0
 41
0
  0
VERTEX
  8
CFD-E2-93
 10
55.0884
 20
171.985
 30
0.0
 40
0
 41
0
  0
VERTEX
  8
CFD-E2-93
 10
54.966
 20
171.899
 30
0.0
 40
0
 41
0
  0
VERTEX
  8
CFD-E2-93
 10
54.9645
 20
171.899
 30
0.0
 40
0
 41
0
  0
VERTEX
  8
CFD-E2-93
 10
54.9508
 20
171.887
 30
0.0
 40
0
 41
0
  0
VERTEX
  8
CFD-E2-93
 10
54.7991
 20
171.76
 30
0.0
 40
0
 41
0
  0
VERTEX
  8
CFD-E2-93
 10
54.7839
 20
171.746
 30
0.0
 40
0
 41
0
  0
VERTEX
  8
CFD-E2-93
 10
54.7839
 20
171.746
 30
0.0
 40
0
 41
0
  0
VERTEX
  8
CFD-E2-93
 10
54.7839
 20
171.745
 30
0.0
 40
0
 41
0
  0
VERTEX
  8
CFD-E2-93
 10
54.7839
 20
171.745
 30
0.0
 40
0
 41
0
  0
VERTEX
  8
CFD-E2-93
 10
54.7673
 20
171.733
 30
0.0
 40
0
 41
0
  0
VERTEX
  8
CFD-E2-93
 10
54.5966
 20
171.607
 30
0.0
 40
0
 41
0
  0
VERTEX
  8
CFD-E2-93
 10
54.5786
 20
171.595
 30
0.0
 40
0
 41
0
  0
VERTEX
  8
CFD-E2-93
 10
54.5786
 20
171.595
 30
0.0
 40
0
 41
0
  0
VERTEX
  8
CFD-E2-93
 10
54.5786
 20
171.593
 30
0.0
 40
0
 41
0
  0
VERTEX
  8
CFD-E2-93
 10
54.5786
 20
171.593
 30
0.0
 40
0
 41
0
  0
VERTEX
  8
CFD-E2-93
 10
54.5412
 20
171.569
 30
0.0
 40
0
 41
0
  0
VERTEX
  8
CFD-E2-93
 10
54.1542
 20
171.319
 30
0.0
 40
0
 41
0
  0
VERTEX
  8
CFD-E2-93
 10
54.1143
 20
171.293
 30
0.0
 40
0
 41
0
  0
VERTEX
  8
CFD-E2-93
 10
54.1143
 20
171.293
 30
0.0
 40
0
 41
0
  0
VERTEX
  8
CFD-E2-93
 10
54.1143
 20
171.292
 30
0.0
 40
0
 41
0
  0
VERTEX
  8
CFD-E2-93
 10
54.1143
 20
171.292
 30
0.0
 40
0
 41
0
  0
VERTEX
  8
CFD-E2-93
 10
54.0727
 20
171.267
 30
0.0
 40
0
 41
0
  0
VERTEX
  8
CFD-E2-93
 10
53.6526
 20
171.009
 30
0.0
 40
0
 41
0
  0
VERTEX
  8
CFD-E2-93
 10
53.6113
 20
170.982
 30
0.0
 40
0
 41
0
  0
VERTEX
  8
CFD-E2-93
 10
53.6113
 20
170.982
 30
0.0
 40
0
 41
0
  0
VERTEX
  8
CFD-E2-93
 10
53.6099
 20
170.982
 30
0.0
 40
0
 41
0
  0
VERTEX
  8
CFD-E2-93
 10
53.6099
 20
170.982
 30
0.0
 40
0
 41
0
  0
VERTEX
  8
CFD-E2-93
 10
53.5947
 20
170.973
 30
0.0
 40
0
 41
0
  0
VERTEX
  8
CFD-E2-93
 10
53.4515
 20
170.877
 30
0.0
 40
0
 41
0
  0
VERTEX
  8
CFD-E2-93
 10
53.4377
 20
170.867
 30
0.0
 40
0
 41
0
  0
VERTEX
  8
CFD-E2-93
 10
53.4088
 20
170.849
 30
0.0
 40
0
 41
0
  0
VERTEX
  8
CFD-E2-93
 10
53.1301
 20
170.669
 30
0.0
 40
0
 41
0
  0
VERTEX
  8
CFD-E2-93
 10
53.104
 20
170.649
 30
0.0
 40
0
 41
0
  0
VERTEX
  8
CFD-E2-93
 10
53.0835
 20
170.635
 30
0.0
 40
0
 41
0
  0
VERTEX
  8
CFD-E2-93
 10
52.8821
 20
170.487
 30
0.0
 40
0
 41
0
  0
VERTEX
  8
CFD-E2-93
 10
52.863
 20
170.472
 30
0.0
 40
0
 41
0
  0
VERTEX
  8
CFD-E2-93
 10
52.8327
 20
170.45
 30
0.0
 40
0
 41
0
  0
VERTEX
  8
CFD-E2-93
 10
52.5582
 20
170.211
 30
0.0
 40
0
 41
0
  0
VERTEX
  8
CFD-E2-93
 10
52.5336
 20
170.186
 30
0.0
 40
0
 41
0
  0
VERTEX
  8
CFD-E2-93
 10
52.524
 20
170.178
 30
0.0
 40
0
 41
0
  0
VERTEX
  8
CFD-E2-93
 10
52.4344
 20
170.094
 30
0.0
 40
0
 41
0
  0
VERTEX
  8
CFD-E2-93
 10
52.426
 20
170.084
 30
0.0
 40
0
 41
0
  0
VERTEX
  8
CFD-E2-93
 10
52.4178
 20
170.077
 30
0.0
 40
0
 41
0
  0
VERTEX
  8
CFD-E2-93
 10
52.3462
 20
169.993
 30
0.0
 40
0
 41
0
  0
VERTEX
  8
CFD-E2-93
 10
52.3392
 20
169.985
 30
0.0
 40
0
 41
0
  0
VERTEX
  8
CFD-E2-93
 10
52.2676
 20
169.905
 30
0.0
 40
0
 41
0
  0
VERTEX
  8
CFD-E2-93
 10
51.9878
 20
169.47
 30
0.0
 40
0
 41
0
  0
VERTEX
  8
CFD-E2-93
 10
51.8308
 20
168.975
 30
0.0
 40
0
 41
0
  0
VERTEX
  8
CFD-E2-93
 10
51.8223
 20
168.865
 30
0.0
 40
0
 41
0
  0
VERTEX
  8
CFD-E2-93
 10
51.7165
 20
167.374
 30
0.0
 40
0
 41
0
  0
VERTEX
  8
CFD-E2-93
 10
51.7151
 20
167.374
 30
0.0
 40
0
 41
0
  0
VERTEX
  8
CFD-E2-93
 10
51.1831
 20
166.985
 30
0.0
 40
0
 41
0
  0
VERTEX
  8
CFD-E2-93
 10
49.7459
 20
165.936
 30
0.0
 40
0
 41
0
  0
VERTEX
  8
CFD-E2-93
 10
49.4799
 20
165.775
 30
0.0
 40
0
 41
0
  0
VERTEX
  8
CFD-E2-93
 10
49.4785
 20
165.775
 30
0.0
 40
0
 41
0
  0
VERTEX
  8
CFD-E2-93
 10
49.5847
 20
165.563
 30
0.0
 40
0
 41
0
  0
VERTEX
  8
CFD-E2-93
 10
49.6383
 20
165.511
 30
0.0
 40
0
 41
0
  0
VERTEX
  8
CFD-E2-93
 10
49.6383
 20
165.403
 30
0.0
 40
0
 41
0
  0
VERTEX
  8
CFD-E2-93
 10
49.7981
 20
165.297
 30
0.0
 40
0
 41
0
  0
VERTEX
  8
CFD-E2-93
 10
49.9579
 20
165.031
 30
0.0
 40
0
 41
0
  0
VERTEX
  8
CFD-E2-93
 10
50.1177
 20
164.817
 30
0.0
 40
0
 41
0
  0
VERTEX
  8
CFD-E2-93
 10
50.2779
 20
164.658
 30
0.0
 40
0
 41
0
  0
VERTEX
  8
CFD-E2-93
 10
50.2779
 20
164.498
 30
0.0
 40
0
 41
0
  0
VERTEX
  8
CFD-E2-93
 10
50.1717
 20
164.498
 30
0.0
 40
0
 41
0
  0
VERTEX
  8
CFD-E2-93
 10
50.2239
 20
164.284
 30
0.0
 40
0
 41
0
  0
VERTEX
  8
CFD-E2-93
 10
50.2779
 20
163.86
 30
0.0
 40
0
 41
0
  0
VERTEX
  8
CFD-E2-93
 10
50.5435
 20
163.593
 30
0.0
 40
0
 41
0
  0
VERTEX
  8
CFD-E2-93
 10
50.6497
 20
163.327
 30
0.0
 40
0
 41
0
  0
VERTEX
  8
CFD-E2-93
 10
50.6497
 20
163.273
 30
0.0
 40
0
 41
0
  0
VERTEX
  8
CFD-E2-93
 10
50.7037
 20
163.22
 30
0.0
 40
0
 41
0
  0
VERTEX
  8
CFD-E2-93
 10
50.8635
 20
162.953
 30
0.0
 40
0
 41
0
  0
VERTEX
  8
CFD-E2-93
 10
50.8635
 20
162.901
 30
0.0
 40
0
 41
0
  0
VERTEX
  8
CFD-E2-93
 10
51.1831
 20
162.101
 30
0.0
 40
0
 41
0
  0
VERTEX
  8
CFD-E2-93
 10
51.2893
 20
161.942
 30
0.0
 40
0
 41
0
  0
VERTEX
  8
CFD-E2-93
 10
51.3429
 20
161.25
 30
0.0
 40
0
 41
0
  0
VERTEX
  8
CFD-E2-93
 10
51.3965
 20
161.037
 30
0.0
 40
0
 41
0
  0
VERTEX
  8
CFD-E2-93
 10
51.3965
 20
160.345
 30
0.0
 40
0
 41
0
  0
VERTEX
  8
CFD-E2-93
 10
51.5553
 20
160.131
 30
0.0
 40
0
 41
0
  0
VERTEX
  8
CFD-E2-93
 10
51.5553
 20
159.811
 30
0.0
 40
0
 41
0
  0
VERTEX
  8
CFD-E2-93
 10
51.5648
 20
159.69
 30
0.0
 40
0
 41
0
  0
VERTEX
  8
CFD-E2-93
 10
51.5098
 20
159.316
 30
0.0
 40
0
 41
0
  0
VERTEX
  8
CFD-E2-93
 10
51.3733
 20
158.931
 30
0.0
 40
0
 41
0
  0
VERTEX
  8
CFD-E2-93
 10
51.3429
 20
158.801
 30
0.0
 40
0
 41
0
  0
VERTEX
  8
CFD-E2-93
 10
51.2893
 20
158.694
 30
0.0
 40
0
 41
0
  0
VERTEX
  8
CFD-E2-93
 10
51.2893
 20
158.64
 30
0.0
 40
0
 41
0
  0
VERTEX
  8
CFD-E2-93
 10
51.2353
 20
158.64
 30
0.0
 40
0
 41
0
  0
VERTEX
  8
CFD-E2-93
 10
51.1295
 20
158.428
 30
0.0
 40
0
 41
0
  0
VERTEX
  8
CFD-E2-93
 10
51.2353
 20
158.162
 30
0.0
 40
0
 41
0
  0
VERTEX
  8
CFD-E2-93
 10
51.1295
 20
157.682
 30
0.0
 40
0
 41
0
  0
VERTEX
  8
CFD-E2-93
 10
51.0233
 20
157.309
 30
0.0
 40
0
 41
0
  0
VERTEX
  8
CFD-E2-93
 10
51.0233
 20
157.202
 30
0.0
 40
0
 41
0
  0
VERTEX
  8
CFD-E2-93
 10
51.0769
 20
157.149
 30
0.0
 40
0
 41
0
  0
VERTEX
  8
CFD-E2-93
 10
51.0769
 20
156.777
 30
0.0
 40
0
 41
0
  0
VERTEX
  8
CFD-E2-93
 10
51.0233
 20
156.617
 30
0.0
 40
0
 41
0
  0
VERTEX
  8
CFD-E2-93
 10
51.0233
 20
156.457
 30
0.0
 40
0
 41
0
  0
VERTEX
  8
CFD-E2-93
 10
51.0769
 20
156.405
 30
0.0
 40
0
 41
0
  0
VERTEX
  8
CFD-E2-93
 10
50.9693
 20
156.405
 30
0.0
 40
0
 41
0
  0
VERTEX
  8
CFD-E2-93
 10
50.9693
 20
156.457
 30
0.0
 40
0
 41
0
  0
VERTEX
  8
CFD-E2-93
 10
50.9171
 20
156.245
 30
0.0
 40
0
 41
0
  0
VERTEX
  8
CFD-E2-93
 10
50.8095
 20
155.925
 30
0.0
 40
0
 41
0
  0
VERTEX
  8
CFD-E2-93
 10
50.7559
 20
155.659
 30
0.0
 40
0
 41
0
  0
VERTEX
  8
CFD-E2-93
 10
50.7037
 20
155.339
 30
0.0
 40
0
 41
0
  0
VERTEX
  8
CFD-E2-93
 10
50.5975
 20
154.86
 30
0.0
 40
0
 41
0
  0
VERTEX
  8
CFD-E2-93
 10
50.7037
 20
154.646
 30
0.0
 40
0
 41
0
  0
VERTEX
  8
CFD-E2-93
 10
50.7559
 20
154.7
 30
0.0
 40
0
 41
0
  0
VERTEX
  8
CFD-E2-93
 10
50.7559
 20
154.594
 30
0.0
 40
0
 41
0
  0
VERTEX
  8
CFD-E2-93
 10
50.8095
 20
154.486
 30
0.0
 40
0
 41
0
  0
VERTEX
  8
CFD-E2-93
 10
50.7037
 20
154.486
 30
0.0
 40
0
 41
0
  0
VERTEX
  8
CFD-E2-93
 10
50.7037
 20
154.54
 30
0.0
 40
0
 41
0
  0
VERTEX
  8
CFD-E2-93
 10
50.2779
 20
153.742
 30
0.0
 40
0
 41
0
  0
VERTEX
  8
CFD-E2-93
 10
50.4363
 20
153.422
 30
0.0
 40
0
 41
0
  0
VERTEX
  8
CFD-E2-93
 10
50.4913
 20
153.422
 30
0.0
 40
0
 41
0
  0
VERTEX
  8
CFD-E2-93
 10
50.5435
 20
153.263
 30
0.0
 40
0
 41
0
  0
VERTEX
  8
CFD-E2-93
 10
50.5435
 20
153.209
 30
0.0
 40
0
 41
0
  0
VERTEX
  8
CFD-E2-93
 10
50.4913
 20
153.103
 30
0.0
 40
0
 41
0
  0
VERTEX
  8
CFD-E2-93
 10
50.4363
 20
152.889
 30
0.0
 40
0
 41
0
  0
VERTEX
  8
CFD-E2-93
 10
50.3315
 20
152.569
 30
0.0
 40
0
 41
0
  0
VERTEX
  8
CFD-E2-93
 10
49.7981
 20
152.463
 30
0.0
 40
0
 41
0
  0
VERTEX
  8
CFD-E2-93
 10
49.5847
 20
152.411
 30
0.0
 40
0
 41
0
  0
VERTEX
  8
CFD-E2-93
 10
49.4249
 20
152.144
 30
0.0
 40
0
 41
0
  0
VERTEX
  8
CFD-E2-93
 10
49.4785
 20
152.144
 30
0.0
 40
0
 41
0
  0
VERTEX
  8
CFD-E2-93
 10
49.3723
 20
152.091
 30
0.0
 40
0
 41
0
  0
VERTEX
  8
CFD-E2-93
 10
49.0527
 20
151.878
 30
0.0
 40
0
 41
0
  0
VERTEX
  8
CFD-E2-93
 10
48.9687
 20
151.813
 30
0.0
 40
0
 41
0
  0
VERTEX
  8
CFD-E2-93
 10
48.5401
 20
151.674
 30
0.0
 40
0
 41
0
  0
VERTEX
  8
CFD-E2-93
 10
48.084
 20
151.666
 30
0.0
 40
0
 41
0
  0
VERTEX
  8
CFD-E2-93
 10
47.9873
 20
151.664
 30
0.0
 40
0
 41
0
  0
VERTEX
  8
CFD-E2-93
 10
47.7739
 20
151.718
 30
0.0
 40
0
 41
0
  0
VERTEX
  8
CFD-E2-93
 10
47.6677
 20
151.718
 30
0.0
 40
0
 41
0
  0
VERTEX
  8
CFD-E2-93
 10
47.5615
 20
151.772
 30
0.0
 40
0
 41
0
  0
VERTEX
  8
CFD-E2-93
 10
47.2944
 20
151.772
 30
0.0
 40
0
 41
0
  0
VERTEX
  8
CFD-E2-93
 10
47.1883
 20
151.718
 30
0.0
 40
0
 41
0
  0
VERTEX
  8
CFD-E2-93
 10
47.0299
 20
151.664
 30
0.0
 40
0
 41
0
  0
VERTEX
  8
CFD-E2-93
 10
46.6563
 20
151.664
 30
0.0
 40
0
 41
0
  0
VERTEX
  8
CFD-E2-93
 10
46.5501
 20
151.612
 30
0.0
 40
0
 41
0
  0
VERTEX
  8
CFD-E2-93
 10
46.4965
 20
151.558
 30
0.0
 40
0
 41
0
  0
VERTEX
  8
CFD-E2-93
 10
46.3889
 20
151.558
 30
0.0
 40
0
 41
0
  0
VERTEX
  8
CFD-E2-93
 10
46.2827
 20
151.504
 30
0.0
 40
0
 41
0
  0
VERTEX
  8
CFD-E2-93
 10
46.0707
 20
151.612
 30
0.0
 40
0
 41
0
  0
VERTEX
  8
CFD-E2-93
 10
45.9094
 20
151.612
 30
0.0
 40
0
 41
0
  0
VERTEX
  8
CFD-E2-93
 10
45.5909
 20
151.452
 30
0.0
 40
0
 41
0
  0
VERTEX
  8
CFD-E2-93
 10
45.3775
 20
151.346
 30
0.0
 40
0
 41
0
  0
VERTEX
  8
CFD-E2-93
 10
45.2713
 20
151.292
 30
0.0
 40
0
 41
0
  0
VERTEX
  8
CFD-E2-93
 10
45.1115
 20
151.292
 30
0.0
 40
0
 41
0
  0
VERTEX
  8
CFD-E2-93
 10
45.1115
 20
151.346
 30
0.0
 40
0
 41
0
  0
VERTEX
  8
CFD-E2-93
 10
45.0053
 20
151.504
 30
0.0
 40
0
 41
0
  0
VERTEX
  8
CFD-E2-93
 10
45.0053
 20
151.558
 30
0.0
 40
0
 41
0
  0
VERTEX
  8
CFD-E2-93
 10
44.9516
 20
151.504
 30
0.0
 40
0
 41
0
  0
VERTEX
  8
CFD-E2-93
 10
44.8441
 20
151.504
 30
0.0
 40
0
 41
0
  0
VERTEX
  8
CFD-E2-93
 10
44.9516
 20
151.4
 30
0.0
 40
0
 41
0
  0
VERTEX
  8
CFD-E2-93
 10
45.0053
 20
151.292
 30
0.0
 40
0
 41
0
  0
VERTEX
  8
CFD-E2-93
 10
45.0053
 20
151.132
 30
0.0
 40
0
 41
0
  0
VERTEX
  8
CFD-E2-93
 10
44.898
 20
150.972
 30
0.0
 40
0
 41
0
  0
VERTEX
  8
CFD-E2-93
 10
44.8441
 20
150.76
 30
0.0
 40
0
 41
0
  0
VERTEX
  8
CFD-E2-93
 10
44.7918
 20
150.6
 30
0.0
 40
0
 41
0
  0
VERTEX
  8
CFD-E2-93
 10
44.7918
 20
150.387
 30
0.0
 40
0
 41
0
  0
VERTEX
  8
CFD-E2-93
 10
44.7379
 20
150.281
 30
0.0
 40
0
 41
0
  0
VERTEX
  8
CFD-E2-93
 10
44.5258
 20
149.961
 30
0.0
 40
0
 41
0
  0
VERTEX
  8
CFD-E2-93
 10
44.4789
 20
149.925
 30
0.0
 40
0
 41
0
  0
VERTEX
  8
CFD-E2-93
 10
44.3219
 20
149.516
 30
0.0
 40
0
 41
0
  0
VERTEX
  8
CFD-E2-93
 10
44.2225
 20
149.061
 30
0.0
 40
0
 41
0
  0
VERTEX
  8
CFD-E2-93
 10
44.2062
 20
149.003
 30
0.0
 40
0
 41
0
  0
VERTEX
  8
CFD-E2-93
 10
44.2062
 20
148.949
 30
0.0
 40
0
 41
0
  0
VERTEX
  8
CFD-E2-93
 10
44.1523
 20
148.843
 30
0.0
 40
0
 41
0
  0
VERTEX
  8
CFD-E2-93
 10
44.1
 20
148.79
 30
0.0
 40
0
 41
0
  0
VERTEX
  8
CFD-E2-93
 10
44.1
 20
148.63
 30
0.0
 40
0
 41
0
  0
VERTEX
  8
CFD-E2-93
 10
44.0725
 20
148.565
 30
0.0
 40
0
 41
0
  0
VERTEX
  8
CFD-E2-93
 10
44.0119
 20
148.237
 30
0.0
 40
0
 41
0
  0
VERTEX
  8
CFD-E2-93
 10
43.8891
 20
147.937
 30
0.0
 40
0
 41
0
  0
VERTEX
  8
CFD-E2-93
 10
43.8326
 20
147.884
 30
0.0
 40
0
 41
0
  0
VERTEX
  8
CFD-E2-93
 10
43.6728
 20
147.778
 30
0.0
 40
0
 41
0
  0
VERTEX
  8
CFD-E2-93
 10
43.6203
 20
147.618
 30
0.0
 40
0
 41
0
  0
VERTEX
  8
CFD-E2-93
 10
43.5666
 20
147.564
 30
0.0
 40
0
 41
0
  0
VERTEX
  8
CFD-E2-93
 10
43.5666
 20
147.298
 30
0.0
 40
0
 41
0
  0
VERTEX
  8
CFD-E2-93
 10
43.4605
 20
147.085
 30
0.0
 40
0
 41
0
  0
VERTEX
  8
CFD-E2-93
 10
42.981
 20
146.766
 30
0.0
 40
0
 41
0
  0
VERTEX
  8
CFD-E2-93
 10
42.8748
 20
146.607
 30
0.0
 40
0
 41
0
  0
VERTEX
  8
CFD-E2-93
 10
42.8212
 20
146.607
 30
0.0
 40
0
 41
0
  0
VERTEX
  8
CFD-E2-93
 10
42.5016
 20
146.179
 30
0.0
 40
0
 41
0
  0
VERTEX
  8
CFD-E2-93
 10
42.2356
 20
145.647
 30
0.0
 40
0
 41
0
  0
VERTEX
  8
CFD-E2-93
 10
42.128
 20
145.274
 30
0.0
 40
0
 41
0
  0
VERTEX
  8
CFD-E2-93
 10
42.128
 20
144.902
 30
0.0
 40
0
 41
0
  0
VERTEX
  8
CFD-E2-93
 10
41.9156
 20
144.157
 30
0.0
 40
0
 41
0
  0
VERTEX
  8
CFD-E2-93
 10
41.8098
 20
143.517
 30
0.0
 40
0
 41
0
  0
VERTEX
  8
CFD-E2-93
 10
41.7558
 20
143.251
 30
0.0
 40
0
 41
0
  0
VERTEX
  8
CFD-E2-93
 10
41.65
 20
142.772
 30
0.0
 40
0
 41
0
  0
VERTEX
  8
CFD-E2-93
 10
41.65
 20
142.399
 30
0.0
 40
0
 41
0
  0
VERTEX
  8
CFD-E2-93
 10
41.6207
 20
142.208
 30
0.0
 40
0
 41
0
  0
VERTEX
  8
CFD-E2-93
 10
41.7558
 20
141.28
 30
0.0
 40
0
 41
0
  0
VERTEX
  8
CFD-E2-93
 10
41.9255
 20
140.354
 30
0.0
 40
0
 41
0
  0
VERTEX
  8
CFD-E2-93
 10
41.9156
 20
140.163
 30
0.0
 40
0
 41
0
  0
VERTEX
  8
CFD-E2-93
 10
41.9682
 20
139.951
 30
0.0
 40
0
 41
0
  0
VERTEX
  8
CFD-E2-93
 10
41.9156
 20
138.884
 30
0.0
 40
0
 41
0
  0
VERTEX
  8
CFD-E2-93
 10
41.862
 20
138.884
 30
0.0
 40
0
 41
0
  0
VERTEX
  8
CFD-E2-93
 10
41.8098
 20
138.726
 30
0.0
 40
0
 41
0
  0
VERTEX
  8
CFD-E2-93
 10
41.9156
 20
138.566
 30
0.0
 40
0
 41
0
  0
VERTEX
  8
CFD-E2-93
 10
41.862
 20
138.352
 30
0.0
 40
0
 41
0
  0
VERTEX
  8
CFD-E2-93
 10
41.862
 20
138.14
 30
0.0
 40
0
 41
0
  0
VERTEX
  8
CFD-E2-93
 10
41.4898
 20
137.233
 30
0.0
 40
0
 41
0
  0
VERTEX
  8
CFD-E2-93
 10
41.2764
 20
136.701
 30
0.0
 40
0
 41
0
  0
VERTEX
  8
CFD-E2-93
 10
41.2228
 20
136.276
 30
0.0
 40
0
 41
0
  0
VERTEX
  8
CFD-E2-93
 10
41.1166
 20
135.85
 30
0.0
 40
0
 41
0
  0
VERTEX
  8
CFD-E2-93
 10
41.064
 20
135.796
 30
0.0
 40
0
 41
0
  0
VERTEX
  8
CFD-E2-93
 10
41.0104
 20
135.263
 30
0.0
 40
0
 41
0
  0
VERTEX
  8
CFD-E2-93
 10
40.9568
 20
135.212
 30
0.0
 40
0
 41
0
  0
VERTEX
  8
CFD-E2-93
 10
41.2228
 20
135.212
 30
0.0
 40
0
 41
0
  0
VERTEX
  8
CFD-E2-93
 10
41.1166
 20
134.731
 30
0.0
 40
0
 41
0
  0
VERTEX
  8
CFD-E2-93
 10
41.1166
 20
134.466
 30
0.0
 40
0
 41
0
  0
VERTEX
  8
CFD-E2-93
 10
41.2764
 20
134.199
 30
0.0
 40
0
 41
0
  0
VERTEX
  8
CFD-E2-93
 10
41.4362
 20
133.985
 30
0.0
 40
0
 41
0
  0
VERTEX
  8
CFD-E2-93
 10
42.2356
 20
133.4
 30
0.0
 40
0
 41
0
  0
VERTEX
  8
CFD-E2-93
 10
42.449
 20
132.921
 30
0.0
 40
0
 41
0
  0
VERTEX
  8
CFD-E2-93
 10
42.2356
 20
131.856
 30
0.0
 40
0
 41
0
  0
VERTEX
  8
CFD-E2-93
 10
42.1816
 20
131.749
 30
0.0
 40
0
 41
0
  0
VERTEX
  8
CFD-E2-93
 10
42.1816
 20
131.483
 30
0.0
 40
0
 41
0
  0
VERTEX
  8
CFD-E2-93
 10
42.0758
 20
130.845
 30
0.0
 40
0
 41
0
  0
VERTEX
  8
CFD-E2-93
 10
42.128
 20
130.365
 30
0.0
 40
0
 41
0
  0
VERTEX
  8
CFD-E2-93
 10
42.394
 20
129.672
 30
0.0
 40
0
 41
0
  0
VERTEX
  8
CFD-E2-93
 10
42.8748
 20
128.874
 30
0.0
 40
0
 41
0
  0
VERTEX
  8
CFD-E2-93
 10
43.1408
 20
127.649
 30
0.0
 40
0
 41
0
  0
VERTEX
  8
CFD-E2-93
 10
43.0347
 20
124.933
 30
0.0
 40
0
 41
0
  0
VERTEX
  8
CFD-E2-93
 10
42.9274
 20
124.881
 30
0.0
 40
0
 41
0
  0
VERTEX
  8
CFD-E2-93
 10
42.9274
 20
124.827
 30
0.0
 40
0
 41
0
  0
VERTEX
  8
CFD-E2-93
 10
42.8212
 20
124.721
 30
0.0
 40
0
 41
0
  0
VERTEX
  8
CFD-E2-93
 10
40.9042
 20
122.91
 30
0.0
 40
0
 41
0
  0
VERTEX
  8
CFD-E2-93
 10
41.7558
 20
121.419
 30
0.0
 40
0
 41
0
  0
VERTEX
  8
CFD-E2-93
 10
41.596
 20
118.544
 30
0.0
 40
0
 41
0
  0
VERTEX
  8
CFD-E2-93
 10
40.9042
 20
115.509
 30
0.0
 40
0
 41
0
  0
VERTEX
  8
CFD-E2-93
 10
40.7444
 20
112.632
 30
0.0
 40
0
 41
0
  0
VERTEX
  8
CFD-E2-93
 10
40.6908
 20
110.982
 30
0.0
 40
0
 41
0
  0
VERTEX
  8
CFD-E2-93
 10
40.5846
 20
109.97
 30
0.0
 40
0
 41
0
  0
VERTEX
  8
CFD-E2-93
 10
40.531
 20
109.332
 30
0.0
 40
0
 41
0
  0
VERTEX
  8
CFD-E2-93
 10
40.5846
 20
107.787
 30
0.0
 40
0
 41
0
  0
VERTEX
  8
CFD-E2-93
 10
42.4547
 20
105.782
 30
0.0
 40
0
 41
0
  0
VERTEX
  8
CFD-E2-93
 10
44.5121
 20
100.105
 30
0.0
 40
0
 41
0
  0
VERTEX
  8
CFD-E2-93
 10
50.2722
 20
96.3193
 30
0.0
 40
0
 41
0
  0
VERTEX
  8
CFD-E2-93
 10
50.2722
 20
88.8312
 30
0.0
 40
0
 41
0
  0
VERTEX
  8
CFD-E2-93
 10
48.3803
 20
85.047
 30
0.0
 40
0
 41
0
  0
VERTEX
  8
CFD-E2-93
 10
49.9428
 20
76.2427
 30
0.0
 40
0
 41
0
  0
VERTEX
  8
CFD-E2-93
 10
52.9883
 20
73.1972
 30
0.0
 40
0
 41
0
  0
VERTEX
  8
CFD-E2-93
 10
55.5378
 20
73.0331
 30
0.0
 40
0
 41
0
  0
VERTEX
  8
CFD-E2-93
 10
56.1149
 20
72.1279
 30
0.0
 40
0
 41
0
  0
VERTEX
  8
CFD-E2-93
 10
56.3619
 20
70.7291
 30
0.0
 40
0
 41
0
  0
VERTEX
  8
CFD-E2-93
 10
58.3364
 20
69.9879
 30
0.0
 40
0
 41
0
  0
VERTEX
  8
CFD-E2-93
 10
62.4498
 20
59.702
 30
0.0
 40
0
 41
0
  0
VERTEX
  8
CFD-E2-93
 10
62.5355
 20
59.5521
 30
0.0
 40
0
 41
0
  0
VERTEX
  8
CFD-E2-93
 10
68.6513
 20
63.6626
 30
0.0
 40
0
 41
0
  0
VERTEX
  8
CFD-E2-93
 10
78.7548
 20
68.9391
 30
0.0
 40
0
 41
0
  0
VERTEX
  8
CFD-E2-93
 10
79.7017
 20
68.6897
 30
0.0
 40
0
 41
0
  0
VERTEX
  8
CFD-E2-93
 10
82.0402
 20
65.0572
 30
0.0
 40
0
 41
0
  0
VERTEX
  8
CFD-E2-93
 10
89.3039
 20
65.6015
 30
0.0
 40
0
 41
0
  0
VERTEX
  8
CFD-E2-93
 10
89.2115
 20
65.72
 30
0.0
 40
0
 41
0
  0
VERTEX
  8
CFD-E2-93
 10
88.7317
 20
66.0936
 30
0.0
 40
0
 41
0
  0
VERTEX
  8
CFD-E2-93
 10
87.7729
 20
66.9452
 30
0.0
 40
0
 41
0
  0
VERTEX
  8
CFD-E2-93
 10
96.7204
 20
78.7135
 30
0.0
 40
0
 41
0
  0
VERTEX
  8
CFD-E2-93
 10
97.1998
 20
79.2992
 30
0.0
 40
0
 41
0
  0
VERTEX
  8
CFD-E2-93
 10
103.112
 20
87.9782
 30
0.0
 40
0
 41
0
  0
VERTEX
  8
CFD-E2-93
 10
102.1
 20
87.872
 30
0.0
 40
0
 41
0
  0
VERTEX
  8
CFD-E2-93
 10
101.513
 20
87.872
 30
0.0
 40
0
 41
0
  0
VERTEX
  8
CFD-E2-93
 10
100.768
 20
87.9782
 30
0.0
 40
0
 41
0
  0
VERTEX
  8
CFD-E2-93
 10
100.289
 20
88.0844
 30
0.0
 40
0
 41
0
  0
VERTEX
  8
CFD-E2-93
 10
99.7038
 20
88.2978
 30
0.0
 40
0
 41
0
  0
VERTEX
  8
CFD-E2-93
 10
99.2244
 20
88.616
 30
0.0
 40
0
 41
0
  0
VERTEX
  8
CFD-E2-93
 10
98.957
 20
88.9896
 30
0.0
 40
0
 41
0
  0
VERTEX
  8
CFD-E2-93
 10
98.7972
 20
90.1086
 30
0.0
 40
0
 41
0
  0
VERTEX
  8
CFD-E2-93
 10
99.1704
 20
91.6534
 30
0.0
 40
0
 41
0
  0
VERTEX
  8
CFD-E2-93
 10
99.5962
 20
92.8247
 30
0.0
 40
0
 41
0
  0
VERTEX
  8
CFD-E2-93
 10
100.128
 20
94.0484
 30
0.0
 40
0
 41
0
  0
VERTEX
  8
CFD-E2-93
 10
100.608
 20
94.9015
 30
0.0
 40
0
 41
0
  0
VERTEX
  8
CFD-E2-93
 10
101.567
 20
95.8592
 30
0.0
 40
0
 41
0
  0
VERTEX
  8
CFD-E2-93
 10
102.526
 20
96.9779
 30
0.0
 40
0
 41
0
  0
VERTEX
  8
CFD-E2-93
 10
104.017
 20
99.0011
 30
0.0
 40
0
 41
0
  0
VERTEX
  8
CFD-E2-93
 10
105.188
 20
100.066
 30
0.0
 40
0
 41
0
  0
VERTEX
  8
CFD-E2-93
 10
106.947
 20
101.184
 30
0.0
 40
0
 41
0
  0
VERTEX
  8
CFD-E2-93
 10
107.373
 20
101.291
 30
0.0
 40
0
 41
0
  0
VERTEX
  8
CFD-E2-93
 10
107.532
 20
101.344
 30
0.0
 40
0
 41
0
  0
VERTEX
  8
CFD-E2-93
 10
109.397
 20
101.556
 30
0.0
 40
0
 41
0
  0
VERTEX
  8
CFD-E2-93
 10
110.141
 20
101.771
 30
0.0
 40
0
 41
0
  0
VERTEX
  8
CFD-E2-93
 10
110.675
 20
102.089
 30
0.0
 40
0
 41
0
  0
VERTEX
  8
CFD-E2-93
 10
111.154
 20
102.621
 30
0.0
 40
0
 41
0
  0
VERTEX
  8
CFD-E2-93
 10
111.953
 20
104.273
 30
0.0
 40
0
 41
0
  0
VERTEX
  8
CFD-E2-93
 10
112.859
 20
104.965
 30
0.0
 40
0
 41
0
  0
VERTEX
  8
CFD-E2-93
 10
113.87
 20
104.965
 30
0.0
 40
0
 41
0
  0
VERTEX
  8
CFD-E2-93
 10
116
 20
104.805
 30
0.0
 40
0
 41
0
  0
VERTEX
  8
CFD-E2-93
 10
117.172
 20
104.06
 30
0.0
 40
0
 41
0
  0
VERTEX
  8
CFD-E2-93
 10
118.131
 20
102.729
 30
0.0
 40
0
 41
0
  0
VERTEX
  8
CFD-E2-93
 10
118.237
 20
102.569
 30
0.0
 40
0
 41
0
  0
VERTEX
  8
CFD-E2-93
 10
118.232
 20
102.481
 30
0.0
 40
0
 41
0
  0
VERTEX
  8
CFD-E2-93
 10
118.259
 20
102.21
 30
0.0
 40
0
 41
0
  0
VERTEX
  8
CFD-E2-93
 10
118.293
 20
102.04
 30
0.0
 40
0
 41
0
  0
VERTEX
  8
CFD-E2-93
 10
118.291
 20
101.983
 30
0.0
 40
0
 41
0
  0
VERTEX
  8
CFD-E2-93
 10
118.291
 20
101.877
 30
0.0
 40
0
 41
0
  0
VERTEX
  8
CFD-E2-93
 10
118.237
 20
101.771
 30
0.0
 40
0
 41
0
  0
VERTEX
  8
CFD-E2-93
 10
118.237
 20
101.611
 30
0.0
 40
0
 41
0
  0
VERTEX
  8
CFD-E2-93
 10
118.183
 20
101.451
 30
0.0
 40
0
 41
0
  0
VERTEX
  8
CFD-E2-93
 10
118.183
 20
101.344
 30
0.0
 40
0
 41
0
  0
VERTEX
  8
CFD-E2-93
 10
118.131
 20
101.238
 30
0.0
 40
0
 41
0
  0
VERTEX
  8
CFD-E2-93
 10
118.079
 20
101.078
 30
0.0
 40
0
 41
0
  0
VERTEX
  8
CFD-E2-93
 10
117.971
 20
100.918
 30
0.0
 40
0
 41
0
  0
VERTEX
  8
CFD-E2-93
 10
121.593
 20
103.101
 30
0.0
 40
0
 41
0
  0
VERTEX
  8
CFD-E2-93
 10
122.392
 20
103.848
 30
0.0
 40
0
 41
0
  0
VERTEX
  8
CFD-E2-93
 10
122.819
 20
104.166
 30
0.0
 40
0
 41
0
  0
VERTEX
  8
CFD-E2-93
 10
123.403
 20
104.646
 30
0.0
 40
0
 41
0
  0
VERTEX
  8
CFD-E2-93
 10
123.669
 20
104.912
 30
0.0
 40
0
 41
0
  0
VERTEX
  8
CFD-E2-93
 10
124.948
 20
105.923
 30
0.0
 40
0
 41
0
  0
VERTEX
  8
CFD-E2-93
 10
125.002
 20
105.977
 30
0.0
 40
0
 41
0
  0
VERTEX
  8
CFD-E2-93
 10
125.108
 20
106.031
 30
0.0
 40
0
 41
0
  0
VERTEX
  8
CFD-E2-93
 10
125.162
 20
106.136
 30
0.0
 40
0
 41
0
  0
VERTEX
  8
CFD-E2-93
 10
125.853
 20
106.722
 30
0.0
 40
0
 41
0
  0
VERTEX
  8
CFD-E2-93
 10
126.385
 20
107.254
 30
0.0
 40
0
 41
0
  0
VERTEX
  8
CFD-E2-93
 10
126.653
 20
107.414
 30
0.0
 40
0
 41
0
  0
VERTEX
  8
CFD-E2-93
 10
127.504
 20
107.947
 30
0.0
 40
0
 41
0
  0
VERTEX
  8
CFD-E2-93
 10
127.716
 20
108.053
 30
0.0
 40
0
 41
0
  0
VERTEX
  8
CFD-E2-93
 10
128.196
 20
108.319
 30
0.0
 40
0
 41
0
  0
VERTEX
  8
CFD-E2-93
 10
128.367
 20
108.384
 30
0.0
 40
0
 41
0
  0
VERTEX
  8
CFD-E2-93
 10
129.963
 20
109.233
 30
0.0
 40
0
 41
0
  0
VERTEX
  8
CFD-E2-93
 10
130.114
 20
109.332
 30
0.0
 40
0
 41
0
  0
VERTEX
  8
CFD-E2-93
 10
130.168
 20
109.384
 30
0.0
 40
0
 41
0
  0
VERTEX
  8
CFD-E2-93
 10
130.434
 20
109.545
 30
0.0
 40
0
 41
0
  0
VERTEX
  8
CFD-E2-93
 10
130.806
 20
109.226
 30
0.0
 40
0
 41
0
  0
VERTEX
  8
CFD-E2-93
 10
131.499
 20
109.918
 30
0.0
 40
0
 41
0
  0
VERTEX
  8
CFD-E2-93
 10
131.606
 20
111.089
 30
0.0
 40
0
 41
0
  0
VERTEX
  8
CFD-E2-93
 10
131.63
 20
111.239
 30
0.0
 40
0
 41
0
  0
VERTEX
  8
CFD-E2-93
 10
131.83
 20
111.981
 30
0.0
 40
0
 41
0
  0
VERTEX
  8
CFD-E2-93
 10
132.155
 20
112.668
 30
0.0
 40
0
 41
0
  0
VERTEX
  8
CFD-E2-93
 10
132.245
 20
112.793
 30
0.0
 40
0
 41
0
  0
VERTEX
  8
CFD-E2-93
 10
132.99
 20
113.858
 30
0.0
 40
0
 41
0
  0
VERTEX
  8
CFD-E2-93
 10
132.352
 20
114.336
 30
0.0
 40
0
 41
0
  0
VERTEX
  8
CFD-E2-93
 10
131.767
 20
114.869
 30
0.0
 40
0
 41
0
  0
VERTEX
  8
CFD-E2-93
 10
131.765
 20
114.869
 30
0.0
 40
0
 41
0
  0
VERTEX
  8
CFD-E2-93
 10
131.446
 20
115.135
 30
0.0
 40
0
 41
0
  0
VERTEX
  8
CFD-E2-93
 10
131.233
 20
115.402
 30
0.0
 40
0
 41
0
  0
VERTEX
  8
CFD-E2-93
 10
130.914
 20
115.775
 30
0.0
 40
0
 41
0
  0
VERTEX
  8
CFD-E2-93
 10
130.38
 20
116.36
 30
0.0
 40
0
 41
0
  0
VERTEX
  8
CFD-E2-93
 10
130.114
 20
116.52
 30
0.0
 40
0
 41
0
  0
VERTEX
  8
CFD-E2-93
 10
130.008
 20
116.626
 30
0.0
 40
0
 41
0
  0
VERTEX
  8
CFD-E2-93
 10
130.008
 20
116.628
 30
0.0
 40
0
 41
0
  0
VERTEX
  8
CFD-E2-93
 10
129.795
 20
116.946
 30
0.0
 40
0
 41
0
  0
VERTEX
  8
CFD-E2-93
 10
129.635
 20
117.265
 30
0.0
 40
0
 41
0
  0
VERTEX
  8
CFD-E2-93
 10
129.558
 20
117.401
 30
0.0
 40
0
 41
0
  0
VERTEX
  8
CFD-E2-93
 10
129.423
 20
117.638
 30
0.0
 40
0
 41
0
  0
VERTEX
  8
CFD-E2-93
 10
129.396
 20
117.758
 30
0.0
 40
0
 41
0
  0
VERTEX
  8
CFD-E2-93
 10
129.111
 20
119.038
 30
0.0
 40
0
 41
0
  0
VERTEX
  8
CFD-E2-93
 10
129.103
 20
119.076
 30
0.0
 40
0
 41
0
  0
VERTEX
  8
CFD-E2-93
 10
128.995
 20
119.289
 30
0.0
 40
0
 41
0
  0
VERTEX
  8
CFD-E2-93
 10
128.836
 20
119.448
 30
0.0
 40
0
 41
0
  0
VERTEX
  8
CFD-E2-93
 10
128.41
 20
119.714
 30
0.0
 40
0
 41
0
  0
VERTEX
  8
CFD-E2-93
 10
127.398
 20
120.354
 30
0.0
 40
0
 41
0
  0
VERTEX
  8
CFD-E2-93
 10
127.292
 20
120.513
 30
0.0
 40
0
 41
0
  0
VERTEX
  8
CFD-E2-93
 10
127.079
 20
120.513
 30
0.0
 40
0
 41
0
  0
VERTEX
  8
CFD-E2-93
 10
127.058
 20
120.518
 30
0.0
 40
0
 41
0
  0
VERTEX
  8
CFD-E2-93
 10
126.843
 20
120.547
 30
0.0
 40
0
 41
0
  0
VERTEX
  8
CFD-E2-93
 10
126.821
 20
120.548
 30
0.0
 40
0
 41
0
  0
VERTEX
  8
CFD-E2-93
 10
126.799
 20
120.551
 30
0.0
 40
0
 41
0
  0
VERTEX
  8
CFD-E2-93
 10
126.573
 20
120.567
 30
0.0
 40
0
 41
0
  0
VERTEX
  8
CFD-E2-93
 10
126.551
 20
120.567
 30
0.0
 40
0
 41
0
  0
VERTEX
  8
CFD-E2-93
 10
126.504
 20
120.57
 30
0.0
 40
0
 41
0
  0
VERTEX
  8
CFD-E2-93
 10
126.024
 20
120.562
 30
0.0
 40
0
 41
0
  0
VERTEX
  8
CFD-E2-93
 10
125.976
 20
120.559
 30
0.0
 40
0
 41
0
  0
VERTEX
  8
CFD-E2-93
 10
125.877
 20
120.554
 30
0.0
 40
0
 41
0
  0
VERTEX
  8
CFD-E2-93
 10
124.861
 20
120.424
 30
0.0
 40
0
 41
0
  0
VERTEX
  8
CFD-E2-93
 10
124.759
 20
120.405
 30
0.0
 40
0
 41
0
  0
VERTEX
  8
CFD-E2-93
 10
124.554
 20
120.367
 30
0.0
 40
0
 41
0
  0
VERTEX
  8
CFD-E2-93
 10
123.569
 20
120.146
 30
0.0
 40
0
 41
0
  0
VERTEX
  8
CFD-E2-93
 10
122.699
 20
119.916
 30
0.0
 40
0
 41
0
  0
VERTEX
  8
CFD-E2-93
 10
122.552
 20
119.874
 30
0.0
 40
0
 41
0
  0
VERTEX
  8
CFD-E2-93
 10
122.499
 20
119.82
 30
0.0
 40
0
 41
0
  0
VERTEX
  8
CFD-E2-93
 10
122.499
 20
119.822
 30
0.0
 40
0
 41
0
  0
VERTEX
  8
CFD-E2-93
 10
122.498
 20
119.822
 30
0.0
 40
0
 41
0
  0
VERTEX
  8
CFD-E2-93
 10
122.498
 20
119.981
 30
0.0
 40
0
 41
0
  0
VERTEX
  8
CFD-E2-93
 10
122.593
 20
120.738
 30
0.0
 40
0
 41
0
  0
VERTEX
  8
CFD-E2-93
 10
122.605
 20
120.833
 30
0.0
 40
0
 41
0
  0
VERTEX
  8
CFD-E2-93
 10
122.388
 20
120.895
 30
0.0
 40
0
 41
0
  0
VERTEX
  8
CFD-E2-93
 10
122.232
 20
120.939
 30
0.0
 40
0
 41
0
  0
VERTEX
  8
CFD-E2-93
 10
122.046
 20
121.008
 30
0.0
 40
0
 41
0
  0
VERTEX
  8
CFD-E2-93
 10
121.646
 20
121.153
 30
0.0
 40
0
 41
0
  0
VERTEX
  8
CFD-E2-93
 10
121.273
 20
121.259
 30
0.0
 40
0
 41
0
  0
VERTEX
  8
CFD-E2-93
 10
121.167
 20
121.259
 30
0.0
 40
0
 41
0
  0
VERTEX
  8
CFD-E2-93
 10
119.942
 20
121.685
 30
0.0
 40
0
 41
0
  0
VERTEX
  8
CFD-E2-93
 10
119.943
 20
121.711
 30
0.0
 40
0
 41
0
  0
VERTEX
  8
CFD-E2-93
 10
119.979
 20
121.959
 30
0.0
 40
0
 41
0
  0
VERTEX
  8
CFD-E2-93
 10
119.984
 20
121.982
 30
0.0
 40
0
 41
0
  0
VERTEX
  8
CFD-E2-93
 10
119.996
 20
122.057
 30
0.0
 40
0
 41
0
  0
VERTEX
  8
CFD-E2-93
 10
120.022
 20
122.162
 30
0.0
 40
0
 41
0
  0
VERTEX
  8
CFD-E2-93
 10
120.022
 20
122.164
 30
0.0
 40
0
 41
0
  0
VERTEX
  8
CFD-E2-93
 10
120.026
 20
122.185
 30
0.0
 40
0
 41
0
  0
VERTEX
  8
CFD-E2-93
 10
120.027
 20
122.186
 30
0.0
 40
0
 41
0
  0
VERTEX
  8
CFD-E2-93
 10
120.049
 20
122.272
 30
0.0
 40
0
 41
0
  0
VERTEX
  8
CFD-E2-93
 10
120.077
 20
122.367
 30
0.0
 40
0
 41
0
  0
VERTEX
  8
CFD-E2-93
 10
120.086
 20
122.407
 30
0.0
 40
0
 41
0
  0
VERTEX
  8
CFD-E2-93
 10
120.192
 20
122.8
 30
0.0
 40
0
 41
0
  0
VERTEX
  8
CFD-E2-93
 10
120.203
 20
122.838
 30
0.0
 40
0
 41
0
  0
VERTEX
  8
CFD-E2-93
 10
120.209
 20
122.856
 30
0.0
 40
0
 41
0
  0
VERTEX
  8
CFD-E2-93
 10
120.366
 20
123.595
 30
0.0
 40
0
 41
0
  0
VERTEX
  8
CFD-E2-93
 10
120.366
 20
123.596
 30
0.0
 40
0
 41
0
  0
VERTEX
  8
CFD-E2-93
 10
120.367
 20
123.602
 30
0.0
 40
0
 41
0
  0
VERTEX
  8
CFD-E2-93
 10
120.367
 20
123.602
 30
0.0
 40
0
 41
0
  0
VERTEX
  8
CFD-E2-93
 10
120.474
 20
123.974
 30
0.0
 40
0
 41
0
  0
VERTEX
  8
CFD-E2-93
 10
120.209
 20
124.029
 30
0.0
 40
0
 41
0
  0
VERTEX
  8
CFD-E2-93
 10
120.077
 20
124.073
 30
0.0
 40
0
 41
0
  0
VERTEX
  8
CFD-E2-93
 10
118.769
 20
124.509
 30
0.0
 40
0
 41
0
  0
VERTEX
  8
CFD-E2-93
 10
118.638
 20
124.553
 30
0.0
 40
0
 41
0
  0
VERTEX
  8
CFD-E2-93
 10
118.611
 20
124.561
 30
0.0
 40
0
 41
0
  0
VERTEX
  8
CFD-E2-93
 10
117.758
 20
124.827
 30
0.0
 40
0
 41
0
  0
VERTEX
  8
CFD-E2-93
 10
116.96
 20
125.094
 30
0.0
 40
0
 41
0
  0
VERTEX
  8
CFD-E2-93
 10
116.585
 20
125.243
 30
0.0
 40
0
 41
0
  0
VERTEX
  8
CFD-E2-93
 10
116.542
 20
125.258
 30
0.0
 40
0
 41
0
  0
VERTEX
  8
CFD-E2-93
 10
116.127
 20
125.399
 30
0.0
 40
0
 41
0
  0
VERTEX
  8
CFD-E2-93
 10
116.086
 20
125.413
 30
0.0
 40
0
 41
0
  0
VERTEX
  8
CFD-E2-93
 10
116
 20
125.413
 30
0.0
 40
0
 41
0
  0
VERTEX
  8
CFD-E2-93
 10
114.51
 20
125.944
 30
0.0
 40
0
 41
0
  0
VERTEX
  8
CFD-E2-93
 10
113.71
 20
126.212
 30
0.0
 40
0
 41
0
  0
VERTEX
  8
CFD-E2-93
 10
113.655
 20
126.235
 30
0.0
 40
0
 41
0
  0
VERTEX
  8
CFD-E2-93
 10
113.45
 20
126.305
 30
0.0
 40
0
 41
0
  0
VERTEX
  8
CFD-E2-93
 10
111.391
 20
126.994
 30
0.0
 40
0
 41
0
  0
VERTEX
  8
CFD-E2-93
 10
111.186
 20
127.062
 30
0.0
 40
0
 41
0
  0
VERTEX
  8
CFD-E2-93
 10
110.834
 20
127.171
 30
0.0
 40
0
 41
0
  0
VERTEX
  8
CFD-E2-93
 10
110.461
 20
127.303
 30
0.0
 40
0
 41
0
  0
VERTEX
  8
CFD-E2-93
 10
110.429
 20
127.314
 30
0.0
 40
0
 41
0
  0
VERTEX
  8
CFD-E2-93
 10
110.115
 20
127.419
 30
0.0
 40
0
 41
0
  0
VERTEX
  8
CFD-E2-93
 10
110.083
 20
127.429
 30
0.0
 40
0
 41
0
  0
VERTEX
  8
CFD-E2-93
 10
110.079
 20
127.422
 30
0.0
 40
0
 41
0
  0
VERTEX
  8
CFD-E2-93
 10
110.054
 20
127.386
 30
0.0
 40
0
 41
0
  0
VERTEX
  8
CFD-E2-93
 10
110.053
 20
127.385
 30
0.0
 40
0
 41
0
  0
VERTEX
  8
CFD-E2-93
 10
106.305
 20
138.219
 30
0.0
 40
0
 41
0
  0
VERTEX
  8
CFD-E2-93
 10
105.02
 20
141.927
 30
0.0
 40
0
 41
0
  0
VERTEX
  8
CFD-E2-93
 10
105.019
 20
141.932
 30
0.0
 40
0
 41
0
  0
VERTEX
  8
CFD-E2-93
 10
105.019
 20
141.932
 30
0.0
 40
0
 41
0
  0
VERTEX
  8
CFD-E2-93
 10
105.018
 20
141.932
 30
0.0
 40
0
 41
0
  0
VERTEX
  8
CFD-E2-93
 10
105.018
 20
141.932
 30
0.0
 40
0
 41
0
  0
VERTEX
  8
CFD-E2-93
 10
105.011
 20
141.955
 30
0.0
 40
0
 41
0
  0
VERTEX
  8
CFD-E2-93
 10
103.325
 20
150.387
 30
0.0
 40
0
 41
0
  0
VERTEX
  8
CFD-E2-93
 10
103.218
 20
155.659
 30
0.0
 40
0
 41
0
  0
VERTEX
  8
CFD-E2-93
 10
103.112
 20
155.659
 30
0.0
 40
0
 41
0
  0
VERTEX
  8
CFD-E2-93
 10
103.112
 20
157.788
 30
0.0
 40
0
 41
0
  0
VERTEX
  8
CFD-E2-93
 10
103.058
 20
158.055
 30
0.0
 40
0
 41
0
  0
VERTEX
  8
CFD-E2-93
 10
103.005
 20
158.108
 30
0.0
 40
0
 41
0
  0
VERTEX
  8
CFD-E2-93
 10
103.004
 20
158.108
 30
0.0
 40
0
 41
0
  0
VERTEX
  8
CFD-E2-93
 10
102.792
 20
158.002
 30
0.0
 40
0
 41
0
  0
VERTEX
  8
CFD-E2-93
 10
102.632
 20
158.055
 30
0.0
 40
0
 41
0
  0
VERTEX
  8
CFD-E2-93
 10
102.58
 20
158.162
 30
0.0
 40
0
 41
0
  0
VERTEX
  8
CFD-E2-93
 10
102.472
 20
158.162
 30
0.0
 40
0
 41
0
  0
VERTEX
  8
CFD-E2-93
 10
102.366
 20
158.268
 30
0.0
 40
0
 41
0
  0
VERTEX
  8
CFD-E2-93
 10
102.154
 20
158.321
 30
0.0
 40
0
 41
0
  0
VERTEX
  8
CFD-E2-93
 10
102.152
 20
158.321
 30
0.0
 40
0
 41
0
  0
VERTEX
  8
CFD-E2-93
 10
101.994
 20
158.428
 30
0.0
 40
0
 41
0
  0
VERTEX
  8
CFD-E2-93
 10
101.887
 20
158.587
 30
0.0
 40
0
 41
0
  0
VERTEX
  8
CFD-E2-93
 10
101.567
 20
158.907
 30
0.0
 40
0
 41
0
  0
VERTEX
  8
CFD-E2-93
 10
101.301
 20
159.279
 30
0.0
 40
0
 41
0
  0
VERTEX
  8
CFD-E2-93
 10
101.087
 20
159.811
 30
0.0
 40
0
 41
0
  0
VERTEX
  8
CFD-E2-93
 10
100.874
 20
160.025
 30
0.0
 40
0
 41
0
  0
VERTEX
  8
CFD-E2-93
 10
100.662
 20
160.291
 30
0.0
 40
0
 41
0
  0
VERTEX
  8
CFD-E2-93
 10
100.076
 20
160.45
 30
0.0
 40
0
 41
0
  0
VERTEX
  8
CFD-E2-93
 10
100.022
 20
160.718
 30
0.0
 40
0
 41
0
  0
VERTEX
  8
CFD-E2-93
 10
100.022
 20
160.77
 30
0.0
 40
0
 41
0
  0
VERTEX
  8
CFD-E2-93
 10
99.9684
 20
160.93
 30
0.0
 40
0
 41
0
  0
VERTEX
  8
CFD-E2-93
 10
99.8883
 20
160.958
 30
0.0
 40
0
 41
0
  0
VERTEX
  8
CFD-E2-93
 10
99.81
 20
160.984
 30
0.0
 40
0
 41
0
  0
VERTEX
  8
CFD-E2-93
 10
99.8086
 20
160.984
 30
0.0
 40
0
 41
0
  0
VERTEX
  8
CFD-E2-93
 10
99.7038
 20
161.09
 30
0.0
 40
0
 41
0
  0
VERTEX
  8
CFD-E2-93
 10
99.4904
 20
161.198
 30
0.0
 40
0
 41
0
  0
VERTEX
  8
CFD-E2-93
 10
99.1182
 20
161.41
 30
0.0
 40
0
 41
0
  0
VERTEX
  8
CFD-E2-93
 10
99.1168
 20
161.41
 30
0.0
 40
0
 41
0
  0
VERTEX
  8
CFD-E2-93
 10
98.957
 20
161.516
 30
0.0
 40
0
 41
0
  0
VERTEX
  8
CFD-E2-93
 10
98.7972
 20
161.569
 30
0.0
 40
0
 41
0
  0
VERTEX
  8
CFD-E2-93
 10
98.5848
 20
161.569
 30
0.0
 40
0
 41
0
  0
VERTEX
  8
CFD-E2-93
 10
98.2652
 20
161.622
 30
0.0
 40
0
 41
0
  0
VERTEX
  8
CFD-E2-93
 10
97.9992
 20
161.622
 30
0.0
 40
0
 41
0
  0
VERTEX
  8
CFD-E2-93
 10
97.5734
 20
161.729
 30
0.0
 40
0
 41
0
  0
VERTEX
  8
CFD-E2-93
 10
97.3335
 20
161.798
 30
0.0
 40
0
 41
0
  0
VERTEX
  8
CFD-E2-93
 10
97.1998
 20
161.835
 30
0.0
 40
0
 41
0
  0
VERTEX
  8
CFD-E2-93
 10
96.774
 20
161.882
 30
0.0
 40
0
 41
0
  0
VERTEX
  8
CFD-E2-93
 10
96.7218
 20
161.889
 30
0.0
 40
0
 41
0
  0
VERTEX
  8
CFD-E2-93
 10
96.7204
 20
161.889
 30
0.0
 40
0
 41
0
  0
VERTEX
  8
CFD-E2-93
 10
96.3482
 20
161.942
 30
0.0
 40
0
 41
0
  0
VERTEX
  8
CFD-E2-93
 10
95.1756
 20
161.942
 30
0.0
 40
0
 41
0
  0
VERTEX
  8
CFD-E2-93
 10
95.0708
 20
161.835
 30
0.0
 40
0
 41
0
  0
VERTEX
  8
CFD-E2-93
 10
95.0708
 20
161.622
 30
0.0
 40
0
 41
0
  0
VERTEX
  8
CFD-E2-93
 10
94.9635
 20
161.622
 30
0.0
 40
0
 41
0
  0
VERTEX
  8
CFD-E2-93
 10
94.9635
 20
161.889
 30
0.0
 40
0
 41
0
  0
VERTEX
  8
CFD-E2-93
 10
94.8034
 20
161.995
 30
0.0
 40
0
 41
0
  0
VERTEX
  8
CFD-E2-93
 10
94.7872
 20
162.002
 30
0.0
 40
0
 41
0
  0
VERTEX
  8
CFD-E2-93
 10
94.6256
 20
162.053
 30
0.0
 40
0
 41
0
  0
VERTEX
  8
CFD-E2-93
 10
94.6094
 20
162.057
 30
0.0
 40
0
 41
0
  0
VERTEX
  8
CFD-E2-93
 10
94.6094
 20
162.057
 30
0.0
 40
0
 41
0
  0
VERTEX
  8
CFD-E2-93
 10
94.6079
 20
162.057
 30
0.0
 40
0
 41
0
  0
VERTEX
  8
CFD-E2-93
 10
94.6079
 20
162.057
 30
0.0
 40
0
 41
0
  0
VERTEX
  8
CFD-E2-93
 10
94.5914
 20
162.063
 30
0.0
 40
0
 41
0
  0
VERTEX
  8
CFD-E2-93
 10
94.4231
 20
162.103
 30
0.0
 40
0
 41
0
  0
VERTEX
  8
CFD-E2-93
 10
94.4065
 20
162.106
 30
0.0
 40
0
 41
0
  0
VERTEX
  8
CFD-E2-93
 10
94.3723
 20
162.112
 30
0.0
 40
0
 41
0
  0
VERTEX
  8
CFD-E2-93
 10
94.0234
 20
162.17
 30
0.0
 40
0
 41
0
  0
VERTEX
  8
CFD-E2-93
 10
93.9892
 20
162.174
 30
0.0
 40
0
 41
0
  0
VERTEX
  8
CFD-E2-93
 10
93.9532
 20
162.18
 30
0.0
 40
0
 41
0
  0
VERTEX
  8
CFD-E2-93
 10
93.6004
 20
162.229
 30
0.0
 40
0
 41
0
  0
VERTEX
  8
CFD-E2-93
 10
93.5662
 20
162.235
 30
0.0
 40
0
 41
0
  0
VERTEX
  8
CFD-E2-93
 10
93.5591
 20
162.237
 30
0.0
 40
0
 41
0
  0
VERTEX
  8
CFD-E2-93
 10
93.4918
 20
162.25
 30
0.0
 40
0
 41
0
  0
VERTEX
  8
CFD-E2-93
 10
93.4861
 20
162.25
 30
0.0
 40
0
 41
0
  0
VERTEX
  8
CFD-E2-93
 10
93.4572
 20
162.256
 30
0.0
 40
0
 41
0
  0
VERTEX
  8
CFD-E2-93
 10
93.1788
 20
162.308
 30
0.0
 40
0
 41
0
  0
VERTEX
  8
CFD-E2-93
 10
93.1527
 20
162.314
 30
0.0
 40
0
 41
0
  0
VERTEX
  8
CFD-E2-93
 10
93.1527
 20
162.315
 30
0.0
 40
0
 41
0
  0
VERTEX
  8
CFD-E2-93
 10
92.9929
 20
162.367
 30
0.0
 40
0
 41
0
  0
VERTEX
  8
CFD-E2-93
 10
93.0451
 20
162.474
 30
0.0
 40
0
 41
0
  0
VERTEX
  8
CFD-E2-93
 10
84.4709
 20
165.723
 30
0.0
 40
0
 41
0
  0
VERTEX
  8
CFD-E2-93
 10
79.2508
 20
168.757
 30
0.0
 40
0
 41
0
  0
VERTEX
  8
CFD-E2-93
 10
79.1986
 20
169.025
 30
0.0
 40
0
 41
0
  0
VERTEX
  8
CFD-E2-93
 10
78.9838
 20
169.131
 30
0.0
 40
0
 41
0
  0
VERTEX
  8
CFD-E2-93
 10
78.7192
 20
169.237
 30
0.0
 40
0
 41
0
  0
VERTEX
  8
CFD-E2-93
 10
78.5594
 20
169.343
 30
0.0
 40
0
 41
0
  0
VERTEX
  8
CFD-E2-93
 10
78.4518
 20
169.397
 30
0.0
 40
0
 41
0
  0
VERTEX
  8
CFD-E2-93
 10
78.3456
 20
169.557
 30
0.0
 40
0
 41
0
  0
VERTEX
  8
CFD-E2-93
 10
77.9198
 20
169.982
 30
0.0
 40
0
 41
0
  0
VERTEX
  8
CFD-E2-93
 10
77.7268
 20
170.127
 30
0.0
 40
0
 41
0
  0
VERTEX
  8
CFD-E2-93
 10
77.7074
 20
170.142
 30
0.0
 40
0
 41
0
  0
VERTEX
  8
CFD-E2-93
 10
77.7064
 20
170.142
 30
0.0
 40
0
 41
0
  0
VERTEX
  8
CFD-E2-93
 10
76.5888
 20
170.888
 30
0.0
 40
0
 41
0
  0
VERTEX
  8
CFD-E2-93
 10
76.1615
 20
171.208
 30
0.0
 40
0
 41
0
  0
VERTEX
  8
CFD-E2-93
 10
75.897
 20
171.313
 30
0.0
 40
0
 41
0
  0
VERTEX
  8
CFD-E2-93
 10
75.8956
 20
171.313
 30
0.0
 40
0
 41
0
  0
VERTEX
  8
CFD-E2-93
 10
75.5756
 20
171.42
 30
0.0
 40
0
 41
0
  0
VERTEX
  8
CFD-E2-93
 10
75.3636
 20
171.579
 30
0.0
 40
0
 41
0
  0
VERTEX
  8
CFD-E2-93
 10
75.3099
 20
171.579
 30
0.0
 40
0
 41
0
  0
VERTEX
  8
CFD-E2-93
 10
74.9378
 20
171.633
 30
0.0
 40
0
 41
0
  0
VERTEX
  8
CFD-E2-93
 10
74.8841
 20
171.633
 30
0.0
 40
0
 41
0
  0
VERTEX
  8
CFD-E2-93
 10
74.724
 20
171.687
 30
0.0
 40
0
 41
0
  0
VERTEX
  8
CFD-E2-93
 10
74.6181
 20
171.633
 30
0.0
 40
0
 41
0
  0
VERTEX
  8
CFD-E2-93
 10
74.5105
 20
171.633
 30
0.0
 40
0
 41
0
  0
VERTEX
  8
CFD-E2-93
 10
74.2446
 20
171.579
 30
0.0
 40
0
 41
0
  0
VERTEX
  8
CFD-E2-93
 10
73.6064
 20
171.473
 30
0.0
 40
0
 41
0
  0
VERTEX
  8
CFD-E2-93
 10
73.6053
 20
171.473
 30
0.0
 40
0
 41
0
  0
VERTEX
  8
CFD-E2-93
 10
72.7523
 20
171.313
 30
0.0
 40
0
 41
0
  0
VERTEX
  8
CFD-E2-93
 10
72.5936
 20
171.26
 30
0.0
 40
0
 41
0
  0
VERTEX
  8
CFD-E2-93
 10
72.4337
 20
171.208
 30
0.0
 40
0
 41
0
  0
VERTEX
  8
CFD-E2-93
 10
72.3029
 20
171.208
 30
0.0
 40
0
 41
0
  0
VERTEX
  8
CFD-E2-93
 10
72.2947
 20
171.208
 30
0.0
 40
0
 41
0
  0
VERTEX
  8
CFD-E2-93
 10
72.2782
 20
171.208
 30
0.0
 40
0
 41
0
  0
VERTEX
  8
CFD-E2-93
 10
72.2739
 20
171.208
 30
0.0
 40
0
 41
0
  0
VERTEX
  8
CFD-E2-93
 10
72.2464
 20
171.208
 30
0.0
 40
0
 41
0
  0
VERTEX
  8
CFD-E2-93
 10
72.1734
 20
171.208
 30
0.0
 40
0
 41
0
  0
VERTEX
  8
CFD-E2-93
 10
72.1653
 20
171.208
 30
0.0
 40
0
 41
0
  0
VERTEX
  8
CFD-E2-93
 10
72.0079
 20
171.208
 30
0.0
 40
0
 41
0
  0
VERTEX
  8
CFD-E2-93
 10
71.6883
 20
171.26
 30
0.0
 40
0
 41
0
  0
VERTEX
  8
CFD-E2-93
 10
71.5878
 20
171.283
 30
0.0
 40
0
 41
0
  0
VERTEX
  8
CFD-E2-93
 10
71.5409
 20
171.293
 30
0.0
 40
0
 41
0
  0
VERTEX
  8
CFD-E2-93
 10
71.0681
 20
171.383
 30
0.0
 40
0
 41
0
  0
VERTEX
  8
CFD-E2-93
 10
71.0198
 20
171.391
 30
0.0
 40
0
 41
0
  0
VERTEX
  8
CFD-E2-93
 10
70.7831
 20
171.42
 30
0.0
 40
0
 41
0
  0
VERTEX
  8
CFD-E2-93
 10
70.4095
 20
171.473
 30
0.0
 40
0
 41
0
  0
VERTEX
  8
CFD-E2-93
 10
68.0131
 20
171.739
 30
0.0
 40
0
 41
0
  0
VERTEX
  8
CFD-E2-93
 10
67.7471
 20
171.739
 30
0.0
 40
0
 41
0
  0
VERTEX
  8
CFD-E2-93
 10
66.3085
 20
171.899
 30
0.0
 40
0
 41
0
  0
VERTEX
  8
CFD-E2-93
 10
66.2023
 20
171.952
 30
0.0
 40
0
 41
0
  0
VERTEX
  8
CFD-E2-93
 10
65.8827
 20
172.007
 30
0.0
 40
0
 41
0
  0
VERTEX
  8
CFD-E2-93
 10
65.7765
 20
172.007
 30
0.0
 40
0
 41
0
  0
VERTEX
  8
CFD-E2-93
 10
65.6332
 20
172.036
 30
0.0
 40
0
 41
0
  0
VERTEX
  8
CFD-E2-93
 10
64.1974
 20
172.265
 30
0.0
 40
0
 41
0
  0
VERTEX
  8
CFD-E2-93
 10
64.0539
 20
172.282
 30
0.0
 40
0
 41
0
  0
VERTEX
  8
CFD-E2-93
 10
63.5399
 20
172.326
 30
0.0
 40
0
 41
0
  0
VERTEX
  8
CFD-E2-93
 10
63.3127
 20
172.368
 30
0.0
 40
0
 41
0
  0
VERTEX
  8
CFD-E2-93
 10
63.252
 20
172.375
 30
0.0
 40
0
 41
0
  0
VERTEX
  8
CFD-E2-93
 10
62.654
 20
172.428
 30
0.0
 40
0
 41
0
  0
VERTEX
  8
CFD-E2-93
 10
62.5948
 20
172.432
 30
0.0
 40
0
 41
0
  0
VERTEX
  8
CFD-E2-93
 10
62.4748
 20
172.432
 30
0.0
 40
0
 41
0
  0
VERTEX
  8
CFD-E2-93
 10
61.7319
 20
172.486
 30
0.0
 40
0
 41
0
  0
VERTEX
  8
CFD-E2-93
 10
61.7319
 20
172.486
 30
0.0
 40
0
 41
0
  0
VERTEX
  8
CFD-E2-93
 10
61.7291
 20
172.486
 30
0.0
 40
0
 41
0
  0
VERTEX
  8
CFD-E2-93
 10
61.7291
 20
172.486
 30
0.0
 40
0
 41
0
  0
VERTEX
  8
CFD-E2-93
 10
61.1434
 20
172.486
 30
0.0
 40
0
 41
0
  0
SEQEND
 8
0
  0
POLYLINE
  8
CFB-CA-99
 66
     1
 10
0
 20
0
 30
0.0
 70
     1
 40
0
 41
0
  0
VERTEX
  8
CFB-CA-99
 10
194.931
 20
105.711
 30
0.0
 40
0
 41
0
  0
VERTEX
  8
CFB-CA-99
 10
194.186
 20
105.658
 30
0.0
 40
0
 41
0
  0
VERTEX
  8
CFB-CA-99
 10
193.601
 20
105.603
 30
0.0
 40
0
 41
0
  0
VERTEX
  8
CFB-CA-99
 10
193.463
 20
105.598
 30
0.0
 40
0
 41
0
  0
VERTEX
  8
CFB-CA-99
 10
192.086
 20
105.545
 30
0.0
 40
0
 41
0
  0
VERTEX
  8
CFB-CA-99
 10
191.948
 20
105.551
 30
0.0
 40
0
 41
0
  0
VERTEX
  8
CFB-CA-99
 10
191.151
 20
105.497
 30
0.0
 40
0
 41
0
  0
VERTEX
  8
CFB-CA-99
 10
190.563
 20
105.444
 30
0.0
 40
0
 41
0
  0
VERTEX
  8
CFB-CA-99
 10
190.457
 20
105.444
 30
0.0
 40
0
 41
0
  0
VERTEX
  8
CFB-CA-99
 10
189.819
 20
105.391
 30
0.0
 40
0
 41
0
  0
VERTEX
  8
CFB-CA-99
 10
189.34
 20
105.391
 30
0.0
 40
0
 41
0
  0
VERTEX
  8
CFB-CA-99
 10
188.966
 20
105.337
 30
0.0
 40
0
 41
0
  0
VERTEX
  8
CFB-CA-99
 10
188.913
 20
105.337
 30
0.0
 40
0
 41
0
  0
VERTEX
  8
CFB-CA-99
 10
188.115
 20
105.603
 30
0.0
 40
0
 41
0
  0
VERTEX
  8
CFB-CA-99
 10
187.529
 20
105.763
 30
0.0
 40
0
 41
0
  0
VERTEX
  8
CFB-CA-99
 10
186.73
 20
105.977
 30
0.0
 40
0
 41
0
  0
VERTEX
  8
CFB-CA-99
 10
186.144
 20
106.19
 30
0.0
 40
0
 41
0
  0
VERTEX
  8
CFB-CA-99
 10
185.984
 20
106.19
 30
0.0
 40
0
 41
0
  0
VERTEX
  8
CFB-CA-99
 10
185.239
 20
106.456
 30
0.0
 40
0
 41
0
  0
VERTEX
  8
CFB-CA-99
 10
184.493
 20
106.562
 30
0.0
 40
0
 41
0
  0
VERTEX
  8
CFB-CA-99
 10
183.8
 20
106.668
 30
0.0
 40
0
 41
0
  0
VERTEX
  8
CFB-CA-99
 10
183.747
 20
106.668
 30
0.0
 40
0
 41
0
  0
VERTEX
  8
CFB-CA-99
 10
183.056
 20
106.776
 30
0.0
 40
0
 41
0
  0
VERTEX
  8
CFB-CA-99
 10
182.416
 20
106.882
 30
0.0
 40
0
 41
0
  0
VERTEX
  8
CFB-CA-99
 10
182.363
 20
106.882
 30
0.0
 40
0
 41
0
  0
VERTEX
  8
CFB-CA-99
 10
181.67
 20
106.988
 30
0.0
 40
0
 41
0
  0
VERTEX
  8
CFB-CA-99
 10
180.925
 20
107.148
 30
0.0
 40
0
 41
0
  0
VERTEX
  8
CFB-CA-99
 10
180.765
 20
107.202
 30
0.0
 40
0
 41
0
  0
VERTEX
  8
CFB-CA-99
 10
180.392
 20
107.254
 30
0.0
 40
0
 41
0
  0
VERTEX
  8
CFB-CA-99
 10
180.232
 20
107.254
 30
0.0
 40
0
 41
0
  0
VERTEX
  8
CFB-CA-99
 10
179.593
 20
107.628
 30
0.0
 40
0
 41
0
  0
VERTEX
  8
CFB-CA-99
 10
179.007
 20
108
 30
0.0
 40
0
 41
0
  0
VERTEX
  8
CFB-CA-99
 10
178.901
 20
108.107
 30
0.0
 40
0
 41
0
  0
VERTEX
  8
CFB-CA-99
 10
178.795
 20
108.267
 30
0.0
 40
0
 41
0
  0
VERTEX
  8
CFB-CA-99
 10
178.741
 20
108.426
 30
0.0
 40
0
 41
0
  0
VERTEX
  8
CFB-CA-99
 10
178.529
 20
108.585
 30
0.0
 40
0
 41
0
  0
VERTEX
  8
CFB-CA-99
 10
178.635
 20
108.64
 30
0.0
 40
0
 41
0
  0
VERTEX
  8
CFB-CA-99
 10
178.581
 20
109.225
 30
0.0
 40
0
 41
0
  0
VERTEX
  8
CFB-CA-99
 10
178.369
 20
109.119
 30
0.0
 40
0
 41
0
  0
VERTEX
  8
CFB-CA-99
 10
178.156
 20
109.065
 30
0.0
 40
0
 41
0
  0
VERTEX
  8
CFB-CA-99
 10
178.103
 20
109.013
 30
0.0
 40
0
 41
0
  0
VERTEX
  8
CFB-CA-99
 10
177.783
 20
108.906
 30
0.0
 40
0
 41
0
  0
VERTEX
  8
CFB-CA-99
 10
177.676
 20
109.065
 30
0.0
 40
0
 41
0
  0
VERTEX
  8
CFB-CA-99
 10
177.464
 20
108.906
 30
0.0
 40
0
 41
0
  0
VERTEX
  8
CFB-CA-99
 10
177.304
 20
108.747
 30
0.0
 40
0
 41
0
  0
VERTEX
  8
CFB-CA-99
 10
177.196
 20
108.693
 30
0.0
 40
0
 41
0
  0
VERTEX
  8
CFB-CA-99
 10
177.09
 20
108.64
 30
0.0
 40
0
 41
0
  0
VERTEX
  8
CFB-CA-99
 10
176.932
 20
108.479
 30
0.0
 40
0
 41
0
  0
VERTEX
  8
CFB-CA-99
 10
176.505
 20
108.16
 30
0.0
 40
0
 41
0
  0
VERTEX
  8
CFB-CA-99
 10
175.387
 20
107.468
 30
0.0
 40
0
 41
0
  0
VERTEX
  8
CFB-CA-99
 10
175.227
 20
107.362
 30
0.0
 40
0
 41
0
  0
VERTEX
  8
CFB-CA-99
 10
174.96
 20
107.096
 30
0.0
 40
0
 41
0
  0
VERTEX
  8
CFB-CA-99
 10
174.48
 20
106.722
 30
0.0
 40
0
 41
0
  0
VERTEX
  8
CFB-CA-99
 10
174.214
 20
106.456
 30
0.0
 40
0
 41
0
  0
VERTEX
  8
CFB-CA-99
 10
174.055
 20
106.349
 30
0.0
 40
0
 41
0
  0
VERTEX
  8
CFB-CA-99
 10
172.883
 20
105.337
 30
0.0
 40
0
 41
0
  0
VERTEX
  8
CFB-CA-99
 10
172.457
 20
104.967
 30
0.0
 40
0
 41
0
  0
VERTEX
  8
CFB-CA-99
 10
171.818
 20
104.218
 30
0.0
 40
0
 41
0
  0
VERTEX
  8
CFB-CA-99
 10
171.126
 20
103.528
 30
0.0
 40
0
 41
0
  0
VERTEX
  8
CFB-CA-99
 10
171.073
 20
103.474
 30
0.0
 40
0
 41
0
  0
VERTEX
  8
CFB-CA-99
 10
171.02
 20
103.42
 30
0.0
 40
0
 41
0
  0
VERTEX
  8
CFB-CA-99
 10
169.901
 20
101.983
 30
0.0
 40
0
 41
0
  0
VERTEX
  8
CFB-CA-99
 10
170.115
 20
101.771
 30
0.0
 40
0
 41
0
  0
VERTEX
  8
CFB-CA-99
 10
170.167
 20
101.717
 30
0.0
 40
0
 41
0
  0
VERTEX
  8
CFB-CA-99
 10
170.167
 20
101.663
 30
0.0
 40
0
 41
0
  0
VERTEX
  8
CFB-CA-99
 10
170.541
 20
101.29
 30
0.0
 40
0
 41
0
  0
VERTEX
  8
CFB-CA-99
 10
170.593
 20
101.184
 30
0.0
 40
0
 41
0
  0
VERTEX
  8
CFB-CA-99
 10
170.699
 20
101.078
 30
0.0
 40
0
 41
0
  0
VERTEX
  8
CFB-CA-99
 10
170.913
 20
100.918
 30
0.0
 40
0
 41
0
  0
VERTEX
  8
CFB-CA-99
 10
171.02
 20
100.758
 30
0.0
 40
0
 41
0
  0
VERTEX
  8
CFB-CA-99
 10
171.18
 20
100.544
 30
0.0
 40
0
 41
0
  0
VERTEX
  8
CFB-CA-99
 10
171.552
 20
100.172
 30
0.0
 40
0
 41
0
  0
VERTEX
  8
CFB-CA-99
 10
171.712
 20
100.119
 30
0.0
 40
0
 41
0
  0
VERTEX
  8
CFB-CA-99
 10
171.818
 20
100.066
 30
0.0
 40
0
 41
0
  0
VERTEX
  8
CFB-CA-99
 10
171.872
 20
100.066
 30
0.0
 40
0
 41
0
  0
VERTEX
  8
CFB-CA-99
 10
171.872
 20
100.119
 30
0.0
 40
0
 41
0
  0
VERTEX
  8
CFB-CA-99
 10
172.084
 20
100.172
 30
0.0
 40
0
 41
0
  0
VERTEX
  8
CFB-CA-99
 10
172.244
 20
100.119
 30
0.0
 40
0
 41
0
  0
VERTEX
  8
CFB-CA-99
 10
172.244
 20
100.066
 30
0.0
 40
0
 41
0
  0
VERTEX
  8
CFB-CA-99
 10
172.192
 20
99.9589
 30
0.0
 40
0
 41
0
  0
VERTEX
  8
CFB-CA-99
 10
172.138
 20
99.8527
 30
0.0
 40
0
 41
0
  0
VERTEX
  8
CFB-CA-99
 10
172.138
 20
99.7465
 30
0.0
 40
0
 41
0
  0
VERTEX
  8
CFB-CA-99
 10
172.084
 20
99.6403
 30
0.0
 40
0
 41
0
  0
VERTEX
  8
CFB-CA-99
 10
172.031
 20
99.5867
 30
0.0
 40
0
 41
0
  0
VERTEX
  8
CFB-CA-99
 10
171.978
 20
99.4805
 30
0.0
 40
0
 41
0
  0
VERTEX
  8
CFB-CA-99
 10
171.978
 20
99.3207
 30
0.0
 40
0
 41
0
  0
VERTEX
  8
CFB-CA-99
 10
171.924
 20
99.3207
 30
0.0
 40
0
 41
0
  0
VERTEX
  8
CFB-CA-99
 10
171.924
 20
99.2145
 30
0.0
 40
0
 41
0
  0
VERTEX
  8
CFB-CA-99
 10
171.892
 20
99.1623
 30
0.0
 40
0
 41
0
  0
VERTEX
  8
CFB-CA-99
 10
171.818
 20
98.975
 30
0.0
 40
0
 41
0
  0
VERTEX
  8
CFB-CA-99
 10
171.742
 20
98.7887
 30
0.0
 40
0
 41
0
  0
VERTEX
  8
CFB-CA-99
 10
171.712
 20
98.7351
 30
0.0
 40
0
 41
0
  0
VERTEX
  8
CFB-CA-99
 10
171.712
 20
98.6275
 30
0.0
 40
0
 41
0
  0
VERTEX
  8
CFB-CA-99
 10
171.552
 20
98.6815
 30
0.0
 40
0
 41
0
  0
VERTEX
  8
CFB-CA-99
 10
171.392
 20
98.6815
 30
0.0
 40
0
 41
0
  0
VERTEX
  8
CFB-CA-99
 10
171.34
 20
98.7351
 30
0.0
 40
0
 41
0
  0
VERTEX
  8
CFB-CA-99
 10
171.232
 20
98.7351
 30
0.0
 40
0
 41
0
  0
VERTEX
  8
CFB-CA-99
 10
171.126
 20
98.7887
 30
0.0
 40
0
 41
0
  0
VERTEX
  8
CFB-CA-99
 10
170.913
 20
98.8413
 30
0.0
 40
0
 41
0
  0
VERTEX
  8
CFB-CA-99
 10
170.541
 20
98.8413
 30
0.0
 40
0
 41
0
  0
VERTEX
  8
CFB-CA-99
 10
170.433
 20
98.4677
 30
0.0
 40
0
 41
0
  0
VERTEX
  8
CFB-CA-99
 10
170.275
 20
98.5213
 30
0.0
 40
0
 41
0
  0
VERTEX
  8
CFB-CA-99
 10
170.061
 20
98.6275
 30
0.0
 40
0
 41
0
  0
VERTEX
  8
CFB-CA-99
 10
168.354
 20
100.226
 30
0.0
 40
0
 41
0
  0
VERTEX
  8
CFB-CA-99
 10
167.022
 20
98.0419
 30
0.0
 40
0
 41
0
  0
VERTEX
  8
CFB-CA-99
 10
164.574
 20
94.3158
 30
0.0
 40
0
 41
0
  0
VERTEX
  8
CFB-CA-99
 10
163.295
 20
92.239
 30
0.0
 40
0
 41
0
  0
VERTEX
  8
CFB-CA-99
 10
162.122
 20
90.4282
 30
0.0
 40
0
 41
0
  0
VERTEX
  8
CFB-CA-99
 10
160.313
 20
87.5524
 30
0.0
 40
0
 41
0
  0
VERTEX
  8
CFB-CA-99
 10
158.501
 20
84.7302
 30
0.0
 40
0
 41
0
  0
VERTEX
  8
CFB-CA-99
 10
157.65
 20
83.3988
 30
0.0
 40
0
 41
0
  0
VERTEX
  8
CFB-CA-99
 10
155.999
 20
80.844
 30
0.0
 40
0
 41
0
  0
VERTEX
  8
CFB-CA-99
 10
155.892
 20
80.6842
 30
0.0
 40
0
 41
0
  0
VERTEX
  8
CFB-CA-99
 10
153.442
 20
76.9027
 30
0.0
 40
0
 41
0
  0
VERTEX
  8
CFB-CA-99
 10
152.005
 20
74.6139
 30
0.0
 40
0
 41
0
  0
VERTEX
  8
CFB-CA-99
 10
152.111
 20
74.4541
 30
0.0
 40
0
 41
0
  0
VERTEX
  8
CFB-CA-99
 10
151.951
 20
74.1331
 30
0.0
 40
0
 41
0
  0
VERTEX
  8
CFB-CA-99
 10
151.845
 20
73.8671
 30
0.0
 40
0
 41
0
  0
VERTEX
  8
CFB-CA-99
 10
151.577
 20
73.0691
 30
0.0
 40
0
 41
0
  0
VERTEX
  8
CFB-CA-99
 10
151.419
 20
72.8031
 30
0.0
 40
0
 41
0
  0
VERTEX
  8
CFB-CA-99
 10
151.473
 20
72.8031
 30
0.0
 40
0
 41
0
  0
VERTEX
  8
CFB-CA-99
 10
151.525
 20
72.7495
 30
0.0
 40
0
 41
0
  0
VERTEX
  8
CFB-CA-99
 10
151.685
 20
72.6955
 30
0.0
 40
0
 41
0
  0
VERTEX
  8
CFB-CA-99
 10
151.739
 20
72.3237
 30
0.0
 40
0
 41
0
  0
VERTEX
  8
CFB-CA-99
 10
151.791
 20
71.7903
 30
0.0
 40
0
 41
0
  0
VERTEX
  8
CFB-CA-99
 10
151.685
 20
71.7903
 30
0.0
 40
0
 41
0
  0
VERTEX
  8
CFB-CA-99
 10
151.685
 20
71.5779
 30
0.0
 40
0
 41
0
  0
VERTEX
  8
CFB-CA-99
 10
151.791
 20
71.5779
 30
0.0
 40
0
 41
0
  0
VERTEX
  8
CFB-CA-99
 10
151.791
 20
71.2583
 30
0.0
 40
0
 41
0
  0
VERTEX
  8
CFB-CA-99
 10
151.799
 20
71.0971
 30
0.0
 40
0
 41
0
  0
VERTEX
  8
CFB-CA-99
 10
151.696
 20
70.6053
 30
0.0
 40
0
 41
0
  0
VERTEX
  8
CFB-CA-99
 10
151.4
 20
70.0691
 30
0.0
 40
0
 41
0
  0
VERTEX
  8
CFB-CA-99
 10
151.005
 20
69.5427
 30
0.0
 40
0
 41
0
  0
VERTEX
  8
CFB-CA-99
 10
150.7
 20
69.0809
 30
0.0
 40
0
 41
0
  0
VERTEX
  8
CFB-CA-99
 10
150.62
 20
68.9158
 30
0.0
 40
0
 41
0
  0
VERTEX
  8
CFB-CA-99
 10
150.46
 20
68.7021
 30
0.0
 40
0
 41
0
  0
VERTEX
  8
CFB-CA-99
 10
150.832
 20
68.4361
 30
0.0
 40
0
 41
0
  0
VERTEX
  8
CFB-CA-99
 10
151.205
 20
68.2763
 30
0.0
 40
0
 41
0
  0
VERTEX
  8
CFB-CA-99
 10
152.005
 20
67.6906
 30
0.0
 40
0
 41
0
  0
VERTEX
  8
CFB-CA-99
 10
153.23
 20
66.5194
 30
0.0
 40
0
 41
0
  0
VERTEX
  8
CFB-CA-99
 10
153.282
 20
66.4132
 30
0.0
 40
0
 41
0
  0
VERTEX
  8
CFB-CA-99
 10
152.43
 20
65.9335
 30
0.0
 40
0
 41
0
  0
VERTEX
  8
CFB-CA-99
 10
152.218
 20
65.8262
 30
0.0
 40
0
 41
0
  0
VERTEX
  8
CFB-CA-99
 10
152.058
 20
65.72
 30
0.0
 40
0
 41
0
  0
VERTEX
  8
CFB-CA-99
 10
151.845
 20
65.6138
 30
0.0
 40
0
 41
0
  0
VERTEX
  8
CFB-CA-99
 10
151.791
 20
65.5602
 30
0.0
 40
0
 41
0
  0
VERTEX
  8
CFB-CA-99
 10
151.845
 20
65.5602
 30
0.0
 40
0
 41
0
  0
VERTEX
  8
CFB-CA-99
 10
151.845
 20
65.5066
 30
0.0
 40
0
 41
0
  0
VERTEX
  8
CFB-CA-99
 10
152.058
 20
65.3479
 30
0.0
 40
0
 41
0
  0
VERTEX
  8
CFB-CA-99
 10
152.324
 20
65.1344
 30
0.0
 40
0
 41
0
  0
VERTEX
  8
CFB-CA-99
 10
152.644
 20
64.8684
 30
0.0
 40
0
 41
0
  0
VERTEX
  8
CFB-CA-99
 10
152.803
 20
64.2288
 30
0.0
 40
0
 41
0
  0
VERTEX
  8
CFB-CA-99
 10
154.348
 20
63.9632
 30
0.0
 40
0
 41
0
  0
VERTEX
  8
CFB-CA-99
 10
154.773
 20
63.857
 30
0.0
 40
0
 41
0
  0
VERTEX
  8
CFB-CA-99
 10
155.253
 20
63.803
 30
0.0
 40
0
 41
0
  0
VERTEX
  8
CFB-CA-99
 10
155.626
 20
63.5896
 30
0.0
 40
0
 41
0
  0
VERTEX
  8
CFB-CA-99
 10
155.786
 20
63.4834
 30
0.0
 40
0
 41
0
  0
VERTEX
  8
CFB-CA-99
 10
156.691
 20
63.6432
 30
0.0
 40
0
 41
0
  0
VERTEX
  8
CFB-CA-99
 10
156.745
 20
63.6972
 30
0.0
 40
0
 41
0
  0
VERTEX
  8
CFB-CA-99
 10
156.957
 20
63.6972
 30
0.0
 40
0
 41
0
  0
VERTEX
  8
CFB-CA-99
 10
157.491
 20
63.857
 30
0.0
 40
0
 41
0
  0
VERTEX
  8
CFB-CA-99
 10
157.543
 20
63.857
 30
0.0
 40
0
 41
0
  0
VERTEX
  8
CFB-CA-99
 10
158.501
 20
64.069
 30
0.0
 40
0
 41
0
  0
VERTEX
  8
CFB-CA-99
 10
158.608
 20
64.069
 30
0.0
 40
0
 41
0
  0
VERTEX
  8
CFB-CA-99
 10
158.715
 20
64.123
 30
0.0
 40
0
 41
0
  0
VERTEX
  8
CFB-CA-99
 10
158.768
 20
64.123
 30
0.0
 40
0
 41
0
  0
VERTEX
  8
CFB-CA-99
 10
158.822
 20
64.1752
 30
0.0
 40
0
 41
0
  0
VERTEX
  8
CFB-CA-99
 10
158.928
 20
64.2288
 30
0.0
 40
0
 41
0
  0
VERTEX
  8
CFB-CA-99
 10
159.088
 20
64.2288
 30
0.0
 40
0
 41
0
  0
VERTEX
  8
CFB-CA-99
 10
159.088
 20
64.2828
 30
0.0
 40
0
 41
0
  0
VERTEX
  8
CFB-CA-99
 10
159.354
 20
64.3364
 30
0.0
 40
0
 41
0
  0
VERTEX
  8
CFB-CA-99
 10
159.474
 20
64.389
 30
0.0
 40
0
 41
0
  0
VERTEX
  8
CFB-CA-99
 10
160.254
 20
64.6342
 30
0.0
 40
0
 41
0
  0
VERTEX
  8
CFB-CA-99
 10
161.075
 20
64.8727
 30
0.0
 40
0
 41
0
  0
VERTEX
  8
CFB-CA-99
 10
161.218
 20
64.9206
 30
0.0
 40
0
 41
0
  0
VERTEX
  8
CFB-CA-99
 10
161.856
 20
65.0819
 30
0.0
 40
0
 41
0
  0
VERTEX
  8
CFB-CA-99
 10
162.389
 20
63.9632
 30
0.0
 40
0
 41
0
  0
VERTEX
  8
CFB-CA-99
 10
162.709
 20
64.069
 30
0.0
 40
0
 41
0
  0
VERTEX
  8
CFB-CA-99
 10
162.761
 20
64.069
 30
0.0
 40
0
 41
0
  0
VERTEX
  8
CFB-CA-99
 10
162.815
 20
64.123
 30
0.0
 40
0
 41
0
  0
VERTEX
  8
CFB-CA-99
 10
163.027
 20
63.6432
 30
0.0
 40
0
 41
0
  0
VERTEX
  8
CFB-CA-99
 10
163.189
 20
63.2714
 30
0.0
 40
0
 41
0
  0
VERTEX
  8
CFB-CA-99
 10
163.242
 20
63.2174
 30
0.0
 40
0
 41
0
  0
VERTEX
  8
CFB-CA-99
 10
164.04
 20
61.4592
 30
0.0
 40
0
 41
0
  0
VERTEX
  8
CFB-CA-99
 10
164.253
 20
61.087
 30
0.0
 40
0
 41
0
  0
VERTEX
  8
CFB-CA-99
 10
164.732
 20
60.0756
 30
0.0
 40
0
 41
0
  0
VERTEX
  8
CFB-CA-99
 10
164.84
 20
59.9158
 30
0.0
 40
0
 41
0
  0
VERTEX
  8
CFB-CA-99
 10
164.998
 20
59.49
 30
0.0
 40
0
 41
0
  0
VERTEX
  8
CFB-CA-99
 10
165.052
 20
59.436
 30
0.0
 40
0
 41
0
  0
VERTEX
  8
CFB-CA-99
 10
165.106
 20
59.3302
 30
0.0
 40
0
 41
0
  0
VERTEX
  8
CFB-CA-99
 10
165.477
 20
58.5322
 30
0.0
 40
0
 41
0
  0
VERTEX
  8
CFB-CA-99
 10
165.531
 20
58.4786
 30
0.0
 40
0
 41
0
  0
VERTEX
  8
CFB-CA-99
 10
165.531
 20
58.3724
 30
0.0
 40
0
 41
0
  0
VERTEX
  8
CFB-CA-99
 10
165.584
 20
58.2648
 30
0.0
 40
0
 41
0
  0
VERTEX
  8
CFB-CA-99
 10
165.639
 20
58.3724
 30
0.0
 40
0
 41
0
  0
VERTEX
  8
CFB-CA-99
 10
165.673
 20
58.4426
 30
0.0
 40
0
 41
0
  0
VERTEX
  8
CFB-CA-99
 10
165.801
 20
59.1993
 30
0.0
 40
0
 41
0
  0
VERTEX
  8
CFB-CA-99
 10
165.797
 20
59.2762
 30
0.0
 40
0
 41
0
  0
VERTEX
  8
CFB-CA-99
 10
165.797
 20
59.3302
 30
0.0
 40
0
 41
0
  0
VERTEX
  8
CFB-CA-99
 10
165.905
 20
59.2762
 30
0.0
 40
0
 41
0
  0
VERTEX
  8
CFB-CA-99
 10
166.064
 20
59.2762
 30
0.0
 40
0
 41
0
  0
VERTEX
  8
CFB-CA-99
 10
166.117
 20
59.3302
 30
0.0
 40
0
 41
0
  0
VERTEX
  8
CFB-CA-99
 10
166.171
 20
59.436
 30
0.0
 40
0
 41
0
  0
VERTEX
  8
CFB-CA-99
 10
166.117
 20
59.436
 30
0.0
 40
0
 41
0
  0
VERTEX
  8
CFB-CA-99
 10
168.57
 20
59.49
 30
0.0
 40
0
 41
0
  0
VERTEX
  8
CFB-CA-99
 10
168.621
 20
59.49
 30
0.0
 40
0
 41
0
  0
VERTEX
  8
CFB-CA-99
 10
168.73
 20
59.6498
 30
0.0
 40
0
 41
0
  0
VERTEX
  8
CFB-CA-99
 10
168.836
 20
59.7034
 30
0.0
 40
0
 41
0
  0
VERTEX
  8
CFB-CA-99
 10
170.115
 20
59.436
 30
0.0
 40
0
 41
0
  0
VERTEX
  8
CFB-CA-99
 10
172.937
 20
59.436
 30
0.0
 40
0
 41
0
  0
VERTEX
  8
CFB-CA-99
 10
172.937
 20
60.6076
 30
0.0
 40
0
 41
0
  0
VERTEX
  8
CFB-CA-99
 10
172.563
 20
61.6204
 30
0.0
 40
0
 41
0
  0
VERTEX
  8
CFB-CA-99
 10
172.51
 20
61.8324
 30
0.0
 40
0
 41
0
  0
VERTEX
  8
CFB-CA-99
 10
172.297
 20
62.4184
 30
0.0
 40
0
 41
0
  0
VERTEX
  8
CFB-CA-99
 10
172.404
 20
62.4184
 30
0.0
 40
0
 41
0
  0
VERTEX
  8
CFB-CA-99
 10
172.777
 20
62.6318
 30
0.0
 40
0
 41
0
  0
VERTEX
  8
CFB-CA-99
 10
172.723
 20
62.8442
 30
0.0
 40
0
 41
0
  0
VERTEX
  8
CFB-CA-99
 10
172.671
 20
62.9514
 30
0.0
 40
0
 41
0
  0
VERTEX
  8
CFB-CA-99
 10
172.617
 20
63.0576
 30
0.0
 40
0
 41
0
  0
VERTEX
  8
CFB-CA-99
 10
172.563
 20
63.2714
 30
0.0
 40
0
 41
0
  0
VERTEX
  8
CFB-CA-99
 10
172.563
 20
63.3772
 30
0.0
 40
0
 41
0
  0
VERTEX
  8
CFB-CA-99
 10
172.51
 20
63.3772
 30
0.0
 40
0
 41
0
  0
VERTEX
  8
CFB-CA-99
 10
172.51
 20
63.4312
 30
0.0
 40
0
 41
0
  0
VERTEX
  8
CFB-CA-99
 10
172.563
 20
63.537
 30
0.0
 40
0
 41
0
  0
VERTEX
  8
CFB-CA-99
 10
172.563
 20
63.4312
 30
0.0
 40
0
 41
0
  0
VERTEX
  8
CFB-CA-99
 10
172.617
 20
63.3772
 30
0.0
 40
0
 41
0
  0
VERTEX
  8
CFB-CA-99
 10
172.723
 20
63.0576
 30
0.0
 40
0
 41
0
  0
VERTEX
  8
CFB-CA-99
 10
172.777
 20
62.8442
 30
0.0
 40
0
 41
0
  0
VERTEX
  8
CFB-CA-99
 10
172.883
 20
62.6854
 30
0.0
 40
0
 41
0
  0
VERTEX
  8
CFB-CA-99
 10
173.043
 20
62.5782
 30
0.0
 40
0
 41
0
  0
VERTEX
  8
CFB-CA-99
 10
173.576
 20
62.3122
 30
0.0
 40
0
 41
0
  0
VERTEX
  8
CFB-CA-99
 10
174.108
 20
61.9926
 30
0.0
 40
0
 41
0
  0
VERTEX
  8
CFB-CA-99
 10
174.374
 20
61.8864
 30
0.0
 40
0
 41
0
  0
VERTEX
  8
CFB-CA-99
 10
174.64
 20
61.7266
 30
0.0
 40
0
 41
0
  0
VERTEX
  8
CFB-CA-99
 10
175.545
 20
61.2468
 30
0.0
 40
0
 41
0
  0
VERTEX
  8
CFB-CA-99
 10
175.545
 20
63.004
 30
0.0
 40
0
 41
0
  0
VERTEX
  8
CFB-CA-99
 10
175.599
 20
65.1344
 30
0.0
 40
0
 41
0
  0
VERTEX
  8
CFB-CA-99
 10
175.545
 20
65.6664
 30
0.0
 40
0
 41
0
  0
VERTEX
  8
CFB-CA-99
 10
175.545
 20
66.573
 30
0.0
 40
0
 41
0
  0
VERTEX
  8
CFB-CA-99
 10
175.599
 20
67.1587
 30
0.0
 40
0
 41
0
  0
VERTEX
  8
CFB-CA-99
 10
175.493
 20
67.1587
 30
0.0
 40
0
 41
0
  0
VERTEX
  8
CFB-CA-99
 10
175.493
 20
67.371
 30
0.0
 40
0
 41
0
  0
VERTEX
  8
CFB-CA-99
 10
175.486
 20
67.5446
 30
0.0
 40
0
 41
0
  0
VERTEX
  8
CFB-CA-99
 10
175.57
 20
69.2767
 30
0.0
 40
0
 41
0
  0
VERTEX
  8
CFB-CA-99
 10
175.599
 20
69.4475
 30
0.0
 40
0
 41
0
  0
VERTEX
  8
CFB-CA-99
 10
175.653
 20
69.7675
 30
0.0
 40
0
 41
0
  0
VERTEX
  8
CFB-CA-99
 10
175.706
 20
70.0871
 30
0.0
 40
0
 41
0
  0
VERTEX
  8
CFB-CA-99
 10
175.759
 20
70.3531
 30
0.0
 40
0
 41
0
  0
VERTEX
  8
CFB-CA-99
 10
175.759
 20
70.4592
 30
0.0
 40
0
 41
0
  0
VERTEX
  8
CFB-CA-99
 10
180.18
 20
70.4592
 30
0.0
 40
0
 41
0
  0
VERTEX
  8
CFB-CA-99
 10
180.18
 20
71.8439
 30
0.0
 40
0
 41
0
  0
VERTEX
  8
CFB-CA-99
 10
180.232
 20
74.0805
 30
0.0
 40
0
 41
0
  0
VERTEX
  8
CFB-CA-99
 10
180.232
 20
76.0511
 30
0.0
 40
0
 41
0
  0
VERTEX
  8
CFB-CA-99
 10
180.499
 20
76.3693
 30
0.0
 40
0
 41
0
  0
VERTEX
  8
CFB-CA-99
 10
180.658
 20
76.6353
 30
0.0
 40
0
 41
0
  0
VERTEX
  8
CFB-CA-99
 10
180.759
 20
76.7221
 30
0.0
 40
0
 41
0
  0
VERTEX
  8
CFB-CA-99
 10
181.004
 20
77.0516
 30
0.0
 40
0
 41
0
  0
VERTEX
  8
CFB-CA-99
 10
181.347
 20
77.6386
 30
0.0
 40
0
 41
0
  0
VERTEX
  8
CFB-CA-99
 10
181.639
 20
78.2712
 30
0.0
 40
0
 41
0
  0
VERTEX
  8
CFB-CA-99
 10
181.792
 20
78.6804
 30
0.0
 40
0
 41
0
  0
VERTEX
  8
CFB-CA-99
 10
181.831
 20
78.8197
 30
0.0
 40
0
 41
0
  0
VERTEX
  8
CFB-CA-99
 10
181.937
 20
79.0857
 30
0.0
 40
0
 41
0
  0
VERTEX
  8
CFB-CA-99
 10
182.043
 20
79.6177
 30
0.0
 40
0
 41
0
  0
VERTEX
  8
CFB-CA-99
 10
182.097
 20
79.9387
 30
0.0
 40
0
 41
0
  0
VERTEX
  8
CFB-CA-99
 10
182.097
 20
80.5766
 30
0.0
 40
0
 41
0
  0
VERTEX
  8
CFB-CA-99
 10
182.15
 20
81.0024
 30
0.0
 40
0
 41
0
  0
VERTEX
  8
CFB-CA-99
 10
182.097
 20
81.3223
 30
0.0
 40
0
 41
0
  0
VERTEX
  8
CFB-CA-99
 10
182.097
 20
85.743
 30
0.0
 40
0
 41
0
  0
VERTEX
  8
CFB-CA-99
 10
182.203
 20
85.8492
 30
0.0
 40
0
 41
0
  0
VERTEX
  8
CFB-CA-99
 10
182.203
 20
86.0076
 30
0.0
 40
0
 41
0
  0
VERTEX
  8
CFB-CA-99
 10
182.097
 20
86.0612
 30
0.0
 40
0
 41
0
  0
VERTEX
  8
CFB-CA-99
 10
182.097
 20
86.487
 30
0.0
 40
0
 41
0
  0
VERTEX
  8
CFB-CA-99
 10
182.15
 20
87.7658
 30
0.0
 40
0
 41
0
  0
VERTEX
  8
CFB-CA-99
 10
182.15
 20
89.2556
 30
0.0
 40
0
 41
0
  0
VERTEX
  8
CFB-CA-99
 10
182.257
 20
89.8426
 30
0.0
 40
0
 41
0
  0
VERTEX
  8
CFB-CA-99
 10
182.363
 20
89.8948
 30
0.0
 40
0
 41
0
  0
VERTEX
  8
CFB-CA-99
 10
182.363
 20
89.9488
 30
0.0
 40
0
 41
0
  0
VERTEX
  8
CFB-CA-99
 10
181.991
 20
90.1086
 30
0.0
 40
0
 41
0
  0
VERTEX
  8
CFB-CA-99
 10
181.351
 20
90.4282
 30
0.0
 40
0
 41
0
  0
VERTEX
  8
CFB-CA-99
 10
180.925
 20
90.588
 30
0.0
 40
0
 41
0
  0
VERTEX
  8
CFB-CA-99
 10
180.552
 20
90.6406
 30
0.0
 40
0
 41
0
  0
VERTEX
  8
CFB-CA-99
 10
180.552
 20
90.7464
 30
0.0
 40
0
 41
0
  0
VERTEX
  8
CFB-CA-99
 10
180.818
 20
90.8004
 30
0.0
 40
0
 41
0
  0
VERTEX
  8
CFB-CA-99
 10
181.031
 20
90.854
 30
0.0
 40
0
 41
0
  0
VERTEX
  8
CFB-CA-99
 10
181.138
 20
91.0138
 30
0.0
 40
0
 41
0
  0
VERTEX
  8
CFB-CA-99
 10
181.297
 20
91.2798
 30
0.0
 40
0
 41
0
  0
VERTEX
  8
CFB-CA-99
 10
181.457
 20
91.6534
 30
0.0
 40
0
 41
0
  0
VERTEX
  8
CFB-CA-99
 10
181.351
 20
91.6534
 30
0.0
 40
0
 41
0
  0
VERTEX
  8
CFB-CA-99
 10
181.563
 20
92.239
 30
0.0
 40
0
 41
0
  0
VERTEX
  8
CFB-CA-99
 10
181.777
 20
92.7185
 30
0.0
 40
0
 41
0
  0
VERTEX
  8
CFB-CA-99
 10
181.777
 20
92.771
 30
0.0
 40
0
 41
0
  0
VERTEX
  8
CFB-CA-99
 10
181.991
 20
92.9831
 30
0.0
 40
0
 41
0
  0
VERTEX
  8
CFB-CA-99
 10
182.309
 20
93.1429
 30
0.0
 40
0
 41
0
  0
VERTEX
  8
CFB-CA-99
 10
182.523
 20
93.249
 30
0.0
 40
0
 41
0
  0
VERTEX
  8
CFB-CA-99
 10
182.789
 20
93.4103
 30
0.0
 40
0
 41
0
  0
VERTEX
  8
CFB-CA-99
 10
183.056
 20
93.6226
 30
0.0
 40
0
 41
0
  0
VERTEX
  8
CFB-CA-99
 10
183.162
 20
93.6763
 30
0.0
 40
0
 41
0
  0
VERTEX
  8
CFB-CA-99
 10
183.322
 20
93.7824
 30
0.0
 40
0
 41
0
  0
VERTEX
  8
CFB-CA-99
 10
183.374
 20
93.9423
 30
0.0
 40
0
 41
0
  0
VERTEX
  8
CFB-CA-99
 10
183.588
 20
94.2082
 30
0.0
 40
0
 41
0
  0
VERTEX
  8
CFB-CA-99
 10
183.694
 20
94.2082
 30
0.0
 40
0
 41
0
  0
VERTEX
  8
CFB-CA-99
 10
184.493
 20
96.1249
 30
0.0
 40
0
 41
0
  0
VERTEX
  8
CFB-CA-99
 10
184.813
 20
96.551
 30
0.0
 40
0
 41
0
  0
VERTEX
  8
CFB-CA-99
 10
184.813
 20
96.6047
 30
0.0
 40
0
 41
0
  0
VERTEX
  8
CFB-CA-99
 10
184.919
 20
96.7645
 30
0.0
 40
0
 41
0
  0
VERTEX
  8
CFB-CA-99
 10
185.185
 20
97.5099
 30
0.0
 40
0
 41
0
  0
VERTEX
  8
CFB-CA-99
 10
185.345
 20
97.8835
 30
0.0
 40
0
 41
0
  0
VERTEX
  8
CFB-CA-99
 10
185.452
 20
98.1495
 30
0.0
 40
0
 41
0
  0
VERTEX
  8
CFB-CA-99
 10
185.611
 20
98.4155
 30
0.0
 40
0
 41
0
  0
VERTEX
  8
CFB-CA-99
 10
185.771
 20
98.7887
 30
0.0
 40
0
 41
0
  0
VERTEX
  8
CFB-CA-99
 10
185.824
 20
98.8413
 30
0.0
 40
0
 41
0
  0
VERTEX
  8
CFB-CA-99
 10
185.984
 20
99.1609
 30
0.0
 40
0
 41
0
  0
VERTEX
  8
CFB-CA-99
 10
186.196
 20
99.4269
 30
0.0
 40
0
 41
0
  0
VERTEX
  8
CFB-CA-99
 10
186.516
 20
99.8527
 30
0.0
 40
0
 41
0
  0
VERTEX
  8
CFB-CA-99
 10
186.694
 20
100.064
 30
0.0
 40
0
 41
0
  0
VERTEX
  8
CFB-CA-99
 10
187.562
 20
100.94
 30
0.0
 40
0
 41
0
  0
VERTEX
  8
CFB-CA-99
 10
188.563
 20
101.646
 30
0.0
 40
0
 41
0
  0
VERTEX
  8
CFB-CA-99
 10
188.806
 20
101.771
 30
0.0
 40
0
 41
0
  0
VERTEX
  8
CFB-CA-99
 10
189.02
 20
101.877
 30
0.0
 40
0
 41
0
  0
VERTEX
  8
CFB-CA-99
 10
189.18
 20
101.983
 30
0.0
 40
0
 41
0
  0
VERTEX
  8
CFB-CA-99
 10
189.392
 20
102.037
 30
0.0
 40
0
 41
0
  0
VERTEX
  8
CFB-CA-99
 10
189.606
 20
102.143
 30
0.0
 40
0
 41
0
  0
VERTEX
  8
CFB-CA-99
 10
189.875
 20
102.275
 30
0.0
 40
0
 41
0
  0
VERTEX
  8
CFB-CA-99
 10
191.388
 20
102.853
 30
0.0
 40
0
 41
0
  0
VERTEX
  8
CFB-CA-99
 10
192.939
 20
103.407
 30
0.0
 40
0
 41
0
  0
VERTEX
  8
CFB-CA-99
 10
193.227
 20
103.528
 30
0.0
 40
0
 41
0
  0
VERTEX
  8
CFB-CA-99
 10
193.333
 20
103.582
 30
0.0
 40
0
 41
0
  0
VERTEX
  8
CFB-CA-99
 10
193.439
 20
103.582
 30
0.0
 40
0
 41
0
  0
VERTEX
  8
CFB-CA-99
 10
193.473
 20
103.61
 30
0.0
 40
0
 41
0
  0
VERTEX
  8
CFB-CA-99
 10
193.742
 20
103.761
 30
0.0
 40
0
 41
0
  0
VERTEX
  8
CFB-CA-99
 10
193.999
 20
103.921
 30
0.0
 40
0
 41
0
  0
VERTEX
  8
CFB-CA-99
 10
194.026
 20
103.954
 30
0.0
 40
0
 41
0
  0
VERTEX
  8
CFB-CA-99
 10
194.133
 20
104.007
 30
0.0
 40
0
 41
0
  0
VERTEX
  8
CFB-CA-99
 10
194.186
 20
104.06
 30
0.0
 40
0
 41
0
  0
VERTEX
  8
CFB-CA-99
 10
194.186
 20
104.114
 30
0.0
 40
0
 41
0
  0
VERTEX
  8
CFB-CA-99
 10
194.292
 20
104.166
 30
0.0
 40
0
 41
0
  0
VERTEX
  8
CFB-CA-99
 10
194.399
 20
104.273
 30
0.0
 40
0
 41
0
  0
VERTEX
  8
CFB-CA-99
 10
194.399
 20
104.326
 30
0.0
 40
0
 41
0
  0
VERTEX
  8
CFB-CA-99
 10
194.505
 20
104.38
 30
0.0
 40
0
 41
0
  0
VERTEX
  8
CFB-CA-99
 10
194.558
 20
104.486
 30
0.0
 40
0
 41
0
  0
VERTEX
  8
CFB-CA-99
 10
194.665
 20
104.592
 30
0.0
 40
0
 41
0
  0
VERTEX
  8
CFB-CA-99
 10
194.665
 20
104.646
 30
0.0
 40
0
 41
0
  0
VERTEX
  8
CFB-CA-99
 10
194.718
 20
104.699
 30
0.0
 40
0
 41
0
  0
VERTEX
  8
CFB-CA-99
 10
194.772
 20
104.805
 30
0.0
 40
0
 41
0
  0
VERTEX
  8
CFB-CA-99
 10
194.824
 20
104.912
 30
0.0
 40
0
 41
0
  0
VERTEX
  8
CFB-CA-99
 10
194.878
 20
104.967
 30
0.0
 40
0
 41
0
  0
VERTEX
  8
CFB-CA-99
 10
194.931
 20
105.071
 30
0.0
 40
0
 41
0
  0
VERTEX
  8
CFB-CA-99
 10
194.929
 20
105.102
 30
0.0
 40
0
 41
0
  0
VERTEX
  8
CFB-CA-99
 10
195.079
 20
105.518
 30
0.0
 40
0
 41
0
  0
VERTEX
  8
CFB-CA-99
 10
195.09
 20
105.551
 30
0.0
 40
0
 41
0
  0
VERTEX
  8
CFB-CA-99
 10
195.09
 20
105.711
 30
0.0
 40
0
 41
0
  0
VERTEX
  8
CFB-CA-99
 10
194.931
 20
105.711
 30
0.0
 40
0
 41
0
  0
SEQEND
 8
0
  0
POLYLINE
  8
CEB-F4-A7
 66
     1
 10
0
 20
0
 30
0.0
 70
     1
 40
0
 41
0
  0
VERTEX
  8
CEB-F4-A7
 10
150.833
 20
127.863
 30
0.0
 40
0
 41
0
  0
VERTEX
  8
CEB-F4-A7
 10
150.749
 20
127.864
 30
0.0
 40
0
 41
0
  0
VERTEX
  8
CEB-F4-A7
 10
150.46
 20
127.823
 30
0.0
 40
0
 41
0
  0
VERTEX
  8
CEB-F4-A7
 10
149.949
 20
127.719
 30
0.0
 40
0
 41
0
  0
VERTEX
  8
CEB-F4-A7
 10
149.453
 20
127.595
 30
0.0
 40
0
 41
0
  0
VERTEX
  8
CEB-F4-A7
 10
149.19
 20
127.517
 30
0.0
 40
0
 41
0
  0
VERTEX
  8
CEB-F4-A7
 10
149.129
 20
127.489
 30
0.0
 40
0
 41
0
  0
VERTEX
  8
CEB-F4-A7
 10
149.021
 20
127.435
 30
0.0
 40
0
 41
0
  0
VERTEX
  8
CEB-F4-A7
 10
149.021
 20
127.489
 30
0.0
 40
0
 41
0
  0
VERTEX
  8
CEB-F4-A7
 10
148.329
 20
127.277
 30
0.0
 40
0
 41
0
  0
VERTEX
  8
CEB-F4-A7
 10
148.169
 20
127.223
 30
0.0
 40
0
 41
0
  0
VERTEX
  8
CEB-F4-A7
 10
148.063
 20
127.116
 30
0.0
 40
0
 41
0
  0
VERTEX
  8
CEB-F4-A7
 10
148.809
 20
125.786
 30
0.0
 40
0
 41
0
  0
VERTEX
  8
CEB-F4-A7
 10
148.809
 20
125.68
 30
0.0
 40
0
 41
0
  0
VERTEX
  8
CEB-F4-A7
 10
148.757
 20
125.68
 30
0.0
 40
0
 41
0
  0
VERTEX
  8
CEB-F4-A7
 10
148.757
 20
125.572
 30
0.0
 40
0
 41
0
  0
VERTEX
  8
CEB-F4-A7
 10
148.863
 20
125.572
 30
0.0
 40
0
 41
0
  0
VERTEX
  8
CEB-F4-A7
 10
148.969
 20
125.52
 30
0.0
 40
0
 41
0
  0
VERTEX
  8
CEB-F4-A7
 10
149.448
 20
125.147
 30
0.0
 40
0
 41
0
  0
VERTEX
  8
CEB-F4-A7
 10
149.608
 20
124.987
 30
0.0
 40
0
 41
0
  0
VERTEX
  8
CEB-F4-A7
 10
149.608
 20
124.933
 30
0.0
 40
0
 41
0
  0
VERTEX
  8
CEB-F4-A7
 10
149.66
 20
124.933
 30
0.0
 40
0
 41
0
  0
VERTEX
  8
CEB-F4-A7
 10
149.66
 20
124.667
 30
0.0
 40
0
 41
0
  0
VERTEX
  8
CEB-F4-A7
 10
149.608
 20
124.613
 30
0.0
 40
0
 41
0
  0
VERTEX
  8
CEB-F4-A7
 10
149.448
 20
124.347
 30
0.0
 40
0
 41
0
  0
VERTEX
  8
CEB-F4-A7
 10
149.394
 20
124.347
 30
0.0
 40
0
 41
0
  0
VERTEX
  8
CEB-F4-A7
 10
149.394
 20
124.241
 30
0.0
 40
0
 41
0
  0
VERTEX
  8
CEB-F4-A7
 10
149.501
 20
124.134
 30
0.0
 40
0
 41
0
  0
VERTEX
  8
CEB-F4-A7
 10
149.235
 20
123.868
 30
0.0
 40
0
 41
0
  0
VERTEX
  8
CEB-F4-A7
 10
148.969
 20
123.762
 30
0.0
 40
0
 41
0
  0
VERTEX
  8
CEB-F4-A7
 10
148.969
 20
123.656
 30
0.0
 40
0
 41
0
  0
VERTEX
  8
CEB-F4-A7
 10
148.597
 20
123.176
 30
0.0
 40
0
 41
0
  0
VERTEX
  8
CEB-F4-A7
 10
147.052
 20
123.975
 30
0.0
 40
0
 41
0
  0
VERTEX
  8
CEB-F4-A7
 10
145.987
 20
124.455
 30
0.0
 40
0
 41
0
  0
VERTEX
  8
CEB-F4-A7
 10
145.133
 20
125.253
 30
0.0
 40
0
 41
0
  0
VERTEX
  8
CEB-F4-A7
 10
144.282
 20
125.626
 30
0.0
 40
0
 41
0
  0
VERTEX
  8
CEB-F4-A7
 10
144.282
 20
125.253
 30
0.0
 40
0
 41
0
  0
VERTEX
  8
CEB-F4-A7
 10
144.336
 20
124.879
 30
0.0
 40
0
 41
0
  0
VERTEX
  8
CEB-F4-A7
 10
144.282
 20
124.667
 30
0.0
 40
0
 41
0
  0
VERTEX
  8
CEB-F4-A7
 10
144.256
 20
124.562
 30
0.0
 40
0
 41
0
  0
VERTEX
  8
CEB-F4-A7
 10
144.107
 20
124.26
 30
0.0
 40
0
 41
0
  0
VERTEX
  8
CEB-F4-A7
 10
143.804
 20
123.869
 30
0.0
 40
0
 41
0
  0
VERTEX
  8
CEB-F4-A7
 10
143.419
 20
123.571
 30
0.0
 40
0
 41
0
  0
VERTEX
  8
CEB-F4-A7
 10
143.108
 20
123.448
 30
0.0
 40
0
 41
0
  0
VERTEX
  8
CEB-F4-A7
 10
143.003
 20
123.443
 30
0.0
 40
0
 41
0
  0
VERTEX
  8
CEB-F4-A7
 10
142.631
 20
123.336
 30
0.0
 40
0
 41
0
  0
VERTEX
  8
CEB-F4-A7
 10
142.258
 20
123.176
 30
0.0
 40
0
 41
0
  0
VERTEX
  8
CEB-F4-A7
 10
141.885
 20
122.91
 30
0.0
 40
0
 41
0
  0
VERTEX
  8
CEB-F4-A7
 10
141.672
 20
122.698
 30
0.0
 40
0
 41
0
  0
VERTEX
  8
CEB-F4-A7
 10
141.672
 20
122.642
 30
0.0
 40
0
 41
0
  0
VERTEX
  8
CEB-F4-A7
 10
141.406
 20
122.324
 30
0.0
 40
0
 41
0
  0
VERTEX
  8
CEB-F4-A7
 10
141.192
 20
122.164
 30
0.0
 40
0
 41
0
  0
VERTEX
  8
CEB-F4-A7
 10
140.873
 20
121.898
 30
0.0
 40
0
 41
0
  0
VERTEX
  8
CEB-F4-A7
 10
140.714
 20
121.898
 30
0.0
 40
0
 41
0
  0
VERTEX
  8
CEB-F4-A7
 10
140.127
 20
121.631
 30
0.0
 40
0
 41
0
  0
VERTEX
  8
CEB-F4-A7
 10
139.595
 20
121.419
 30
0.0
 40
0
 41
0
  0
VERTEX
  8
CEB-F4-A7
 10
139.168
 20
121.153
 30
0.0
 40
0
 41
0
  0
VERTEX
  8
CEB-F4-A7
 10
138.636
 20
120.939
 30
0.0
 40
0
 41
0
  0
VERTEX
  8
CEB-F4-A7
 10
138.21
 20
120.567
 30
0.0
 40
0
 41
0
  0
VERTEX
  8
CEB-F4-A7
 10
137.731
 20
120.035
 30
0.0
 40
0
 41
0
  0
VERTEX
  8
CEB-F4-A7
 10
137.359
 20
119.662
 30
0.0
 40
0
 41
0
  0
VERTEX
  8
CEB-F4-A7
 10
137.091
 20
119.342
 30
0.0
 40
0
 41
0
  0
VERTEX
  8
CEB-F4-A7
 10
136.985
 20
119.236
 30
0.0
 40
0
 41
0
  0
VERTEX
  8
CEB-F4-A7
 10
136.665
 20
118.703
 30
0.0
 40
0
 41
0
  0
VERTEX
  8
CEB-F4-A7
 10
136.506
 20
118.065
 30
0.0
 40
0
 41
0
  0
VERTEX
  8
CEB-F4-A7
 10
136.398
 20
117.797
 30
0.0
 40
0
 41
0
  0
VERTEX
  8
CEB-F4-A7
 10
136.398
 20
117.531
 30
0.0
 40
0
 41
0
  0
VERTEX
  8
CEB-F4-A7
 10
136.346
 20
117.264
 30
0.0
 40
0
 41
0
  0
VERTEX
  8
CEB-F4-A7
 10
136.284
 20
117.119
 30
0.0
 40
0
 41
0
  0
VERTEX
  8
CEB-F4-A7
 10
135.919
 20
116.417
 30
0.0
 40
0
 41
0
  0
VERTEX
  8
CEB-F4-A7
 10
135.413
 20
115.814
 30
0.0
 40
0
 41
0
  0
VERTEX
  8
CEB-F4-A7
 10
135.281
 20
115.721
 30
0.0
 40
0
 41
0
  0
VERTEX
  8
CEB-F4-A7
 10
134.855
 20
115.295
 30
0.0
 40
0
 41
0
  0
VERTEX
  8
CEB-F4-A7
 10
134.535
 20
115.083
 30
0.0
 40
0
 41
0
  0
VERTEX
  8
CEB-F4-A7
 10
134.162
 20
114.923
 30
0.0
 40
0
 41
0
  0
VERTEX
  8
CEB-F4-A7
 10
132.99
 20
113.858
 30
0.0
 40
0
 41
0
  0
VERTEX
  8
CEB-F4-A7
 10
132.245
 20
112.793
 30
0.0
 40
0
 41
0
  0
VERTEX
  8
CEB-F4-A7
 10
132.155
 20
112.668
 30
0.0
 40
0
 41
0
  0
VERTEX
  8
CEB-F4-A7
 10
131.83
 20
111.981
 30
0.0
 40
0
 41
0
  0
VERTEX
  8
CEB-F4-A7
 10
131.63
 20
111.239
 30
0.0
 40
0
 41
0
  0
VERTEX
  8
CEB-F4-A7
 10
131.606
 20
111.089
 30
0.0
 40
0
 41
0
  0
VERTEX
  8
CEB-F4-A7
 10
131.499
 20
109.918
 30
0.0
 40
0
 41
0
  0
VERTEX
  8
CEB-F4-A7
 10
130.806
 20
109.225
 30
0.0
 40
0
 41
0
  0
VERTEX
  8
CEB-F4-A7
 10
130.434
 20
109.545
 30
0.0
 40
0
 41
0
  0
VERTEX
  8
CEB-F4-A7
 10
130.167
 20
109.384
 30
0.0
 40
0
 41
0
  0
VERTEX
  8
CEB-F4-A7
 10
130.114
 20
109.332
 30
0.0
 40
0
 41
0
  0
VERTEX
  8
CEB-F4-A7
 10
129.902
 20
109.171
 30
0.0
 40
0
 41
0
  0
VERTEX
  8
CEB-F4-A7
 10
129.369
 20
108.906
 30
0.0
 40
0
 41
0
  0
VERTEX
  8
CEB-F4-A7
 10
129.263
 20
108.799
 30
0.0
 40
0
 41
0
  0
VERTEX
  8
CEB-F4-A7
 10
128.943
 20
108.64
 30
0.0
 40
0
 41
0
  0
VERTEX
  8
CEB-F4-A7
 10
128.196
 20
108.319
 30
0.0
 40
0
 41
0
  0
VERTEX
  8
CEB-F4-A7
 10
127.716
 20
108.053
 30
0.0
 40
0
 41
0
  0
VERTEX
  8
CEB-F4-A7
 10
127.504
 20
107.947
 30
0.0
 40
0
 41
0
  0
VERTEX
  8
CEB-F4-A7
 10
126.653
 20
107.414
 30
0.0
 40
0
 41
0
  0
VERTEX
  8
CEB-F4-A7
 10
126.385
 20
107.254
 30
0.0
 40
0
 41
0
  0
VERTEX
  8
CEB-F4-A7
 10
125.853
 20
106.722
 30
0.0
 40
0
 41
0
  0
VERTEX
  8
CEB-F4-A7
 10
125.162
 20
106.136
 30
0.0
 40
0
 41
0
  0
VERTEX
  8
CEB-F4-A7
 10
125.108
 20
106.031
 30
0.0
 40
0
 41
0
  0
VERTEX
  8
CEB-F4-A7
 10
125.002
 20
105.977
 30
0.0
 40
0
 41
0
  0
VERTEX
  8
CEB-F4-A7
 10
124.948
 20
105.924
 30
0.0
 40
0
 41
0
  0
VERTEX
  8
CEB-F4-A7
 10
123.669
 20
104.912
 30
0.0
 40
0
 41
0
  0
VERTEX
  8
CEB-F4-A7
 10
123.403
 20
104.646
 30
0.0
 40
0
 41
0
  0
VERTEX
  8
CEB-F4-A7
 10
122.819
 20
104.166
 30
0.0
 40
0
 41
0
  0
VERTEX
  8
CEB-F4-A7
 10
122.391
 20
103.848
 30
0.0
 40
0
 41
0
  0
VERTEX
  8
CEB-F4-A7
 10
121.593
 20
103.101
 30
0.0
 40
0
 41
0
  0
VERTEX
  8
CEB-F4-A7
 10
117.971
 20
100.918
 30
0.0
 40
0
 41
0
  0
VERTEX
  8
CEB-F4-A7
 10
118.077
 20
101.078
 30
0.0
 40
0
 41
0
  0
VERTEX
  8
CEB-F4-A7
 10
118.131
 20
101.238
 30
0.0
 40
0
 41
0
  0
VERTEX
  8
CEB-F4-A7
 10
118.183
 20
101.344
 30
0.0
 40
0
 41
0
  0
VERTEX
  8
CEB-F4-A7
 10
118.183
 20
101.451
 30
0.0
 40
0
 41
0
  0
VERTEX
  8
CEB-F4-A7
 10
118.237
 20
101.61
 30
0.0
 40
0
 41
0
  0
VERTEX
  8
CEB-F4-A7
 10
118.237
 20
101.771
 30
0.0
 40
0
 41
0
  0
VERTEX
  8
CEB-F4-A7
 10
118.291
 20
101.877
 30
0.0
 40
0
 41
0
  0
VERTEX
  8
CEB-F4-A7
 10
118.291
 20
101.983
 30
0.0
 40
0
 41
0
  0
VERTEX
  8
CEB-F4-A7
 10
118.293
 20
102.04
 30
0.0
 40
0
 41
0
  0
VERTEX
  8
CEB-F4-A7
 10
118.261
 20
102.21
 30
0.0
 40
0
 41
0
  0
VERTEX
  8
CEB-F4-A7
 10
118.232
 20
102.481
 30
0.0
 40
0
 41
0
  0
VERTEX
  8
CEB-F4-A7
 10
118.237
 20
102.569
 30
0.0
 40
0
 41
0
  0
VERTEX
  8
CEB-F4-A7
 10
118.131
 20
102.729
 30
0.0
 40
0
 41
0
  0
VERTEX
  8
CEB-F4-A7
 10
117.172
 20
104.06
 30
0.0
 40
0
 41
0
  0
VERTEX
  8
CEB-F4-A7
 10
116
 20
104.805
 30
0.0
 40
0
 41
0
  0
VERTEX
  8
CEB-F4-A7
 10
113.87
 20
104.965
 30
0.0
 40
0
 41
0
  0
VERTEX
  8
CEB-F4-A7
 10
112.859
 20
104.965
 30
0.0
 40
0
 41
0
  0
VERTEX
  8
CEB-F4-A7
 10
111.953
 20
104.273
 30
0.0
 40
0
 41
0
  0
VERTEX
  8
CEB-F4-A7
 10
111.154
 20
102.621
 30
0.0
 40
0
 41
0
  0
VERTEX
  8
CEB-F4-A7
 10
110.675
 20
102.091
 30
0.0
 40
0
 41
0
  0
VERTEX
  8
CEB-F4-A7
 10
110.141
 20
101.771
 30
0.0
 40
0
 41
0
  0
VERTEX
  8
CEB-F4-A7
 10
109.397
 20
101.557
 30
0.0
 40
0
 41
0
  0
VERTEX
  8
CEB-F4-A7
 10
107.532
 20
101.344
 30
0.0
 40
0
 41
0
  0
VERTEX
  8
CEB-F4-A7
 10
107.373
 20
101.29
 30
0.0
 40
0
 41
0
  0
VERTEX
  8
CEB-F4-A7
 10
106.947
 20
101.184
 30
0.0
 40
0
 41
0
  0
VERTEX
  8
CEB-F4-A7
 10
105.188
 20
100.065
 30
0.0
 40
0
 41
0
  0
VERTEX
  8
CEB-F4-A7
 10
104.017
 20
99.0011
 30
0.0
 40
0
 41
0
  0
VERTEX
  8
CEB-F4-A7
 10
102.526
 20
96.9779
 30
0.0
 40
0
 41
0
  0
VERTEX
  8
CEB-F4-A7
 10
101.567
 20
95.8592
 30
0.0
 40
0
 41
0
  0
VERTEX
  8
CEB-F4-A7
 10
100.608
 20
94.9015
 30
0.0
 40
0
 41
0
  0
VERTEX
  8
CEB-F4-A7
 10
100.128
 20
94.0484
 30
0.0
 40
0
 41
0
  0
VERTEX
  8
CEB-F4-A7
 10
99.5962
 20
92.8247
 30
0.0
 40
0
 41
0
  0
VERTEX
  8
CEB-F4-A7
 10
99.1704
 20
91.6534
 30
0.0
 40
0
 41
0
  0
VERTEX
  8
CEB-F4-A7
 10
98.7986
 20
90.11
 30
0.0
 40
0
 41
0
  0
VERTEX
  8
CEB-F4-A7
 10
98.957
 20
88.991
 30
0.0
 40
0
 41
0
  0
VERTEX
  8
CEB-F4-A7
 10
99.2244
 20
88.616
 30
0.0
 40
0
 41
0
  0
VERTEX
  8
CEB-F4-A7
 10
99.7038
 20
88.2978
 30
0.0
 40
0
 41
0
  0
VERTEX
  8
CEB-F4-A7
 10
100.289
 20
88.0844
 30
0.0
 40
0
 41
0
  0
VERTEX
  8
CEB-F4-A7
 10
100.768
 20
87.9796
 30
0.0
 40
0
 41
0
  0
VERTEX
  8
CEB-F4-A7
 10
101.513
 20
87.872
 30
0.0
 40
0
 41
0
  0
VERTEX
  8
CEB-F4-A7
 10
102.099
 20
87.872
 30
0.0
 40
0
 41
0
  0
VERTEX
  8
CEB-F4-A7
 10
103.112
 20
87.9796
 30
0.0
 40
0
 41
0
  0
VERTEX
  8
CEB-F4-A7
 10
97.1998
 20
79.2992
 30
0.0
 40
0
 41
0
  0
VERTEX
  8
CEB-F4-A7
 10
96.7204
 20
78.7135
 30
0.0
 40
0
 41
0
  0
VERTEX
  8
CEB-F4-A7
 10
87.7729
 20
66.9452
 30
0.0
 40
0
 41
0
  0
VERTEX
  8
CEB-F4-A7
 10
88.7317
 20
66.0936
 30
0.0
 40
0
 41
0
  0
VERTEX
  8
CEB-F4-A7
 10
89.2115
 20
65.72
 30
0.0
 40
0
 41
0
  0
VERTEX
  8
CEB-F4-A7
 10
89.3039
 20
65.6015
 30
0.0
 40
0
 41
0
  0
VERTEX
  8
CEB-F4-A7
 10
82.0402
 20
65.0572
 30
0.0
 40
0
 41
0
  0
VERTEX
  8
CEB-F4-A7
 10
79.7017
 20
68.6897
 30
0.0
 40
0
 41
0
  0
VERTEX
  8
CEB-F4-A7
 10
78.7548
 20
68.9391
 30
0.0
 40
0
 41
0
  0
VERTEX
  8
CEB-F4-A7
 10
68.6513
 20
63.6626
 30
0.0
 40
0
 41
0
  0
VERTEX
  8
CEB-F4-A7
 10
56.5065
 20
55.5004
 30
0.0
 40
0
 41
0
  0
VERTEX
  8
CEB-F4-A7
 10
52.9731
 20
47.5368
 30
0.0
 40
0
 41
0
  0
VERTEX
  8
CEB-F4-A7
 10
50.1855
 20
39.4741
 30
0.0
 40
0
 41
0
  0
VERTEX
  8
CEB-F4-A7
 10
73.2815
 20
22.7996
 30
0.0
 40
0
 41
0
  0
VERTEX
  8
CEB-F4-A7
 10
96.8266
 20
56.7754
 30
0.0
 40
0
 41
0
  0
VERTEX
  8
CEB-F4-A7
 10
102.792
 20
57.1472
 30
0.0
 40
0
 41
0
  0
VERTEX
  8
CEB-F4-A7
 10
106.893
 20
54.2177
 30
0.0
 40
0
 41
0
  0
VERTEX
  8
CEB-F4-A7
 10
106.947
 20
54.1651
 30
0.0
 40
0
 41
0
  0
VERTEX
  8
CEB-F4-A7
 10
110.994
 20
51.2907
 30
0.0
 40
0
 41
0
  0
VERTEX
  8
CEB-F4-A7
 10
111.048
 20
51.2907
 30
0.0
 40
0
 41
0
  0
VERTEX
  8
CEB-F4-A7
 10
111.26
 20
51.1295
 30
0.0
 40
0
 41
0
  0
VERTEX
  8
CEB-F4-A7
 10
111.26
 20
51.2353
 30
0.0
 40
0
 41
0
  0
VERTEX
  8
CEB-F4-A7
 10
111.526
 20
51.9285
 30
0.0
 40
0
 41
0
  0
VERTEX
  8
CEB-F4-A7
 10
111.792
 20
52.8877
 30
0.0
 40
0
 41
0
  0
VERTEX
  8
CEB-F4-A7
 10
112.112
 20
53.8992
 30
0.0
 40
0
 41
0
  0
VERTEX
  8
CEB-F4-A7
 10
112.219
 20
54.2727
 30
0.0
 40
0
 41
0
  0
VERTEX
  8
CEB-F4-A7
 10
112.325
 20
55.0168
 30
0.0
 40
0
 41
0
  0
VERTEX
  8
CEB-F4-A7
 10
112.486
 20
54.7508
 30
0.0
 40
0
 41
0
  0
VERTEX
  8
CEB-F4-A7
 10
112.591
 20
54.4311
 30
0.0
 40
0
 41
0
  0
VERTEX
  8
CEB-F4-A7
 10
112.751
 20
54.1129
 30
0.0
 40
0
 41
0
  0
VERTEX
  8
CEB-F4-A7
 10
112.859
 20
53.7393
 30
0.0
 40
0
 41
0
  0
VERTEX
  8
CEB-F4-A7
 10
113.071
 20
53.2059
 30
0.0
 40
0
 41
0
  0
VERTEX
  8
CEB-F4-A7
 10
113.391
 20
52.4619
 30
0.0
 40
0
 41
0
  0
VERTEX
  8
CEB-F4-A7
 10
114.35
 20
52.6203
 30
0.0
 40
0
 41
0
  0
VERTEX
  8
CEB-F4-A7
 10
114.723
 20
52.6743
 30
0.0
 40
0
 41
0
  0
VERTEX
  8
CEB-F4-A7
 10
116.8
 20
52.8341
 30
0.0
 40
0
 41
0
  0
VERTEX
  8
CEB-F4-A7
 10
117.012
 20
52.8341
 30
0.0
 40
0
 41
0
  0
VERTEX
  8
CEB-F4-A7
 10
118.237
 20
52.9399
 30
0.0
 40
0
 41
0
  0
VERTEX
  8
CEB-F4-A7
 10
118.93
 20
52.9939
 30
0.0
 40
0
 41
0
  0
VERTEX
  8
CEB-F4-A7
 10
119.036
 20
53.1001
 30
0.0
 40
0
 41
0
  0
VERTEX
  8
CEB-F4-A7
 10
119.782
 20
54.1129
 30
0.0
 40
0
 41
0
  0
VERTEX
  8
CEB-F4-A7
 10
120.635
 20
55.3364
 30
0.0
 40
0
 41
0
  0
VERTEX
  8
CEB-F4-A7
 10
121.433
 20
56.3481
 30
0.0
 40
0
 41
0
  0
VERTEX
  8
CEB-F4-A7
 10
122.125
 20
57.3056
 30
0.0
 40
0
 41
0
  0
VERTEX
  8
CEB-F4-A7
 10
122.284
 20
57.5194
 30
0.0
 40
0
 41
0
  0
VERTEX
  8
CEB-F4-A7
 10
122.391
 20
57.7328
 30
0.0
 40
0
 41
0
  0
VERTEX
  8
CEB-F4-A7
 10
122.498
 20
57.839
 30
0.0
 40
0
 41
0
  0
VERTEX
  8
CEB-F4-A7
 10
122.444
 20
57.8926
 30
0.0
 40
0
 41
0
  0
VERTEX
  8
CEB-F4-A7
 10
121.646
 20
58.4246
 30
0.0
 40
0
 41
0
  0
VERTEX
  8
CEB-F4-A7
 10
121.061
 20
58.8504
 30
0.0
 40
0
 41
0
  0
VERTEX
  8
CEB-F4-A7
 10
120.847
 20
58.9566
 30
0.0
 40
0
 41
0
  0
VERTEX
  8
CEB-F4-A7
 10
120.687
 20
59.0642
 30
0.0
 40
0
 41
0
  0
VERTEX
  8
CEB-F4-A7
 10
120.209
 20
59.436
 30
0.0
 40
0
 41
0
  0
VERTEX
  8
CEB-F4-A7
 10
119.728
 20
59.8096
 30
0.0
 40
0
 41
0
  0
VERTEX
  8
CEB-F4-A7
 10
119.462
 20
60.0234
 30
0.0
 40
0
 41
0
  0
VERTEX
  8
CEB-F4-A7
 10
119.25
 20
60.1278
 30
0.0
 40
0
 41
0
  0
VERTEX
  8
CEB-F4-A7
 10
119.09
 20
60.2354
 30
0.0
 40
0
 41
0
  0
VERTEX
  8
CEB-F4-A7
 10
119.09
 20
60.289
 30
0.0
 40
0
 41
0
  0
VERTEX
  8
CEB-F4-A7
 10
118.823
 20
60.5014
 30
0.0
 40
0
 41
0
  0
VERTEX
  8
CEB-F4-A7
 10
118.663
 20
60.609
 30
0.0
 40
0
 41
0
  0
VERTEX
  8
CEB-F4-A7
 10
118.398
 20
60.7688
 30
0.0
 40
0
 41
0
  0
VERTEX
  8
CEB-F4-A7
 10
118.343
 20
60.821
 30
0.0
 40
0
 41
0
  0
VERTEX
  8
CEB-F4-A7
 10
118.237
 20
60.875
 30
0.0
 40
0
 41
0
  0
VERTEX
  8
CEB-F4-A7
 10
117.759
 20
61.141
 30
0.0
 40
0
 41
0
  0
VERTEX
  8
CEB-F4-A7
 10
117.226
 20
61.5668
 30
0.0
 40
0
 41
0
  0
VERTEX
  8
CEB-F4-A7
 10
117.012
 20
61.8324
 30
0.0
 40
0
 41
0
  0
VERTEX
  8
CEB-F4-A7
 10
116.96
 20
61.8864
 30
0.0
 40
0
 41
0
  0
VERTEX
  8
CEB-F4-A7
 10
116.852
 20
61.9386
 30
0.0
 40
0
 41
0
  0
VERTEX
  8
CEB-F4-A7
 10
116.694
 20
62.0998
 30
0.0
 40
0
 41
0
  0
VERTEX
  8
CEB-F4-A7
 10
116.694
 20
62.1524
 30
0.0
 40
0
 41
0
  0
VERTEX
  8
CEB-F4-A7
 10
116.532
 20
62.2582
 30
0.0
 40
0
 41
0
  0
VERTEX
  8
CEB-F4-A7
 10
116.426
 20
62.3122
 30
0.0
 40
0
 41
0
  0
VERTEX
  8
CEB-F4-A7
 10
116.374
 20
62.4184
 30
0.0
 40
0
 41
0
  0
VERTEX
  8
CEB-F4-A7
 10
116.266
 20
62.472
 30
0.0
 40
0
 41
0
  0
VERTEX
  8
CEB-F4-A7
 10
116.214
 20
62.5782
 30
0.0
 40
0
 41
0
  0
VERTEX
  8
CEB-F4-A7
 10
116
 20
62.7916
 30
0.0
 40
0
 41
0
  0
VERTEX
  8
CEB-F4-A7
 10
115.895
 20
62.9514
 30
0.0
 40
0
 41
0
  0
VERTEX
  8
CEB-F4-A7
 10
115.629
 20
63.2174
 30
0.0
 40
0
 41
0
  0
VERTEX
  8
CEB-F4-A7
 10
115.361
 20
63.537
 30
0.0
 40
0
 41
0
  0
VERTEX
  8
CEB-F4-A7
 10
115.095
 20
63.803
 30
0.0
 40
0
 41
0
  0
VERTEX
  8
CEB-F4-A7
 10
114.776
 20
64.069
 30
0.0
 40
0
 41
0
  0
VERTEX
  8
CEB-F4-A7
 10
114.562
 20
64.2288
 30
0.0
 40
0
 41
0
  0
VERTEX
  8
CEB-F4-A7
 10
114.402
 20
64.3364
 30
0.0
 40
0
 41
0
  0
VERTEX
  8
CEB-F4-A7
 10
114.51
 20
64.5488
 30
0.0
 40
0
 41
0
  0
VERTEX
  8
CEB-F4-A7
 10
117.119
 20
68.0103
 30
0.0
 40
0
 41
0
  0
VERTEX
  8
CEB-F4-A7
 10
118.291
 20
67.7968
 30
0.0
 40
0
 41
0
  0
VERTEX
  8
CEB-F4-A7
 10
119.036
 20
67.7429
 30
0.0
 40
0
 41
0
  0
VERTEX
  8
CEB-F4-A7
 10
119.16
 20
68.301
 30
0.0
 40
0
 41
0
  0
VERTEX
  8
CEB-F4-A7
 10
119.603
 20
69.9615
 30
0.0
 40
0
 41
0
  0
VERTEX
  8
CEB-F4-A7
 10
120.432
 20
72.584
 30
0.0
 40
0
 41
0
  0
VERTEX
  8
CEB-F4-A7
 10
121.544
 20
75.4821
 30
0.0
 40
0
 41
0
  0
VERTEX
  8
CEB-F4-A7
 10
122.961
 20
78.5276
 30
0.0
 40
0
 41
0
  0
VERTEX
  8
CEB-F4-A7
 10
124.703
 20
81.5936
 30
0.0
 40
0
 41
0
  0
VERTEX
  8
CEB-F4-A7
 10
126.792
 20
84.5524
 30
0.0
 40
0
 41
0
  0
VERTEX
  8
CEB-F4-A7
 10
129.248
 20
87.2755
 30
0.0
 40
0
 41
0
  0
VERTEX
  8
CEB-F4-A7
 10
131.338
 20
89.1081
 30
0.0
 40
0
 41
0
  0
VERTEX
  8
CEB-F4-A7
 10
132.093
 20
89.6359
 30
0.0
 40
0
 41
0
  0
VERTEX
  8
CEB-F4-A7
 10
132.931
 20
90.3192
 30
0.0
 40
0
 41
0
  0
VERTEX
  8
CEB-F4-A7
 10
137.421
 20
93.4173
 30
0.0
 40
0
 41
0
  0
VERTEX
  8
CEB-F4-A7
 10
142.051
 20
95.8592
 30
0.0
 40
0
 41
0
  0
VERTEX
  8
CEB-F4-A7
 10
142.96
 20
96.2145
 30
0.0
 40
0
 41
0
  0
VERTEX
  8
CEB-F4-A7
 10
142.966
 20
96.2173
 30
0.0
 40
0
 41
0
  0
VERTEX
  8
CEB-F4-A7
 10
143.217
 20
96.3165
 30
0.0
 40
0
 41
0
  0
VERTEX
  8
CEB-F4-A7
 10
145.676
 20
97.0979
 30
0.0
 40
0
 41
0
  0
VERTEX
  8
CEB-F4-A7
 10
145.915
 20
97.1543
 30
0.0
 40
0
 41
0
  0
VERTEX
  8
CEB-F4-A7
 10
147.296
 20
97.481
 30
0.0
 40
0
 41
0
  0
VERTEX
  8
CEB-F4-A7
 10
151.555
 20
97.9897
 30
0.0
 40
0
 41
0
  0
VERTEX
  8
CEB-F4-A7
 10
157.087
 20
98.0338
 30
0.0
 40
0
 41
0
  0
VERTEX
  8
CEB-F4-A7
 10
162.103
 20
97.5473
 30
0.0
 40
0
 41
0
  0
VERTEX
  8
CEB-F4-A7
 10
165.184
 20
97.022
 30
0.0
 40
0
 41
0
  0
VERTEX
  8
CEB-F4-A7
 10
166.197
 20
96.7864
 30
0.0
 40
0
 41
0
  0
VERTEX
  8
CEB-F4-A7
 10
167.022
 20
98.0419
 30
0.0
 40
0
 41
0
  0
VERTEX
  8
CEB-F4-A7
 10
168.354
 20
100.226
 30
0.0
 40
0
 41
0
  0
VERTEX
  8
CEB-F4-A7
 10
167.396
 20
101.184
 30
0.0
 40
0
 41
0
  0
VERTEX
  8
CEB-F4-A7
 10
167.448
 20
101.344
 30
0.0
 40
0
 41
0
  0
VERTEX
  8
CEB-F4-A7
 10
167.483
 20
101.483
 30
0.0
 40
0
 41
0
  0
VERTEX
  8
CEB-F4-A7
 10
167.658
 20
102.359
 30
0.0
 40
0
 41
0
  0
VERTEX
  8
CEB-F4-A7
 10
167.837
 20
103.232
 30
0.0
 40
0
 41
0
  0
VERTEX
  8
CEB-F4-A7
 10
167.875
 20
103.367
 30
0.0
 40
0
 41
0
  0
VERTEX
  8
CEB-F4-A7
 10
167.875
 20
103.42
 30
0.0
 40
0
 41
0
  0
VERTEX
  8
CEB-F4-A7
 10
169.315
 20
103.474
 30
0.0
 40
0
 41
0
  0
VERTEX
  8
CEB-F4-A7
 10
170.327
 20
103.474
 30
0.0
 40
0
 41
0
  0
VERTEX
  8
CEB-F4-A7
 10
169.581
 20
102.357
 30
0.0
 40
0
 41
0
  0
VERTEX
  8
CEB-F4-A7
 10
169.795
 20
102.143
 30
0.0
 40
0
 41
0
  0
VERTEX
  8
CEB-F4-A7
 10
170.7
 20
103.42
 30
0.0
 40
0
 41
0
  0
VERTEX
  8
CEB-F4-A7
 10
170.86
 20
103.527
 30
0.0
 40
0
 41
0
  0
VERTEX
  8
CEB-F4-A7
 10
171.658
 20
104.38
 30
0.0
 40
0
 41
0
  0
VERTEX
  8
CEB-F4-A7
 10
172.297
 20
105.071
 30
0.0
 40
0
 41
0
  0
VERTEX
  8
CEB-F4-A7
 10
172.723
 20
105.497
 30
0.0
 40
0
 41
0
  0
VERTEX
  8
CEB-F4-A7
 10
173.895
 20
106.51
 30
0.0
 40
0
 41
0
  0
VERTEX
  8
CEB-F4-A7
 10
174.214
 20
106.722
 30
0.0
 40
0
 41
0
  0
VERTEX
  8
CEB-F4-A7
 10
174.48
 20
106.988
 30
0.0
 40
0
 41
0
  0
VERTEX
  8
CEB-F4-A7
 10
174.801
 20
107.254
 30
0.0
 40
0
 41
0
  0
VERTEX
  8
CEB-F4-A7
 10
175.279
 20
107.628
 30
0.0
 40
0
 41
0
  0
VERTEX
  8
CEB-F4-A7
 10
175.759
 20
107.947
 30
0.0
 40
0
 41
0
  0
VERTEX
  8
CEB-F4-A7
 10
175.386
 20
107.894
 30
0.0
 40
0
 41
0
  0
VERTEX
  8
CEB-F4-A7
 10
175.12
 20
108.053
 30
0.0
 40
0
 41
0
  0
VERTEX
  8
CEB-F4-A7
 10
174.96
 20
108.053
 30
0.0
 40
0
 41
0
  0
VERTEX
  8
CEB-F4-A7
 10
174.854
 20
108.107
 30
0.0
 40
0
 41
0
  0
VERTEX
  8
CEB-F4-A7
 10
174.428
 20
108.16
 30
0.0
 40
0
 41
0
  0
VERTEX
  8
CEB-F4-A7
 10
173.629
 20
108.16
 30
0.0
 40
0
 41
0
  0
VERTEX
  8
CEB-F4-A7
 10
173.576
 20
108.267
 30
0.0
 40
0
 41
0
  0
VERTEX
  8
CEB-F4-A7
 10
173.576
 20
108.427
 30
0.0
 40
0
 41
0
  0
VERTEX
  8
CEB-F4-A7
 10
173.523
 20
108.427
 30
0.0
 40
0
 41
0
  0
VERTEX
  8
CEB-F4-A7
 10
173.469
 20
108.747
 30
0.0
 40
0
 41
0
  0
VERTEX
  8
CEB-F4-A7
 10
173.309
 20
109.384
 30
0.0
 40
0
 41
0
  0
VERTEX
  8
CEB-F4-A7
 10
173.255
 20
109.492
 30
0.0
 40
0
 41
0
  0
VERTEX
  8
CEB-F4-A7
 10
173.415
 20
109.545
 30
0.0
 40
0
 41
0
  0
VERTEX
  8
CEB-F4-A7
 10
173.629
 20
109.545
 30
0.0
 40
0
 41
0
  0
VERTEX
  8
CEB-F4-A7
 10
173.842
 20
109.598
 30
0.0
 40
0
 41
0
  0
VERTEX
  8
CEB-F4-A7
 10
173.948
 20
109.598
 30
0.0
 40
0
 41
0
  0
VERTEX
  8
CEB-F4-A7
 10
174.108
 20
109.65
 30
0.0
 40
0
 41
0
  0
VERTEX
  8
CEB-F4-A7
 10
174.428
 20
109.65
 30
0.0
 40
0
 41
0
  0
VERTEX
  8
CEB-F4-A7
 10
174.48
 20
109.704
 30
0.0
 40
0
 41
0
  0
VERTEX
  8
CEB-F4-A7
 10
174.854
 20
109.704
 30
0.0
 40
0
 41
0
  0
VERTEX
  8
CEB-F4-A7
 10
174.96
 20
109.758
 30
0.0
 40
0
 41
0
  0
VERTEX
  8
CEB-F4-A7
 10
175.174
 20
109.758
 30
0.0
 40
0
 41
0
  0
VERTEX
  8
CEB-F4-A7
 10
175.227
 20
109.81
 30
0.0
 40
0
 41
0
  0
VERTEX
  8
CEB-F4-A7
 10
175.227
 20
109.97
 30
0.0
 40
0
 41
0
  0
VERTEX
  8
CEB-F4-A7
 10
174.214
 20
110.29
 30
0.0
 40
0
 41
0
  0
VERTEX
  8
CEB-F4-A7
 10
173.149
 20
110.877
 30
0.0
 40
0
 41
0
  0
VERTEX
  8
CEB-F4-A7
 10
172.297
 20
111.622
 30
0.0
 40
0
 41
0
  0
VERTEX
  8
CEB-F4-A7
 10
172.244
 20
111.674
 30
0.0
 40
0
 41
0
  0
VERTEX
  8
CEB-F4-A7
 10
171.552
 20
110.928
 30
0.0
 40
0
 41
0
  0
VERTEX
  8
CEB-F4-A7
 10
168.888
 20
109.171
 30
0.0
 40
0
 41
0
  0
VERTEX
  8
CEB-F4-A7
 10
168.836
 20
109.119
 30
0.0
 40
0
 41
0
  0
VERTEX
  8
CEB-F4-A7
 10
168.141
 20
108.799
 30
0.0
 40
0
 41
0
  0
VERTEX
  8
CEB-F4-A7
 10
167.82
 20
108.747
 30
0.0
 40
0
 41
0
  0
VERTEX
  8
CEB-F4-A7
 10
166.969
 20
108.853
 30
0.0
 40
0
 41
0
  0
VERTEX
  8
CEB-F4-A7
 10
166.383
 20
109.119
 30
0.0
 40
0
 41
0
  0
VERTEX
  8
CEB-F4-A7
 10
166.011
 20
109.545
 30
0.0
 40
0
 41
0
  0
VERTEX
  8
CEB-F4-A7
 10
164.574
 20
110.982
 30
0.0
 40
0
 41
0
  0
VERTEX
  8
CEB-F4-A7
 10
163.455
 20
112.42
 30
0.0
 40
0
 41
0
  0
VERTEX
  8
CEB-F4-A7
 10
162.336
 20
114.017
 30
0.0
 40
0
 41
0
  0
VERTEX
  8
CEB-F4-A7
 10
161.856
 20
114.923
 30
0.0
 40
0
 41
0
  0
VERTEX
  8
CEB-F4-A7
 10
160.952
 20
115.189
 30
0.0
 40
0
 41
0
  0
VERTEX
  8
CEB-F4-A7
 10
157.97
 20
117.053
 30
0.0
 40
0
 41
0
  0
VERTEX
  8
CEB-F4-A7
 10
157.595
 20
117.638
 30
0.0
 40
0
 41
0
  0
VERTEX
  8
CEB-F4-A7
 10
157.543
 20
118.491
 30
0.0
 40
0
 41
0
  0
VERTEX
  8
CEB-F4-A7
 10
156.638
 20
119.82
 30
0.0
 40
0
 41
0
  0
VERTEX
  8
CEB-F4-A7
 10
155.786
 20
120.673
 30
0.0
 40
0
 41
0
  0
VERTEX
  8
CEB-F4-A7
 10
156.372
 20
121.313
 30
0.0
 40
0
 41
0
  0
VERTEX
  8
CEB-F4-A7
 10
156.531
 20
121.473
 30
0.0
 40
0
 41
0
  0
VERTEX
  8
CEB-F4-A7
 10
156.425
 20
121.631
 30
0.0
 40
0
 41
0
  0
VERTEX
  8
CEB-F4-A7
 10
156.319
 20
121.686
 30
0.0
 40
0
 41
0
  0
VERTEX
  8
CEB-F4-A7
 10
155.999
 20
121.951
 30
0.0
 40
0
 41
0
  0
VERTEX
  8
CEB-F4-A7
 10
155.732
 20
122.005
 30
0.0
 40
0
 41
0
  0
VERTEX
  8
CEB-F4-A7
 10
155.36
 20
122.112
 30
0.0
 40
0
 41
0
  0
VERTEX
  8
CEB-F4-A7
 10
155.253
 20
122.112
 30
0.0
 40
0
 41
0
  0
VERTEX
  8
CEB-F4-A7
 10
154.933
 20
122.164
 30
0.0
 40
0
 41
0
  0
VERTEX
  8
CEB-F4-A7
 10
154.773
 20
122.217
 30
0.0
 40
0
 41
0
  0
VERTEX
  8
CEB-F4-A7
 10
154.667
 20
122.324
 30
0.0
 40
0
 41
0
  0
VERTEX
  8
CEB-F4-A7
 10
154.773
 20
122.856
 30
0.0
 40
0
 41
0
  0
VERTEX
  8
CEB-F4-A7
 10
154.933
 20
123.07
 30
0.0
 40
0
 41
0
  0
VERTEX
  8
CEB-F4-A7
 10
155.946
 20
122.804
 30
0.0
 40
0
 41
0
  0
VERTEX
  8
CEB-F4-A7
 10
155.999
 20
122.804
 30
0.0
 40
0
 41
0
  0
VERTEX
  8
CEB-F4-A7
 10
156.691
 20
122.91
 30
0.0
 40
0
 41
0
  0
VERTEX
  8
CEB-F4-A7
 10
156.904
 20
122.91
 30
0.0
 40
0
 41
0
  0
VERTEX
  8
CEB-F4-A7
 10
157.277
 20
122.964
 30
0.0
 40
0
 41
0
  0
VERTEX
  8
CEB-F4-A7
 10
157.383
 20
122.964
 30
0.0
 40
0
 41
0
  0
VERTEX
  8
CEB-F4-A7
 10
157.383
 20
123.124
 30
0.0
 40
0
 41
0
  0
VERTEX
  8
CEB-F4-A7
 10
157.277
 20
123.975
 30
0.0
 40
0
 41
0
  0
VERTEX
  8
CEB-F4-A7
 10
157.757
 20
124.027
 30
0.0
 40
0
 41
0
  0
VERTEX
  8
CEB-F4-A7
 10
157.916
 20
124.027
 30
0.0
 40
0
 41
0
  0
VERTEX
  8
CEB-F4-A7
 10
158.182
 20
124.081
 30
0.0
 40
0
 41
0
  0
VERTEX
  8
CEB-F4-A7
 10
158.128
 20
124.241
 30
0.0
 40
0
 41
0
  0
VERTEX
  8
CEB-F4-A7
 10
158.128
 20
124.401
 30
0.0
 40
0
 41
0
  0
VERTEX
  8
CEB-F4-A7
 10
158.023
 20
124.828
 30
0.0
 40
0
 41
0
  0
VERTEX
  8
CEB-F4-A7
 10
158.023
 20
125.093
 30
0.0
 40
0
 41
0
  0
VERTEX
  8
CEB-F4-A7
 10
157.757
 20
125.093
 30
0.0
 40
0
 41
0
  0
VERTEX
  8
CEB-F4-A7
 10
157.595
 20
125.04
 30
0.0
 40
0
 41
0
  0
VERTEX
  8
CEB-F4-A7
 10
157.491
 20
125.04
 30
0.0
 40
0
 41
0
  0
VERTEX
  8
CEB-F4-A7
 10
157.063
 20
124.987
 30
0.0
 40
0
 41
0
  0
VERTEX
  8
CEB-F4-A7
 10
157.063
 20
125.093
 30
0.0
 40
0
 41
0
  0
VERTEX
  8
CEB-F4-A7
 10
157.066
 20
125.122
 30
0.0
 40
0
 41
0
  0
VERTEX
  8
CEB-F4-A7
 10
157.025
 20
125.439
 30
0.0
 40
0
 41
0
  0
VERTEX
  8
CEB-F4-A7
 10
156.963
 20
125.757
 30
0.0
 40
0
 41
0
  0
VERTEX
  8
CEB-F4-A7
 10
156.957
 20
125.786
 30
0.0
 40
0
 41
0
  0
VERTEX
  8
CEB-F4-A7
 10
156.797
 20
126.798
 30
0.0
 40
0
 41
0
  0
VERTEX
  8
CEB-F4-A7
 10
156.691
 20
126.851
 30
0.0
 40
0
 41
0
  0
VERTEX
  8
CEB-F4-A7
 10
156.578
 20
126.865
 30
0.0
 40
0
 41
0
  0
VERTEX
  8
CEB-F4-A7
 10
156.056
 20
127.066
 30
0.0
 40
0
 41
0
  0
VERTEX
  8
CEB-F4-A7
 10
155.527
 20
127.23
 30
0.0
 40
0
 41
0
  0
VERTEX
  8
CEB-F4-A7
 10
155.412
 20
127.223
 30
0.0
 40
0
 41
0
  0
VERTEX
  8
CEB-F4-A7
 10
155.306
 20
127.171
 30
0.0
 40
0
 41
0
  0
VERTEX
  8
CEB-F4-A7
 10
155.253
 20
127.223
 30
0.0
 40
0
 41
0
  0
VERTEX
  8
CEB-F4-A7
 10
155.146
 20
127.116
 30
0.0
 40
0
 41
0
  0
VERTEX
  8
CEB-F4-A7
 10
155.146
 20
127.063
 30
0.0
 40
0
 41
0
  0
VERTEX
  8
CEB-F4-A7
 10
155.199
 20
126.798
 30
0.0
 40
0
 41
0
  0
VERTEX
  8
CEB-F4-A7
 10
155.253
 20
126.584
 30
0.0
 40
0
 41
0
  0
VERTEX
  8
CEB-F4-A7
 10
155.306
 20
126.106
 30
0.0
 40
0
 41
0
  0
VERTEX
  8
CEB-F4-A7
 10
155.306
 20
125.68
 30
0.0
 40
0
 41
0
  0
VERTEX
  8
CEB-F4-A7
 10
155.199
 20
125.305
 30
0.0
 40
0
 41
0
  0
VERTEX
  8
CEB-F4-A7
 10
155.199
 20
125.147
 30
0.0
 40
0
 41
0
  0
VERTEX
  8
CEB-F4-A7
 10
155.146
 20
124.933
 30
0.0
 40
0
 41
0
  0
VERTEX
  8
CEB-F4-A7
 10
155.093
 20
124.667
 30
0.0
 40
0
 41
0
  0
VERTEX
  8
CEB-F4-A7
 10
155.093
 20
124.187
 30
0.0
 40
0
 41
0
  0
VERTEX
  8
CEB-F4-A7
 10
155.091
 20
124.085
 30
0.0
 40
0
 41
0
  0
VERTEX
  8
CEB-F4-A7
 10
155.078
 20
123.775
 30
0.0
 40
0
 41
0
  0
VERTEX
  8
CEB-F4-A7
 10
154.998
 20
123.474
 30
0.0
 40
0
 41
0
  0
VERTEX
  8
CEB-F4-A7
 10
154.792
 20
123.275
 30
0.0
 40
0
 41
0
  0
VERTEX
  8
CEB-F4-A7
 10
154.5
 20
123.187
 30
0.0
 40
0
 41
0
  0
VERTEX
  8
CEB-F4-A7
 10
154.401
 20
123.176
 30
0.0
 40
0
 41
0
  0
VERTEX
  8
CEB-F4-A7
 10
154.241
 20
123.176
 30
0.0
 40
0
 41
0
  0
VERTEX
  8
CEB-F4-A7
 10
153.709
 20
123.549
 30
0.0
 40
0
 41
0
  0
VERTEX
  8
CEB-F4-A7
 10
153.442
 20
123.443
 30
0.0
 40
0
 41
0
  0
VERTEX
  8
CEB-F4-A7
 10
153.39
 20
123.39
 30
0.0
 40
0
 41
0
  0
VERTEX
  8
CEB-F4-A7
 10
153.23
 20
123.443
 30
0.0
 40
0
 41
0
  0
VERTEX
  8
CEB-F4-A7
 10
151.791
 20
124.027
 30
0.0
 40
0
 41
0
  0
VERTEX
  8
CEB-F4-A7
 10
150.992
 20
124.347
 30
0.0
 40
0
 41
0
  0
VERTEX
  8
CEB-F4-A7
 10
150.992
 20
124.507
 30
0.0
 40
0
 41
0
  0
VERTEX
  8
CEB-F4-A7
 10
151.045
 20
124.828
 30
0.0
 40
0
 41
0
  0
VERTEX
  8
CEB-F4-A7
 10
151.045
 20
124.879
 30
0.0
 40
0
 41
0
  0
VERTEX
  8
CEB-F4-A7
 10
151.099
 20
125.147
 30
0.0
 40
0
 41
0
  0
VERTEX
  8
CEB-F4-A7
 10
151.099
 20
125.786
 30
0.0
 40
0
 41
0
  0
VERTEX
  8
CEB-F4-A7
 10
151.045
 20
126.106
 30
0.0
 40
0
 41
0
  0
VERTEX
  8
CEB-F4-A7
 10
150.939
 20
126.69
 30
0.0
 40
0
 41
0
  0
VERTEX
  8
CEB-F4-A7
 10
150.886
 20
127.01
 30
0.0
 40
0
 41
0
  0
VERTEX
  8
CEB-F4-A7
 10
150.939
 20
127.383
 30
0.0
 40
0
 41
0
  0
VERTEX
  8
CEB-F4-A7
 10
150.992
 20
127.809
 30
0.0
 40
0
 41
0
  0
VERTEX
  8
CEB-F4-A7
 10
150.833
 20
127.863
 30
0.0
 40
0
 41
0
  0
SEQEND
 8
0
  0
POLYLINE
  8
CEB-F4-A7
 66
     1
 10
0
 20
0
 30
0.0
 70
     1
 40
0
 41
0
  0
VERTEX
  8
CEB-F4-A7
 10
154.897
 20
121.743
 30
0.0
 40
0
 41
0
  0
VERTEX
  8
CEB-F4-A7
 10
154.933
 20
121.739
 30
0.0
 40
0
 41
0
  0
VERTEX
  8
CEB-F4-A7
 10
154.971
 20
121.724
 30
0.0
 40
0
 41
0
  0
VERTEX
  8
CEB-F4-A7
 10
154.897
 20
121.743
 30
0.0
 40
0
 41
0
  0
SEQEND
 8
0
  0
POLYLINE
  8
CEB-F4-A7
 66
     1
 10
0
 20
0
 30
0.0
 70
     1
 40
0
 41
0
  0
VERTEX
  8
CEB-F4-A7
 10
155.308
 20
121.577
 30
0.0
 40
0
 41
0
  0
VERTEX
  8
CEB-F4-A7
 10
155.698
 20
121.383
 30
0.0
 40
0
 41
0
  0
VERTEX
  8
CEB-F4-A7
 10
155.66
 20
121.397
 30
0.0
 40
0
 41
0
  0
VERTEX
  8
CEB-F4-A7
 10
155.339
 20
121.559
 30
0.0
 40
0
 41
0
  0
VERTEX
  8
CEB-F4-A7
 10
155.308
 20
121.577
 30
0.0
 40
0
 41
0
  0
SEQEND
 8
0
  0
POLYLINE
  8
CDB-BA-AF
 66
     1
 10
0
 20
0
 30
0.0
 70
     1
 40
0
 41
0
  0
VERTEX
  8
CDB-BA-AF
 10
145.915
 20
97.1543
 30
0.0
 40
0
 41
0
  0
VERTEX
  8
CDB-BA-AF
 10
145.676
 20
97.0979
 30
0.0
 40
0
 41
0
  0
VERTEX
  8
CDB-BA-AF
 10
143.217
 20
96.3165
 30
0.0
 40
0
 41
0
  0
VERTEX
  8
CDB-BA-AF
 10
142.966
 20
96.2173
 30
0.0
 40
0
 41
0
  0
VERTEX
  8
CDB-BA-AF
 10
142.96
 20
96.2145
 30
0.0
 40
0
 41
0
  0
VERTEX
  8
CDB-BA-AF
 10
142.051
 20
95.8592
 30
0.0
 40
0
 41
0
  0
VERTEX
  8
CDB-BA-AF
 10
137.421
 20
93.4173
 30
0.0
 40
0
 41
0
  0
VERTEX
  8
CDB-BA-AF
 10
132.931
 20
90.3192
 30
0.0
 40
0
 41
0
  0
VERTEX
  8
CDB-BA-AF
 10
132.093
 20
89.6359
 30
0.0
 40
0
 41
0
  0
VERTEX
  8
CDB-BA-AF
 10
131.338
 20
89.1081
 30
0.0
 40
0
 41
0
  0
VERTEX
  8
CDB-BA-AF
 10
129.248
 20
87.2765
 30
0.0
 40
0
 41
0
  0
VERTEX
  8
CDB-BA-AF
 10
126.792
 20
84.5524
 30
0.0
 40
0
 41
0
  0
VERTEX
  8
CDB-BA-AF
 10
124.703
 20
81.5936
 30
0.0
 40
0
 41
0
  0
VERTEX
  8
CDB-BA-AF
 10
122.961
 20
78.5276
 30
0.0
 40
0
 41
0
  0
VERTEX
  8
CDB-BA-AF
 10
121.544
 20
75.4821
 30
0.0
 40
0
 41
0
  0
VERTEX
  8
CDB-BA-AF
 10
120.432
 20
72.584
 30
0.0
 40
0
 41
0
  0
VERTEX
  8
CDB-BA-AF
 10
119.603
 20
69.9615
 30
0.0
 40
0
 41
0
  0
VERTEX
  8
CDB-BA-AF
 10
119.16
 20
68.301
 30
0.0
 40
0
 41
0
  0
VERTEX
  8
CDB-BA-AF
 10
119.036
 20
67.7429
 30
0.0
 40
0
 41
0
  0
VERTEX
  8
CDB-BA-AF
 10
119.835
 20
67.5845
 30
0.0
 40
0
 41
0
  0
VERTEX
  8
CDB-BA-AF
 10
120.687
 20
67.4769
 30
0.0
 40
0
 41
0
  0
VERTEX
  8
CDB-BA-AF
 10
120.847
 20
67.4232
 30
0.0
 40
0
 41
0
  0
VERTEX
  8
CDB-BA-AF
 10
121.54
 20
67.1036
 30
0.0
 40
0
 41
0
  0
VERTEX
  8
CDB-BA-AF
 10
122.552
 20
66.9974
 30
0.0
 40
0
 41
0
  0
VERTEX
  8
CDB-BA-AF
 10
122.765
 20
66.9452
 30
0.0
 40
0
 41
0
  0
VERTEX
  8
CDB-BA-AF
 10
123.351
 20
66.8376
 30
0.0
 40
0
 41
0
  0
VERTEX
  8
CDB-BA-AF
 10
124.948
 20
65.5602
 30
0.0
 40
0
 41
0
  0
VERTEX
  8
CDB-BA-AF
 10
125.108
 20
65.454
 30
0.0
 40
0
 41
0
  0
VERTEX
  8
CDB-BA-AF
 10
125.481
 20
65.3479
 30
0.0
 40
0
 41
0
  0
VERTEX
  8
CDB-BA-AF
 10
126.493
 20
65.4004
 30
0.0
 40
0
 41
0
  0
VERTEX
  8
CDB-BA-AF
 10
126.706
 20
65.3479
 30
0.0
 40
0
 41
0
  0
VERTEX
  8
CDB-BA-AF
 10
127.612
 20
64.8684
 30
0.0
 40
0
 41
0
  0
VERTEX
  8
CDB-BA-AF
 10
128.304
 20
64.4948
 30
0.0
 40
0
 41
0
  0
VERTEX
  8
CDB-BA-AF
 10
128.783
 20
64.2303
 30
0.0
 40
0
 41
0
  0
VERTEX
  8
CDB-BA-AF
 10
130.168
 20
63.6972
 30
0.0
 40
0
 41
0
  0
VERTEX
  8
CDB-BA-AF
 10
131.446
 20
63.9092
 30
0.0
 40
0
 41
0
  0
VERTEX
  8
CDB-BA-AF
 10
132.031
 20
64.2828
 30
0.0
 40
0
 41
0
  0
VERTEX
  8
CDB-BA-AF
 10
132.937
 20
64.601
 30
0.0
 40
0
 41
0
  0
VERTEX
  8
CDB-BA-AF
 10
134.375
 20
65.0819
 30
0.0
 40
0
 41
0
  0
VERTEX
  8
CDB-BA-AF
 10
134.909
 20
65.3479
 30
0.0
 40
0
 41
0
  0
VERTEX
  8
CDB-BA-AF
 10
135.547
 20
65.8798
 30
0.0
 40
0
 41
0
  0
VERTEX
  8
CDB-BA-AF
 10
135.866
 20
66.0396
 30
0.0
 40
0
 41
0
  0
VERTEX
  8
CDB-BA-AF
 10
136.346
 20
66.0396
 30
0.0
 40
0
 41
0
  0
VERTEX
  8
CDB-BA-AF
 10
137.091
 20
65.7737
 30
0.0
 40
0
 41
0
  0
VERTEX
  8
CDB-BA-AF
 10
137.465
 20
65.8262
 30
0.0
 40
0
 41
0
  0
VERTEX
  8
CDB-BA-AF
 10
137.571
 20
65.8798
 30
0.0
 40
0
 41
0
  0
VERTEX
  8
CDB-BA-AF
 10
138.157
 20
65.7737
 30
0.0
 40
0
 41
0
  0
VERTEX
  8
CDB-BA-AF
 10
138.37
 20
65.7737
 30
0.0
 40
0
 41
0
  0
VERTEX
  8
CDB-BA-AF
 10
138.582
 20
65.8262
 30
0.0
 40
0
 41
0
  0
VERTEX
  8
CDB-BA-AF
 10
139.116
 20
65.986
 30
0.0
 40
0
 41
0
  0
VERTEX
  8
CDB-BA-AF
 10
139.542
 20
66.0396
 30
0.0
 40
0
 41
0
  0
VERTEX
  8
CDB-BA-AF
 10
140.181
 20
65.986
 30
0.0
 40
0
 41
0
  0
VERTEX
  8
CDB-BA-AF
 10
140.661
 20
66.0396
 30
0.0
 40
0
 41
0
  0
VERTEX
  8
CDB-BA-AF
 10
141.192
 20
66.252
 30
0.0
 40
0
 41
0
  0
VERTEX
  8
CDB-BA-AF
 10
141.566
 20
65.9335
 30
0.0
 40
0
 41
0
  0
VERTEX
  8
CDB-BA-AF
 10
144.76
 20
63.4312
 30
0.0
 40
0
 41
0
  0
VERTEX
  8
CDB-BA-AF
 10
144.92
 20
63.6972
 30
0.0
 40
0
 41
0
  0
VERTEX
  8
CDB-BA-AF
 10
145.045
 20
63.9039
 30
0.0
 40
0
 41
0
  0
VERTEX
  8
CDB-BA-AF
 10
146.319
 20
65.9515
 30
0.0
 40
0
 41
0
  0
VERTEX
  8
CDB-BA-AF
 10
146.465
 20
66.1458
 30
0.0
 40
0
 41
0
  0
VERTEX
  8
CDB-BA-AF
 10
146.998
 20
66.8913
 30
0.0
 40
0
 41
0
  0
VERTEX
  8
CDB-BA-AF
 10
146.838
 20
66.9974
 30
0.0
 40
0
 41
0
  0
VERTEX
  8
CDB-BA-AF
 10
147.264
 20
67.5308
 30
0.0
 40
0
 41
0
  0
VERTEX
  8
CDB-BA-AF
 10
147.53
 20
68.0103
 30
0.0
 40
0
 41
0
  0
VERTEX
  8
CDB-BA-AF
 10
147.584
 20
68.1164
 30
0.0
 40
0
 41
0
  0
VERTEX
  8
CDB-BA-AF
 10
147.744
 20
68.3299
 30
0.0
 40
0
 41
0
  0
VERTEX
  8
CDB-BA-AF
 10
147.744
 20
68.4361
 30
0.0
 40
0
 41
0
  0
VERTEX
  8
CDB-BA-AF
 10
147.797
 20
68.49
 30
0.0
 40
0
 41
0
  0
VERTEX
  8
CDB-BA-AF
 10
147.903
 20
68.5423
 30
0.0
 40
0
 41
0
  0
VERTEX
  8
CDB-BA-AF
 10
147.957
 20
68.4361
 30
0.0
 40
0
 41
0
  0
VERTEX
  8
CDB-BA-AF
 10
148.01
 20
68.49
 30
0.0
 40
0
 41
0
  0
VERTEX
  8
CDB-BA-AF
 10
148.063
 20
68.5423
 30
0.0
 40
0
 41
0
  0
VERTEX
  8
CDB-BA-AF
 10
147.957
 20
68.7557
 30
0.0
 40
0
 41
0
  0
VERTEX
  8
CDB-BA-AF
 10
148.169
 20
69.0217
 30
0.0
 40
0
 41
0
  0
VERTEX
  8
CDB-BA-AF
 10
148.383
 20
69.3416
 30
0.0
 40
0
 41
0
  0
VERTEX
  8
CDB-BA-AF
 10
148.489
 20
69.5015
 30
0.0
 40
0
 41
0
  0
VERTEX
  8
CDB-BA-AF
 10
148.969
 20
70.2991
 30
0.0
 40
0
 41
0
  0
VERTEX
  8
CDB-BA-AF
 10
149.502
 20
71.151
 30
0.0
 40
0
 41
0
  0
VERTEX
  8
CDB-BA-AF
 10
150.46
 20
72.5897
 30
0.0
 40
0
 41
0
  0
VERTEX
  8
CDB-BA-AF
 10
150.726
 20
73.0155
 30
0.0
 40
0
 41
0
  0
VERTEX
  8
CDB-BA-AF
 10
151.259
 20
73.8145
 30
0.0
 40
0
 41
0
  0
VERTEX
  8
CDB-BA-AF
 10
151.631
 20
74.5063
 30
0.0
 40
0
 41
0
  0
VERTEX
  8
CDB-BA-AF
 10
151.739
 20
74.7187
 30
0.0
 40
0
 41
0
  0
VERTEX
  8
CDB-BA-AF
 10
151.845
 20
74.7187
 30
0.0
 40
0
 41
0
  0
VERTEX
  8
CDB-BA-AF
 10
152.005
 20
74.6125
 30
0.0
 40
0
 41
0
  0
VERTEX
  8
CDB-BA-AF
 10
153.442
 20
76.9027
 30
0.0
 40
0
 41
0
  0
VERTEX
  8
CDB-BA-AF
 10
155.892
 20
80.6842
 30
0.0
 40
0
 41
0
  0
VERTEX
  8
CDB-BA-AF
 10
155.998
 20
80.8426
 30
0.0
 40
0
 41
0
  0
VERTEX
  8
CDB-BA-AF
 10
157.649
 20
83.3988
 30
0.0
 40
0
 41
0
  0
VERTEX
  8
CDB-BA-AF
 10
158.501
 20
84.7302
 30
0.0
 40
0
 41
0
  0
VERTEX
  8
CDB-BA-AF
 10
160.313
 20
87.5524
 30
0.0
 40
0
 41
0
  0
VERTEX
  8
CDB-BA-AF
 10
162.124
 20
90.4282
 30
0.0
 40
0
 41
0
  0
VERTEX
  8
CDB-BA-AF
 10
163.295
 20
92.239
 30
0.0
 40
0
 41
0
  0
VERTEX
  8
CDB-BA-AF
 10
164.574
 20
94.3158
 30
0.0
 40
0
 41
0
  0
VERTEX
  8
CDB-BA-AF
 10
166.197
 20
96.7864
 30
0.0
 40
0
 41
0
  0
VERTEX
  8
CDB-BA-AF
 10
165.184
 20
97.022
 30
0.0
 40
0
 41
0
  0
VERTEX
  8
CDB-BA-AF
 10
162.103
 20
97.5473
 30
0.0
 40
0
 41
0
  0
VERTEX
  8
CDB-BA-AF
 10
157.087
 20
98.0338
 30
0.0
 40
0
 41
0
  0
VERTEX
  8
CDB-BA-AF
 10
151.555
 20
97.9897
 30
0.0
 40
0
 41
0
  0
VERTEX
  8
CDB-BA-AF
 10
147.296
 20
97.481
 30
0.0
 40
0
 41
0
  0
VERTEX
  8
CDB-BA-AF
 10
145.915
 20
97.1543
 30
0.0
 40
0
 41
0
  0
SEQEND
 8
0
  0
ENDSEC
  0
EOF
