<?xml version="1.0" encoding="UTF-8" standalone="no"?>
<!-- Created with Inkscape (http://www.inkscape.org/) -->

<svg
   xmlns:dc="http://purl.org/dc/elements/1.1/"
   xmlns:cc="http://creativecommons.org/ns#"
   xmlns:rdf="http://www.w3.org/1999/02/22-rdf-syntax-ns#"
   xmlns:svg="http://www.w3.org/2000/svg"
   xmlns="http://www.w3.org/2000/svg"
   xmlns:sodipodi="http://sodipodi.sourceforge.net/DTD/sodipodi-0.dtd"
   xmlns:inkscape="http://www.inkscape.org/namespaces/inkscape"
   id="svg4155"
   version="1.1"
   inkscape:version="0.91 r13725"
   xml:space="preserve"
   width="744.09497"
   height="1052.3625"
   viewBox="0 0 744.09497 1052.3625"
   sodipodi:docname="ewp_bezirke.svg"><metadata
     id="metadata4161"><rdf:RDF><cc:Work
         rdf:about=""><dc:format>image/svg+xml</dc:format><dc:type
           rdf:resource="http://purl.org/dc/dcmitype/StillImage" /><dc:title></dc:title></cc:Work></rdf:RDF></metadata><defs
     id="defs4159"><clipPath
       clipPathUnits="userSpaceOnUse"
       id="clipPath4169"><path
         d="m 0,0 595.275,0 0,841.89 L 0,841.89 0,0 Z"
         id="path4171"
         inkscape:connector-curvature="0" /></clipPath><clipPath
       clipPathUnits="userSpaceOnUse"
       id="clipPath4241"><path
         d="m 505.614,309.31 -0.605,-0.149 -0.15,-0.151 -0.908,-0.301 -0.302,0.452 -0.603,-0.452 -0.455,-0.455 -0.3,-0.152 -0.303,-0.147 -0.452,-0.456 -1.208,-0.905 -3.172,-1.963 -0.45,-0.3 -0.756,-0.756 -1.36,-1.055 -0.754,-0.756 -0.452,-0.302 -3.321,-2.869 -1.207,-1.054 -1.813,-2.115 -1.962,-1.963 -0.151,-0.148 -0.15,-0.152 -3.169,-4.077 0.602,-0.602 0.151,-0.152 0,-0.15 1.058,-1.058 0.148,-0.301 0.303,-0.303 0.604,-0.451 0.303,-0.454 0.452,-0.606 1.056,-1.055 0.454,-0.151 0.301,-0.149 0.152,0 0,0.149 0.603,0.151 0.454,-0.151 0,-0.149 -0.152,-0.303 -0.151,-0.301 0,-0.303 -0.151,-0.301 -0.151,-0.152 -0.15,-0.3 0,-0.455 -0.152,0 0,-0.301 c -0.351,-0.602 -0.251,-0.758 -0.603,-1.36 l 0,0 0,-0.301 -0.454,0.151 -0.453,0 -0.149,0.15 -0.303,0 -0.302,0.154 -0.604,0.149 -1.055,0 -0.304,-1.057 -0.452,0.153 -0.604,0.3 -4.839,4.529 -3.774,-6.189 -6.943,-10.566 -3.624,-5.887 -3.321,-5.132 -5.132,-8.15 -5.134,-8.001 -2.414,-3.771 -4.679,-7.246 -0.303,-0.453 -6.945,-10.716 -4.076,-6.492 0.303,-0.453 -0.454,-0.906 -0.302,-0.755 -0.754,-2.264 -0.454,-0.755 0.152,0 0.15,-0.152 0.453,-0.149 0.152,-1.057 0.15,-1.511 -0.302,0 0,-0.602 0.302,0 0,-0.905 c 0.162,-2.835 -2.004,-3.952 -3.321,-6.642 l 0,0 -0.453,-0.604 1.056,-0.756 1.059,-0.451 2.263,-1.662 3.473,-3.322 0.151,-0.299 -2.416,-1.358 -0.602,-0.304 -0.455,-0.302 -0.604,-0.301 -0.151,-0.152 0.151,0 0,-0.149 0.604,-0.452 0.756,-0.607 0.905,-0.754 0.454,-1.809 4.377,-0.755 1.207,-0.302 1.358,-0.151 1.057,-0.605 0.455,-0.304 2.565,0.456 0.153,0.149 0.603,0 1.509,0.455 0.151,0 2.716,0.603 0.304,0 0.302,0.151 0.148,0 0.153,0.15 0.302,0.153 0.453,0 0,0.15 0.755,0.15 c 1.371,0.587 3.67,1.107 5.283,1.659 l 0,0 1.811,0.455 1.512,-3.169 0.904,0.301 0.151,0 0.151,0.151 0.603,-1.358 0.454,-1.057 0.15,-0.151 2.265,-4.983 0.603,-1.056 1.359,-2.867 0.302,-0.453 0.454,-1.209 0.15,-0.148 0.151,-0.303 1.057,-2.266 0.15,-0.148 0,-0.303 0.15,-0.302 0.153,0.302 c 0.397,0.798 0.509,1.681 0.452,2.566 l 0,0 0,0.151 0.304,-0.151 0.452,0 0.15,0.151 0.153,0.303 -0.153,0 6.952,0.148 0.142,0 0.311,0.454 0.301,0.151 3.624,-0.753 4.529,0 3.474,0 0,3.319 -1.059,2.869 -0.152,0.604 -0.603,1.659 0.303,0 1.056,0.604 -0.149,0.603 -0.152,0.303 -0.153,0.3 -0.15,0.606 0,0.302 -0.152,0 0,0.152 0.152,0.301 0,-0.301 0.15,-0.152 0.305,-0.908 0.149,-0.603 0.302,-0.451 0.451,-0.305 1.511,-0.754 1.511,-0.904 0.755,-0.301 0.754,-0.454 2.564,-1.357 0,4.98 0.154,6.036 -0.154,1.511 0,2.566 0.154,1.662 -0.303,0 0,0.601 c -0.073,1.968 -0.016,3.951 0.303,5.888 l 0,0 0.149,0.904 0.152,0.906 0.152,0.755 0,0.301 12.528,0 0,3.926 0.153,6.341 0,3.623 0,1.962 0.755,0.904 0.452,0.756 c 1.255,1.08 2.846,4.429 3.321,6.189 l 0,0 0.3,0.754 0.304,1.508 0.15,0.907 0,1.811 0.152,1.208 -0.152,0.904 0,2.264 0,10.267 0.299,0.3 0,0.453 -0.299,0.151 0,1.207 0.152,3.623 0,4.227 0.3,1.66 0.303,0.152 0,0.15 -1.057,0.453 -1.811,0.905 -1.207,0.453 -1.058,0.151 0,0.301 0.754,0.151 0.604,0.152 0.303,0.452 0.453,0.755 0.453,1.058 -0.302,0 0.603,1.659 0.603,1.36 0,0.151 0.605,0.601 0.907,0.455 0.604,0.3 0.755,0.455 0.754,0.603 0.301,0.149 0.454,0.301 0.148,0.454 0.606,0.755 0.301,0 2.265,5.435 0.906,1.206 0,0.152 0.303,0.453 0.755,2.114 0.452,1.056 0.301,0.754 0.453,0.756 0.452,1.058 0.151,0.149 0.455,0.904 0.6,0.756 0.909,1.209 c 2.015,2.384 3.734,4.016 6.49,5.434 l 0,0 0.604,0.302 0.455,0.3 0.602,0.154 0.605,0.3 c 3.047,1.5 7.005,2.552 10.263,3.923 l 0,0 0.304,0.153 0.302,0 c 0.379,0.316 1.36,0.682 1.661,1.057 l 0,0 0.302,0.151 0.149,0.148 0,0.153 0.304,0.152 0.3,0.302 0,0.15 0.303,0.151 0.15,0.299 0.152,0.155 0.149,0.15 0,0.151 0.153,0.151 0.152,0.301 0.149,0.3 0.151,0.154 0.151,0.301 c -0.009,0.339 0.333,0.982 0.453,1.36 l 0,0 0,0.45 -0.453,0 -2.114,-0.148 -1.659,-0.156 c -1.564,-0.074 -3.114,-0.218 -4.679,-0.146 l 0,0 -2.265,-0.153 -1.662,-0.152 -0.301,0 -1.811,-0.148 -1.358,0 -1.059,-0.154 -0.15,0 -2.264,0.753 -1.661,0.457 -2.265,0.603 -1.659,0.603 -0.453,0 -2.114,0.755 -2.114,0.303 -1.963,0.301 -0.148,0 -1.964,0.303 -1.812,0.3 -0.151,0 -1.963,0.305 -2.112,0.449 -0.454,0.154 -1.056,0.148 -0.452,0 -1.812,1.058 -1.662,1.054 -0.302,0.306 -0.3,0.451 -0.153,0.451 -0.603,0.453 0.301,0.155 -0.149,1.658 -0.603,-0.303 z"
         id="path4243"
         inkscape:connector-curvature="0" /></clipPath><clipPath
       clipPathUnits="userSpaceOnUse"
       id="clipPath4577"><path
         d="m 427.525,362.443 c -0.983,0 -4.099,-0.751 -4.8,-1.057 l 0,0 -0.302,-0.149 0,0.149 -1.961,-0.603 -0.454,-0.152 -0.301,-0.303 2.111,-3.771 0,-0.151 0,-0.152 -0.147,0 0,-0.302 0.299,0 0.305,-0.151 1.357,-1.056 0.453,-0.453 0,-0.15 0.152,0 0,-0.756 -0.152,-0.15 -0.453,-0.755 -0.151,0 0,-0.303 0.302,-0.302 -0.604,-0.601 -0.149,-0.154 -0.755,-0.301 0,-0.302 -1.058,-1.358 -4.378,2.264 -3.021,1.358 -2.414,2.266 -2.417,1.059 0,-1.059 0.152,-1.058 -0.152,-0.604 c -0.35,-1.476 -2.045,-3.4 -3.622,-3.47 l 0,0 -1.057,-0.303 -1.059,-0.453 -1.056,-0.755 -0.602,-0.604 0,-0.15 -0.756,-0.907 -0.602,-0.452 -0.907,-0.755 -0.453,0 -1.661,-0.755 -1.511,-0.601 -1.207,-0.756 -1.51,-0.605 -1.207,-1.054 -1.358,-1.51 -1.057,-1.059 -0.755,-0.906 -0.303,-0.301 -0.904,-1.512 -0.454,-1.809 -0.303,-0.755 0,-0.755 -0.152,-0.755 c -0.698,-1.641 -1.514,-3.322 -3.017,-4.377 l 0,0 -1.208,-1.205 -0.905,-0.603 -1.06,-0.454 -3.32,-3.019 -2.114,-3.02 c -1.002,-1.407 -1.528,-3.13 -1.812,-4.83 l 0,0 -0.3,-3.32 -1.964,-1.963 -1.058,0.906 -0.755,-0.453 -0.148,-0.15 -0.608,-0.454 -1.507,-0.753 -0.301,-0.301 -0.907,-0.453 -2.114,-0.907 -1.36,-0.756 -0.603,-0.302 -2.415,-1.512 -0.756,-0.451 -1.51,-1.507 -1.961,-1.662 -0.151,-0.3 -0.302,-0.152 -0.152,-0.153 -3.623,-2.868 -0.604,-0.601 -0.15,-0.151 -1.66,-1.358 -1.21,-0.905 -2.264,-2.117 -10.266,-6.186 0.302,0.451 0.152,0.453 0.15,0.304 0,0.302 0.151,0.451 0,0.454 0.151,0.302 0,0.3 c 0.062,0.956 -0.238,0.203 -0.151,1.661 l 0,0 -0.301,0.454 -2.719,3.771 -3.321,2.115 -6.039,0.454 -2.869,0 -2.566,-1.962 -2.265,-4.683 -1.357,-1.508 -1.51,-0.904 -2.115,-0.605 -5.283,-0.602 -0.454,-0.153 -1.206,-0.301 -4.983,-3.169 -3.322,-3.02 -4.226,-5.733 -2.719,-3.174 -2.717,-2.714 -1.36,-2.417 -1.509,-3.473 -1.209,-3.318 -1.054,-4.378 0.451,-3.17 0.756,-1.059 1.358,-0.903 1.662,-0.603 1.357,-0.303 2.114,-0.302 1.662,0 2.869,0.302 -16.759,-24.605 -1.36,-1.658 -25.361,-33.36 2.717,-2.416 1.358,-1.056 0.264,-0.338 -20.59,-1.541 -6.632,10.299 -2.679,0.706 -28.642,-14.955 -34.425,-23.139 -10.017,-22.575 -7.902,-22.856 65.467,-47.265 66.744,96.306 16.91,1.056 11.624,-8.302 0.153,-0.151 11.474,-8.149 0.15,0 0.603,-0.456 0,0.305 0.755,1.962 0.755,2.717 0.905,2.867 0.302,1.058 0.303,2.112 0.454,-0.752 0.3,-0.909 0.455,-0.903 0.3,-1.059 0.605,-1.51 0.905,-2.111 2.717,0.452 1.058,0.153 5.889,0.45 0.604,0 3.471,0.301 1.963,0.15 0.3,0.305 2.115,2.869 2.415,3.47 2.265,2.868 1.962,2.718 0.453,0.601 0.302,0.606 0.303,0.301 -0.15,0.152 -2.265,1.508 -1.662,1.209 -0.602,0.301 -0.454,0.302 -1.358,1.058 -1.361,1.054 -0.754,0.604 -0.604,0.303 -0.452,0.3 0,0.154 -0.755,0.601 -0.453,0.303 -0.754,0.453 -0.152,0.151 -0.302,0.152 -1.359,0.753 -1.509,1.208 -0.603,0.756 -0.152,0.151 -0.302,0.15 -0.452,0.454 0,0.149 -0.454,0.304 -0.303,0.148 -0.149,0.303 -0.302,0.153 -0.154,0.298 -0.602,0.605 -0.301,0.454 -0.754,0.755 -0.756,0.906 -0.755,0.755 -0.908,0.754 -0.602,0.454 -0.452,0.3 0.301,0.604 7.398,9.813 3.321,-0.604 2.112,-0.152 c 3.349,14.921 13.985,45.906 37.016,62.054 l 0,0 c 9.51,7.746 20.494,14.62 30.802,18.651 l 0,0 0.015,0.007 c 2.854,1.116 5.656,2.016 8.36,2.655 l 0,0 c 21.009,4.97 44.277,2.027 57.494,-1.038 l 0,0 2.338,3.557 3.774,6.189 -2.717,2.717 0.151,0.454 c 0.402,1.567 0.775,4.192 1.208,5.733 l 0,0 0,0.153 4.084,0.152 2.869,0 -2.114,-3.171 0.603,-0.604 2.566,3.623 0.452,0.3 2.265,2.417 1.812,1.962 1.21,1.207 3.319,2.869 0.905,0.604 0.754,0.756 0.909,0.751 1.358,1.058 1.359,0.905 -1.06,-0.149 -0.753,0.451 -0.453,0 -0.302,0.153 -1.209,0.149 -2.262,0 -0.152,0.302 0,0.451 -0.151,0 -0.152,0.907 -0.451,1.812 -0.152,0.304 0.453,0.149 0.605,0 0.604,0.15 0.299,0 0.456,0.151 0.903,0 0.151,0.151 1.058,0 0.302,0.153 0.602,0 0.154,0.148 0,0.454 -2.87,0.906 -3.017,1.661 -2.417,2.115 -0.15,0.149 -1.964,-2.113 -7.547,-4.982 -0.152,-0.152 -1.968,-0.902 -0.908,-0.154 -2.414,0.301 -1.662,0.755 -1.056,1.209 -4.075,4.076 -3.172,4.075 -3.169,4.528 -1.359,2.567 -2.565,0.752 -8.454,5.286 -1.057,1.66 -0.151,2.416 -2.568,3.771 -2.413,2.418 1.659,1.808 0.454,0.453 -0.303,0.453 -0.3,0.153 -0.906,0.752 -0.757,0.152 -1.055,0.305 -0.304,0 -0.905,0.148 -0.453,0.151 -0.303,0.301 0.303,1.511 0.453,0.602 2.867,-0.751 0.154,0 1.961,0.299 0.604,0 1.057,0.151 0.301,0 0,0.453 -0.301,2.415 1.359,0.151 0.453,0 0.756,0.15 -0.151,0.453 0,0.454 -0.304,1.208 0,0.755 -0.754,0 -0.453,-0.15 -0.302,0 -1.21,-0.153 0,0.303 c 0.036,0.315 -0.227,1.633 -0.299,1.962 l 0,0 -0.456,2.868 -0.3,0.152 c -1.272,0.146 -2.317,1.125 -3.623,1.054 l 0,0 -0.3,-0.149 -0.154,0.149 -0.3,-0.303 0,-0.149 0.148,-0.754 0.152,-0.604 0.154,-1.359 0,-1.208 -0.306,-1.056 0,-0.453 -0.148,-0.603 -0.151,-0.756 0,-1.357 c -0.012,-1.78 -0.047,-2.671 -1.964,-2.869 l 0,0 -0.453,0 -1.508,1.058 -0.756,-0.302 -0.151,-0.153 -0.452,0.153 -4.077,1.659 -2.266,0.906 0,0.452 0.152,0.907 0,0.15 0.153,0.755 0,1.812 -0.153,0.905 -0.301,1.66 -0.151,0.906 0.151,1.055 0.149,1.21 -0.452,0.15 -0.031,0 z m 11.552,-17.346 0.104,-0.013 0.107,-0.041 -0.211,0.054 z m 1.167,-0.468 1.102,-0.553 c -0.412,0.144 -0.736,0.35 -1.102,0.553"
         id="path4579"
         inkscape:connector-curvature="0" /></clipPath><clipPath
       clipPathUnits="userSpaceOnUse"
       id="clipPath4965"><path
         d="m 413.617,275.396 c -2.704,-0.639 -5.506,-1.539 -8.36,-2.655 l 0,0 -0.015,-0.007 C 394.934,268.703 383.95,261.829 374.44,254.083 l 0,0 C 351.409,237.935 340.773,206.95 337.424,192.029 l 0,0 2.267,-0.452 2.415,-0.304 0.454,-0.151 1.963,-0.906 2.868,-0.301 0.604,-0.151 1.659,-0.302 4.529,-3.623 0.454,-0.301 1.056,-0.3 2.87,0.148 0.604,-0.148 2.566,-1.361 1.961,-1.055 1.359,-0.754 3.925,-1.512 3.625,0.604 1.661,1.058 2.565,0.904 4.078,1.36 1.509,0.756 1.811,1.507 0.906,0.455 1.358,0 2.116,-0.755 1.056,0.149 0.302,0.151 1.66,-0.3 0.603,0 0.605,0.149 1.51,0.453 1.207,0.153 1.813,-0.153 1.359,0.153 1.511,0.601 1.055,-0.903 9.057,-7.094 0.454,0.752 c 1.419,2.337 2.73,4.733 4.379,6.945 l 0,0 1.508,2.114 -0.45,0.3 1.207,1.51 0.755,1.36 0.149,0.3 0.454,0.607 0,0.298 0.152,0.153 0.3,0.149 0.151,-0.302 0.151,0.153 0.152,0.149 -0.303,0.607 0.604,0.755 0.603,0.902 0.304,0.453 1.36,2.265 1.508,2.415 2.717,4.074 0.755,1.209 1.509,2.264 1.058,1.963 0.302,0.602 0.301,0 0.453,-0.3 4.076,6.492 6.945,10.716 0.303,0.453 4.679,7.246 2.414,3.771 5.134,8.001 5.132,8.15 3.321,5.132 3.624,5.887 4.605,7.009 c -8.085,1.874 -19.936,3.704 -32.727,3.704 l 0,0 c -8.117,0 -16.613,-0.736 -24.767,-2.666"
         id="path4967"
         inkscape:connector-curvature="0" /></clipPath><clipPath
       clipPathUnits="userSpaceOnUse"
       id="clipPath5251"><path
         d="m 30.188,205.296 26.021,0 0,17.348 -26.021,0 0,-17.348 z"
         id="path5253"
         inkscape:connector-curvature="0" /></clipPath><clipPath
       clipPathUnits="userSpaceOnUse"
       id="clipPath5289"><path
         d="m 471.176,520.829 26.022,0 0,17.347 -26.022,0 0,-17.347 z"
         id="path5291"
         inkscape:connector-curvature="0" /></clipPath><clipPath
       clipPathUnits="userSpaceOnUse"
       id="clipPath5323"><path
         d="m 313.498,650.097 26.022,0 0,17.347 -26.022,0 0,-17.347 z"
         id="path5325"
         inkscape:connector-curvature="0" /></clipPath><clipPath
       clipPathUnits="userSpaceOnUse"
       id="clipPath5579"><path
         d="m 173.317,488.934 0,-0.301 -6.795,0 -9.207,-0.302 -1.509,-1.058 c -2.536,-2.35 -8.556,-4.231 -8.909,-8.604 l 0,0 -0.3,-4.225 -5.589,-4.074 -0.752,-0.455 0.301,-0.604 0.15,-0.151 0,-0.301 0.453,-0.302 0.454,-0.754 0.452,-0.605 0.453,-0.453 0,-0.451 -0.302,0 0.151,-0.606 0.151,-1.205 0.755,-0.755 0.302,-0.755 0,-0.153 0.15,-0.15 0.454,-0.755 0,-0.149 0.905,-2.265 0.302,-0.453 0.151,-1.962 0.152,-0.604 0,-1.963 0.452,-0.602 0,-0.907 c 0.112,-1.383 -0.256,-1.411 -0.604,-2.868 l 0,0 -0.151,-0.302 0,-0.151 -0.151,0 -0.302,-0.603 0.302,-0.755 -0.302,-1.36 -0.301,-1.056 0,-0.303 0.15,-0.148 0,-1.056 -0.15,-0.455 0,-0.453 0.15,-0.151 -0.302,0 0,0.151 -0.151,-0.603 -0.301,-0.905 -0.152,-0.755 -0.151,-0.907 -0.301,-1.357 0.301,-0.606 0.151,0.153 0,-0.303 0.152,-0.301 -0.303,0 0,0.151 -1.207,-2.264 0.453,-0.906 0.15,0 0.152,-0.454 0,-0.151 -0.152,-0.301 -0.15,-0.604 -0.302,-0.905 -1.51,-0.302 -0.603,-0.152 -0.453,-0.754 0.152,0 -0.303,-0.151 -0.908,-0.603 c -0.81,-0.639 -1.64,-0.623 -2.559,-0.608 l 0,0 c -0.15,0.002 -0.302,0.005 -0.458,0.004 l 0,0 -0.605,0.151 -0.302,0 -0.301,0.151 -0.756,0 -0.301,-0.151 -0.452,-0.151 -1.057,0 -0.302,-0.15 -0.152,-0.152 -0.302,0 -0.302,-0.151 -0.604,0.303 -0.453,0 -0.906,-0.455 -0.604,-0.3 -0.302,-0.153 -0.454,0 0,0.153 -0.3,0.452 0,0.151 -0.151,-0.151 -0.303,0 0.151,-0.152 0.152,-0.15 0.151,-0.303 0,-0.451 -0.303,-0.453 -0.151,-0.604 -0.152,-0.453 0,-0.603 -0.15,-0.302 -0.603,-0.907 c -0.527,-0.405 -0.711,-2.057 -0.906,-2.716 l 0,0 0,-0.152 -0.149,-0.3 -0.153,-0.152 0,-0.453 c -0.305,-0.744 -0.104,-1.533 -0.754,-2.114 l 0,0 -0.454,-0.301 -0.149,-0.454 -0.152,-0.151 0,-0.754 -0.303,-0.604 -0.904,-0.603 -0.454,-0.302 -0.302,-0.453 -0.15,0 -0.907,-1.209 -0.452,-0.905 -0.303,-0.603 -0.303,-1.06 0,-1.054 -0.604,-2.113 -0.3,-1.811 -0.152,-0.755 -0.303,-1.359 0,-1.055 c -0.321,-2.171 0.877,-4.177 0.755,-6.342 l 0,0 0.152,-0.602 -0.152,-3.018 -0.15,0 -0.15,-0.455 0.3,-0.452 -0.15,-0.605 0,-0.601 -1.058,-2.569 -0.603,-1.508 -0.15,-1.207 -0.3,-1.209 -0.154,-0.15 -0.15,-1.511 -0.151,-0.147 0.755,0 -0.3,-1.363 0,-0.752 0.45,-0.754 0.453,-0.607 2.265,-1.661 0.605,-1.355 -0.605,-3.02 -0.152,-0.302 0,-0.756 -0.3,-1.811 0.149,-1.358 0.754,-1.963 1.361,-2.263 0.756,-3.472 -0.302,-7.697 -0.303,-0.152 0,-0.15 -0.301,-0.303 -5.435,-5.132 2.414,-4.224 -0.452,-8.152 -1.962,-8.604 -0.454,-8.151 -0.152,-4.679 -0.301,-2.869 -0.151,-1.81 0.151,-4.378 5.303,-5.684 5.831,-16.093 16.329,-10.731 0,-21.226 -5.366,-10.728 4.431,-24.957 8.632,-8.629 7.23,-0.468 1.633,-2.566 0.7,-3.967 5.597,-2.098 11.663,-29.157 0.24,-0.425 17.337,11.654 28.642,14.955 2.679,-0.706 6.632,-10.299 20.592,1.541 -0.266,0.338 -1.358,1.056 -2.717,2.416 25.361,33.36 1.36,1.658 16.759,24.605 -2.869,-0.302 -1.662,0 -2.114,0.302 -1.357,0.303 -1.662,0.603 -1.358,0.903 -0.756,1.059 -0.451,3.17 1.054,4.378 1.209,3.318 1.509,3.473 1.36,2.417 2.717,2.714 2.719,3.174 4.226,5.733 3.322,3.02 4.983,3.169 1.206,0.301 0.454,0.153 5.283,0.602 2.115,0.605 1.51,0.904 1.357,1.508 2.265,4.683 2.566,1.962 2.869,0 6.039,-0.454 3.321,-2.115 2.719,-3.771 0.301,-0.454 c -0.087,-1.458 0.213,-0.705 0.151,-1.661 l 0,0 0,-0.3 -0.151,-0.302 0,-0.454 -0.151,-0.451 0,-0.302 -0.15,-0.304 -0.152,-0.453 -0.302,-0.451 10.266,6.186 2.264,2.117 1.21,0.905 1.66,1.358 0.15,0.151 0.604,0.601 3.623,2.868 0.152,0.153 0.302,0.152 0.151,0.3 1.961,1.662 1.51,1.507 0.756,0.451 2.415,1.512 0.603,0.302 1.36,0.756 c 1.939,0.724 3.723,1.741 5.437,2.868 l 0,0 0.148,0.15 0.755,0.453 1.058,-0.906 1.964,1.963 0.3,3.32 c 0.284,1.7 0.81,3.423 1.812,4.83 l 0,0 2.114,3.02 -1.812,1.357 -1.66,1.511 -0.906,0.755 -0.605,0.754 -0.906,1.056 -1.509,1.662 -0.753,0.452 -0.303,0.301 -0.605,0.906 -0.451,0.904 -0.605,1.059 -0.754,3.472 -0.152,0.601 -0.302,0.606 -0.453,0.452 -1.208,0.755 -2.868,1.811 -0.304,0.451 -0.604,0 c -3.769,0.67 -9.487,-0.89 -12.83,-1.81 l 0,0 -0.152,-0.151 0,0.455 0.303,2.413 -1.056,0.302 -1.662,0.605 -1.056,0.3 -0.303,0 -3.472,1.21 c 0.158,1.859 1.017,3.572 1.207,5.433 l 0,0 0.301,1.056 -0.753,0.151 -1.66,0.603 -1.813,0.604 -1.057,0.303 -2.416,0.755 -2.264,0.755 -2.265,0.905 -0.453,0 -4.227,1.508 -2.262,0.756 -1.06,0.454 -3.171,1.057 -3.924,1.207 -2.114,0.755 -0.1,-0.147 -14.295,41.297 -0.185,0.061 0.136,0.125 -4.729,23.721 -0.304,14.943 -0.299,0 0,6.037 -0.152,0.755 -0.152,0.152 -0.603,-0.303 -0.452,0.151 -0.152,0.302 -0.302,0 -0.302,0.301 -0.602,0.152 -0.454,0.302 -0.302,0.453 -0.152,0.15 -0.755,0.755 -0.755,1.056 -0.604,1.51 -0.604,0.603 -0.603,0.757 -1.661,0.45 -0.15,0.756 0,0.151 -0.152,0.452 -0.453,0.152 -0.302,0.303 -0.602,0.301 -1.057,0.603 -0.455,0.303 -0.451,0.15 -0.605,0 -0.906,0.15 -0.755,0 -1.207,0.303 -1.057,0.301 -1.36,0.151 -1.058,0.152 -3.321,0 -0.298,-0.303 0,-0.604 -0.305,0 0,0.755 -0.452,0.303 c -1.439,0.528 -3.155,0.526 -4.678,0.904 l 0,0 -0.455,0.152 0.151,0.302 -24.307,9.208 -14.796,8.603 -0.149,0.755 -0.605,0.302 -0.754,0.301 -0.454,0.303 -0.302,0.149 -0.302,0.454 -0.755,0.755 -0.453,0.453 -0.604,0.453 -3.169,2.113 -1.209,0.905 -0.754,0.303 -0.907,0.301 -0.603,0.454 -0.152,0 -1.055,0.149 -0.152,0 -0.454,0.153 -0.301,-0.153 -0.302,0 -0.756,-0.149 -1.809,-0.303 -2.417,-0.452 -0.906,-0.303 -0.453,0 -0.756,0 -0.904,0.151 -1.36,0.303 -1.208,0.15 -1.056,0.151 -6.793,0.755 -0.755,0 -4.077,0.452 -0.301,0.152 -0.907,0.15 -0.303,0 c -3.788,0.754 -7.623,1.191 -11.472,1.359 l 0,0 -1.662,0 z"
         id="path5581"
         inkscape:connector-curvature="0" /></clipPath><clipPath
       clipPathUnits="userSpaceOnUse"
       id="clipPath5959"><path
         d="m 254.694,677.16 -3.169,-0.905 -1.209,-0.152 -0.453,0 -2.87,-0.603 -4.227,-0.604 -2.718,-0.454 -3.17,-3.019 1.963,-7.848 -1.66,-0.603 -0.152,-0.153 -4.68,-0.904 c -3.488,-0.802 -6.885,-1.629 -10.418,-2.264 l 0,0 -1.358,-0.303 -2.113,-0.452 -1.661,-0.299 -1.812,-0.455 -1.056,-0.151 -0.604,-0.151 -0.453,0 -0.757,-0.303 -0.3,0 -2.113,-0.3 -0.304,-0.151 -2.565,-0.604 -0.756,-0.153 c -3.88,-0.596 -8.218,-1.794 -12.078,-2.415 l 0,0 -1.509,-0.302 -3.019,-0.754 c -1.763,-0.359 -3.289,-0.732 -5.133,-1.056 l 0,0 -0.453,0 -0.453,-0.153 -0.302,0 -0.15,0.304 -0.303,0 -1.509,0.153 -4.228,0.451 -2.264,0.151 -1.509,0 -0.302,0.15 -0.907,0 -0.299,-0.15 -0.305,0 -1.661,-0.453 -1.057,-0.453 -1.206,-0.452 -0.757,-0.455 -0.604,-0.3 -2.867,-1.661 -2.417,-1.509 -1.51,-0.754 -0.149,-0.303 0,-0.302 -0.755,-1.962 -0.605,-1.207 0.151,-0.604 -2.566,2.415 -0.152,0 -1.963,1.81 -0.15,0.153 -0.152,0.149 -1.962,1.661 0,0.152 -1.207,0 -3.169,-0.604 -0.757,-0.151 -1.66,0.151 -0.455,0 -1.357,-1.511 -0.303,-0.301 -0.149,-0.3 0,-0.153 -1.208,-1.811 0,-0.151 0.301,-0.757 -0.905,0.304 -0.151,0 0,-0.304 0.303,-0.602 0,-0.15 -0.152,-0.151 -0.603,-0.303 -0.455,-0.151 -0.605,-0.452 -0.904,0.15 -0.752,0.302 -0.909,-0.452 -1.056,-0.452 -0.454,-0.152 -0.603,0 -1.208,-0.303 -0.453,-0.149 0,0.149 0.151,1.057 -1.208,0.453 -0.755,0.303 -3.171,-1.813 -0.754,-0.905 -0.907,-1.358 c -0.904,-2.053 -1.785,-2.886 -2.264,-5.434 l 0,0 -0.904,-4.229 -0.302,-1.356 -0.304,-1.813 0,-0.45 -0.149,-2.266 -0.152,-2.868 -0.151,-3.923 0.604,0.15 0.905,-0.15 0.908,-0.303 -0.605,-2.414 0.15,-0.151 -0.301,-1.056 -0.302,-0.906 c -0.126,-0.845 -1.298,-2.608 -1.66,-3.321 l 0,0 -0.454,-0.907 -0.604,-0.904 -0.602,-1.208 -0.305,-0.302 -0.603,-0.755 -0.453,-0.604 -1.208,-1.207 -0.301,-0.453 -0.151,-0.303 0.151,-0.301 0,-0.453 0.301,-0.453 0.152,-0.304 0.754,-1.959 1.207,-1.511 0,-0.15 0.456,-0.452 -0.456,-0.302 -1.207,-1.358 0,-0.606 -0.15,-0.753 -0.151,0.3 -0.303,0.302 -1.962,0.605 -0.302,0 -0.754,0.152 -1.661,0 -2.265,-0.152 -0.454,-0.151 -0.301,0.151 -2.264,-0.303 -2.113,-0.302 -0.152,-0.15 -0.303,-0.152 -1.509,-0.904 0,-0.303 -0.451,0 -5.135,-3.322 -1.66,-1.206 -2.115,-1.509 -1.81,-1.358 -1.964,-1.508 -1.056,-1.211 -0.152,-0.302 -0.149,-0.15 -0.606,-1.209 -1.206,-2.112 0,-0.753 c -0.395,-6.65 1.323,-11.704 2.113,-18.265 l 0,0 0,-0.604 -0.301,-0.151 -2.416,-2.566 -0.303,-0.151 -0.906,-0.754 -1.207,-0.905 -0.756,-0.604 -4.528,-2.265 -0.907,-0.301 0,0.151 -2.114,-0.755 -1.358,-0.453 -2.717,-1.057 -2.265,-1.208 -0.754,-0.304 -2.718,-1.506 -3.32,-0.755 -1.664,-0.453 -1.81,-0.454 -4.528,-1.206 -2.719,-0.756 -3.171,-1.057 -1.507,-0.453 -0.908,-0.452 -0.605,-0.152 -0.603,-0.151 -1.51,-0.3 0,-0.152 c -1.543,-1.073 -2.147,-2.448 -3.623,-3.621 l 0,0 -0.303,-0.454 -0.603,-0.603 -0.151,0 -0.149,-0.152 c -1.664,-1.913 -3.702,-3.595 -5.285,-5.584 l 0,0 -2.567,-2.567 0,-1.056 0.151,-2.869 0.151,-0.15 0.453,0.15 0.452,0.303 0.151,0.452 0.604,0.303 0.454,0.151 0.904,0.15 0.303,-0.452 0.453,0 0.755,-1.208 1.81,-0.604 0.605,-0.755 0.755,-0.302 1.51,-0.755 0.906,0 1.056,-0.603 0.604,-0.151 0.153,0 0.149,-0.152 0.302,-0.15 0,-0.149 0.302,-0.151 0.302,-0.304 0.906,-1.207 2.719,-0.604 6.189,-1.51 7.547,-1.811 5.436,-0.905 4.681,-0.755 30.648,-3.471 0.3,-0.152 1.964,-0.603 1.208,-0.303 2.416,-0.754 0.15,-0.152 0.151,0 0.302,-0.15 1.811,-1.056 6.492,-3.623 2.264,-1.359 3.775,-2.111 0.303,-0.153 9.209,-4.982 0.753,-0.299 1.512,-0.908 0.755,-0.15 1.962,-1.51 -0.152,-0.603 -0.453,-0.756 -0.302,-0.452 -0.754,-1.057 -1.51,-3.02 0,-2.414 0.302,-2.717 0.907,-0.451 1.659,-2.869 1.209,-1.207 0.453,-0.908 0.303,-0.3 0.301,-0.603 0.15,-0.604 0.908,-0.908 0,-0.15 0.753,0.455 5.588,4.074 0.3,4.225 c 0.353,4.373 6.374,6.254 8.91,8.604 l 0,0 1.507,1.058 9.211,0.302 6.791,0 0,0.301 1.664,0 2.112,-0.151 1.36,0 1.66,-0.301 1.812,-0.151 2.113,-0.302 2.414,-0.454 0.303,0 0.908,-0.15 0.3,-0.152 4.077,-0.452 0.754,0 6.793,-0.755 c 2.215,-0.154 3.699,-0.855 5.737,-0.755 l 0,0 0.906,0.303 2.418,0.452 1.809,0.303 0.756,0.149 0.302,0 0.302,0.153 0.453,-0.153 0.151,0 1.056,-0.149 0.151,0 0.603,-0.454 0.907,-0.301 0.756,-0.303 1.208,-0.905 3.169,-2.113 0.604,-0.453 0.453,-0.453 0.603,-0.603 0.152,-0.152 0.302,-0.454 0.302,-0.149 0.454,-0.303 0.754,-0.301 0.606,-0.302 0.147,-0.755 14.798,-8.603 24.306,-9.208 -0.151,-0.302 0.454,-0.152 c 1.524,-0.378 3.241,-0.376 4.68,-0.904 l 0,0 0.451,-0.303 0,-0.755 0.305,0 0,0.604 0.298,0.303 3.321,0 1.06,-0.152 1.357,-0.151 1.059,-0.301 1.206,-0.303 0.755,0 0.906,-0.15 0.606,0 0.449,-0.15 0.456,-0.303 1.056,-0.603 0.604,-0.301 0.301,-0.303 0.453,-0.152 0.152,-0.452 0,-0.151 0.15,-0.756 1.66,-0.45 0.603,-0.757 0.606,-0.603 0.603,-1.51 0.756,-1.056 0.754,-0.755 0.152,-0.15 0.303,-0.453 0.453,-0.302 0.603,-0.152 0.301,-0.301 0.302,0 0.153,-0.302 0.45,-0.151 0.603,0.303 0.153,-0.152 0.152,-0.755 0,-6.037 0.3,0 0.303,-14.943 4.778,-23.907 0.021,-0.058 c 0.478,0.409 0.005,-0.016 0.005,-0.016 l 0,0 14.268,-41.223 0.087,0.126 c 9.594,-3.146 19.11,-6.481 28.7,-9.641 l 0,0 0.753,-0.151 -0.301,-1.056 -0.452,-2.113 -0.151,-0.604 -0.302,-1.057 -0.153,-0.605 -0.149,-1.054 3.471,-1.21 0.303,0 1.057,-0.3 1.661,-0.605 1.057,-0.302 -0.303,-2.413 0,-0.455 0.152,0.151 c 3.342,0.92 9.061,2.48 12.831,1.81 l 0,0 0.603,0 0.303,-0.451 2.869,-1.811 1.208,-0.755 0.453,-0.452 0.303,-0.606 0.905,-4.073 0.604,-1.059 0.453,-0.904 0.603,-0.906 0.303,-0.301 0.754,-0.452 1.509,-1.662 0.906,-1.056 0.604,-0.754 0.907,-0.755 1.659,-1.511 1.812,-1.357 3.322,3.019 1.058,0.454 0.907,0.603 c 2.059,1.826 4.396,4.13 4.376,7.092 l 0,0 0.303,0.755 0.453,1.809 0.905,1.512 0.302,0.301 0.756,0.906 1.057,1.059 1.358,1.51 1.207,1.054 1.511,0.605 1.206,0.756 1.511,0.601 1.662,0.755 0.451,0 0.908,0.755 0.602,0.452 0.756,0.907 0,0.15 0.603,0.604 1.055,0.755 1.059,0.453 1.056,0.303 0.454,0 0.453,0.302 0.451,0.15 0.454,0.301 c 0.998,1.021 1.766,1.892 1.963,3.321 l 0,0 -0.152,1.058 0,1.059 -0.905,1.96 c -0.237,2.324 -0.059,1.937 0,4.226 l 0,0 -3.021,18.717 7.851,3.773 6.341,3.018 3.776,4.53 0.603,1.66 0,0.15 0.755,2.567 1.661,1.357 1.358,0.151 0.906,-0.301 0.906,-0.605 1.057,-1.658 1.962,-0.303 0.303,-0.151 1.357,-0.605 1.964,-1.055 1.66,3.924 2.869,1.054 2.113,3.022 8,6.642 1.209,0.903 -1.057,9.663 3.47,1.963 2.417,3.622 4.076,6.037 0.15,0 9.209,4.982 1.963,2.566 0,2.717 -5.284,5.433 -0.604,0.604 -0.301,0.604 -0.755,2.265 -0.301,1.207 -0.152,0.453 0,0.905 0.301,1.509 -0.301,0.757 -1.509,1.206 -1.51,1.359 -1.36,1.056 -2.262,1.51 -1.662,2.265 -1.511,2.261 -0.604,0.908 -0.451,0.603 -4.076,5.886 -1.358,1.812 -1.359,1.96 0,0.153 0.453,1.207 0.754,1.359 0.907,1.51 c 1.719,2.393 2.481,4.558 3.322,7.246 l 0,0 0,0.602 0.3,1.963 0,0.906 0.149,0.152 0,0.3 0.153,0.908 0,0.149 0.153,0.906 0.148,0.302 0,0.452 0.152,0.454 c -0.109,0.886 0.403,1.349 0.302,2.415 l 0,0 0,0.453 c 0.058,1.465 -0.07,2.422 -0.151,3.773 l 0,0 -0.151,0.303 -1.509,1.359 -1.962,1.809 1.659,5.735 0.303,5.586 -1.36,6.037 2.569,5.436 3.924,3.471 -0.153,3.623 4.681,5.735 2.114,4.831 0,0.755 0.151,1.056 -0.303,0 -0.301,0.151 -0.605,0 0,0.151 0.754,-0.151 0.455,0 0.151,0.299 0.149,0.909 0.152,0.151 0,1.509 0.152,0.453 0,2.264 0.302,4.527 0,0.303 0.753,0 c 1.434,0.4 2.987,0.64 4.379,1.056 l 0,0 0.301,0.151 0.303,-0.151 0.905,0.302 0.453,0.152 c 3.066,0.531 6.176,1.433 9.216,2.113 l 0,0 0.454,0.452 0.602,0.452 2.115,1.813 0.754,0.754 0.151,0.302 0.302,0.453 1.962,2.112 0.303,0.454 0.15,0.151 c 7.115,8.424 13.896,17.038 21.135,25.357 l 0,0 1.811,2.265 0,0.152 0.303,0.15 2.262,2.717 2.719,3.472 c 1.997,1.676 3.445,4.557 5.282,6.189 l 0,0 1.208,1.66 0.151,0.149 c 1.328,1.219 2.118,2.891 3.473,4.077 l 0,0 0.303,0.453 0.603,0.453 1.358,1.359 c 3.664,3.741 7.161,7.653 10.568,11.623 l 0,0 1.659,1.961 0.154,0.152 -2.116,0.301 -0.301,0 -1.509,0.151 -2.267,0.453 -1.508,0 -0.301,0.151 -0.755,0 -2.416,0.151 -0.303,0.151 -2.413,0.151 -0.304,0.15 -1.508,0 -1.813,0.153 -2.866,0.149 -1.963,0.152 -0.454,0.15 -0.756,0 -2.413,0.15 -1.662,0 -1.208,0.153 -0.755,0 -0.452,0.151 -1.961,0.151 -0.154,-0.151 -0.149,0 -0.15,-0.151 -1.813,0.754 -0.453,-0.452 -0.906,-0.907 -0.904,-0.754 -0.907,-0.602 -0.603,-0.455 -1.511,-2.263 -1.508,-1.811 -1.361,-1.812 -1.056,-1.661 -2.113,-2.113 -0.904,-0.755 -0.151,-0.301 -0.304,-0.152 -0.149,-0.301 -0.15,0 -0.154,-0.302 -0.301,-0.303 c -1.495,-1.382 -2.746,-2.991 -4.077,-4.529 l 0,0 -0.603,-0.604 -0.453,-0.603 -0.301,-0.452 -0.906,-0.754 -2.113,-2.114 -1.361,-1.207 -0.904,-0.452 0,-0.151 -0.454,-0.153 -0.451,-0.303 -0.604,-0.602 -0.606,-0.15 -0.452,-0.453 -0.453,-0.152 -0.301,-0.302 -0.303,0 -0.905,-0.905 -0.158,-0.301 -0.145,-0.152 -0.308,-0.15 -0.303,-0.605 -0.15,-0.15 -0.756,-0.454 -0.302,-0.452 -0.302,-0.152 -0.451,-0.453 -0.755,-0.452 -0.302,-0.301 -0.303,-0.152 -0.301,-0.302 -0.454,-0.151 -0.905,-0.451 -0.302,-0.303 -0.302,-0.302 -0.299,-0.15 -0.154,-0.152 0,-0.152 -0.452,-0.301 -0.151,-0.15 -0.303,0 -1.509,0.451 -0.604,0.152 -1.358,0.302 -2.113,1.056 -1.359,0.453 -0.152,0.152 -0.755,0.301 -0.452,-1.508 -0.907,0.298 -0.604,0.154 -1.811,0.755 -0.754,0.15 -1.359,0.452 -0.755,0.151 -0.603,0.152 -0.153,0.151 -0.45,0 -1.811,0.605 -1.358,0.301 -0.153,0.15 -2.266,0.605 -0.753,0.151 -1.208,0.453 -1.659,0.603 -0.305,0.151 c -4.623,1.322 -9.117,2.967 -13.586,4.68 l 0,0 -1.509,0.453 -0.453,0.15 0,-0.304 -0.303,-2.868 c -0.844,-10.543 -2.173,-21.016 -3.016,-31.546 l 0,0 -0.153,-0.453 0,-0.302 -0.151,-1.357 -0.152,-1.207 c -0.014,-2.727 -0.865,-5.412 -0.753,-8.152 l 0,0 -0.151,-1.81 0,-0.152 -0.152,-0.303 -0.302,-4.377 -0.151,-1.057 -0.302,-2.716 0,-0.151 -0.151,-0.905 -0.301,-3.925 0.151,-2.567 0,-0.301 c 0.009,-1.759 0.096,-4.685 0.301,-6.491 l 0,0 0,-3.47 -0.151,-0.605 0.151,-1.057 -0.151,-1.056 0,-0.302 -0.452,-1.207 0,-0.152 -0.908,-0.453 -0.151,-0.151 c -9.649,-5.193 -19.76,-10.19 -29.59,-15.094 l 0,0 -0.153,-0.151 -4.98,-2.415 -1.812,-0.905 -1.961,-0.905 -1.058,-0.756 -1.812,-0.753 -1.358,-0.605 -0.302,-0.149 -0.151,-0.154 0,-0.3 -0.907,-0.605 -1.057,-0.756 -1.056,-0.452 -1.962,-0.604 -0.604,0 -5.585,-0.753 -3.321,-0.453 -3.624,0 -1.51,-0.151 -3.172,0 -0.452,-0.152 -1.661,0.152 -0.755,0 -0.453,0.151 -0.604,0.303 0.301,0.602 0.756,1.66 0.152,0.152 0,0.15 0.151,0.302 1.206,2.266 -0.302,4.527 -0.754,1.056 -0.605,0.906 -1.056,0.905 -0.302,0.151 -1.811,-0.453 -0.756,0.605 -1.207,0.754 -0.907,1.509 -0.756,1.057 -0.299,0.453 -1.812,2.867 -2.869,1.662 -2.567,0.453 c -1.382,0.327 -0.845,-0.066 -2.415,0.451 l 0,0 -1.66,0.603 -1.359,1.359 -2.113,0.304 -1.662,2.565 -1.962,2.869 -0.154,3.621 0,2.868 -1.055,3.622 -0.3,0.455 -0.755,1.81 -1.662,3.927 -0.15,0.149 0,0.603 -0.453,2.264 -0.757,3.019 0,0.152 -0.301,0.754 -0.15,0.454 -0.907,1.961 -1.358,4.528 -0.152,0.756 0,0.904 0.303,1.21 0.301,2.111 0.302,0.755 0.303,0.605 -0.453,0 -1.358,0.15 -0.454,0.151 -1.208,0 -0.301,0.152 -0.151,0.151 -0.455,0.604 -0.301,0.149 -0.302,0.152 -0.152,0.152 -0.602,0.299 -0.604,0 -0.15,-0.149 -0.756,-0.302 -2.113,-1.359 -1.509,-1.056 -2.115,-0.603 -0.452,-0.152 -2.417,-0.603 -1.36,-0.304 0.305,0.756 -0.152,0.151 -0.301,0.605 -3.02,3.168 -1.208,1.51 -0.152,0.604 -0.45,0.905 -1.361,3.02 -0.603,1.509 -0.455,2.262 -0.753,2.417 -3.926,4.527 -1.812,2.114 -0.755,2.566 -0.301,0.454 -0.605,0.754 -0.454,1.057 -4.527,12.982 2.113,4.377 0.906,1.659 1.358,2.567 0.15,0.149 -0.451,0.455 -0.454,0.301 -0.603,0.604 -0.301,0 0.148,0.452 -2.565,1.358 -0.151,0 -0.15,1.06 -2.267,1.658 -1.81,1.209 0,0.149 0.15,0.303 -7.396,20.376 -1.812,5.131 -0.149,0.606 -0.153,0.453 -0.304,0.602 -0.299,0.454 -0.153,0.453 c -0.772,1.037 -0.489,1.319 -1.357,2.414 l 0,0 -0.302,0.606 -0.151,0.451 -0.304,0.454 -0.299,0.604 -0.304,0.301 c -0.705,0.896 -1.604,1.638 -2.264,2.567 l 0,0 -0.454,0.452 -0.302,0.453 c -1.337,1.158 -1.418,1.731 -2.414,2.717 l 0,0 -0.604,0.605 -0.453,0.602 -0.604,0.754 -0.452,0.604 c -0.689,1.239 -1.313,2.51 -1.964,3.776 l 0,0 -0.302,0.603 -0.302,0.753 c -0.664,0.827 -0.281,2.054 -0.604,3.02 l 0,0 -0.15,0.905 0,0.302 -0.302,0 z"
         id="path5961"
         inkscape:connector-curvature="0" /></clipPath><clipPath
       clipPathUnits="userSpaceOnUse"
       id="clipPath6363"><path
         d="m 0,0 595.275,0 0,841.89 L 0,841.89 0,0 Z"
         id="path6365"
         inkscape:connector-curvature="0" /></clipPath><clipPath
       clipPathUnits="userSpaceOnUse"
       id="clipPath6487"><path
         d="m 0,0 595.275,0 0,841.89 L 0,841.89 0,0 Z"
         id="path6489"
         inkscape:connector-curvature="0" /></clipPath><clipPath
       clipPathUnits="userSpaceOnUse"
       id="clipPath6903"><path
         d="m 287.383,120.052 26.022,0 0,17.348 -26.022,0 0,-17.348 z"
         id="path6905"
         inkscape:connector-curvature="0" /></clipPath><clipPath
       clipPathUnits="userSpaceOnUse"
       id="clipPath6933"><path
         d="m 438.914,120.052 26.021,0 0,17.348 -26.021,0 0,-17.348 z"
         id="path6935"
         inkscape:connector-curvature="0" /></clipPath><clipPath
       clipPathUnits="userSpaceOnUse"
       id="clipPath7181"><path
         d="m 0,0 595.275,0 0,841.89 L 0,841.89 0,0 Z"
         id="path7183"
         inkscape:connector-curvature="0" /></clipPath></defs><sodipodi:namedview
     pagecolor="#ffffff"
     bordercolor="#666666"
     borderopacity="1"
     objecttolerance="10"
     gridtolerance="10"
     guidetolerance="10"
     inkscape:pageopacity="0"
     inkscape:pageshadow="2"
     inkscape:window-width="1916"
     inkscape:window-height="1046"
     id="namedview4157"
     showgrid="false"
     inkscape:zoom="0.81055716"
     inkscape:cx="535.51063"
     inkscape:cy="530.0896"
     inkscape:window-x="0"
     inkscape:window-y="30"
     inkscape:window-maximized="1"
     inkscape:current-layer="g4163"
     showborder="true"
     borderlayer="false"
     inkscape:showpageshadow="true" /><g
     id="g4163"
     inkscape:groupmode="layer"
     inkscape:label="2016-03_ewp_versorgung_wasserwerke"
     transform="matrix(1.25,0,0,-1.25,0,1052.3625)"><g
       id="g4221"
       transform="translate(538.6729,629.7642)"><path
         d="m 0,0 -0.302,0 -1.51,0.151 -2.264,0.453 -1.51,0 -0.3,0.151 -0.756,0 -2.416,0.152 -0.303,0.15 -2.414,0.151 -0.302,0.151 -1.508,0 -1.814,0.151 -2.866,0.151 -1.963,0.15 -0.454,0.151 -0.755,0 -2.415,0.151 -1.66,0 -1.208,0.152 -0.756,0 -0.452,0.15 -1.962,0.151 -0.151,-0.151 -0.151,0 -0.15,-0.15 -1.811,0.753 -0.454,-0.452 -0.906,-0.905 -0.905,-0.754 -0.907,-0.604 -0.603,-0.454 -1.51,-2.263 -1.51,-1.812 -1.359,-1.811 -1.056,-1.661 -2.114,-2.113 -0.905,-0.754 -0.15,-0.302 -0.303,-0.152 -0.151,-0.301 -0.15,0 -0.151,-0.303 -0.303,-0.301 c -1.494,-1.384 -2.746,-2.993 -4.076,-4.53 l -0.604,-0.603 -0.453,-0.603 -0.299,-0.453 -0.907,-0.755 -2.114,-2.113 -1.358,-1.208 -0.907,-0.452 0,-0.152 -0.452,-0.151 -0.454,-0.302 -0.604,-0.604 -0.604,-0.15 -0.452,-0.452 -0.452,-0.151 -0.303,-0.302 -0.303,0 -0.905,-0.906 -0.159,-0.303 -0.143,-0.15 -0.309,-0.15 -0.303,-0.605 -0.15,-0.151 -0.755,-0.453 -0.302,-0.453 -0.302,-0.151 -0.453,-0.452 -0.754,-0.453 -0.302,-0.302 -0.303,-0.151 -0.301,-0.302 -0.453,-0.151 -0.905,-0.453 -0.303,-0.301 -0.301,-0.302 -0.302,-0.151 -0.152,-0.151 0,-0.151 -0.452,-0.303 -0.151,-0.149 -0.302,0 -1.51,0.452 -0.603,0.151 -1.359,0.302 -2.113,1.056 -1.359,0.453 -0.152,0.151 -0.755,0.302 -0.452,-1.509 -0.905,0.301 -0.605,0.151 -1.811,0.755 -0.755,0.151 -1.358,0.452 -0.756,0.152 -0.603,0.151 -0.152,0.152 -0.452,0 -1.811,0.602 -1.358,0.302 -0.152,0.151 -2.264,0.604 -0.755,0.151 -1.209,0.452 -1.659,0.604 -0.302,0.152 c -4.624,1.323 -9.118,2.968 -13.588,4.68 l -1.509,0.451 -0.453,0.151 0,-0.302 -0.302,-2.868 c -0.845,-10.545 -2.174,-21.017 -3.018,-31.547 l -0.152,-0.452 0,-0.302 -0.151,-1.359 -0.151,-1.206 c -0.014,-2.727 -0.865,-5.413 -0.754,-8.152 l -0.152,-1.811 0,-0.152 -0.151,-0.302 -0.302,-4.378 -0.15,-1.055 -0.303,-2.718 0,-0.151 -0.152,-0.904 -0.301,-3.925 0.152,-2.567 0,-0.301 c 0.011,-1.76 0.097,-4.684 0.301,-6.491 l 0,-3.471 -0.152,-0.604 0.152,-1.057 -0.152,-1.056 0,-0.303 -0.452,-1.207 0,-0.151 -0.906,-0.452 -0.15,-0.151 c -9.652,-5.194 -19.762,-10.191 -29.591,-15.094 l -0.151,-0.151 -4.982,-2.417 -1.812,-0.904 -1.962,-0.905 -1.057,-0.756 -1.812,-0.754 -1.359,-0.605 -0.303,-0.15 -0.15,-0.152 0,-0.3 -0.907,-0.605 -1.056,-0.755 -1.055,-0.453 -1.964,-0.604 -0.603,0 -5.586,-0.754 -3.321,-0.453 -3.624,0 -1.51,-0.15 -3.172,0 -0.452,-0.151 -1.661,0.151 -0.755,0 -0.453,0.15 -0.603,0.303 0.301,0.603 0.755,1.66 0.151,0.152 0,0.15 0.152,0.302 1.206,2.265 -0.301,4.527 -0.754,1.058 -0.604,0.905 -1.058,0.905 -0.302,0.151 -1.811,-0.452 -0.754,0.604 -1.209,0.753 -0.907,1.51 -0.754,1.058 -0.301,0.452 -1.812,2.869 -2.869,1.659 -2.566,0.453 c -1.383,0.328 -0.846,-0.066 -2.415,0.452 l -1.661,0.604 -1.359,1.359 -2.113,0.302 -1.662,2.566 -1.961,2.868 -0.153,3.622 0,2.868 -1.056,3.623 -0.301,0.454 -0.755,1.81 -1.661,3.925 -0.15,0.151 0,0.604 -0.454,2.263 -0.755,3.018 0,0.152 -0.303,0.755 -0.15,0.453 -0.906,1.962 -1.358,4.528 -0.152,0.755 0,0.906 0.303,1.208 0.301,2.113 0.303,0.755 0.301,0.605 -0.451,0 -1.36,0.149 -0.453,0.151 -1.209,0 -0.301,0.152 -0.152,0.151 -0.452,0.603 -0.302,0.15 -0.302,0.151 -0.15,0.151 -0.604,0.301 -0.604,0 -0.151,-0.15 -0.756,-0.302 -2.113,-1.358 -1.51,-1.056 -2.113,-0.604 -0.453,-0.151 -2.416,-0.604 -1.359,-0.303 0.303,0.755 -0.152,0.152 -0.301,0.603 -3.019,3.17 -1.209,1.51 -0.151,0.604 -0.453,0.905 -1.359,3.02 -0.604,1.508 -0.453,2.265 -0.754,2.415 -3.926,4.528 -1.811,2.113 -0.754,2.566 -0.302,0.453 -0.606,0.754 -0.452,1.058 -4.529,12.981 2.112,4.377 0.908,1.66 1.357,2.567 0.152,0.15 -0.453,0.454 -0.454,0.301 -0.602,0.604 -0.302,0 0.15,0.451 -2.567,1.359 -0.15,0 -0.151,1.058 -2.265,1.659 -1.812,1.209 0,0.15 0.151,0.302 -7.397,20.378 -1.812,5.131 -0.15,0.605 -0.152,0.453 -0.303,0.603 -0.301,0.453 -0.151,0.452 c -0.773,1.038 -0.489,1.32 -1.359,2.416 l -0.3,0.605 -0.152,0.451 -0.302,0.453 -0.301,0.604 -0.303,0.302 c -0.705,0.896 -1.605,1.637 -2.265,2.566 l -0.453,0.452 -0.302,0.453 c -1.337,1.159 -1.419,1.733 -2.415,2.718 l -0.604,0.604 -0.453,0.602 -0.604,0.755 -0.452,0.604 c -0.688,1.239 -1.314,2.51 -1.964,3.775 l -0.302,0.604 -0.301,0.752 c -0.665,0.828 -0.282,2.054 -0.604,3.021 l -0.15,0.905 0,0.302 -0.303,0 -3.17,-0.905 -1.208,-0.151 -0.453,0 -2.869,-0.604 -4.227,-0.604 -2.718,-0.453 -3.171,-3.018 1.964,-7.85 -1.662,-0.603 -0.151,-0.152 -4.679,-0.905 c -3.489,-0.802 -6.883,-1.629 -10.418,-2.264 l -1.358,-0.303 -2.115,-0.452 -1.659,-0.301 -1.813,-0.454 -1.055,-0.15 -0.605,-0.151 -0.452,0 -0.756,-0.302 -0.302,0 -2.113,-0.301 -0.302,-0.152 -2.567,-0.604 -0.754,-0.151 c -3.884,-0.598 -8.221,-1.795 -12.079,-2.415 l -1.51,-0.302 -3.019,-0.754 c -1.763,-0.36 -3.289,-0.733 -5.134,-1.058 l -0.452,0 -0.451,-0.151 -0.303,0 -0.152,0.303 -0.301,0 -1.51,0.151 -4.228,0.453 -2.263,0.151 -1.51,0 -0.303,0.151 -0.905,0 -0.301,-0.151 -0.303,0 -1.662,-0.453 -1.057,-0.454 -1.207,-0.452 -0.754,-0.453 -0.606,-0.302 -2.866,-1.66 -2.417,-1.51 -1.51,-0.755 -0.151,-0.302 0,-0.301 -0.754,-1.962 -0.605,-1.207 0.151,-0.604 -2.566,2.414 -0.151,0 -1.964,1.812 -0.149,0.15 -0.152,0.151 -1.963,1.661 0,0.151 -1.207,0 -3.17,-0.604 -0.755,-0.151 -1.661,0.151 -0.453,0 -1.359,-1.509 -0.302,-0.302 -0.151,-0.301 0,-0.151 -1.207,-1.813 0,-0.15 0.303,-0.756 -0.907,0.302 -0.151,0 0,-0.302 0.303,-0.602 0,-0.151 -0.152,-0.151 -0.604,-0.303 -0.454,-0.151 -0.604,-0.453 -0.905,0.152 -0.754,0.301 -0.907,-0.453 -1.057,-0.452 -0.453,-0.152 -0.603,0 -1.207,-0.302 -0.455,-0.15 0,0.15 0.153,1.058 -1.209,0.452 -0.754,0.303 -3.172,-1.813 -0.754,-0.905 -0.905,-1.358 c -0.905,-2.052 -1.787,-2.885 -2.266,-5.434 l -0.904,-4.227 -0.303,-1.358 -0.303,-1.811 0,-0.453 -0.149,-2.265 -0.151,-2.868 -0.152,-3.923 0.604,0.15 0.907,-0.15 0.905,-0.303 -0.604,-2.415 0.15,-0.151 -0.301,-1.055 -0.302,-0.907 c -0.126,-0.843 -1.297,-2.607 -1.661,-3.321 l -0.453,-0.906 -0.604,-0.905 -0.604,-1.207 -0.303,-0.303 -0.602,-0.754 -0.454,-0.604 -1.207,-1.208 -0.302,-0.452 -0.152,-0.303 0.152,-0.301 0,-0.453 0.302,-0.453 0.151,-0.302 0.754,-1.961 1.208,-1.51 0,-0.152 0.453,-0.452 -0.453,-0.302 -1.208,-1.358 0,-0.605 -0.15,-0.753 -0.152,0.301 -0.301,0.302 -1.962,0.604 -0.302,0 -0.754,0.151 -1.662,0 -2.265,-0.151 -0.453,-0.151 -0.302,0.151 -2.264,-0.303 -2.113,-0.301 -0.152,-0.151 -0.303,-0.151 -1.509,-0.905 0,-0.303 -0.452,0 -5.134,-3.321 -1.66,-1.207 -2.115,-1.509 -1.81,-1.359 -1.964,-1.508 -1.055,-1.209 -0.153,-0.302 -0.15,-0.151 -0.604,-1.208 -1.207,-2.112 0,-0.754 c -0.395,-6.65 1.322,-11.703 2.114,-18.265 l 0,-0.603 -0.303,-0.152 -2.415,-2.566 -0.303,-0.151 -0.907,-0.755 -1.206,-0.906 -0.756,-0.603 -4.528,-2.264 -0.907,-0.301 0,0.15 -2.113,-0.755 -1.359,-0.452 -2.717,-1.057 -2.265,-1.208 -0.755,-0.302 -2.717,-1.508 -3.322,-0.755 -1.661,-0.453 -1.811,-0.453 -4.529,-1.208 -2.719,-0.754 -3.17,-1.057 -1.51,-0.454 -0.904,-0.452 -0.605,-0.152 -0.604,-0.151 -1.51,-0.301 0,-0.151 c -1.544,-1.074 -2.147,-2.449 -3.623,-3.622 l -0.302,-0.453 -0.604,-0.603 -0.15,0 -0.151,-0.152 c -1.664,-1.914 -3.702,-3.594 -5.284,-5.585 l -2.567,-2.566 0,-1.056 0.151,-2.869 0.151,-0.15 0.453,0.15 0.452,0.303 0.151,0.453 0.604,0.302 0.453,0.151 0.907,0.149 0.301,-0.451 0.453,0 0.755,-1.208 1.812,-0.603 0.604,-0.756 0.755,-0.302 1.508,-0.755 0.907,0 1.057,-0.602 0.604,-0.153 0.151,0 0.151,-0.149 0.301,-0.152 0,-0.15 0.302,-0.151 0.301,-0.303 0.907,-1.207 2.718,-0.603 6.19,-1.51 7.548,-1.812 5.435,-0.905 4.681,-0.755 30.648,-3.471 0.301,-0.152 1.964,-0.603 1.207,-0.303 2.415,-0.754 0.151,-0.152 0.151,0 0.302,-0.15 1.812,-1.056 6.492,-3.623 2.263,-1.359 3.777,-2.113 0.301,-0.15 9.21,-4.983 0.754,-0.301 1.51,-0.905 0.755,-0.151 1.963,-1.509 -0.152,-0.604 -0.453,-0.755 -0.302,-0.453 -0.755,-1.058 -1.509,-3.018 0,-2.414 0.301,-2.717 0.907,-0.452 1.66,-2.87 1.208,-1.207 0.453,-0.906 0.302,-0.302 0.301,-0.604 0.152,-0.603 0.907,-0.905 0,-0.152 0.755,0.454 5.585,4.075 0.301,4.225 c 0.353,4.372 6.373,6.253 8.91,8.605 l 1.508,1.057 9.209,0.302 6.794,0 0,0.302 1.661,0 2.113,-0.152 1.36,0 1.66,-0.301 1.812,-0.151 2.113,-0.303 2.416,-0.452 0.301,0 0.906,-0.152 0.302,-0.15 4.077,-0.454 0.754,0 6.793,-0.755 c 2.216,-0.153 3.698,-0.854 5.738,-0.754 l 0.906,0.302 2.416,0.452 1.811,0.303 0.755,0.15 0.302,0 0.302,0.152 0.453,-0.152 0.152,0 1.057,-0.15 0.15,0 0.603,-0.453 0.907,-0.302 0.755,-0.302 1.207,-0.905 3.171,-2.114 0.604,-0.451 0.453,-0.454 0.603,-0.604 0.151,-0.15 0.302,-0.454 0.302,-0.151 0.453,-0.302 0.755,-0.302 0.605,-0.302 0.15,-0.755 14.796,-8.601 24.306,-9.21 -0.151,-0.302 0.454,-0.151 c 1.524,-0.378 3.24,-0.376 4.679,-0.904 l 0.453,-0.303 0,-0.755 0.303,0 0,0.604 0.301,0.303 3.321,0 1.058,-0.152 1.358,-0.151 1.058,-0.301 1.207,-0.303 0.755,0 0.904,-0.15 0.606,0 0.452,-0.151 0.454,-0.302 1.057,-0.603 0.603,-0.302 0.302,-0.303 0.452,-0.151 0.152,-0.452 0,-0.151 0.15,-0.755 1.662,-0.453 0.604,-0.755 0.602,-0.604 0.604,-1.509 0.755,-1.057 0.757,-0.754 0.15,-0.15 0.303,-0.454 0.452,-0.302 0.603,-0.151 0.302,-0.302 0.302,0 0.151,-0.301 0.453,-0.151 0.603,0.303 0.152,-0.152 0.151,-0.755 0,-6.038 0.301,0 0.303,-14.943 4.778,-23.904 0.021,-0.061 c 0.478,0.41 0.006,-0.015 0.006,-0.015 l 14.269,-41.222 0.084,0.124 c 9.596,-3.145 19.112,-6.481 28.701,-9.64 l 0.754,-0.152 -0.302,-1.055 -0.452,-2.114 -0.151,-0.604 -0.302,-1.054 -0.152,-0.607 -0.15,-1.054 3.471,-1.21 0.303,0 1.057,-0.3 1.661,-0.605 1.057,-0.301 -0.303,-2.415 0,-0.455 0.152,0.152 c 3.343,0.921 9.061,2.478 12.832,1.811 l 0.604,0 0.302,-0.452 2.868,-1.811 1.209,-0.755 0.453,-0.452 0.302,-0.606 0.905,-4.074 0.604,-1.058 0.453,-0.904 0.603,-0.904 0.303,-0.304 0.756,-0.452 1.508,-1.66 0.906,-1.057 0.604,-0.755 0.907,-0.756 1.66,-1.509 1.811,-1.357 3.321,3.018 1.058,0.454 0.906,0.602 c 2.062,1.827 4.397,4.13 4.377,7.094 l 0.303,0.755 0.452,1.811 0.907,1.51 0.301,0.301 0.756,0.907 1.056,1.057 1.359,1.51 1.208,1.055 1.509,0.605 1.208,0.756 1.509,0.6 1.662,0.756 0.453,0 0.905,0.755 0.604,0.452 0.755,0.906 0,0.151 0.603,0.604 1.057,0.755 1.058,0.453 1.056,0.303 0.454,0 0.452,0.303 0.454,0.149 0.453,0.301 c 0.998,1.022 1.764,1.892 1.962,3.321 l -0.152,1.057 0,1.058 -0.905,1.961 c -0.237,2.324 -0.059,1.938 0,4.227 l -3.019,18.716 7.849,3.773 6.341,3.019 3.775,4.53 0.604,1.66 0,0.149 0.755,2.568 1.661,1.357 1.358,0.151 0.906,-0.301 0.906,-0.604 1.058,-1.66 1.962,-0.301 0.302,-0.152 1.358,-0.604 1.962,-1.056 1.662,3.925 2.869,1.054 2.112,3.02 8.001,6.643 1.208,0.903 -1.057,9.662 3.471,1.963 2.416,3.623 4.077,6.038 0.151,0 9.208,4.98 1.963,2.566 0,2.718 -5.285,5.433 -0.603,0.604 -0.302,0.604 -0.755,2.265 -0.301,1.207 -0.151,0.453 0,0.904 0.3,1.51 -0.3,0.755 -1.51,1.208 -1.511,1.359 -1.358,1.056 -2.264,1.509 -1.66,2.265 -1.511,2.264 -0.604,0.905 -0.452,0.604 -4.076,5.887 -1.358,1.811 -1.359,1.962 0,0.151 0.453,1.208 0.754,1.359 0.907,1.508 c 1.721,2.393 2.482,4.56 3.321,7.246 l 0,0.604 0.302,1.963 0,0.904 0.15,0.152 0,0.302 0.152,0.905 0,0.152 0.151,0.904 0.15,0.303 0,0.452 0.151,0.453 c -0.108,0.887 0.404,1.35 0.302,2.416 l 0,0.453 c 0.06,1.464 -0.069,2.421 -0.151,3.773 l -0.151,0.303 -1.508,1.358 -1.963,1.811 1.66,5.735 0.303,5.586 -1.36,6.037 2.567,5.435 3.924,3.471 -0.151,3.623 4.679,5.735 2.115,4.831 0,0.755 0.151,1.056 -0.302,0 -0.302,0.15 -0.605,0 0,0.15 0.755,-0.15 0.454,0 0.151,0.302 0.15,0.907 0.152,0.15 0,1.51 0.151,0.452 0,2.265 0.302,4.528 0,0.303 0.754,0 c 1.433,0.398 2.986,0.639 4.378,1.055 l 0.301,0.152 0.303,-0.152 0.906,0.302 0.453,0.151 c 3.066,0.531 6.175,1.434 9.215,2.114 l 0.453,0.451 0.604,0.453 2.114,1.813 0.754,0.755 0.151,0.3 0.303,0.454 1.963,2.113 0.303,0.453 0.148,0.15 c 7.116,8.424 13.896,17.039 21.135,25.359 l 1.811,2.264 0,0.151 0.303,0.15 2.264,2.717 2.717,3.474 c 1.998,1.674 3.444,4.556 5.283,6.187 l 1.208,1.66 0.151,0.151 c 1.326,1.218 2.118,2.89 3.472,4.076 l 0.303,0.453 0.603,0.452 1.36,1.36 c 3.662,3.741 7.16,7.654 10.566,11.623 l 1.66,1.962 0.152,0.15 L 0,0 Z"
         style="fill:#e6f29b;fill-opacity:1;fill-rule:nonzero;stroke:none"
         id="path4223"
         inkscape:connector-curvature="0" /></g><path
       style="fill:#fde294;fill-opacity:1;fill-rule:nonzero;stroke:none"
       d="M 216.64844 441.19336 L 216.64844 441.57031 L 216.64648 441.57031 L 216.64648 441.57227 L 208.1543 441.57227 L 202.49609 441.75586 L 196.64453 441.94922 L 195.19336 442.9668 L 194.75977 443.26953 L 194.75781 443.27148 C 194.56015 443.45462 194.34586 443.63499 194.11719 443.81445 C 194.11644 443.81504 194.11598 443.81582 194.11523 443.81641 C 193.88642 443.99591 193.64296 444.17393 193.38867 444.35156 C 193.3879 444.3521 193.38749 444.35298 193.38672 444.35352 C 192.87717 444.70935 192.3225 445.06274 191.74414 445.42188 C 191.74334 445.42237 191.74299 445.42333 191.74219 445.42383 C 191.16371 445.78301 190.56173 446.14653 189.95898 446.52344 C 189.95821 446.52392 189.9578 446.52491 189.95703 446.52539 C 189.75052 446.65454 189.5496 446.79537 189.34375 446.92773 C 188.94815 447.18209 188.54953 447.43182 188.16602 447.70117 C 187.87486 447.90569 187.58828 448.11678 187.31055 448.33203 C 186.89691 448.65259 186.50915 448.99051 186.14062 449.33984 C 186.01356 449.4603 185.88195 449.57878 185.76172 449.70312 C 185.65232 449.81631 185.55627 449.93613 185.45312 450.05273 C 184.45143 451.18518 183.74803 452.47746 183.62305 454.02539 L 183.24609 459.30664 L 183.24414 459.30859 L 181.35742 460.68555 L 176.26367 464.40039 L 175.32031 464.96875 L 175.31836 464.96875 L 175.69531 465.72461 L 175.88477 465.91016 L 175.88477 466.28906 L 176.45117 466.66602 L 177.01562 467.60938 L 177.58203 468.36523 L 178.14844 468.92969 L 178.14844 469.49609 L 177.77148 469.49609 L 177.95898 470.25195 L 178.14844 471.75977 L 179.0918 472.70312 L 179.46875 473.64844 L 179.46875 473.83594 L 179.6582 474.02344 L 180.22461 474.96875 L 180.22461 475.15625 L 181.35742 477.98828 L 181.73438 478.55273 L 181.92188 481.00586 L 182.11328 481.75977 L 182.11328 484.21289 L 182.67773 484.96875 L 182.67773 486.10156 C 182.81648 487.83031 182.35688 487.86234 181.92188 489.68359 L 181.73438 490.06445 L 181.73438 490.25195 L 181.54297 490.25195 L 181.16797 491.00586 L 181.54297 491.94727 L 181.16797 493.64844 L 180.78906 494.96875 L 180.78906 495.3457 L 180.98047 495.53516 L 180.98047 496.85352 L 180.78906 497.41992 L 180.78906 497.98633 L 180.98047 498.17578 L 180.60156 498.17578 L 180.60156 497.98633 L 180.41406 498.74219 L 180.03516 499.87305 L 179.8457 500.81641 L 179.6582 501.94922 L 179.28125 503.64844 L 179.6582 504.4043 L 179.8457 504.21289 L 179.8457 504.58984 L 180.03516 504.96875 L 179.6582 504.96875 L 179.6582 504.7793 L 178.14844 507.60938 L 178.71289 508.74219 L 178.9043 508.74219 L 179.0918 509.30664 L 179.0918 509.49609 L 178.9043 509.875 L 178.71289 510.62891 L 178.33789 511.76172 L 176.45117 512.13867 L 175.69531 512.32617 L 175.12891 513.27148 L 175.31836 513.27148 L 174.94141 513.45898 L 173.80664 514.21289 C 172.62914 515.14039 171.41766 514.965 170.03516 514.96875 L 169.2793 514.7793 L 168.90039 514.7793 L 168.52344 514.58984 L 167.58008 514.58984 L 167.20312 514.7793 L 166.63867 514.96875 L 165.31641 514.96875 L 164.93945 515.1543 L 164.75 515.3457 L 164.37109 515.3457 L 163.99609 515.53516 L 163.24023 515.1543 L 162.67188 515.1543 L 161.54297 515.72266 L 160.78516 516.09961 L 160.41016 516.28906 L 159.8418 516.28906 L 159.8418 516.09961 L 159.4668 515.53516 L 159.4668 515.3457 L 159.27539 515.53516 L 158.89648 515.53516 L 159.08789 515.72266 L 159.27539 515.91016 L 159.4668 516.28906 L 159.4668 516.85352 L 159.08789 517.41992 L 158.89648 518.17578 L 158.70898 518.74219 L 158.70898 519.49609 L 158.52148 519.875 L 157.76953 521.00781 C 157.10828 521.51531 156.87977 523.57914 156.63477 524.40039 L 156.63477 524.5918 L 156.44727 524.9668 L 156.25781 525.15625 L 156.25781 525.72266 C 155.87781 526.65266 156.12695 527.63773 155.31445 528.36523 L 154.74805 528.74219 L 154.56055 529.30859 L 154.37109 529.49805 L 154.37109 530.4375 L 153.99219 531.19531 L 152.86328 531.94727 L 152.29492 532.32617 L 151.91797 532.89062 L 151.72852 532.89062 L 150.5957 534.40234 L 150.0293 535.53516 L 149.65234 536.28906 L 149.27344 537.61133 L 149.27344 538.92969 L 148.51953 541.57422 L 148.14453 543.83594 L 147.95508 544.78125 L 147.57812 546.47852 L 147.57812 547.79883 C 147.17437 550.51133 148.67203 553.01836 148.51953 555.72461 L 148.70703 556.47656 L 148.51953 560.25391 L 148.33203 560.25391 L 148.14453 560.81641 L 148.51953 561.38281 L 148.33203 562.14062 L 148.33203 562.89258 L 147.00977 566.10156 L 146.25391 567.98828 L 146.06641 569.49609 L 145.68945 571.00781 L 145.50195 571.19531 L 145.31055 573.08398 L 145.12305 573.26758 L 146.06641 573.26758 L 145.68945 574.96875 L 145.68945 575.91016 L 146.25391 576.85352 L 146.82227 577.61328 L 149.65234 579.68555 L 150.4082 581.38281 L 149.65234 585.15625 L 149.46289 585.53516 L 149.46289 586.47852 L 149.08594 588.74219 L 149.27344 590.44141 L 150.2168 592.89453 L 151.91797 595.72461 L 152.86328 600.06445 L 152.48438 609.6875 L 152.10547 609.875 L 152.10547 610.0625 L 151.72852 610.44141 L 144.93555 616.85352 L 147.95508 622.13672 L 147.38672 632.32617 L 144.93555 643.08008 L 144.36914 653.27148 L 144.17969 659.11914 L 143.80273 662.70703 L 143.61328 664.9668 L 143.80273 670.43945 L 150.43164 677.54492 L 157.7207 697.66211 L 178.12891 711.07227 L 178.12891 737.60742 L 171.42578 751.01562 L 176.96289 782.21289 L 187.75195 793.00195 L 196.78906 793.58594 L 198.83203 796.79102 L 199.70508 801.75 L 206.70312 804.37305 L 221.28125 840.82031 L 221.58203 841.35156 L 243.25195 826.78516 L 279.05469 808.08984 L 282.4082 808.97266 L 290.69531 821.8457 L 316.43164 819.91797 L 316.10156 819.49805 L 314.4043 818.17578 L 311.00586 815.1582 L 342.71094 773.45898 L 344.4082 771.38281 L 365.35547 740.62891 L 361.77148 741.00781 L 359.69336 741.00781 L 357.05273 740.62891 L 355.35547 740.25195 L 353.2793 739.49609 L 351.58203 738.36719 L 350.63672 737.04492 L 350.07031 733.08008 L 351.39062 727.60938 L 352.90039 723.45898 L 354.78711 719.12109 L 356.48633 716.09961 L 359.88281 712.70508 L 363.2793 708.74023 L 368.56445 701.57227 L 372.7168 697.79688 L 378.94336 693.83594 L 380.45312 693.45898 L 381.01953 693.27148 L 387.625 692.51758 L 390.26562 691.75977 L 392.1543 690.62891 L 393.85156 688.74414 L 396.68359 682.89062 L 399.89062 680.4375 L 403.47656 680.4375 L 411.02539 681.00781 L 415.17773 683.64844 L 418.57422 688.36523 L 418.95117 688.92969 C 418.83992 690.75344 419.21688 689.81281 419.14062 691.00781 L 419.14062 691.38281 L 418.95117 691.75977 L 418.95117 692.32617 L 418.76172 692.89258 L 418.76172 693.27148 L 418.57422 693.64648 L 418.38672 694.21484 L 418.00781 694.78125 L 430.83984 687.04492 L 433.66992 684.39844 L 435.18359 683.27148 L 437.25781 681.57227 L 437.44531 681.38281 L 438.19922 680.63086 L 442.73047 677.04492 L 442.91797 676.85352 L 443.29492 676.66602 L 443.48438 676.29102 L 445.9375 674.21289 L 447.82422 672.32812 L 448.76953 671.76367 L 451.78906 669.875 L 452.54102 669.49609 L 454.24023 668.55273 C 456.66523 667.64898 458.89391 666.37555 461.03516 664.9668 L 461.22656 664.78125 L 462.16602 664.21484 L 463.48828 665.34375 L 465.94336 662.89258 L 466.32031 658.74219 C 466.67281 656.61719 467.33023 654.46133 468.58398 652.70508 L 471.22656 648.92969 L 468.96289 647.23438 L 466.88867 645.34766 L 466.88672 645.3457 L 465.75391 644.40234 L 465.75195 644.40234 L 464.99805 643.45898 L 463.86523 642.13867 L 461.97852 640.0625 L 461.03711 639.49805 L 461.03516 639.49805 L 460.6582 639.11914 L 460.6582 639.11719 L 459.9043 637.98828 L 459.9043 637.98633 L 459.33789 636.85742 L 459.33789 636.85547 L 459.0625 636.37695 L 458.58203 635.53516 L 458.49023 635.11328 L 457.48242 630.57422 L 457.44922 630.44141 L 457.07227 629.68555 L 456.50586 629.12109 L 454.99609 628.17773 L 451.41211 625.91211 L 451.41016 625.91211 L 451.0332 625.34766 L 450.2793 625.34766 C 449.98409 625.29544 449.68016 625.25394 449.36719 625.22266 C 449.05545 625.19146 448.73493 625.17036 448.4082 625.1582 C 448.40756 625.15818 448.40689 625.15823 448.40625 625.1582 C 447.75141 625.13391 447.07029 625.14585 446.37109 625.1875 C 444.97342 625.27077 443.50716 625.47137 442.05859 625.73438 C 439.15949 626.26079 436.32749 627.0362 434.23828 627.61133 L 434.05078 627.80078 L 434.05078 627.79688 L 434.04883 627.79883 L 434.04883 627.23242 L 434.38477 624.54883 L 434.42773 624.21484 L 433.65625 623.99414 L 433.10742 623.83789 L 433.10547 623.83594 L 432.44531 623.5957 L 431.0293 623.08203 L 429.70898 622.70508 L 429.33203 622.70508 L 429.33008 622.70508 L 424.99023 621.19531 C 425.02037 620.84069 425.07771 620.49005 425.14258 620.14258 L 425.17969 619.87695 L 425.27148 619.50781 C 425.27831 619.47846 425.28599 619.44924 425.29297 619.41992 L 425.36914 619.11719 L 425.4668 618.77734 C 425.61664 618.22098 425.76311 617.66298 425.91992 617.10742 L 425.93555 617.04492 L 426.49609 614.42969 C 426.49706 614.42049 426.49906 614.41155 426.5 614.40234 L 426.87695 613.08398 L 425.93555 612.89258 C 424.0783 612.28073 422.22663 611.65787 420.37305 611.03711 L 420.27148 611.00781 L 417.25195 610.0625 L 414.42188 609.11719 L 413.09375 608.58789 C 412.50451 608.3882 411.91532 608.18819 411.32617 607.98828 L 411.02539 607.98828 L 405.74023 606.10156 L 402.91016 605.15625 L 402.71484 605.07227 C 399.80247 604.08693 396.88582 603.11215 393.9668 602.14258 L 392.7207 601.75977 L 391.39648 601.28711 C 390.95074 601.1403 390.50655 600.98992 390.06055 600.84375 L 390.04492 600.86719 L 389.95508 600.99805 L 389.95312 601 L 376.66797 562.61133 L 372.11914 549.4707 L 372.11328 549.45117 C 372.11053 549.45353 372.11413 549.45072 372.11133 549.45312 L 372.08398 549.37695 L 366.11328 519.49609 L 366.11133 519.49609 L 365.73242 500.81641 L 365.35742 500.81641 L 365.35547 500.81641 L 365.35547 493.27148 L 365.16797 492.32617 L 364.97852 492.13672 L 364.97656 492.13672 L 364.22461 492.51562 L 363.6582 492.32617 L 363.4707 491.94922 L 363.46875 491.94922 L 363.0918 491.94922 L 363.0918 491.94727 L 362.90234 491.75977 L 362.71484 491.57227 L 362.71289 491.57227 L 361.96094 491.38281 L 361.95898 491.38281 L 361.39648 491.00586 L 361.39453 491.00586 L 361.01758 490.43945 L 361.01562 490.4375 L 360.83008 490.25195 L 360.82812 490.25195 L 359.88281 489.30859 L 358.93945 487.98828 L 358.93945 487.98633 L 358.18359 486.10156 L 357.42773 485.34766 L 356.67578 484.40234 L 354.59961 483.83594 L 354.59766 483.83594 L 354.41016 482.89258 L 354.41016 482.70312 L 354.2207 482.13867 L 353.93359 482.04102 L 353.6582 481.94922 L 353.6543 481.94727 L 353.2793 481.57031 L 352.52539 481.19336 L 351.20508 480.43945 L 351.20312 480.43945 L 350.63672 480.0625 L 350.07031 479.875 L 349.31445 479.875 L 348.18555 479.68555 L 347.24023 479.68555 L 345.73047 479.30859 L 344.88281 479.06445 L 344.41016 478.93164 L 342.90039 478.76367 L 342.71289 478.74219 L 342.71094 478.74219 L 341.39062 478.55273 L 337.23828 478.55273 L 336.86328 478.93164 L 336.86328 479.68555 L 336.86133 479.68555 L 336.48438 479.68555 L 336.48242 479.68555 L 336.48242 478.74219 L 335.91602 478.36523 C 335.69175 478.28279 335.46241 478.20855 335.22852 478.14453 C 335.22791 478.14437 335.22717 478.1447 335.22656 478.14453 C 334.99204 478.08039 334.75363 478.02468 334.51172 477.97461 C 334.02729 477.87452 333.53151 477.79906 333.03125 477.72852 C 332.5322 477.65806 332.02985 477.59204 331.5332 477.51562 C 331.53256 477.51553 331.53189 477.51572 331.53125 477.51562 C 331.43576 477.50093 331.345 477.47664 331.25 477.46094 C 330.85113 477.39496 330.45252 477.32966 330.06836 477.23438 L 330.06641 477.23242 L 329.50195 477.04492 L 329.5 477.04492 L 329.68945 476.66797 L 299.30664 465.1543 L 280.8125 454.4043 L 280.81055 454.40234 L 280.62305 453.45898 L 279.86523 453.08203 L 278.92578 452.70508 L 278.92383 452.70508 L 278.35938 452.32812 L 278.35742 452.32812 L 277.98047 452.13867 L 277.60156 451.57227 L 277.41406 451.38281 L 276.66016 450.62891 L 276.6582 450.62891 L 276.0918 450.0625 L 275.4082 449.54883 L 275.33984 449.49805 L 275.33789 449.49609 L 271.37695 446.85547 L 271.375 446.85547 L 269.86523 445.72461 L 268.92383 445.3457 L 268.92188 445.3457 L 267.78906 444.96875 L 267.03516 444.40234 L 266.84766 444.40234 L 265.52734 444.21484 L 265.33789 444.21484 L 265.33594 444.21289 L 264.77148 444.02539 L 264.39453 444.21484 L 264.01562 444.21484 L 263.07227 444.40234 L 260.80859 444.78125 L 260.80664 444.78125 L 257.78516 445.3457 L 257.2207 445.53516 L 256.65625 445.72266 L 256.6543 445.72461 L 256.19141 445.72461 C 256.15762 445.72469 256.12341 445.72486 256.08984 445.72461 C 255.96157 445.72367 255.82849 445.73008 255.70312 445.72461 L 255.14453 445.72461 L 254.01172 445.53516 L 253.65625 445.45508 C 253.00239 445.3324 252.33837 445.20334 251.64648 445.07422 L 250.80469 444.96875 L 249.48438 444.78125 L 249.48242 444.78125 L 240.99219 443.83789 L 240.99023 443.83789 L 240.05078 443.83789 L 240.04883 443.83789 L 234.95312 443.27148 L 234.57422 443.08398 L 233.44336 442.89258 L 233.44141 442.89258 L 233.06641 442.89258 L 233.06445 442.89258 C 231.04127 442.48997 229.0059 442.17488 226.96484 441.91211 L 225.14062 441.75977 L 224.33594 441.61328 C 223.48824 441.52807 222.64056 441.4459 221.79102 441.38281 L 221.36523 441.38281 L 218.73633 441.19336 C 218.73243 441.19319 218.7285 441.19353 218.72461 441.19336 L 218.72266 441.19336 L 216.64844 441.19336 z "
       id="path4219"
       transform="matrix(0.8,0,0,-0.8,0,841.89)" /><g
       id="g4225"
       transform="translate(552.5605,299.6504)"><path
         d="m 0,0 -2.113,-0.148 -1.66,-0.155 c -1.562,-0.075 -3.114,-0.218 -4.681,-0.148 l -2.264,-0.153 -1.662,-0.151 -0.302,0 -1.81,-0.149 -1.359,0 -1.057,-0.154 -0.152,0 -2.262,0.755 -1.661,0.454 -2.266,0.605 -1.659,0.603 -0.452,0 -2.116,0.754 -2.112,0.303 -1.963,0.302 -0.151,0 -1.962,0.303 -1.812,0.3 -0.151,0 -1.963,0.303 -2.113,0.45 -0.451,0.155 -1.057,0.148 -0.454,0 -1.812,1.059 -1.66,1.054 -0.302,0.303 -0.302,0.453 -0.152,0.452 -0.603,0.452 0.302,0.155 -0.151,1.658 -0.603,-0.303 -0.603,-0.149 -0.152,-0.152 -0.906,-0.299 -0.302,0.451 -0.603,-0.451 -0.454,-0.455 -0.302,-0.152 -0.302,-0.148 -0.451,-0.455 -1.209,-0.907 -3.17,-1.962 -0.453,-0.3 -0.755,-0.755 -1.359,-1.057 -0.756,-0.756 -0.451,-0.302 -3.321,-2.869 -1.208,-1.052 -1.813,-2.118 -1.961,-1.96 -0.151,-0.151 -0.151,-0.15 -3.17,-4.076 0.604,-0.603 0.151,-0.151 0,-0.152 1.057,-1.057 0.149,-0.302 0.302,-0.303 0.605,-0.451 0.302,-0.453 0.453,-0.605 1.055,-1.056 0.455,-0.152 0.3,-0.15 0.152,0 0,0.15 0.604,0.152 0.452,-0.152 0,-0.15 -0.15,-0.302 -0.151,-0.301 0,-0.301 -0.151,-0.302 -0.151,-0.151 -0.151,-0.301 0,-0.454 -0.151,0 0,-0.302 c -0.353,-0.602 -0.251,-0.759 -0.603,-1.36 l 0,-0.301 -0.455,0.151 -0.452,0 -0.149,0.15 -0.302,0 -0.303,0.153 -0.604,0.149 -1.056,0 -0.303,-1.057 -0.452,0.152 -0.604,0.302 -4.838,4.528 -3.775,-6.189 -6.943,-10.565 -3.624,-5.887 -3.322,-5.131 -5.131,-8.151 -5.135,-8.001 -2.413,-3.772 -4.68,-7.245 -0.302,-0.453 -6.945,-10.718 -4.076,-6.49 0.302,-0.453 -0.452,-0.907 -0.303,-0.755 -0.756,-2.262 -0.452,-0.755 0.152,0 0.149,-0.153 0.454,-0.151 0.151,-1.056 0.15,-1.509 -0.301,0 0,-0.604 0.301,0 0,-0.904 c 0.162,-2.834 -2.004,-3.952 -3.321,-6.643 l -0.453,-0.603 1.057,-0.755 1.058,-0.452 2.264,-1.661 3.472,-3.322 0.151,-0.301 -2.414,-1.359 -0.604,-0.303 -0.454,-0.302 -0.604,-0.301 -0.152,-0.152 0.152,0 0,-0.15 0.604,-0.451 0.756,-0.606 0.905,-0.754 0.452,-1.81 4.379,-0.755 1.207,-0.302 1.359,-0.15 1.057,-0.606 0.453,-0.302 2.567,0.455 0.15,0.15 0.603,0 1.511,0.453 0.151,0 2.715,0.604 0.304,0 0.303,0.151 0.149,0 0.151,0.149 0.302,0.153 0.453,0 0,0.149 0.756,0.153 c 1.37,0.586 3.67,1.105 5.283,1.659 l 1.811,0.454 1.509,-3.17 0.907,0.302 0.15,0 0.151,0.151 0.603,-1.358 0.454,-1.057 0.153,-0.151 2.262,-4.984 0.604,-1.054 1.357,-2.868 0.304,-0.454 0.452,-1.207 0.152,-0.152 0.151,-0.301 1.056,-2.263 0.152,-0.151 0,-0.302 0.149,-0.303 0.153,0.303 c 0.397,0.799 0.509,1.681 0.453,2.565 l 0,0.151 0.302,-0.151 0.452,0 0.15,0.151 0.152,0.301 -0.152,0 6.952,0.152 0.145,0 0.309,0.453 0.302,0.151 3.623,-0.756 4.529,0 3.472,0 0,3.321 -1.057,2.87 -0.152,0.602 -0.603,1.66 0.302,0 1.057,0.605 -0.151,0.602 -0.151,0.303 -0.151,0.302 -0.151,0.605 0,0.301 -0.152,0 0,0.151 0.152,0.303 0,-0.303 0.151,-0.151 0.302,-0.906 0.151,-0.605 0.302,-0.451 0.452,-0.303 1.51,-0.755 1.511,-0.905 0.753,-0.301 0.754,-0.454 2.566,-1.357 0,4.98 0.152,6.037 -0.152,1.51 0,2.567 0.152,1.661 -0.302,0 0,0.601 c -0.072,1.969 -0.017,3.951 0.302,5.887 l 0.151,0.906 0.151,0.906 0.152,0.754 0,0.303 12.529,0 0,3.925 0.151,6.34 0,3.623 0,1.962 0.756,0.904 0.452,0.755 c 1.256,1.08 2.848,4.432 3.321,6.19 l 0.302,0.753 0.302,1.51 0.151,0.907 0,1.811 0.151,1.208 -0.151,0.903 0,2.266 0,10.265 0.3,0.301 0,0.452 -0.3,0.153 0,1.207 0.151,3.622 0,4.225 0.301,1.663 0.302,0.149 0,0.151 -1.055,0.455 -1.813,0.905 -1.208,0.452 -1.056,0.15 0,0.301 0.755,0.151 0.603,0.153 0.301,0.452 0.454,0.755 0.454,1.058 -0.303,0 0.603,1.659 0.604,1.36 0,0.15 0.606,0.603 0.904,0.453 0.605,0.301 0.754,0.454 0.755,0.603 0.302,0.151 0.453,0.302 0.151,0.453 0.604,0.754 0.3,0 2.266,5.434 0.906,1.208 0,0.151 0.302,0.454 0.754,2.113 0.453,1.056 0.302,0.754 0.453,0.756 0.453,1.057 0.15,0.149 0.455,0.906 0.602,0.754 0.906,1.209 c 2.016,2.385 3.732,4.016 6.492,5.435 l 0.603,0.302 0.454,0.301 0.602,0.152 0.605,0.302 c 3.047,1.5 7.007,2.551 10.265,3.923 l 0.303,0.153 0.3,0 c 0.382,0.316 1.362,0.681 1.662,1.055 l 0.302,0.152 0.151,0.148 0,0.153 0.301,0.15 0.302,0.304 0,0.148 0.302,0.153 0.151,0.3 0.151,0.154 0.151,0.149 0,0.151 0.151,0.152 0.152,0.301 0.15,0.3 0.151,0.155 L 0,-1.811 c -0.008,0.339 0.334,0.981 0.452,1.36 L 0.452,0 0,0 Z"
         style="fill:#fbca99;fill-opacity:1;fill-rule:nonzero;stroke:none"
         id="path4227"
         inkscape:connector-curvature="0" /></g><path
       style="fill:#ebf4a7;fill-opacity:1;fill-rule:nonzero;stroke:none"
       d="m 534.44727,599.30664 c -1.18625,-0.0213 -5.15477,0.93797 -6.04102,1.32422 l -0.37695,0.1875 0,-0.1875 -2.45118,0.75195 -0.56835,0.18946 -0.375,0.3789 2.63867,4.71289 0,0.18946 0,0.18945 -0.18555,0 0,0.37891 0.37695,0 0.37696,0.1875 1.69922,1.32226 0.56445,0.56641 0,0.1875 0.18945,0 0,0.94336 -0.18945,0.18945 -0.56445,0.94336 -0.19141,0 0,0.37695 0.37891,0.37891 -0.75391,0.7539 -0.18945,0.18946 -0.94336,0.37695 0,0.375 -1.32032,1.69922 -5.47265,-2.83008 -3.77539,-1.69922 -3.01953,-2.83008 -3.01953,-1.32226 0,1.32226 0.18945,1.32422 -0.18945,0.75196 c -0.43751,1.84625 -2.5568,4.25164 -4.5293,4.33789 l -1.32031,0.38086 -1.32422,0.56445 -1.31836,0.94336 -0.75391,0.75391 0,0.1914 -0.94531,1.13086 -0.75391,0.56641 -1.13281,0.94336 -0.56445,0 -2.07618,0.94336 -1.88867,0.75195 -1.50976,0.94531 -1.88672,0.75781 -1.50977,1.31446 -1.69726,1.88867 -1.32032,1.32226 -0.94726,1.13282 -0.375,0.375 -1.13281,1.88867 -0.56446,2.26367 -0.38086,0.94336 0,0.94336 -0.18554,0.94727 c -0.87625,2.04999 -1.89789,4.1482 -3.77539,5.4707 l -1.50977,1.50781 -1.13281,0.75 -1.32227,0.56836 -4.15039,3.77344 -2.64258,3.77343 c -1.25375,1.76001 -1.90992,3.91532 -2.26367,6.03907 l -0.37695,4.15039 -2.45508,2.45312 -1.32226,-1.13086 -0.94336,0.56641 -0.1875,0.18555 -0.75391,0.56836 -1.88672,0.93945 -0.37891,0.37891 -1.13085,0.56445 -2.64454,1.13476 -1.69921,0.94336 -0.75391,0.37891 -3.01758,1.88672 -0.94531,0.5664 -1.88477,1.88477 -2.45507,2.07617 -0.18946,0.375 -0.37695,0.19141 -0.1875,0.1875 -4.53125,3.58789 -0.75391,0.75195 -0.18945,0.1875 -2.07227,1.70117 -1.51562,1.12891 -2.82813,2.64453 -12.83398,7.73438 0.37891,-0.56446 0.18945,-0.5664 0.1875,-0.375 0,-0.38086 0.18945,-0.56446 0,-0.56835 0.1875,-0.37696 0,-0.37695 c 0.0788,-1.195 -0.2975,-0.25367 -0.1875,-2.07617 l -0.37695,-0.56446 -3.39649,-4.71679 -4.15234,-2.64258 -7.54687,-0.56836 -3.5879,0 -3.20703,2.45312 -2.83007,5.85352 -1.69922,1.88281 -1.88868,1.13282 -2.64062,0.75585 -6.60547,0.75782 -0.56641,0.1875 -1.50781,0.37695 -6.22851,3.96289 -4.15235,3.77149 -5.28515,7.16992 -3.39649,3.96289 -3.39843,3.39453 -1.69727,3.01953 -1.88672,4.33984 -1.50977,4.14844 -1.31835,5.4707 0.56445,3.96485 0.94336,1.32422 1.69922,1.13086 2.07617,0.7539 1.69531,0.375 2.64258,0.37891 2.07617,0 3.58594,-0.37891 -20.94727,30.75586 -1.69726,2.07617 -31.70508,41.69922 3.39844,3.01758 1.69726,1.32227 0.33008,0.41992 -25.73828,1.92773 -8.28711,-12.87304 -3.35156,-0.88282 -35.80274,18.69532 -43.03125,28.92382 -12.52148,28.2168 -9.875,28.57031 81.83203,59.08008 83.43164,-120.38281 21.13672,-1.32031 14.5293,10.3789 0.1914,0.1875 14.3418,10.1875 0.18945,0 0.75391,0.56836 0,-0.37695 0.94141,-2.45508 0.94335,-3.39648 1.13282,-3.58399 0.3789,-1.32226 0.37696,-2.63867 0.56836,0.9414 0.375,1.13281 0.5664,1.13086 0.37695,1.32227 0.75586,1.88867 1.13282,2.63867 3.39648,-0.56445 1.32227,-0.18945 7.35742,-0.56641 0.75586,0 4.33984,-0.375 2.45313,-0.18945 0.3789,-0.37891 2.64258,-3.58594 3.01953,-4.33789 2.82813,-3.58594 2.45312,-3.39257 0.56641,-0.75586 0.375,-0.75586 0.38086,-0.37695 -0.18945,-0.18946 -2.83008,-1.88672 -2.07618,-1.50781 -0.7539,-0.37695 -0.56836,-0.37891 -1.69531,-1.32031 -1.70117,-1.32227 -0.94336,-0.75586 -0.75391,-0.37304 -0.56445,-0.37891 0,-0.18945 -0.94532,-0.75391 -0.5664,-0.3789 -0.94141,-0.56641 -0.19141,-0.1875 -0.37695,-0.18945 -1.69726,-0.94532 -1.88672,-1.50781 -0.75586,-0.94336 -0.18945,-0.18945 -0.37696,-0.18555 -0.56445,-0.56836 0,-0.1875 -0.56836,-0.37695 -0.37695,-0.18945 -0.1875,-0.37696 -0.37891,-0.18945 -0.1875,-0.37695 -0.75586,-0.75391 -0.37695,-0.56641 -0.94336,-0.94531 -0.94531,-1.13281 -0.94141,-0.94336 -1.13477,-0.94141 -0.7539,-0.5664 -0.56641,-0.37891 0.37891,-0.75195 9.24609,-12.26758 4.15039,0.75586 2.64453,0.1914 c 4.1825,-18.65 17.47993,-57.38406 46.26368,-77.57031 11.89125,-9.68125 25.6221,-18.2725 38.50585,-23.3125 l 0.0195,-0.008 0.002,0 c 3.5675,-1.39625 7.06781,-2.52156 10.44531,-3.32031 26.265,-6.2125 55.34789,-2.53297 71.86914,1.30078 l 2.92383,-4.44727 4.7168,-7.73828 -3.39453,-3.39453 0.18554,-0.56445 c 0.5025,-1.96375 0.97172,-5.24438 1.51172,-7.17188 l 0,-0.18945 5.10352,-0.18945 3.58398,0 -2.63867,3.96093 0.75391,0.75586 3.20703,-4.52734 0.5664,-0.37695 2.83008,-3.01954 2.26367,-2.45312 1.50977,-1.50781 4.15234,-3.58789 1.13282,-0.75391 0.9414,-0.94336 1.13477,-0.94141 1.69726,-1.32226 1.69922,-1.13086 -1.32226,0.1875 -0.94336,-0.56641 -0.56641,0 -0.37695,-0.1875 -1.50977,-0.18945 -2.83008,0 -0.1875,-0.37695 0,-0.56641 -0.1914,0 -0.1875,-1.13281 -0.56836,-2.26172 -0.1875,-0.38086 0.5664,-0.18555 0.75586,0 0.75586,-0.18945 0.37696,0 0.5664,-0.1875 1.13086,0 0.1875,-0.18945 1.32227,0 0.37695,-0.19141 0.75586,0 0.18945,-0.18555 0,-0.5664 -3.58593,-1.13281 -3.7754,-2.07813 -3.01953,-2.64258 -0.1875,-0.18359 -2.45507,2.64258 -9.43555,6.22461 -0.18555,0.18945 -2.46289,1.12891 -1.13477,0.18945 -3.01757,-0.37695 -2.07617,-0.94141 -1.31836,-1.50977 -5.09571,-5.0957 -3.96484,-5.0957 -3.96289,-5.66016 -1.69727,-3.20703 -3.20703,-0.94141 -10.5664,-6.60546 -1.32422,-2.07422 -0.18555,-3.02149 -3.20899,-4.71289 -3.01953,-3.02148 2.07618,-2.26368 0.56445,-0.5664 -0.375,-0.56445 -0.37695,-0.19141 -1.13282,-0.94141 -0.94336,-0.18945 -1.32031,-0.37891 -0.3789,0 -1.13282,-0.18554 -0.5664,-0.1875 -0.37696,-0.37891 0.37696,-1.88672 0.5664,-0.7539 3.58594,0.93945 0.18945,0 2.45313,-0.375 0.7539,0 1.32227,-0.18945 0.37695,0 0,-0.56641 -0.37695,-3.01758 1.69727,-0.1875 0.5664,0 0.94336,-0.19141 -0.18945,-0.56445 0,-0.56445 -0.37695,-1.51367 0,-0.94141 -0.94336,0 -0.56836,0.18945 -0.375,0 -1.51172,0.18946 0,-0.37891 c 0.0425,-0.39375 -0.285,-2.04383 -0.375,-2.45508 l -0.56836,-3.58203 -0.375,-0.18945 c -1.59125,-0.185 -2.8993,-1.40781 -4.5293,-1.32031 l -0.37695,0.1875 -0.18945,-0.1875 -0.37696,0.3789 0,0.18555 0.18555,0.94531 0.19141,0.75586 0.18945,1.69531 0,1.50977 -0.38086,1.32422 0,0.56445 -0.18555,0.75391 -0.18945,0.94336 0,1.69921 c -0.015,2.2225 -0.0594,3.33899 -2.45313,3.58399 l -0.5664,0 -1.88672,-1.32227 -0.94336,0.37696 -0.1875,0.18945 -0.56641,-0.18945 -5.09765,-2.07227 -2.83008,-1.13281 0,-0.56641 0.1875,-1.13476 0,-0.1836 0.18945,-0.94531 0,-2.26758 -0.18945,-1.13086 -0.375,-2.07226 -0.18945,-1.13282 0.18945,-1.32226 0.1875,-1.50977 z m 14.39843,21.68555 0.13086,0.0137 0.13282,0.0527 z m 1.45899,0.58398 1.3789,0.68945 c -0.51625,-0.18124 -0.9214,-0.43695 -1.3789,-0.68945 z"
       id="path4231"
       transform="matrix(0.8,0,0,-0.8,0,841.89)"
       inkscape:connector-curvature="0"
       sodipodi:nodetypes="cccccccccccccccccccccccccccccccccccccccccccccccccccccccccccccccccccccccccccccccccccccccccccccccccccccccccccccccccccccccccccccccccccccccccccccccccccccccccccccccccccccccccccccccccccccccccccccccccccccccccccccccccccccccccccccccccccccccccccccccccccccccccccccccccccccccccccccccccccccccccccccccccccccccccccccccccccccccccccccccccccccccccccccccccccccccccccccccccccccccccccccccc" /><path
       inkscape:connector-curvature="0"
       id="path4235"
       style="fill:#dbbbb0;fill-opacity:1;fill-rule:nonzero;stroke:none"
       d="m 419.4046,194.595 z m -5.789,80.801 c -2.702,-0.639 -5.503,-1.539 -8.357,-2.656 l -10e-4,0 -0.016,-0.007 10e-4,0 c -10.307,-4.032 -21.292,-10.904 -30.805,-18.649 -23.027,-16.149 -33.665,-47.136 -37.011,-62.056 l 2.264,-0.452 2.415,-0.303 0.454,-0.151 1.963,-0.906 2.868,-0.301 0.604,-0.15 1.66,-0.303 4.529,-3.622 0.453,-0.302 1.058,-0.301 2.867,0.151 0.605,-0.151 2.566,-1.36 1.963,-1.057 1.359,-0.752 3.924,-1.51 3.623,0.601 1.662,1.059 2.566,0.903 4.078,1.361 1.509,0.755 1.811,1.508 0.905,0.454 1.36,0 2.112,-0.754 1.059,0.149 0.302,0.151 1.659,-0.3 0.604,0 0.604,0.149 1.51,0.453 1.207,0.152 1.812,-0.152 1.36,0.152 1.51,0.603 1.056,-0.906 9.058,-7.093 0.452,0.755 c 1.421,2.335 2.732,4.731 4.38,6.942 l 1.51,2.114 -0.453,0.301 1.208,1.511 0.754,1.358 0.151,0.302 0.453,0.604 0,0.3 0.151,0.153 0.301,0.148 0.152,-0.301 0.15,0.153 0.153,0.148 -0.303,0.606 0.604,0.755 0.603,0.906 0.303,0.452 1.358,2.264 1.511,2.414 2.717,4.077 0.754,1.208 1.51,2.263 1.057,1.961 0.303,0.605 0.3,0 0.454,-0.302 4.076,6.491 6.944,10.718 0.302,0.452 4.68,7.245 2.414,3.774 5.135,8.001 5.131,8.149 3.322,5.133 3.624,5.887 4.604,7.005 c -13.217,3.067 -36.483,6.011 -57.495,1.041"
       sodipodi:nodetypes="cccccccccccccccccccccccccccccccccccccccccccccccccccccccccccccccccccccccccccccccccccc" /></g></svg>